<svg xmlns="http://www.w3.org/2000/svg" xmlns:xlink="http://www.w3.org/1999/xlink" width="100" zoomAndPan="magnify" viewBox="0 0 75 74.999997" height="100" preserveAspectRatio="xMidYMid meet" version="1.0"><defs><clipPath id="91cd38557b"><path d="M 9.578125 9.578125 L 65.078125 9.578125 L 65.078125 65.078125 L 9.578125 65.078125 Z M 9.578125 9.578125 " clip-rule="nonzero"/></clipPath></defs><g clip-path="url(#91cd38557b)"><path fill="#ffffff" d="M 25.835938 9.773438 C 22.882812 9.914062 20.867188 10.382812 19.105469 11.078125 C 17.28125 11.789062 15.734375 12.742188 14.195312 14.285156 C 12.65625 15.828125 11.710938 17.375 11.003906 19.203125 C 10.320312 20.96875 9.855469 22.988281 9.726562 25.941406 C 9.597656 28.898438 9.566406 29.847656 9.582031 37.382812 C 9.597656 44.917969 9.628906 45.863281 9.773438 48.824219 C 9.914062 51.773438 10.382812 53.789062 11.078125 55.554688 C 11.789062 57.378906 12.742188 58.925781 14.285156 60.460938 C 15.832031 62 17.375 62.945312 19.207031 63.652344 C 20.972656 64.335938 22.992188 64.800781 25.945312 64.929688 C 28.898438 65.058594 29.851562 65.089844 37.382812 65.074219 C 44.917969 65.0625 45.867188 65.027344 48.824219 64.886719 C 51.785156 64.746094 53.789062 64.273438 55.554688 63.585938 C 57.378906 62.871094 58.925781 61.917969 60.460938 60.375 C 62 58.828125 62.949219 57.28125 63.652344 55.453125 C 64.335938 53.6875 64.800781 51.667969 64.929688 48.71875 C 65.058594 45.757812 65.089844 44.808594 65.074219 37.277344 C 65.058594 29.742188 65.027344 28.796875 64.886719 25.835938 C 64.746094 22.878906 64.277344 20.867188 63.582031 19.105469 C 62.871094 17.28125 61.917969 15.734375 60.375 14.195312 C 58.832031 12.65625 57.28125 11.707031 55.453125 11.003906 C 53.6875 10.320312 51.671875 9.855469 48.714844 9.726562 C 45.761719 9.601562 44.8125 9.566406 37.277344 9.582031 C 29.738281 9.597656 28.796875 9.628906 25.835938 9.773438 M 26.160156 59.9375 C 23.453125 59.820312 21.984375 59.371094 21.007812 58.996094 C 19.710938 58.496094 18.785156 57.890625 17.8125 56.925781 C 16.835938 55.960938 16.234375 55.03125 15.730469 53.738281 C 15.347656 52.757812 14.890625 51.292969 14.765625 48.585938 C 14.628906 45.664062 14.597656 44.785156 14.582031 37.375 C 14.566406 29.964844 14.59375 29.089844 14.722656 26.164062 C 14.839844 23.460938 15.289062 21.992188 15.667969 21.011719 C 16.164062 19.714844 16.765625 18.792969 17.734375 17.816406 C 18.703125 16.839844 19.628906 16.242188 20.921875 15.734375 C 21.902344 15.351562 23.367188 14.898438 26.074219 14.769531 C 29 14.632812 29.875 14.605469 37.285156 14.585938 C 44.691406 14.570312 45.570312 14.597656 48.5 14.726562 C 51.203125 14.847656 52.671875 15.292969 53.648438 15.671875 C 54.949219 16.171875 55.871094 16.769531 56.84375 17.742188 C 57.820312 18.710938 58.421875 19.632812 58.929688 20.929688 C 59.308594 21.90625 59.765625 23.371094 59.890625 26.078125 C 60.03125 29.003906 60.0625 29.882812 60.074219 37.289062 C 60.089844 44.695312 60.0625 45.574219 59.933594 48.5 C 59.816406 51.207031 59.367188 52.675781 58.992188 53.65625 C 58.492188 54.949219 57.890625 55.875 56.921875 56.851562 C 55.953125 57.824219 55.027344 58.425781 53.734375 58.929688 C 52.757812 59.3125 51.289062 59.765625 48.585938 59.894531 C 45.660156 60.035156 44.78125 60.0625 37.371094 60.078125 C 29.960938 60.09375 29.085938 60.066406 26.160156 59.9375 M 48.78125 22.496094 C 48.78125 22.9375 48.867188 23.363281 49.039062 23.773438 C 49.207031 24.179688 49.449219 24.539062 49.761719 24.851562 C 50.074219 25.164062 50.433594 25.402344 50.84375 25.570312 C 51.25 25.738281 51.675781 25.824219 52.117188 25.820312 C 52.558594 25.820312 52.984375 25.734375 53.390625 25.566406 C 53.800781 25.394531 54.160156 25.15625 54.472656 24.84375 C 54.78125 24.53125 55.023438 24.167969 55.191406 23.761719 C 55.359375 23.351562 55.441406 22.925781 55.441406 22.484375 C 55.441406 22.042969 55.355469 21.621094 55.1875 21.210938 C 55.015625 20.804688 54.773438 20.445312 54.460938 20.132812 C 54.148438 19.820312 53.789062 19.582031 53.378906 19.414062 C 52.972656 19.246094 52.546875 19.160156 52.105469 19.160156 C 51.664062 19.164062 51.238281 19.25 50.832031 19.417969 C 50.425781 19.585938 50.066406 19.828125 49.753906 20.140625 C 49.441406 20.453125 49.203125 20.816406 49.035156 21.222656 C 48.867188 21.632812 48.78125 22.054688 48.78125 22.496094 M 23.082031 37.355469 C 23.097656 45.226562 29.488281 51.589844 37.355469 51.578125 C 45.222656 51.5625 51.59375 45.171875 51.578125 37.300781 C 51.5625 29.429688 45.171875 23.0625 37.300781 23.078125 C 29.433594 23.09375 23.066406 29.488281 23.082031 37.355469 M 28.078125 37.347656 C 28.078125 36.738281 28.136719 36.136719 28.253906 35.542969 C 28.371094 34.945312 28.542969 34.367188 28.777344 33.804688 C 29.007812 33.242188 29.289062 32.710938 29.628906 32.203125 C 29.964844 31.699219 30.347656 31.230469 30.773438 30.800781 C 31.203125 30.371094 31.671875 29.984375 32.175781 29.648438 C 32.679688 29.308594 33.210938 29.023438 33.773438 28.789062 C 34.332031 28.554688 34.910156 28.378906 35.507812 28.257812 C 36.101562 28.140625 36.703125 28.078125 37.308594 28.078125 C 37.917969 28.078125 38.519531 28.136719 39.117188 28.253906 C 39.710938 28.371094 40.289062 28.542969 40.851562 28.773438 C 41.414062 29.007812 41.945312 29.289062 42.453125 29.625 C 42.957031 29.964844 43.425781 30.347656 43.855469 30.773438 C 44.285156 31.203125 44.671875 31.667969 45.011719 32.175781 C 45.347656 32.679688 45.632812 33.210938 45.867188 33.769531 C 46.101562 34.332031 46.277344 34.910156 46.398438 35.503906 C 46.515625 36.101562 46.578125 36.703125 46.578125 37.308594 C 46.582031 37.917969 46.523438 38.519531 46.40625 39.113281 C 46.289062 39.710938 46.113281 40.289062 45.882812 40.851562 C 45.652344 41.414062 45.367188 41.945312 45.03125 42.453125 C 44.695312 42.957031 44.3125 43.425781 43.882812 43.855469 C 43.453125 44.285156 42.988281 44.671875 42.484375 45.007812 C 41.980469 45.347656 41.445312 45.632812 40.886719 45.867188 C 40.324219 46.101562 39.746094 46.277344 39.152344 46.398438 C 38.554688 46.515625 37.953125 46.578125 37.347656 46.578125 C 36.738281 46.578125 36.136719 46.523438 35.542969 46.40625 C 34.945312 46.289062 34.367188 46.113281 33.804688 45.882812 C 33.242188 45.648438 32.710938 45.367188 32.203125 45.03125 C 31.699219 44.695312 31.230469 44.3125 30.800781 43.882812 C 30.371094 43.453125 29.984375 42.988281 29.648438 42.484375 C 29.308594 41.976562 29.023438 41.445312 28.789062 40.886719 C 28.554688 40.324219 28.378906 39.746094 28.257812 39.152344 C 28.140625 38.554688 28.078125 37.953125 28.078125 37.347656 " fill-opacity="1" fill-rule="nonzero"/></g></svg>