<svg xmlns="http://www.w3.org/2000/svg" xmlns:xlink="http://www.w3.org/1999/xlink" width="100" zoomAndPan="magnify" viewBox="0 0 75 74.999997" height="100" preserveAspectRatio="xMidYMid meet" version="1.0"><defs><clipPath id="0057d88299"><path d="M 1.261719 1.261719 L 74.011719 1.261719 L 74.011719 74.011719 L 1.261719 74.011719 Z M 1.261719 1.261719 " clip-rule="nonzero"/></clipPath></defs><g clip-path="url(#0057d88299)"><path fill="#ffffff" d="M 22.574219 1.519531 C 18.703125 1.699219 16.058594 2.316406 13.75 3.226562 C 11.359375 4.15625 9.332031 5.410156 7.316406 7.433594 C 5.296875 9.457031 4.054688 11.484375 3.128906 13.878906 C 2.234375 16.195312 1.628906 18.839844 1.457031 22.710938 C 1.285156 26.585938 1.25 27.828125 1.265625 37.707031 C 1.285156 47.585938 1.332031 48.824219 1.519531 52.703125 C 1.703125 56.574219 2.316406 59.214844 3.226562 61.527344 C 4.160156 63.917969 5.410156 65.945312 7.433594 67.960938 C 9.457031 69.980469 11.484375 71.21875 13.886719 72.144531 C 16.199219 73.039062 18.84375 73.648438 22.714844 73.820312 C 26.589844 73.988281 27.835938 74.027344 37.710938 74.007812 C 47.585938 73.988281 48.828125 73.945312 52.707031 73.761719 C 56.585938 73.578125 59.214844 72.957031 61.527344 72.054688 C 63.917969 71.121094 65.945312 69.871094 67.960938 67.847656 C 69.976562 65.820312 71.21875 63.792969 72.144531 61.394531 C 73.039062 59.082031 73.648438 56.4375 73.816406 52.566406 C 73.988281 48.683594 74.027344 47.445312 74.007812 37.566406 C 73.988281 27.691406 73.945312 26.453125 73.761719 22.574219 C 73.578125 18.695312 72.960938 16.0625 72.054688 13.75 C 71.117188 11.355469 69.871094 9.332031 67.847656 7.3125 C 65.824219 5.296875 63.792969 4.054688 61.394531 3.132812 C 59.082031 2.238281 56.4375 1.625 52.566406 1.457031 C 48.691406 1.292969 47.445312 1.25 37.566406 1.265625 C 27.691406 1.285156 26.453125 1.328125 22.574219 1.519531 M 22.996094 67.273438 C 19.453125 67.121094 17.527344 66.53125 16.242188 66.039062 C 14.542969 65.382812 13.332031 64.59375 12.054688 63.324219 C 10.773438 62.058594 9.988281 60.84375 9.324219 59.148438 C 8.828125 57.863281 8.226562 55.941406 8.0625 52.394531 C 7.878906 48.5625 7.84375 47.410156 7.820312 37.699219 C 7.800781 27.988281 7.835938 26.839844 8.003906 23.003906 C 8.15625 19.460938 8.75 17.53125 9.242188 16.25 C 9.898438 14.546875 10.6875 13.339844 11.957031 12.0625 C 13.226562 10.785156 14.4375 9.996094 16.132812 9.332031 C 17.414062 8.832031 19.339844 8.238281 22.882812 8.066406 C 26.71875 7.886719 27.871094 7.851562 37.578125 7.828125 C 47.289062 7.808594 48.441406 7.84375 52.277344 8.011719 C 55.824219 8.167969 57.75 8.753906 59.03125 9.25 C 60.734375 9.90625 61.941406 10.691406 63.21875 11.960938 C 64.5 13.234375 65.285156 14.441406 65.949219 16.140625 C 66.453125 17.421875 67.046875 19.34375 67.214844 22.890625 C 67.398438 26.726562 67.4375 27.875 67.457031 37.585938 C 67.472656 47.296875 67.4375 48.449219 67.269531 52.28125 C 67.117188 55.828125 66.527344 57.753906 66.035156 59.039062 C 65.378906 60.738281 64.589844 61.949219 63.320312 63.226562 C 62.050781 64.503906 60.839844 65.292969 59.140625 65.953125 C 57.859375 66.453125 55.933594 67.050781 52.394531 67.21875 C 48.558594 67.398438 47.40625 67.4375 37.695312 67.460938 C 27.980469 67.480469 26.835938 67.441406 23 67.273438 M 52.652344 18.195312 C 52.652344 18.484375 52.679688 18.769531 52.738281 19.046875 C 52.792969 19.328125 52.875 19.601562 52.988281 19.867188 C 53.097656 20.132812 53.230469 20.382812 53.390625 20.621094 C 53.550781 20.859375 53.730469 21.078125 53.933594 21.28125 C 54.136719 21.484375 54.359375 21.664062 54.597656 21.824219 C 54.835938 21.980469 55.089844 22.117188 55.351562 22.226562 C 55.617188 22.335938 55.890625 22.417969 56.171875 22.472656 C 56.453125 22.527344 56.738281 22.554688 57.023438 22.554688 C 57.3125 22.554688 57.59375 22.527344 57.875 22.46875 C 58.15625 22.414062 58.429688 22.328125 58.695312 22.21875 C 58.957031 22.109375 59.210938 21.972656 59.449219 21.816406 C 59.6875 21.65625 59.90625 21.472656 60.109375 21.269531 C 60.3125 21.066406 60.492188 20.847656 60.652344 20.609375 C 60.808594 20.371094 60.941406 20.117188 61.050781 19.851562 C 61.160156 19.585938 61.242188 19.316406 61.300781 19.035156 C 61.355469 18.753906 61.382812 18.46875 61.382812 18.183594 C 61.382812 17.894531 61.351562 17.609375 61.296875 17.332031 C 61.238281 17.050781 61.15625 16.777344 61.046875 16.511719 C 60.9375 16.246094 60.800781 15.996094 60.640625 15.757812 C 60.480469 15.519531 60.300781 15.300781 60.097656 15.097656 C 59.894531 14.894531 59.671875 14.714844 59.433594 14.554688 C 59.195312 14.398438 58.945312 14.261719 58.679688 14.152344 C 58.414062 14.042969 58.140625 13.960938 57.859375 13.90625 C 57.578125 13.851562 57.292969 13.824219 57.007812 13.824219 C 56.722656 13.824219 56.4375 13.855469 56.15625 13.910156 C 55.875 13.96875 55.601562 14.050781 55.339844 14.160156 C 55.074219 14.269531 54.824219 14.40625 54.585938 14.566406 C 54.347656 14.726562 54.125 14.90625 53.925781 15.109375 C 53.722656 15.3125 53.542969 15.53125 53.382812 15.769531 C 53.222656 16.011719 53.089844 16.261719 52.980469 16.527344 C 52.871094 16.792969 52.789062 17.066406 52.734375 17.34375 C 52.679688 17.625 52.652344 17.910156 52.652344 18.195312 M 18.960938 37.675781 C 18.980469 47.992188 27.359375 56.335938 37.671875 56.316406 C 47.988281 56.292969 56.335938 47.917969 56.316406 37.601562 C 56.296875 27.285156 47.917969 18.941406 37.601562 18.960938 C 27.285156 18.980469 18.941406 27.359375 18.960938 37.675781 M 25.511719 37.660156 C 25.511719 36.867188 25.585938 36.078125 25.742188 35.296875 C 25.894531 34.515625 26.125 33.753906 26.425781 33.019531 C 26.730469 32.285156 27.101562 31.582031 27.542969 30.921875 C 27.984375 30.257812 28.484375 29.644531 29.046875 29.082031 C 29.609375 28.515625 30.21875 28.011719 30.882812 27.570312 C 31.542969 27.125 32.242188 26.75 32.976562 26.445312 C 33.710938 26.136719 34.46875 25.90625 35.25 25.75 C 36.03125 25.59375 36.816406 25.515625 37.613281 25.511719 C 38.410156 25.511719 39.199219 25.585938 39.980469 25.742188 C 40.761719 25.894531 41.519531 26.121094 42.257812 26.425781 C 42.992188 26.730469 43.691406 27.101562 44.355469 27.542969 C 45.015625 27.984375 45.632812 28.484375 46.195312 29.046875 C 46.757812 29.609375 47.261719 30.21875 47.707031 30.882812 C 48.148438 31.542969 48.523438 32.238281 48.832031 32.976562 C 49.136719 33.710938 49.367188 34.46875 49.527344 35.25 C 49.683594 36.027344 49.761719 36.816406 49.761719 37.613281 C 49.765625 38.410156 49.6875 39.199219 49.535156 39.980469 C 49.382812 40.761719 49.152344 41.519531 48.847656 42.253906 C 48.546875 42.992188 48.175781 43.691406 47.734375 44.355469 C 47.292969 45.015625 46.789062 45.628906 46.230469 46.195312 C 45.667969 46.757812 45.054688 47.261719 44.394531 47.707031 C 43.734375 48.148438 43.035156 48.523438 42.300781 48.832031 C 41.566406 49.136719 40.808594 49.367188 40.027344 49.523438 C 39.246094 49.683594 38.457031 49.761719 37.664062 49.761719 C 36.867188 49.765625 36.078125 49.6875 35.296875 49.535156 C 34.515625 49.382812 33.757812 49.152344 33.019531 48.847656 C 32.285156 48.546875 31.585938 48.175781 30.921875 47.734375 C 30.257812 47.292969 29.644531 46.789062 29.082031 46.230469 C 28.515625 45.667969 28.011719 45.054688 27.570312 44.394531 C 27.125 43.734375 26.75 43.035156 26.445312 42.300781 C 26.136719 41.566406 25.90625 40.808594 25.75 40.027344 C 25.59375 39.246094 25.515625 38.457031 25.511719 37.660156 " fill-opacity="1" fill-rule="nonzero"/></g></svg>