<svg xmlns="http://www.w3.org/2000/svg" xmlns:xlink="http://www.w3.org/1999/xlink" width="100" zoomAndPan="magnify" viewBox="0 0 75 74.999997" height="100" preserveAspectRatio="xMidYMid meet" version="1.0"><defs><clipPath id="87fba10d9e"><path d="M 15.054688 12.398438 L 59.9375 12.398438 L 59.9375 62.648438 L 15.054688 62.648438 Z M 15.054688 12.398438 " clip-rule="nonzero"/></clipPath></defs><g clip-path="url(#87fba10d9e)"><path fill="#5ce1e6" d="M 58.230469 42.105469 C 58.152344 42.144531 58.113281 42.144531 58.035156 42.183594 L 57.835938 42.261719 C 57.484375 42.378906 57.171875 42.496094 56.976562 42.691406 C 56.859375 42.808594 57.210938 43.632812 57.367188 43.984375 C 57.757812 44.886719 58.386719 46.21875 57.289062 47.082031 C 57.09375 47.238281 56.820312 47.316406 56.542969 47.355469 C 56.742188 47.628906 56.898438 47.902344 56.898438 48.257812 C 56.859375 49.199219 55.878906 49.394531 55.445312 49.511719 C 55.40625 49.511719 55.367188 49.511719 55.328125 49.550781 C 55.328125 49.863281 55.367188 50.332031 55.445312 50.726562 C 55.566406 51.746094 55.722656 53 55.40625 54.136719 C 55.210938 54.839844 54.742188 55.46875 54.113281 55.9375 C 53.371094 56.488281 52.429688 56.722656 51.449219 56.644531 C 48.078125 56.332031 44.511719 55.195312 41.222656 53.273438 C 40.984375 56.488281 41.417969 58.917969 43.492188 61.308594 C 43.691406 61.542969 43.730469 61.855469 43.613281 62.128906 C 43.492188 62.40625 43.21875 62.601562 42.90625 62.601562 L 22.253906 62.601562 C 21.898438 62.601562 21.585938 62.367188 21.507812 62.050781 C 21.429688 61.738281 21.546875 61.347656 21.820312 61.191406 C 23.152344 60.328125 24.015625 58.996094 24.328125 57.230469 C 25.230469 52.371094 22.097656 45.789062 19.746094 42.574219 C 19.273438 41.945312 18.921875 41.320312 18.570312 40.730469 C 18.292969 40.300781 18.019531 39.832031 17.707031 39.359375 C 15.863281 36.617188 15.003906 33.207031 15.277344 29.71875 C 15.785156 23.097656 20.566406 16.667969 26.917969 14.082031 C 27.386719 13.886719 27.894531 13.691406 28.40625 13.535156 C 30.679688 12.75 33.226562 12.398438 35.890625 12.398438 C 35.890625 12.398438 35.890625 12.398438 35.929688 12.398438 C 37.300781 12.398438 38.671875 12.515625 40.007812 12.75 C 43.0625 13.257812 50.625 15.335938 54.46875 23.605469 C 55.644531 26.113281 55.917969 28.660156 55.40625 31.523438 C 55.210938 32.503906 55.917969 33.71875 56.582031 34.855469 C 56.699219 35.011719 56.78125 35.207031 56.898438 35.363281 C 57.289062 36.070312 57.796875 36.695312 58.269531 37.285156 C 58.855469 38.027344 59.40625 38.734375 59.757812 39.554688 C 59.992188 40.105469 59.953125 40.730469 59.640625 41.203125 C 59.210938 41.789062 58.621094 41.988281 58.230469 42.105469 Z M 58.269531 40.144531 C 57.996094 39.515625 57.523438 38.929688 56.976562 38.222656 C 56.503906 37.597656 55.957031 36.929688 55.484375 36.109375 C 55.40625 35.949219 55.289062 35.753906 55.210938 35.597656 C 54.429688 34.265625 53.527344 32.738281 53.839844 31.167969 C 54.308594 28.621094 54.074219 26.46875 53.015625 24.195312 C 49.488281 16.628906 42.554688 14.75 39.730469 14.277344 C 38.476562 14.082031 37.183594 13.964844 35.890625 13.964844 C 35.890625 13.964844 35.890625 13.964844 35.851562 13.964844 C 33.34375 13.964844 30.992188 14.316406 28.796875 14.984375 C 28.328125 15.140625 27.855469 15.296875 27.425781 15.492188 C 21.625 17.84375 17.234375 23.761719 16.765625 29.796875 C 16.53125 32.933594 17.273438 35.988281 18.921875 38.421875 C 19.273438 38.929688 19.546875 39.398438 19.824219 39.832031 C 20.175781 40.417969 20.527344 40.96875 20.960938 41.554688 C 23.46875 45.003906 26.796875 52.097656 25.820312 57.425781 C 25.542969 58.800781 25.035156 60.015625 24.210938 60.953125 L 41.300781 60.953125 C 39.535156 58.25 39.378906 55.351562 39.769531 51.785156 C 39.808594 51.351562 40.203125 51.039062 40.632812 51.078125 C 40.789062 51.078125 40.945312 51.15625 41.0625 51.234375 C 41.0625 51.234375 41.0625 51.234375 41.101562 51.234375 L 41.574219 51.507812 C 44.828125 53.46875 48.3125 54.644531 51.605469 54.917969 C 52.234375 54.957031 52.78125 54.839844 53.214844 54.527344 C 53.566406 54.253906 53.839844 53.898438 53.917969 53.546875 C 54.152344 52.722656 54.035156 51.667969 53.917969 50.765625 C 53.800781 49.863281 53.722656 49.117188 53.957031 48.570312 C 54.152344 48.0625 54.664062 47.941406 55.054688 47.863281 C 55.054688 47.863281 55.054688 47.863281 55.015625 47.824219 C 54.625 47.433594 54.191406 47.042969 54.308594 46.414062 C 54.46875 45.710938 55.210938 45.671875 55.800781 45.671875 C 55.957031 45.671875 56.230469 45.671875 56.386719 45.632812 C 56.386719 45.394531 56.152344 44.808594 55.996094 44.457031 C 55.566406 43.515625 55.015625 42.261719 55.957031 41.359375 C 56.386719 40.96875 56.898438 40.769531 57.367188 40.613281 L 57.523438 40.691406 C 57.601562 40.652344 57.679688 40.652344 57.757812 40.613281 C 57.996094 40.535156 58.230469 40.457031 58.308594 40.339844 C 58.308594 40.339844 58.308594 40.261719 58.269531 40.144531 Z M 58.269531 40.144531 " fill-opacity="1" fill-rule="nonzero"/></g><path fill="#5ce1e6" d="M 35.578125 44.535156 C 36.007812 44.535156 36.359375 44.886719 36.359375 45.316406 L 36.359375 46.886719 C 36.359375 47.316406 36.007812 47.667969 35.578125 47.667969 C 35.144531 47.667969 34.792969 47.316406 34.792969 46.886719 L 34.792969 45.316406 C 34.792969 44.886719 35.144531 44.535156 35.578125 44.535156 Z M 35.578125 44.535156 " fill-opacity="1" fill-rule="nonzero"/><path fill="#5ce1e6" d="M 35.96875 37.910156 C 35.929688 37.480469 36.242188 37.085938 36.675781 37.046875 C 37.027344 37.007812 37.417969 36.96875 37.773438 36.890625 C 38.203125 36.8125 38.59375 37.085938 38.671875 37.519531 C 38.75 37.949219 38.476562 38.339844 38.046875 38.421875 C 37.65625 38.5 37.222656 38.578125 36.792969 38.617188 C 36.753906 38.617188 36.753906 38.617188 36.714844 38.617188 C 36.320312 38.617188 36.007812 38.300781 35.96875 37.910156 Z M 35.96875 37.910156 " fill-opacity="1" fill-rule="nonzero"/><path fill="#5ce1e6" d="M 40.242188 36.148438 C 40.59375 36.03125 40.90625 35.871094 41.261719 35.675781 C 41.652344 35.480469 42.121094 35.636719 42.316406 36.03125 C 42.515625 36.421875 42.355469 36.890625 41.964844 37.085938 C 41.574219 37.285156 41.222656 37.441406 40.828125 37.597656 C 40.75 37.636719 40.632812 37.636719 40.515625 37.636719 C 40.203125 37.636719 39.925781 37.441406 39.769531 37.164062 C 39.613281 36.734375 39.808594 36.304688 40.242188 36.148438 Z M 40.242188 36.148438 " fill-opacity="1" fill-rule="nonzero"/><path fill="#5ce1e6" d="M 47.058594 33.363281 C 46.824219 33.363281 46.628906 33.285156 46.472656 33.089844 C 46.199219 32.777344 46.238281 32.304688 46.511719 32.03125 C 46.394531 31.914062 46.316406 31.796875 46.160156 31.679688 L 46.121094 31.640625 C 45.804688 31.328125 45.804688 30.816406 46.121094 30.542969 C 46.433594 30.230469 46.941406 30.230469 47.21875 30.542969 L 47.257812 30.582031 C 47.414062 30.738281 47.53125 30.894531 47.648438 30.972656 C 47.921875 31.25 48.078125 31.640625 48.078125 31.992188 C 48.078125 32.425781 47.882812 32.855469 47.53125 33.128906 C 47.414062 33.285156 47.257812 33.363281 47.058594 33.363281 Z M 47.058594 33.363281 " fill-opacity="1" fill-rule="nonzero"/><path fill="#5ce1e6" d="M 45.296875 29.71875 C 45.140625 29.875 44.945312 29.992188 44.707031 29.992188 C 44.511719 29.992188 44.316406 29.914062 44.199219 29.796875 C 43.925781 29.523438 43.613281 29.289062 43.335938 29.054688 C 42.984375 28.777344 42.945312 28.269531 43.21875 27.957031 C 43.492188 27.601562 44.003906 27.5625 44.316406 27.839844 C 44.628906 28.074219 44.945312 28.347656 45.21875 28.621094 C 45.570312 28.898438 45.609375 29.40625 45.296875 29.71875 Z M 45.296875 29.71875 " fill-opacity="1" fill-rule="nonzero"/><path fill="#5ce1e6" d="M 41.613281 27.601562 C 41.457031 27.601562 41.339844 27.5625 41.222656 27.484375 C 40.90625 27.289062 40.554688 27.09375 40.242188 26.9375 C 39.847656 26.742188 39.691406 26.269531 39.886719 25.878906 C 40.085938 25.488281 40.554688 25.332031 40.945312 25.527344 C 41.300781 25.722656 41.652344 25.917969 42.003906 26.152344 C 42.355469 26.386719 42.476562 26.859375 42.277344 27.25 C 42.121094 27.484375 41.886719 27.601562 41.613281 27.601562 Z M 41.613281 27.601562 " fill-opacity="1" fill-rule="nonzero"/><path fill="#5ce1e6" d="M 27.699219 29.132812 C 27.386719 29.367188 27.113281 29.640625 26.835938 29.875 C 26.679688 29.992188 26.523438 30.074219 26.328125 30.074219 C 26.09375 30.074219 25.898438 29.992188 25.742188 29.796875 C 25.464844 29.484375 25.503906 28.976562 25.820312 28.699219 C 26.09375 28.464844 26.40625 28.191406 26.757812 27.917969 C 27.113281 27.644531 27.582031 27.683594 27.855469 28.035156 C 28.09375 28.347656 28.054688 28.859375 27.699219 29.132812 Z M 27.699219 29.132812 " fill-opacity="1" fill-rule="nonzero"/><path fill="#5ce1e6" d="M 34.285156 25.839844 C 33.929688 25.878906 33.578125 25.996094 33.226562 26.074219 C 33.148438 26.113281 33.070312 26.113281 33.03125 26.113281 C 32.675781 26.113281 32.363281 25.878906 32.285156 25.527344 C 32.167969 25.09375 32.402344 24.664062 32.835938 24.546875 C 33.226562 24.429688 33.65625 24.351562 34.050781 24.273438 C 34.480469 24.195312 34.871094 24.507812 34.949219 24.898438 C 34.988281 25.371094 34.714844 25.761719 34.285156 25.839844 Z M 34.285156 25.839844 " fill-opacity="1" fill-rule="nonzero"/><path fill="#5ce1e6" d="M 30.835938 27.054688 C 30.523438 27.210938 30.167969 27.40625 29.855469 27.601562 C 29.738281 27.683594 29.582031 27.722656 29.464844 27.722656 C 29.1875 27.722656 28.953125 27.601562 28.796875 27.328125 C 28.5625 26.976562 28.679688 26.46875 29.070312 26.230469 C 29.425781 25.996094 29.777344 25.800781 30.128906 25.644531 C 30.523438 25.449219 30.992188 25.605469 31.1875 25.957031 C 31.34375 26.347656 31.226562 26.859375 30.835938 27.054688 Z M 30.835938 27.054688 " fill-opacity="1" fill-rule="nonzero"/><path fill="#5ce1e6" d="M 38.046875 26.035156 C 37.96875 26.035156 37.929688 26.035156 37.851562 25.996094 C 37.496094 25.917969 37.144531 25.839844 36.792969 25.800781 C 36.359375 25.761719 36.046875 25.332031 36.125 24.9375 C 36.164062 24.507812 36.597656 24.195312 36.988281 24.273438 C 37.378906 24.3125 37.8125 24.390625 38.242188 24.507812 C 38.671875 24.625 38.910156 25.054688 38.789062 25.449219 C 38.710938 25.800781 38.398438 26.035156 38.046875 26.035156 Z M 38.046875 26.035156 " fill-opacity="1" fill-rule="nonzero"/><path fill="#5ce1e6" d="M 29.582031 35.402344 C 29.933594 35.597656 30.246094 35.753906 30.601562 35.910156 C 30.992188 36.109375 31.1875 36.539062 30.992188 36.929688 C 30.875 37.207031 30.5625 37.402344 30.285156 37.402344 C 30.167969 37.402344 30.050781 37.363281 29.972656 37.324219 C 29.621094 37.164062 29.226562 36.96875 28.875 36.773438 C 28.484375 36.578125 28.367188 36.109375 28.5625 35.714844 C 28.71875 35.324219 29.1875 35.167969 29.582031 35.402344 Z M 29.582031 35.402344 " fill-opacity="1" fill-rule="nonzero"/><path fill="#5ce1e6" d="M 43.53125 34.34375 C 43.847656 34.148438 44.160156 33.914062 44.472656 33.679688 C 44.828125 33.402344 45.296875 33.480469 45.570312 33.835938 C 45.84375 34.1875 45.765625 34.65625 45.414062 34.933594 C 45.101562 35.167969 44.746094 35.402344 44.433594 35.636719 C 44.316406 35.714844 44.160156 35.753906 44.003906 35.753906 C 43.769531 35.753906 43.492188 35.636719 43.335938 35.402344 C 43.0625 35.050781 43.179688 34.578125 43.53125 34.34375 Z M 43.53125 34.34375 " fill-opacity="1" fill-rule="nonzero"/><path fill="#5ce1e6" d="M 25.464844 34.578125 C 25.113281 34.304688 25.074219 33.835938 25.308594 33.480469 C 25.582031 33.128906 26.054688 33.089844 26.40625 33.324219 C 26.679688 33.558594 26.996094 33.757812 27.347656 33.992188 C 27.699219 34.226562 27.777344 34.734375 27.542969 35.089844 C 27.386719 35.324219 27.152344 35.441406 26.917969 35.441406 C 26.757812 35.441406 26.601562 35.402344 26.484375 35.285156 C 26.09375 35.050781 25.742188 34.773438 25.464844 34.578125 Z M 25.464844 34.578125 " fill-opacity="1" fill-rule="nonzero"/><path fill="#5ce1e6" d="M 33.03125 36.734375 C 33.382812 36.8125 33.773438 36.890625 34.128906 36.96875 C 34.558594 37.046875 34.832031 37.441406 34.792969 37.871094 C 34.753906 38.261719 34.402344 38.539062 34.007812 38.539062 C 33.96875 38.539062 33.929688 38.539062 33.890625 38.539062 C 33.5 38.460938 33.070312 38.378906 32.675781 38.300781 C 32.246094 38.183594 32.011719 37.753906 32.089844 37.363281 C 32.207031 36.890625 32.636719 36.65625 33.03125 36.734375 Z M 33.03125 36.734375 " fill-opacity="1" fill-rule="nonzero"/><path fill="#5ce1e6" d="M 24.878906 30.621094 C 25.191406 30.933594 25.152344 31.445312 24.839844 31.71875 C 24.761719 31.796875 24.683594 31.875 24.605469 31.953125 C 24.722656 32.34375 24.527344 32.738281 24.132812 32.894531 C 24.054688 32.933594 23.9375 32.933594 23.859375 32.933594 C 23.546875 32.933594 23.230469 32.738281 23.113281 32.425781 C 23.035156 32.265625 22.996094 32.070312 22.996094 31.914062 C 22.996094 31.523438 23.152344 31.128906 23.46875 30.855469 C 23.546875 30.777344 23.625 30.699219 23.742188 30.621094 C 24.054688 30.308594 24.566406 30.308594 24.878906 30.621094 Z M 24.878906 30.621094 " fill-opacity="1" fill-rule="nonzero"/><path fill="#5ce1e6" d="M 35.578125 36.304688 C 32.992188 36.304688 30.875 34.1875 30.875 31.601562 C 30.875 29.015625 32.992188 26.898438 35.578125 26.898438 C 38.164062 26.898438 40.28125 29.015625 40.28125 31.601562 C 40.28125 34.1875 38.164062 36.304688 35.578125 36.304688 Z M 35.578125 28.464844 C 33.851562 28.464844 32.441406 29.875 32.441406 31.601562 C 32.441406 33.324219 33.851562 34.734375 35.578125 34.734375 C 37.300781 34.734375 38.710938 33.324219 38.710938 31.601562 C 38.710938 29.875 37.300781 28.464844 35.578125 28.464844 Z M 35.578125 28.464844 " fill-opacity="1" fill-rule="nonzero"/><path fill="#5ce1e6" d="M 35.578125 33.167969 C 34.714844 33.167969 34.007812 32.464844 34.007812 31.601562 C 34.007812 30.738281 34.714844 30.035156 35.578125 30.035156 C 36.441406 30.035156 37.144531 30.738281 37.144531 31.601562 C 37.144531 32.464844 36.441406 33.167969 35.578125 33.167969 Z M 35.183594 30.425781 C 34.753906 30.425781 34.402344 30.777344 34.402344 31.207031 C 34.402344 31.640625 34.753906 31.992188 35.183594 31.992188 C 35.617188 31.992188 35.96875 31.640625 35.96875 31.207031 C 35.96875 30.777344 35.617188 30.425781 35.183594 30.425781 Z M 35.183594 30.425781 " fill-opacity="1" fill-rule="nonzero"/><path fill="#5ce1e6" d="M 35.578125 18.667969 C 35.144531 18.667969 34.792969 18.316406 34.792969 17.882812 L 34.792969 16.316406 C 34.792969 15.886719 35.144531 15.53125 35.578125 15.53125 C 36.007812 15.53125 36.359375 15.886719 36.359375 16.316406 L 36.359375 17.882812 C 36.359375 18.316406 36.007812 18.667969 35.578125 18.667969 Z M 35.578125 18.667969 " fill-opacity="1" fill-rule="nonzero"/><path fill="#5ce1e6" d="M 25.898438 22.703125 C 25.703125 22.703125 25.503906 22.625 25.347656 22.46875 L 24.25 21.371094 C 23.9375 21.058594 23.9375 20.589844 24.25 20.273438 C 24.566406 19.960938 25.035156 19.960938 25.347656 20.273438 L 26.445312 21.371094 C 26.757812 21.6875 26.757812 22.15625 26.445312 22.46875 C 26.289062 22.625 26.09375 22.703125 25.898438 22.703125 Z M 25.898438 22.703125 " fill-opacity="1" fill-rule="nonzero"/><path fill="#5ce1e6" d="M 21.078125 32.382812 L 19.507812 32.382812 C 19.078125 32.382812 18.726562 32.03125 18.726562 31.601562 C 18.726562 31.167969 19.078125 30.816406 19.507812 30.816406 L 21.078125 30.816406 C 21.507812 30.816406 21.859375 31.167969 21.859375 31.601562 C 21.859375 32.03125 21.507812 32.382812 21.078125 32.382812 Z M 21.078125 32.382812 " fill-opacity="1" fill-rule="nonzero"/><path fill="#5ce1e6" d="M 25.308594 40.730469 C 25.621094 40.417969 26.09375 40.417969 26.40625 40.730469 C 26.71875 41.046875 26.71875 41.515625 26.40625 41.828125 L 25.308594 42.925781 C 25.152344 43.082031 24.957031 43.160156 24.761719 43.160156 C 24.566406 43.160156 24.367188 43.082031 24.210938 42.925781 C 23.898438 42.613281 23.898438 42.144531 24.210938 41.828125 Z M 25.308594 40.730469 " fill-opacity="1" fill-rule="nonzero"/><path fill="#5ce1e6" d="M 45.84375 40.730469 L 46.941406 41.867188 C 47.257812 42.183594 47.257812 42.652344 46.941406 42.964844 C 46.785156 43.121094 46.589844 43.203125 46.394531 43.203125 C 46.199219 43.203125 46.003906 43.121094 45.84375 42.964844 L 44.746094 41.867188 C 44.433594 41.554688 44.433594 41.085938 44.746094 40.769531 C 45.0625 40.457031 45.53125 40.457031 45.84375 40.730469 Z M 45.84375 40.730469 " fill-opacity="1" fill-rule="nonzero"/><path fill="#5ce1e6" d="M 51.644531 32.777344 L 50.078125 32.777344 C 49.648438 32.777344 49.292969 32.425781 49.292969 31.992188 C 49.292969 31.5625 49.648438 31.207031 50.078125 31.207031 L 51.644531 31.207031 C 52.078125 31.207031 52.429688 31.5625 52.429688 31.992188 C 52.429688 32.425781 52.078125 32.777344 51.644531 32.777344 Z M 51.644531 32.777344 " fill-opacity="1" fill-rule="nonzero"/><path fill="#5ce1e6" d="M 45.84375 22.46875 C 45.6875 22.625 45.492188 22.703125 45.296875 22.703125 C 45.101562 22.703125 44.90625 22.625 44.746094 22.46875 C 44.433594 22.15625 44.433594 21.6875 44.746094 21.371094 L 45.84375 20.234375 C 46.160156 19.921875 46.628906 19.921875 46.941406 20.234375 C 47.257812 20.550781 47.257812 21.019531 46.941406 21.332031 Z M 45.84375 22.46875 " fill-opacity="1" fill-rule="nonzero"/></svg>