<svg xmlns="http://www.w3.org/2000/svg" xmlns:xlink="http://www.w3.org/1999/xlink" width="100" zoomAndPan="magnify" viewBox="0 0 75 74.999997" height="100" preserveAspectRatio="xMidYMid meet" version="1.0"><defs><clipPath id="59e6d1f367"><path d="M 15 12.398438 L 59.9375 12.398438 L 59.9375 62.648438 L 15 62.648438 Z M 15 12.398438 " clip-rule="nonzero"/></clipPath></defs><g clip-path="url(#59e6d1f367)"><path fill="#5ce1e6" d="M 16.765625 42.105469 C 16.84375 42.144531 16.882812 42.144531 16.960938 42.183594 L 17.15625 42.261719 C 17.511719 42.378906 17.824219 42.496094 18.019531 42.691406 C 18.136719 42.808594 17.785156 43.632812 17.628906 43.984375 C 17.234375 44.886719 16.609375 46.21875 17.707031 47.082031 C 17.902344 47.238281 18.175781 47.316406 18.449219 47.355469 C 18.253906 47.628906 18.097656 47.902344 18.097656 48.257812 C 18.136719 49.199219 19.117188 49.394531 19.546875 49.511719 C 19.585938 49.511719 19.625 49.511719 19.664062 49.550781 C 19.664062 49.863281 19.625 50.332031 19.546875 50.726562 C 19.429688 51.746094 19.273438 53 19.585938 54.136719 C 19.785156 54.839844 20.253906 55.46875 20.882812 55.9375 C 21.625 56.488281 22.566406 56.722656 23.546875 56.644531 C 26.917969 56.332031 30.484375 55.195312 33.773438 53.273438 C 34.007812 56.488281 33.578125 58.917969 31.5 61.308594 C 31.304688 61.542969 31.265625 61.855469 31.382812 62.128906 C 31.5 62.40625 31.777344 62.601562 32.089844 62.601562 L 52.742188 62.601562 C 53.09375 62.601562 53.410156 62.367188 53.488281 62.050781 C 53.566406 61.738281 53.449219 61.347656 53.175781 61.191406 C 51.839844 60.328125 50.980469 58.996094 50.664062 57.230469 C 49.765625 52.371094 52.898438 45.789062 55.25 42.574219 C 55.722656 41.945312 56.074219 41.320312 56.425781 40.730469 C 56.699219 40.300781 56.976562 39.832031 57.289062 39.359375 C 59.132812 36.617188 59.992188 33.207031 59.71875 29.71875 C 59.210938 23.097656 54.429688 16.667969 48.078125 14.082031 C 47.609375 13.886719 47.097656 13.691406 46.589844 13.535156 C 44.316406 12.75 41.769531 12.398438 39.105469 12.398438 C 39.105469 12.398438 39.105469 12.398438 39.066406 12.398438 C 37.695312 12.398438 36.320312 12.515625 34.988281 12.75 C 31.933594 13.257812 24.367188 15.335938 20.527344 23.605469 C 19.351562 26.113281 19.078125 28.660156 19.585938 31.523438 C 19.785156 32.503906 19.078125 33.71875 18.410156 34.855469 C 18.292969 35.011719 18.214844 35.207031 18.097656 35.363281 C 17.707031 36.070312 17.195312 36.695312 16.726562 37.285156 C 16.140625 38.027344 15.589844 38.734375 15.238281 39.554688 C 15.003906 40.105469 15.042969 40.730469 15.355469 41.203125 C 15.785156 41.789062 16.375 41.988281 16.765625 42.105469 Z M 16.726562 40.144531 C 17 39.515625 17.472656 38.929688 18.019531 38.222656 C 18.492188 37.597656 19.039062 36.929688 19.507812 36.109375 C 19.585938 35.949219 19.707031 35.753906 19.785156 35.597656 C 20.566406 34.265625 21.46875 32.738281 21.15625 31.167969 C 20.683594 28.621094 20.921875 26.46875 21.976562 24.195312 C 25.503906 16.628906 32.441406 14.75 35.265625 14.277344 C 36.519531 14.082031 37.8125 13.964844 39.105469 13.964844 C 39.105469 13.964844 39.105469 13.964844 39.144531 13.964844 C 41.652344 13.964844 44.003906 14.316406 46.199219 14.984375 C 46.667969 15.140625 47.136719 15.296875 47.570312 15.492188 C 53.371094 17.84375 57.757812 23.761719 58.230469 29.796875 C 58.464844 32.933594 57.71875 35.988281 56.074219 38.421875 C 55.722656 38.929688 55.445312 39.398438 55.171875 39.832031 C 54.820312 40.417969 54.46875 40.96875 54.035156 41.554688 C 51.527344 45.003906 48.195312 52.097656 49.175781 57.425781 C 49.449219 58.800781 49.960938 60.015625 50.785156 60.953125 L 33.695312 60.953125 C 35.460938 58.25 35.617188 55.351562 35.226562 51.785156 C 35.183594 51.351562 34.792969 51.039062 34.363281 51.078125 C 34.207031 51.078125 34.050781 51.15625 33.929688 51.234375 C 33.929688 51.234375 33.929688 51.234375 33.890625 51.234375 L 33.421875 51.507812 C 30.167969 53.46875 26.679688 54.644531 23.390625 54.917969 C 22.761719 54.957031 22.214844 54.839844 21.78125 54.527344 C 21.429688 54.253906 21.15625 53.898438 21.078125 53.546875 C 20.839844 52.722656 20.960938 51.667969 21.078125 50.765625 C 21.195312 49.863281 21.273438 49.117188 21.039062 48.570312 C 20.839844 48.0625 20.332031 47.941406 19.941406 47.863281 C 19.941406 47.863281 19.941406 47.863281 19.980469 47.824219 C 20.371094 47.433594 20.800781 47.042969 20.683594 46.414062 C 20.527344 45.710938 19.785156 45.671875 19.195312 45.671875 C 19.039062 45.671875 18.765625 45.671875 18.609375 45.632812 C 18.609375 45.394531 18.84375 44.808594 19 44.457031 C 19.429688 43.515625 19.980469 42.261719 19.039062 41.359375 C 18.609375 40.96875 18.097656 40.769531 17.628906 40.613281 L 17.472656 40.691406 C 17.394531 40.652344 17.316406 40.652344 17.234375 40.613281 C 17 40.535156 16.765625 40.457031 16.6875 40.339844 C 16.6875 40.339844 16.6875 40.261719 16.726562 40.144531 Z M 16.726562 40.144531 " fill-opacity="1" fill-rule="nonzero"/></g><path fill="#5ce1e6" d="M 39.417969 44.535156 C 38.988281 44.535156 38.632812 44.886719 38.632812 45.316406 L 38.632812 46.886719 C 38.632812 47.316406 38.988281 47.667969 39.417969 47.667969 C 39.847656 47.667969 40.203125 47.316406 40.203125 46.886719 L 40.203125 45.316406 C 40.203125 44.886719 39.847656 44.535156 39.417969 44.535156 Z M 39.417969 44.535156 " fill-opacity="1" fill-rule="nonzero"/><path fill="#5ce1e6" d="M 39.027344 37.910156 C 39.066406 37.480469 38.75 37.085938 38.320312 37.046875 C 37.96875 37.007812 37.574219 36.96875 37.222656 36.890625 C 36.792969 36.8125 36.398438 37.085938 36.320312 37.519531 C 36.242188 37.949219 36.519531 38.339844 36.949219 38.421875 C 37.339844 38.5 37.773438 38.578125 38.203125 38.617188 C 38.242188 38.617188 38.242188 38.617188 38.28125 38.617188 C 38.671875 38.617188 38.988281 38.300781 39.027344 37.910156 Z M 39.027344 37.910156 " fill-opacity="1" fill-rule="nonzero"/><path fill="#5ce1e6" d="M 34.753906 36.148438 C 34.402344 36.03125 34.089844 35.871094 33.734375 35.675781 C 33.34375 35.480469 32.875 35.636719 32.675781 36.03125 C 32.480469 36.421875 32.636719 36.890625 33.03125 37.085938 C 33.421875 37.285156 33.773438 37.441406 34.167969 37.597656 C 34.246094 37.636719 34.363281 37.636719 34.480469 37.636719 C 34.792969 37.636719 35.066406 37.441406 35.226562 37.164062 C 35.382812 36.734375 35.183594 36.304688 34.753906 36.148438 Z M 34.753906 36.148438 " fill-opacity="1" fill-rule="nonzero"/><path fill="#5ce1e6" d="M 27.933594 33.363281 C 28.171875 33.363281 28.367188 33.285156 28.523438 33.089844 C 28.796875 32.777344 28.757812 32.304688 28.484375 32.03125 C 28.601562 31.914062 28.679688 31.796875 28.835938 31.679688 L 28.875 31.640625 C 29.1875 31.328125 29.1875 30.816406 28.875 30.542969 C 28.5625 30.230469 28.054688 30.230469 27.777344 30.542969 L 27.738281 30.582031 C 27.582031 30.738281 27.464844 30.894531 27.347656 30.972656 C 27.074219 31.25 26.917969 31.640625 26.917969 31.992188 C 26.917969 32.425781 27.113281 32.855469 27.464844 33.128906 C 27.582031 33.285156 27.738281 33.363281 27.933594 33.363281 Z M 27.933594 33.363281 " fill-opacity="1" fill-rule="nonzero"/><path fill="#5ce1e6" d="M 29.699219 29.71875 C 29.855469 29.875 30.050781 29.992188 30.285156 29.992188 C 30.484375 29.992188 30.679688 29.914062 30.796875 29.796875 C 31.070312 29.523438 31.382812 29.289062 31.660156 29.054688 C 32.011719 28.777344 32.050781 28.269531 31.777344 27.957031 C 31.5 27.601562 30.992188 27.5625 30.679688 27.839844 C 30.363281 28.074219 30.050781 28.347656 29.777344 28.621094 C 29.425781 28.898438 29.386719 29.40625 29.699219 29.71875 Z M 29.699219 29.71875 " fill-opacity="1" fill-rule="nonzero"/><path fill="#5ce1e6" d="M 33.382812 27.601562 C 33.539062 27.601562 33.65625 27.5625 33.773438 27.484375 C 34.089844 27.289062 34.441406 27.09375 34.753906 26.9375 C 35.144531 26.742188 35.304688 26.269531 35.105469 25.878906 C 34.910156 25.488281 34.441406 25.332031 34.050781 25.527344 C 33.695312 25.722656 33.34375 25.917969 32.992188 26.152344 C 32.636719 26.386719 32.519531 26.859375 32.714844 27.25 C 32.875 27.484375 33.109375 27.601562 33.382812 27.601562 Z M 33.382812 27.601562 " fill-opacity="1" fill-rule="nonzero"/><path fill="#5ce1e6" d="M 47.296875 29.132812 C 47.609375 29.367188 47.882812 29.640625 48.15625 29.875 C 48.3125 29.992188 48.472656 30.074219 48.667969 30.074219 C 48.902344 30.074219 49.097656 29.992188 49.253906 29.796875 C 49.527344 29.484375 49.488281 28.976562 49.175781 28.699219 C 48.902344 28.464844 48.589844 28.191406 48.234375 27.917969 C 47.882812 27.644531 47.414062 27.683594 47.136719 28.035156 C 46.902344 28.347656 46.941406 28.859375 47.296875 29.132812 Z M 47.296875 29.132812 " fill-opacity="1" fill-rule="nonzero"/><path fill="#5ce1e6" d="M 40.710938 25.839844 C 41.0625 25.878906 41.417969 25.996094 41.769531 26.074219 C 41.847656 26.113281 41.925781 26.113281 41.964844 26.113281 C 42.316406 26.113281 42.632812 25.878906 42.710938 25.527344 C 42.828125 25.09375 42.59375 24.664062 42.160156 24.546875 C 41.769531 24.429688 41.339844 24.351562 40.945312 24.273438 C 40.515625 24.195312 40.125 24.507812 40.046875 24.898438 C 40.007812 25.371094 40.28125 25.761719 40.710938 25.839844 Z M 40.710938 25.839844 " fill-opacity="1" fill-rule="nonzero"/><path fill="#5ce1e6" d="M 44.160156 27.054688 C 44.472656 27.210938 44.828125 27.40625 45.140625 27.601562 C 45.257812 27.683594 45.414062 27.722656 45.53125 27.722656 C 45.804688 27.722656 46.042969 27.601562 46.199219 27.328125 C 46.433594 26.976562 46.316406 26.46875 45.921875 26.230469 C 45.570312 25.996094 45.21875 25.800781 44.867188 25.644531 C 44.472656 25.449219 44.003906 25.605469 43.808594 25.957031 C 43.652344 26.347656 43.769531 26.859375 44.160156 27.054688 Z M 44.160156 27.054688 " fill-opacity="1" fill-rule="nonzero"/><path fill="#5ce1e6" d="M 36.949219 26.035156 C 37.027344 26.035156 37.066406 26.035156 37.144531 25.996094 C 37.496094 25.917969 37.851562 25.839844 38.203125 25.800781 C 38.632812 25.761719 38.949219 25.332031 38.871094 24.9375 C 38.832031 24.507812 38.398438 24.195312 38.007812 24.273438 C 37.617188 24.3125 37.183594 24.390625 36.753906 24.507812 C 36.320312 24.625 36.085938 25.054688 36.203125 25.449219 C 36.28125 25.800781 36.597656 26.035156 36.949219 26.035156 Z M 36.949219 26.035156 " fill-opacity="1" fill-rule="nonzero"/><path fill="#5ce1e6" d="M 45.414062 35.402344 C 45.0625 35.597656 44.746094 35.753906 44.394531 35.910156 C 44.003906 36.109375 43.808594 36.539062 44.003906 36.929688 C 44.121094 37.207031 44.433594 37.402344 44.707031 37.402344 C 44.828125 37.402344 44.945312 37.363281 45.023438 37.324219 C 45.375 37.164062 45.765625 36.96875 46.121094 36.773438 C 46.511719 36.578125 46.628906 36.109375 46.433594 35.714844 C 46.277344 35.324219 45.804688 35.167969 45.414062 35.402344 Z M 45.414062 35.402344 " fill-opacity="1" fill-rule="nonzero"/><path fill="#5ce1e6" d="M 31.460938 34.34375 C 31.148438 34.148438 30.835938 33.914062 30.523438 33.679688 C 30.167969 33.402344 29.699219 33.480469 29.425781 33.835938 C 29.148438 34.1875 29.226562 34.65625 29.582031 34.933594 C 29.894531 35.167969 30.246094 35.402344 30.5625 35.636719 C 30.679688 35.714844 30.835938 35.753906 30.992188 35.753906 C 31.226562 35.753906 31.5 35.636719 31.660156 35.402344 C 31.933594 35.050781 31.816406 34.578125 31.460938 34.34375 Z M 31.460938 34.34375 " fill-opacity="1" fill-rule="nonzero"/><path fill="#5ce1e6" d="M 49.527344 34.578125 C 49.882812 34.304688 49.921875 33.835938 49.6875 33.480469 C 49.410156 33.128906 48.941406 33.089844 48.589844 33.324219 C 48.3125 33.558594 48 33.757812 47.648438 33.992188 C 47.296875 34.226562 47.21875 34.734375 47.453125 35.089844 C 47.609375 35.324219 47.84375 35.441406 48.078125 35.441406 C 48.234375 35.441406 48.394531 35.402344 48.511719 35.285156 C 48.902344 35.050781 49.253906 34.773438 49.527344 34.578125 Z M 49.527344 34.578125 " fill-opacity="1" fill-rule="nonzero"/><path fill="#5ce1e6" d="M 41.964844 36.734375 C 41.613281 36.8125 41.222656 36.890625 40.867188 36.96875 C 40.4375 37.046875 40.164062 37.441406 40.203125 37.871094 C 40.242188 38.261719 40.59375 38.539062 40.984375 38.539062 C 41.023438 38.539062 41.0625 38.539062 41.101562 38.539062 C 41.496094 38.460938 41.925781 38.378906 42.316406 38.300781 C 42.75 38.183594 42.984375 37.753906 42.90625 37.363281 C 42.789062 36.890625 42.355469 36.65625 41.964844 36.734375 Z M 41.964844 36.734375 " fill-opacity="1" fill-rule="nonzero"/><path fill="#5ce1e6" d="M 50.117188 30.621094 C 49.804688 30.933594 49.84375 31.445312 50.15625 31.71875 C 50.234375 31.796875 50.3125 31.875 50.390625 31.953125 C 50.273438 32.34375 50.46875 32.738281 50.863281 32.894531 C 50.941406 32.933594 51.058594 32.933594 51.136719 32.933594 C 51.449219 32.933594 51.761719 32.738281 51.878906 32.425781 C 51.960938 32.265625 52 32.070312 52 31.914062 C 52 31.523438 51.839844 31.128906 51.527344 30.855469 C 51.449219 30.777344 51.371094 30.699219 51.253906 30.621094 C 50.941406 30.308594 50.429688 30.308594 50.117188 30.621094 Z M 50.117188 30.621094 " fill-opacity="1" fill-rule="nonzero"/><path fill="#5ce1e6" d="M 39.417969 36.304688 C 42.003906 36.304688 44.121094 34.1875 44.121094 31.601562 C 44.121094 29.015625 42.003906 26.898438 39.417969 26.898438 C 36.832031 26.898438 34.714844 29.015625 34.714844 31.601562 C 34.714844 34.1875 36.832031 36.304688 39.417969 36.304688 Z M 39.417969 28.464844 C 41.140625 28.464844 42.554688 29.875 42.554688 31.601562 C 42.554688 33.324219 41.140625 34.734375 39.417969 34.734375 C 37.695312 34.734375 36.28125 33.324219 36.28125 31.601562 C 36.28125 29.875 37.695312 28.464844 39.417969 28.464844 Z M 39.417969 28.464844 " fill-opacity="1" fill-rule="nonzero"/><path fill="#5ce1e6" d="M 39.417969 33.167969 C 40.28125 33.167969 40.984375 32.464844 40.984375 31.601562 C 40.984375 30.738281 40.28125 30.035156 39.417969 30.035156 C 38.554688 30.035156 37.851562 30.738281 37.851562 31.601562 C 37.851562 32.464844 38.554688 33.167969 39.417969 33.167969 Z M 39.808594 30.425781 C 40.242188 30.425781 40.59375 30.777344 40.59375 31.207031 C 40.59375 31.640625 40.242188 31.992188 39.808594 31.992188 C 39.378906 31.992188 39.027344 31.640625 39.027344 31.207031 C 39.027344 30.777344 39.378906 30.425781 39.808594 30.425781 Z M 39.808594 30.425781 " fill-opacity="1" fill-rule="nonzero"/><path fill="#5ce1e6" d="M 39.417969 18.667969 C 39.847656 18.667969 40.203125 18.316406 40.203125 17.882812 L 40.203125 16.316406 C 40.203125 15.886719 39.847656 15.53125 39.417969 15.53125 C 38.988281 15.53125 38.632812 15.886719 38.632812 16.316406 L 38.632812 17.882812 C 38.632812 18.316406 38.988281 18.667969 39.417969 18.667969 Z M 39.417969 18.667969 " fill-opacity="1" fill-rule="nonzero"/><path fill="#5ce1e6" d="M 49.097656 22.703125 C 49.292969 22.703125 49.488281 22.625 49.648438 22.46875 L 50.742188 21.371094 C 51.058594 21.058594 51.058594 20.589844 50.742188 20.273438 C 50.429688 19.960938 49.960938 19.960938 49.648438 20.273438 L 48.550781 21.371094 C 48.234375 21.6875 48.234375 22.15625 48.550781 22.46875 C 48.707031 22.625 48.902344 22.703125 49.097656 22.703125 Z M 49.097656 22.703125 " fill-opacity="1" fill-rule="nonzero"/><path fill="#5ce1e6" d="M 53.917969 32.382812 L 55.484375 32.382812 C 55.917969 32.382812 56.269531 32.03125 56.269531 31.601562 C 56.269531 31.167969 55.917969 30.816406 55.484375 30.816406 L 53.917969 30.816406 C 53.488281 30.816406 53.132812 31.167969 53.132812 31.601562 C 53.132812 32.03125 53.488281 32.382812 53.917969 32.382812 Z M 53.917969 32.382812 " fill-opacity="1" fill-rule="nonzero"/><path fill="#5ce1e6" d="M 49.6875 40.730469 C 49.371094 40.417969 48.902344 40.417969 48.589844 40.730469 C 48.273438 41.046875 48.273438 41.515625 48.589844 41.828125 L 49.6875 42.925781 C 49.84375 43.082031 50.039062 43.160156 50.234375 43.160156 C 50.429688 43.160156 50.625 43.082031 50.785156 42.925781 C 51.097656 42.613281 51.097656 42.144531 50.785156 41.828125 Z M 49.6875 40.730469 " fill-opacity="1" fill-rule="nonzero"/><path fill="#5ce1e6" d="M 29.148438 40.730469 L 28.054688 41.867188 C 27.738281 42.183594 27.738281 42.652344 28.054688 42.964844 C 28.210938 43.121094 28.40625 43.203125 28.601562 43.203125 C 28.796875 43.203125 28.992188 43.121094 29.148438 42.964844 L 30.246094 41.867188 C 30.5625 41.554688 30.5625 41.085938 30.246094 40.769531 C 29.933594 40.457031 29.464844 40.457031 29.148438 40.730469 Z M 29.148438 40.730469 " fill-opacity="1" fill-rule="nonzero"/><path fill="#5ce1e6" d="M 23.351562 32.777344 L 24.917969 32.777344 C 25.347656 32.777344 25.703125 32.425781 25.703125 31.992188 C 25.703125 31.5625 25.347656 31.207031 24.917969 31.207031 L 23.351562 31.207031 C 22.917969 31.207031 22.566406 31.5625 22.566406 31.992188 C 22.566406 32.425781 22.917969 32.777344 23.351562 32.777344 Z M 23.351562 32.777344 " fill-opacity="1" fill-rule="nonzero"/><path fill="#5ce1e6" d="M 29.148438 22.46875 C 29.308594 22.625 29.503906 22.703125 29.699219 22.703125 C 29.894531 22.703125 30.089844 22.625 30.246094 22.46875 C 30.5625 22.15625 30.5625 21.6875 30.246094 21.371094 L 29.148438 20.234375 C 28.835938 19.921875 28.367188 19.921875 28.054688 20.234375 C 27.738281 20.550781 27.738281 21.019531 28.054688 21.332031 Z M 29.148438 22.46875 " fill-opacity="1" fill-rule="nonzero"/></svg>