<svg xmlns="http://www.w3.org/2000/svg" xmlns:xlink="http://www.w3.org/1999/xlink" width="1920" zoomAndPan="magnify" viewBox="0 0 1440 809.999993" height="1080" preserveAspectRatio="xMidYMid meet" version="1.0"><defs><clipPath id="d4de282398"><path d="M 379 310.320312 L 488 310.320312 L 488 507 L 379 507 Z M 379 310.320312 " clip-rule="nonzero"/></clipPath><clipPath id="ae6fb4bcf7"><path d="M 458.621094 310.582031 L 487.691406 323.195312 L 408.230469 506.359375 L 379.160156 493.753906 Z M 458.621094 310.582031 " clip-rule="nonzero"/></clipPath><clipPath id="8ccd44bdb7"><path d="M 462 311 L 575 311 L 575 508 L 462 508 Z M 462 311 " clip-rule="nonzero"/></clipPath><clipPath id="15fbfcc891"><path d="M 462.6875 324.882812 L 493.398438 311.277344 L 574.242188 493.839844 L 543.53125 507.4375 Z M 462.6875 324.882812 " clip-rule="nonzero"/></clipPath><clipPath id="e5397f8215"><path d="M 452 301 L 471 301 L 471 330 L 452 330 Z M 452 301 " clip-rule="nonzero"/></clipPath><clipPath id="93e1844698"><path d="M 462.96875 301.644531 L 470.464844 304.890625 L 459.625 329.949219 L 452.128906 326.707031 Z M 462.96875 301.644531 " clip-rule="nonzero"/></clipPath><clipPath id="96bdd7ca06"><path d="M 481 301 L 501 301 L 501 330 L 481 330 Z M 481 301 " clip-rule="nonzero"/></clipPath><clipPath id="e98f6cf9dc"><path d="M 481.140625 305.089844 L 488.546875 301.636719 L 500.085938 326.390625 L 492.675781 329.835938 Z M 481.140625 305.089844 " clip-rule="nonzero"/></clipPath><clipPath id="4cd12ab398"><path d="M 462.6875 301.644531 L 488.777344 301.644531 L 488.777344 328.945312 L 462.6875 328.945312 Z M 462.6875 301.644531 " clip-rule="nonzero"/></clipPath><clipPath id="198005eac0"><path d="M 379.160156 493.410156 L 394.117188 493.410156 L 394.117188 509.828125 L 379.160156 509.828125 Z M 379.160156 493.410156 " clip-rule="nonzero"/></clipPath><clipPath id="0165fc27ef"><path d="M 380.585938 493.410156 L 392.6875 493.410156 C 393.066406 493.410156 393.433594 493.566406 393.699219 493.835938 C 393.96875 494.101562 394.117188 494.464844 394.117188 494.835938 L 394.117188 508.394531 C 394.117188 508.773438 393.96875 509.128906 393.699219 509.398438 C 393.433594 509.664062 393.066406 509.820312 392.6875 509.820312 L 380.585938 509.820312 C 380.207031 509.820312 379.84375 509.664062 379.578125 509.398438 C 379.308594 509.128906 379.160156 508.773438 379.160156 508.394531 L 379.160156 494.835938 C 379.160156 494.464844 379.308594 494.101562 379.578125 493.835938 C 379.84375 493.566406 380.207031 493.410156 380.585938 493.410156 Z M 380.585938 493.410156 " clip-rule="nonzero"/></clipPath><clipPath id="fd191b79ba"><path d="M 392.339844 493.410156 L 408.378906 493.410156 L 408.378906 509.828125 L 392.339844 509.828125 Z M 392.339844 493.410156 " clip-rule="nonzero"/></clipPath><clipPath id="f7224f74ee"><path d="M 393.765625 493.410156 L 406.953125 493.410156 C 407.332031 493.410156 407.695312 493.566406 407.964844 493.835938 C 408.230469 494.101562 408.378906 494.464844 408.378906 494.835938 L 408.378906 508.394531 C 408.378906 508.773438 408.230469 509.128906 407.964844 509.398438 C 407.695312 509.664062 407.332031 509.820312 406.953125 509.820312 L 393.765625 509.820312 C 393.386719 509.820312 393.03125 509.664062 392.761719 509.398438 C 392.496094 509.128906 392.339844 508.773438 392.339844 508.394531 L 392.339844 494.835938 C 392.339844 494.464844 392.496094 494.101562 392.761719 493.835938 C 393.03125 493.566406 393.386719 493.410156 393.765625 493.410156 Z M 393.765625 493.410156 " clip-rule="nonzero"/></clipPath><clipPath id="7f4630001e"><path d="M 543.300781 493.410156 L 559.347656 493.410156 L 559.347656 509.84375 L 543.300781 509.84375 Z M 543.300781 493.410156 " clip-rule="nonzero"/></clipPath><clipPath id="fef65ca7fc"><path d="M 544.726562 493.410156 L 557.917969 493.410156 C 558.296875 493.410156 558.664062 493.566406 558.929688 493.835938 C 559.199219 494.101562 559.347656 494.464844 559.347656 494.835938 L 559.347656 508.394531 C 559.347656 508.773438 559.199219 509.128906 558.929688 509.398438 C 558.664062 509.664062 558.296875 509.820312 557.917969 509.820312 L 544.726562 509.820312 C 544.347656 509.820312 543.984375 509.664062 543.714844 509.398438 C 543.449219 509.128906 543.300781 508.773438 543.300781 508.394531 L 543.300781 494.835938 C 543.300781 494.464844 543.449219 494.101562 543.714844 493.835938 C 543.984375 493.566406 544.347656 493.410156 544.726562 493.410156 Z M 544.726562 493.410156 " clip-rule="nonzero"/></clipPath><clipPath id="cc18162b4b"><path d="M 557.429688 493.351562 L 574.285156 493.351562 L 574.285156 509.820312 L 557.429688 509.820312 Z M 557.429688 493.351562 " clip-rule="nonzero"/></clipPath><clipPath id="b3994dd037"><path d="M 558.921875 493.410156 L 572.816406 493.410156 C 573.195312 493.410156 573.558594 493.566406 573.824219 493.835938 C 574.09375 494.101562 574.242188 494.464844 574.242188 494.835938 L 574.242188 508.394531 C 574.242188 508.773438 574.09375 509.128906 573.824219 509.398438 C 573.558594 509.664062 573.195312 509.820312 572.816406 509.820312 L 558.921875 509.820312 C 558.542969 509.820312 558.179688 509.664062 557.914062 509.398438 C 557.644531 509.128906 557.496094 508.773438 557.496094 508.394531 L 557.496094 494.835938 C 557.496094 494.464844 557.644531 494.101562 557.914062 493.835938 C 558.179688 493.566406 558.542969 493.410156 558.921875 493.410156 Z M 558.921875 493.410156 " clip-rule="nonzero"/></clipPath></defs><path fill="#163694" d="M 208.667969 509.398438 L 208.667969 301.324219 L 282.601562 301.324219 C 297.675781 301.324219 310.980469 304.074219 322.511719 309.558594 C 334.058594 315.023438 343.699219 322.453125 351.425781 331.84375 C 359.152344 341.234375 365.015625 352.289062 369.019531 365.007812 C 373.039062 377.726562 375.050781 391.234375 375.050781 405.511719 C 375.050781 420 372.949219 433.550781 368.75 446.164062 C 364.546875 458.785156 358.722656 469.789062 351.277344 479.179688 C 343.847656 488.570312 335.039062 495.960938 324.859375 501.347656 C 314.695312 506.71875 303.738281 509.398438 291.992188 509.398438 Z M 281.445312 480.933594 C 292.59375 480.933594 302.082031 478.882812 309.914062 474.78125 C 317.734375 470.664062 324.183594 465.183594 329.257812 458.347656 C 334.347656 451.496094 338.0625 443.472656 340.402344 434.277344 C 342.757812 425.085938 343.9375 415.496094 343.9375 405.511719 C 343.9375 395.527344 342.757812 385.890625 340.402344 376.597656 C 338.0625 367.3125 334.398438 359.148438 329.40625 352.109375 C 324.429688 345.0625 317.980469 339.4375 310.0625 335.230469 C 302.132812 331.011719 292.59375 328.902344 281.445312 328.902344 L 239.484375 328.902344 L 239.484375 480.933594 Z M 281.445312 480.933594 " fill-opacity="1" fill-rule="nonzero"/><path fill="#163694" d="M 772.183594 301.324219 L 803 301.324219 L 803 509.398438 L 772.480469 509.398438 L 772.480469 349.734375 L 711.742188 433.386719 L 687.96875 433.386719 L 626.929688 349.734375 L 626.929688 509.398438 L 596.113281 509.398438 L 596.113281 301.324219 L 626.929688 301.324219 L 699.707031 401.410156 Z M 772.183594 301.324219 " fill-opacity="1" fill-rule="nonzero"/><g clip-path="url(#d4de282398)"><g clip-path="url(#ae6fb4bcf7)"><path fill="#163694" d="M 458.621094 310.582031 L 487.691406 323.195312 L 408.222656 506.375 L 379.152344 493.761719 Z M 458.621094 310.582031 " fill-opacity="1" fill-rule="nonzero"/></g></g><g clip-path="url(#8ccd44bdb7)"><g clip-path="url(#15fbfcc891)"><path fill="#163694" d="M 462.6875 324.882812 L 493.398438 311.277344 L 574.257812 493.871094 L 543.542969 507.472656 Z M 462.6875 324.882812 " fill-opacity="1" fill-rule="nonzero"/></g></g><g clip-path="url(#e5397f8215)"><g clip-path="url(#93e1844698)"><path fill="#163694" d="M 462.96875 301.644531 L 470.464844 304.890625 L 459.617188 329.964844 L 452.121094 326.714844 Z M 462.96875 301.644531 " fill-opacity="1" fill-rule="nonzero"/></g></g><g clip-path="url(#96bdd7ca06)"><g clip-path="url(#e98f6cf9dc)"><path fill="#163694" d="M 481.140625 305.089844 L 488.546875 301.636719 L 500.089844 326.398438 L 492.683594 329.851562 Z M 481.140625 305.089844 " fill-opacity="1" fill-rule="nonzero"/></g></g><g clip-path="url(#4cd12ab398)"><path fill="#163694" d="M 462.6875 301.644531 L 488.777344 301.644531 L 488.777344 328.960938 L 462.6875 328.960938 Z M 462.6875 301.644531 " fill-opacity="1" fill-rule="nonzero"/></g><g clip-path="url(#198005eac0)"><g clip-path="url(#0165fc27ef)"><path fill="#163694" d="M 379.160156 493.410156 L 394.117188 493.410156 L 394.117188 509.828125 L 379.160156 509.828125 Z M 379.160156 493.410156 " fill-opacity="1" fill-rule="nonzero"/></g></g><g clip-path="url(#fd191b79ba)"><g clip-path="url(#f7224f74ee)"><path fill="#163694" d="M 392.339844 493.410156 L 408.378906 493.410156 L 408.378906 509.828125 L 392.339844 509.828125 Z M 392.339844 493.410156 " fill-opacity="1" fill-rule="nonzero"/></g></g><g clip-path="url(#7f4630001e)"><g clip-path="url(#fef65ca7fc)"><path fill="#163694" d="M 543.300781 493.410156 L 559.347656 493.410156 L 559.347656 509.84375 L 543.300781 509.84375 Z M 543.300781 493.410156 " fill-opacity="1" fill-rule="nonzero"/></g></g><g clip-path="url(#cc18162b4b)"><g clip-path="url(#b3994dd037)"><path fill="#163694" d="M 557.496094 493.410156 L 574.21875 493.410156 L 574.21875 509.820312 L 557.496094 509.820312 Z M 557.496094 493.410156 " fill-opacity="1" fill-rule="nonzero"/></g></g><path fill="#163694" d="M 959.535156 398.171875 L 1016.175781 398.171875 L 1016.175781 474.484375 C 1006.785156 485.640625 995.433594 494.742188 982.117188 501.792969 C 968.820312 508.828125 954.347656 512.34375 938.703125 512.34375 C 924.617188 512.34375 911.3125 509.503906 898.792969 503.84375 C 886.269531 498.160156 875.40625 490.472656 866.195312 480.785156 C 856.996094 471.097656 849.710938 459.804688 844.324219 446.90625 C 838.953125 433.996094 836.269531 420.191406 836.269531 405.511719 C 836.269531 391.03125 838.953125 377.296875 844.324219 364.296875 C 849.710938 351.277344 856.996094 339.925781 866.195312 330.238281 C 875.40625 320.550781 886.269531 312.878906 898.792969 307.210938 C 911.3125 301.527344 924.617188 298.679688 938.703125 298.679688 C 951.613281 298.679688 963.84375 301.230469 975.375 306.316406 C 986.917969 311.414062 997.289062 318.054688 1006.488281 326.257812 L 988.300781 349.464844 C 981.835938 342.617188 974.347656 337.089844 965.835938 332.886719 C 957.335938 328.664062 948.285156 326.554688 938.703125 326.554688 C 928.71875 326.554688 919.367188 328.664062 910.652344 332.886719 C 901.953125 337.089844 894.375 342.808594 887.917969 350.0625 C 881.453125 357.296875 876.367188 365.65625 872.644531 375.140625 C 868.9375 384.636719 867.085938 394.753906 867.085938 405.511719 C 867.085938 416.269531 868.9375 426.394531 872.644531 435.882812 C 876.367188 445.375 881.453125 453.695312 887.917969 460.84375 C 894.375 467.976562 901.953125 473.605469 910.652344 477.722656 C 919.367188 481.824219 928.71875 483.875 938.703125 483.875 C 947.894531 483.875 956.503906 482.0625 964.527344 478.4375 C 972.550781 474.808594 979.691406 469.964844 985.953125 463.90625 L 985.953125 426.640625 L 959.535156 426.640625 Z M 959.535156 398.171875 " fill-opacity="1" fill-rule="nonzero"/><path fill="#163694" d="M 1147.777344 298.382812 C 1161.863281 298.382812 1175.164062 301.230469 1187.6875 306.914062 C 1200.207031 312.582031 1211.113281 320.253906 1220.40625 329.941406 C 1229.714844 339.628906 1237.105469 350.980469 1242.574219 363.996094 C 1248.058594 377 1250.804688 390.734375 1250.804688 405.214844 C 1250.804688 419.894531 1248.058594 433.699219 1242.574219 446.609375 C 1237.105469 459.507812 1229.675781 470.796875 1220.285156 480.484375 C 1210.894531 490.171875 1199.929688 497.863281 1187.390625 503.546875 C 1174.863281 509.214844 1161.566406 512.046875 1147.480469 512.046875 C 1133.394531 512.046875 1120.089844 509.214844 1107.574219 503.546875 C 1095.046875 497.863281 1084.140625 490.171875 1074.855469 480.484375 C 1065.5625 470.796875 1058.222656 459.507812 1052.835938 446.609375 C 1047.464844 433.699219 1044.78125 419.894531 1044.78125 405.214844 C 1044.78125 390.734375 1047.464844 377 1052.835938 363.996094 C 1058.222656 350.980469 1065.613281 339.628906 1075.003906 329.941406 C 1084.394531 320.253906 1095.34375 312.582031 1107.871094 306.914062 C 1120.386719 301.230469 1133.691406 298.382812 1147.777344 298.382812 Z M 1147.777344 482.984375 C 1157.761719 482.984375 1167.101562 480.984375 1175.800781 476.980469 C 1184.515625 472.960938 1192.101562 467.433594 1198.5625 460.398438 C 1205.019531 453.347656 1210.101562 445.078125 1213.808594 435.585938 C 1217.53125 426.097656 1219.394531 415.972656 1219.394531 405.214844 C 1219.394531 394.457031 1217.53125 384.382812 1213.808594 374.992188 C 1210.101562 365.601562 1205.019531 357.394531 1198.5625 350.359375 C 1192.101562 343.308594 1184.515625 337.78125 1175.800781 333.777344 C 1167.101562 329.757812 1157.761719 327.742188 1147.777344 327.742188 C 1137.808594 327.742188 1128.46875 329.757812 1119.757812 333.777344 C 1111.054688 337.78125 1103.480469 343.308594 1097.023438 350.359375 C 1090.558594 357.394531 1085.417969 365.601562 1081.601562 374.992188 C 1077.796875 384.382812 1075.894531 394.457031 1075.894531 405.214844 C 1075.894531 415.972656 1077.796875 426.097656 1081.601562 435.585938 C 1085.417969 445.078125 1090.558594 453.347656 1097.023438 460.398438 C 1103.480469 467.433594 1111.054688 472.960938 1119.757812 476.980469 C 1128.46875 480.984375 1137.808594 482.984375 1147.777344 482.984375 Z M 1147.777344 482.984375 " fill-opacity="1" fill-rule="nonzero"/></svg>