<svg xmlns="http://www.w3.org/2000/svg" xmlns:xlink="http://www.w3.org/1999/xlink" width="1920" zoomAndPan="magnify" viewBox="0 0 1440 809.999993" height="1080" preserveAspectRatio="xMidYMid meet" version="1.0"><path fill="#163694" d="M 550.875 550.125 C 554.296875 550.125 557.648438 550.628906 560.917969 551.640625 C 564.1875 552.636719 566.601562 553.617188 568.167969 554.582031 L 570.484375 556.097656 L 564.660156 567.597656 C 564.199219 567.285156 563.5625 566.886719 562.730469 566.410156 C 561.914062 565.917969 560.382812 565.265625 558.125 564.449219 C 555.878906 563.636719 553.800781 563.230469 551.882812 563.230469 C 549.460938 563.230469 547.605469 563.75 546.296875 564.773438 C 545.003906 565.785156 544.367188 567.167969 544.367188 568.90625 C 544.367188 569.761719 544.671875 570.5625 545.285156 571.3125 C 545.894531 572.046875 546.9375 572.84375 548.40625 573.691406 C 549.894531 574.523438 551.199219 575.199219 552.328125 575.710938 C 553.457031 576.230469 555.191406 576.988281 557.53125 578 C 561.609375 579.746094 565.09375 582.113281 567.988281 585.101562 C 570.878906 588.074219 572.328125 591.453125 572.328125 595.234375 C 572.328125 598.859375 571.675781 602.03125 570.367188 604.742188 C 569.058594 607.441406 567.261719 609.558594 564.988281 611.101562 C 562.730469 612.632812 560.210938 613.761719 557.441406 614.492188 C 554.683594 615.242188 551.707031 615.621094 548.496094 615.621094 C 545.738281 615.621094 543.035156 615.332031 540.382812 614.757812 C 537.722656 614.207031 535.511719 613.511719 533.726562 612.679688 C 531.945312 611.832031 530.324219 611 528.882812 610.183594 C 527.457031 609.351562 526.417969 608.660156 525.761719 608.101562 L 524.753906 607.269531 L 531.972656 595.175781 C 532.566406 595.671875 533.398438 596.320312 534.46875 597.105469 C 535.554688 597.902344 537.457031 598.964844 540.175781 600.285156 C 542.910156 601.617188 545.324219 602.277344 547.425781 602.277344 C 553.503906 602.277344 556.550781 600.21875 556.550781 596.097656 C 556.550781 595.226562 556.328125 594.425781 555.894531 593.6875 C 555.457031 592.9375 554.683594 592.195312 553.578125 591.460938 C 552.484375 590.710938 551.511719 590.117188 550.664062 589.675781 C 549.832031 589.246094 548.453125 588.578125 546.535156 587.6875 C 544.632812 586.796875 543.214844 586.125 542.285156 585.664062 C 538.460938 583.785156 535.496094 581.429688 533.398438 578.59375 C 531.320312 575.761719 530.28125 572.710938 530.28125 569.441406 C 530.28125 563.78125 532.367188 559.144531 536.550781 555.535156 C 540.726562 551.929688 545.503906 550.125 550.875 550.125 Z M 550.875 550.125 " fill-opacity="1" fill-rule="nonzero"/><path fill="#163694" d="M 618.808594 596.691406 L 590.308594 596.691406 C 590.308594 599.445312 591.199219 601.488281 592.984375 602.8125 C 594.78125 604.140625 596.726562 604.804688 598.808594 604.804688 C 601.007812 604.804688 602.738281 604.519531 604.007812 603.941406 C 605.292969 603.347656 606.757812 602.179688 608.40625 600.433594 L 618.183594 605.339844 C 614.097656 612.195312 607.3125 615.621094 597.828125 615.621094 C 591.898438 615.621094 586.816406 613.59375 582.582031 609.527344 C 578.339844 605.472656 576.222656 600.582031 576.222656 594.878906 C 576.222656 589.15625 578.339844 584.253906 582.582031 580.167969 C 586.816406 576.066406 591.898438 574.015625 597.828125 574.015625 C 604.046875 574.015625 609.105469 575.824219 613.011719 579.425781 C 616.933594 583.035156 618.894531 588.175781 618.894531 594.847656 C 618.894531 595.785156 618.867188 596.394531 618.808594 596.691406 Z M 590.695312 589.203125 L 605.640625 589.203125 C 605.324219 587.167969 604.511719 585.597656 603.207031 584.507812 C 601.914062 583.398438 600.25 582.84375 598.214844 582.84375 C 595.953125 582.84375 594.15625 583.429688 592.835938 584.597656 C 591.503906 585.769531 590.792969 587.300781 590.695312 589.203125 Z M 590.695312 589.203125 " fill-opacity="1" fill-rule="nonzero"/><path fill="#163694" d="M 627.90625 609.617188 C 624.238281 605.597656 622.410156 600.6875 622.410156 594.878906 C 622.410156 589.054688 624.238281 584.121094 627.90625 580.078125 C 631.589844 576.039062 636.265625 574.015625 641.933594 574.015625 C 647.140625 574.015625 651.425781 575.652344 654.800781 578.921875 L 654.800781 575.175781 L 668.351562 575.175781 L 668.351562 614.460938 L 654.949219 614.460938 L 654.949219 610.035156 L 654.800781 610.035156 C 651.425781 613.761719 647.140625 615.621094 641.933594 615.621094 C 636.265625 615.621094 631.589844 613.621094 627.90625 609.617188 Z M 639.464844 588.191406 C 637.699219 589.9375 636.820312 592.167969 636.820312 594.878906 C 636.820312 597.574219 637.660156 599.78125 639.347656 601.503906 C 641.027344 603.214844 643.246094 604.058594 646.003906 604.058594 C 648.65625 604.058594 650.832031 603.191406 652.542969 601.445312 C 654.265625 599.707031 655.125 597.507812 655.125 594.847656 C 655.125 592.160156 654.242188 589.9375 652.480469 588.191406 C 650.714844 586.453125 648.558594 585.578125 646.003906 585.578125 C 643.402344 585.578125 641.226562 586.453125 639.464844 588.191406 Z M 639.464844 588.191406 " fill-opacity="1" fill-rule="nonzero"/></svg>