<svg xmlns="http://www.w3.org/2000/svg" xmlns:xlink="http://www.w3.org/1999/xlink" width="1920" zoomAndPan="magnify" viewBox="0 0 1440 809.999993" height="1080" preserveAspectRatio="xMidYMid meet" version="1.0"><path fill="#163694" d="M 734.972656 551.285156 L 734.972656 563.914062 L 712.832031 563.914062 L 712.832031 576.484375 L 733.277344 576.484375 L 733.277344 589.113281 L 712.832031 589.113281 L 712.832031 614.460938 L 698.449219 614.460938 L 698.449219 551.285156 Z M 734.972656 551.285156 " fill-opacity="1" fill-rule="nonzero"/><path fill="#163694" d="M 745.5625 609.796875 C 741.203125 605.917969 739.023438 600.941406 739.023438 594.878906 C 739.023438 588.800781 741.289062 583.808594 745.832031 579.902344 C 750.382812 575.976562 756.007812 574.015625 762.710938 574.015625 C 769.285156 574.015625 774.832031 575.992188 779.351562 579.929688 C 783.867188 583.851562 786.125 588.832031 786.125 594.847656 C 786.125 600.875 783.910156 605.84375 779.5 609.765625 C 775.078125 613.671875 769.484375 615.621094 762.710938 615.621094 C 755.652344 615.621094 749.9375 613.679688 745.5625 609.796875 Z M 756.082031 588.191406 C 754.3125 589.9375 753.4375 592.167969 753.4375 594.878906 C 753.4375 597.574219 754.277344 599.78125 755.964844 601.503906 C 757.640625 603.214844 759.863281 604.058594 762.621094 604.058594 C 765.273438 604.058594 767.449219 603.191406 769.15625 601.445312 C 770.882812 599.707031 771.742188 597.507812 771.742188 594.847656 C 771.742188 592.160156 770.859375 589.9375 769.097656 588.191406 C 767.328125 586.453125 765.175781 585.578125 762.621094 585.578125 C 760.019531 585.578125 757.84375 586.453125 756.082031 588.191406 Z M 756.082031 588.191406 " fill-opacity="1" fill-rule="nonzero"/><path fill="#163694" d="M 796.191406 609.796875 C 791.828125 605.917969 789.652344 600.941406 789.652344 594.878906 C 789.652344 588.800781 791.917969 583.808594 796.457031 579.902344 C 801.011719 575.976562 806.636719 574.015625 813.335938 574.015625 C 819.910156 574.015625 825.460938 575.992188 829.976562 579.929688 C 834.496094 583.851562 836.753906 588.832031 836.753906 594.847656 C 836.753906 600.875 834.539062 605.84375 830.128906 609.765625 C 825.707031 613.671875 820.113281 615.621094 813.335938 615.621094 C 806.28125 615.621094 800.566406 613.679688 796.191406 609.796875 Z M 806.710938 588.191406 C 804.941406 589.9375 804.066406 592.167969 804.066406 594.878906 C 804.066406 597.574219 804.90625 599.78125 806.589844 601.503906 C 808.269531 603.214844 810.492188 604.058594 813.25 604.058594 C 815.898438 604.058594 818.078125 603.191406 819.785156 601.445312 C 821.507812 599.707031 822.371094 597.507812 822.371094 594.847656 C 822.371094 592.160156 821.488281 589.9375 819.726562 588.191406 C 817.957031 586.453125 815.804688 585.578125 813.25 585.578125 C 810.648438 585.578125 808.472656 586.453125 806.710938 588.191406 Z M 806.710938 588.191406 " fill-opacity="1" fill-rule="nonzero"/><path fill="#163694" d="M 845.777344 609.617188 C 842.109375 605.597656 840.28125 600.6875 840.28125 594.878906 C 840.28125 589.054688 842.109375 584.121094 845.777344 580.078125 C 849.464844 576.039062 854.136719 574.015625 859.804688 574.015625 C 865.011719 574.015625 869.300781 575.652344 872.671875 578.921875 L 872.671875 548.609375 L 886.222656 548.609375 L 886.222656 614.460938 L 872.820312 614.460938 L 872.820312 610.035156 L 872.671875 610.035156 C 869.300781 613.761719 865.011719 615.621094 859.804688 615.621094 C 854.136719 615.621094 849.464844 613.621094 845.777344 609.617188 Z M 857.339844 588.191406 C 855.570312 589.9375 854.695312 592.167969 854.695312 594.878906 C 854.695312 597.574219 855.535156 599.78125 857.21875 601.503906 C 858.898438 603.214844 861.121094 604.058594 863.875 604.058594 C 866.527344 604.058594 868.707031 603.191406 870.414062 601.445312 C 872.136719 599.707031 873 597.507812 873 594.847656 C 873 592.160156 872.113281 589.9375 870.355469 588.191406 C 868.585938 586.453125 866.433594 585.578125 863.875 585.578125 C 861.277344 585.578125 859.097656 586.453125 857.339844 588.191406 Z M 857.339844 588.191406 " fill-opacity="1" fill-rule="nonzero"/></svg>