<svg xmlns="http://www.w3.org/2000/svg" xmlns:xlink="http://www.w3.org/1999/xlink" width="300" zoomAndPan="magnify" viewBox="0 0 224.87999 74.999997" height="100" preserveAspectRatio="xMidYMid meet" version="1.0"><defs><clipPath id="4d9d2c9966"><path d="M 3 4.355469 L 38.980469 4.355469 L 38.980469 48.578125 L 3 48.578125 Z M 3 4.355469 " clip-rule="nonzero"/></clipPath><clipPath id="15d513ad41"><path d="M 39.050781 6.675781 L 62.132812 6.675781 L 62.132812 48 L 39.050781 48 Z M 39.050781 6.675781 " clip-rule="nonzero"/></clipPath><clipPath id="ce8310dbc4"><path d="M 55.921875 6.730469 L 62.003906 9.367188 L 45.378906 47.695312 L 39.296875 45.054688 Z M 55.921875 6.730469 " clip-rule="nonzero"/></clipPath><clipPath id="978b408bb6"><path d="M 56.5625 6.675781 L 80.4375 6.675781 L 80.4375 48 L 56.5625 48 Z M 56.5625 6.675781 " clip-rule="nonzero"/></clipPath><clipPath id="7cc4bdecf1"><path d="M 56.773438 9.722656 L 63.199219 6.875 L 80.113281 45.074219 L 73.6875 47.917969 Z M 56.773438 9.722656 " clip-rule="nonzero"/></clipPath><clipPath id="c02993d664"><path d="M 54.175781 4.6875 L 58.550781 4.6875 L 58.550781 11 L 54.175781 11 Z M 54.175781 4.6875 " clip-rule="nonzero"/></clipPath><clipPath id="4408a4b561"><path d="M 56.832031 4.859375 L 58.402344 5.539062 L 56.132812 10.78125 L 54.5625 10.105469 Z M 56.832031 4.859375 " clip-rule="nonzero"/></clipPath><clipPath id="2df29ccf88"><path d="M 60.539062 4.6875 L 64.917969 4.6875 L 64.917969 11 L 60.539062 11 Z M 60.539062 4.6875 " clip-rule="nonzero"/></clipPath><clipPath id="60f10f6c76"><path d="M 60.632812 5.582031 L 62.183594 4.859375 L 64.597656 10.039062 L 63.046875 10.757812 Z M 60.632812 5.582031 " clip-rule="nonzero"/></clipPath><clipPath id="ec454e811d"><path d="M 56.773438 4.859375 L 62.230469 4.859375 L 62.230469 10.570312 L 56.773438 10.570312 Z M 56.773438 4.859375 " clip-rule="nonzero"/></clipPath><clipPath id="260c767ff4"><path d="M 39.296875 44.984375 L 42.425781 44.984375 L 42.425781 48.417969 L 39.296875 48.417969 Z M 39.296875 44.984375 " clip-rule="nonzero"/></clipPath><clipPath id="3499a99eb5"><path d="M 39.59375 44.984375 L 42.128906 44.984375 C 42.207031 44.984375 42.28125 45.015625 42.339844 45.074219 C 42.394531 45.128906 42.425781 45.203125 42.425781 45.28125 L 42.425781 48.121094 C 42.425781 48.199219 42.394531 48.273438 42.339844 48.328125 C 42.28125 48.386719 42.207031 48.417969 42.128906 48.417969 L 39.59375 48.417969 C 39.515625 48.417969 39.4375 48.386719 39.382812 48.328125 C 39.328125 48.273438 39.296875 48.199219 39.296875 48.121094 L 39.296875 45.28125 C 39.296875 45.203125 39.328125 45.128906 39.382812 45.074219 C 39.4375 45.015625 39.515625 44.984375 39.59375 44.984375 Z M 39.59375 44.984375 " clip-rule="nonzero"/></clipPath><clipPath id="35c5856f67"><path d="M 42.054688 44.984375 L 45.410156 44.984375 L 45.410156 48.417969 L 42.054688 48.417969 Z M 42.054688 44.984375 " clip-rule="nonzero"/></clipPath><clipPath id="3b027a413a"><path d="M 42.351562 44.984375 L 45.113281 44.984375 C 45.191406 44.984375 45.265625 45.015625 45.324219 45.074219 C 45.378906 45.128906 45.410156 45.203125 45.410156 45.28125 L 45.410156 48.121094 C 45.410156 48.199219 45.378906 48.273438 45.324219 48.328125 C 45.265625 48.386719 45.191406 48.417969 45.113281 48.417969 L 42.351562 48.417969 C 42.273438 48.417969 42.199219 48.386719 42.140625 48.328125 C 42.085938 48.273438 42.054688 48.199219 42.054688 48.121094 L 42.054688 45.28125 C 42.054688 45.203125 42.085938 45.128906 42.140625 45.074219 C 42.199219 45.015625 42.273438 44.984375 42.351562 44.984375 Z M 42.351562 44.984375 " clip-rule="nonzero"/></clipPath><clipPath id="f7438cbeb4"><path d="M 73.640625 44.984375 L 76.996094 44.984375 L 76.996094 48.421875 L 73.640625 48.421875 Z M 73.640625 44.984375 " clip-rule="nonzero"/></clipPath><clipPath id="8eada68c34"><path d="M 73.9375 44.984375 L 76.699219 44.984375 C 76.777344 44.984375 76.855469 45.015625 76.910156 45.074219 C 76.964844 45.128906 76.996094 45.203125 76.996094 45.28125 L 76.996094 48.121094 C 76.996094 48.199219 76.964844 48.273438 76.910156 48.328125 C 76.855469 48.386719 76.777344 48.417969 76.699219 48.417969 L 73.9375 48.417969 C 73.859375 48.417969 73.78125 48.386719 73.726562 48.328125 C 73.671875 48.273438 73.640625 48.199219 73.640625 48.121094 L 73.640625 45.28125 C 73.640625 45.203125 73.671875 45.128906 73.726562 45.074219 C 73.78125 45.015625 73.859375 44.984375 73.9375 44.984375 Z M 73.9375 44.984375 " clip-rule="nonzero"/></clipPath><clipPath id="69ada50b76"><path d="M 76.597656 44.972656 L 80.125 44.972656 L 80.125 48.417969 L 76.597656 48.417969 Z M 76.597656 44.972656 " clip-rule="nonzero"/></clipPath><clipPath id="1131b1fe2a"><path d="M 76.910156 44.984375 L 79.816406 44.984375 C 79.894531 44.984375 79.972656 45.015625 80.027344 45.074219 C 80.082031 45.128906 80.113281 45.203125 80.113281 45.28125 L 80.113281 48.121094 C 80.113281 48.199219 80.082031 48.273438 80.027344 48.328125 C 79.972656 48.386719 79.894531 48.417969 79.816406 48.417969 L 76.910156 48.417969 C 76.828125 48.417969 76.753906 48.386719 76.699219 48.328125 C 76.640625 48.273438 76.609375 48.199219 76.609375 48.121094 L 76.609375 45.28125 C 76.609375 45.203125 76.640625 45.128906 76.699219 45.074219 C 76.753906 45.015625 76.828125 44.984375 76.910156 44.984375 Z M 76.910156 44.984375 " clip-rule="nonzero"/></clipPath><clipPath id="cee9f6289c"><path d="M 84.328125 4.121094 L 128 4.121094 L 128 49 L 84.328125 49 Z M 84.328125 4.121094 " clip-rule="nonzero"/></clipPath><clipPath id="1e3125ffc4"><path d="M 134.929688 4 L 173 4 L 173 49 L 134.929688 49 Z M 134.929688 4 " clip-rule="nonzero"/></clipPath><clipPath id="f3f5d7b60a"><path d="M 178.265625 4 L 221.742188 4 L 221.742188 49 L 178.265625 49 Z M 178.265625 4 " clip-rule="nonzero"/></clipPath><clipPath id="273965c0be"><path d="M 69.570312 56.589844 L 80 56.589844 L 80 71 L 69.570312 71 Z M 69.570312 56.589844 " clip-rule="nonzero"/></clipPath><clipPath id="183cbdf561"><path d="M 135 56.589844 L 146 56.589844 L 146 71 L 135 71 Z M 135 56.589844 " clip-rule="nonzero"/></clipPath></defs><g clip-path="url(#4d9d2c9966)"><path fill="#163694" d="M 3.644531 48.328125 L 3.644531 4.792969 L 19.113281 4.792969 C 22.269531 4.792969 25.050781 5.367188 27.464844 6.515625 C 29.878906 7.660156 31.898438 9.214844 33.515625 11.179688 C 35.132812 13.144531 36.359375 15.457031 37.195312 18.117188 C 38.035156 20.777344 38.457031 23.605469 38.457031 26.59375 C 38.457031 29.625 38.019531 32.460938 37.140625 35.097656 C 36.257812 37.738281 35.042969 40.042969 33.484375 42.007812 C 31.929688 43.972656 30.085938 45.519531 27.957031 46.644531 C 25.828125 47.769531 23.535156 48.328125 21.078125 48.328125 Z M 18.871094 42.375 C 21.203125 42.375 23.191406 41.945312 24.828125 41.085938 C 26.464844 40.226562 27.816406 39.078125 28.875 37.648438 C 29.941406 36.214844 30.71875 34.535156 31.207031 32.613281 C 31.699219 30.6875 31.949219 28.683594 31.949219 26.59375 C 31.949219 24.503906 31.699219 22.488281 31.207031 20.542969 C 30.71875 18.601562 29.953125 16.890625 28.90625 15.417969 C 27.867188 13.945312 26.515625 12.765625 24.859375 11.886719 C 23.199219 11.003906 21.203125 10.5625 18.871094 10.5625 L 10.09375 10.5625 L 10.09375 42.375 Z M 18.871094 42.375 " fill-opacity="1" fill-rule="nonzero"/></g><g clip-path="url(#15d513ad41)"><g clip-path="url(#ce8310dbc4)"><path fill="#163694" d="M 55.921875 6.730469 L 62.003906 9.367188 L 45.378906 47.695312 L 39.292969 45.058594 Z M 55.921875 6.730469 " fill-opacity="1" fill-rule="nonzero"/></g></g><g clip-path="url(#978b408bb6)"><g clip-path="url(#7cc4bdecf1)"><path fill="#163694" d="M 56.773438 9.722656 L 63.199219 6.875 L 80.117188 45.082031 L 73.691406 47.925781 Z M 56.773438 9.722656 " fill-opacity="1" fill-rule="nonzero"/></g></g><g clip-path="url(#c02993d664)"><g clip-path="url(#4408a4b561)"><path fill="#163694" d="M 56.832031 4.859375 L 58.402344 5.539062 L 56.132812 10.785156 L 54.5625 10.105469 Z M 56.832031 4.859375 " fill-opacity="1" fill-rule="nonzero"/></g></g><g clip-path="url(#2df29ccf88)"><g clip-path="url(#60f10f6c76)"><path fill="#163694" d="M 60.632812 5.582031 L 62.183594 4.859375 L 64.597656 10.039062 L 63.050781 10.761719 Z M 60.632812 5.582031 " fill-opacity="1" fill-rule="nonzero"/></g></g><g clip-path="url(#ec454e811d)"><path fill="#163694" d="M 56.773438 4.859375 L 62.230469 4.859375 L 62.230469 10.574219 L 56.773438 10.574219 Z M 56.773438 4.859375 " fill-opacity="1" fill-rule="nonzero"/></g><g clip-path="url(#260c767ff4)"><g clip-path="url(#3499a99eb5)"><path fill="#163694" d="M 39.296875 44.984375 L 42.425781 44.984375 L 42.425781 48.417969 L 39.296875 48.417969 Z M 39.296875 44.984375 " fill-opacity="1" fill-rule="nonzero"/></g></g><g clip-path="url(#35c5856f67)"><g clip-path="url(#3b027a413a)"><path fill="#163694" d="M 42.054688 44.984375 L 45.410156 44.984375 L 45.410156 48.417969 L 42.054688 48.417969 Z M 42.054688 44.984375 " fill-opacity="1" fill-rule="nonzero"/></g></g><g clip-path="url(#f7438cbeb4)"><g clip-path="url(#8eada68c34)"><path fill="#163694" d="M 73.640625 44.984375 L 76.996094 44.984375 L 76.996094 48.421875 L 73.640625 48.421875 Z M 73.640625 44.984375 " fill-opacity="1" fill-rule="nonzero"/></g></g><g clip-path="url(#69ada50b76)"><g clip-path="url(#1131b1fe2a)"><path fill="#163694" d="M 76.609375 44.984375 L 80.109375 44.984375 L 80.109375 48.417969 L 76.609375 48.417969 Z M 76.609375 44.984375 " fill-opacity="1" fill-rule="nonzero"/></g></g><g clip-path="url(#cee9f6289c)"><path fill="#163694" d="M 121.507812 4.792969 L 127.953125 4.792969 L 127.953125 48.332031 L 121.570312 48.332031 L 121.570312 14.921875 L 108.859375 32.425781 L 103.886719 32.425781 L 91.113281 14.921875 L 91.113281 48.332031 L 84.667969 48.332031 L 84.667969 4.792969 L 91.113281 4.792969 L 106.339844 25.734375 Z M 121.507812 4.792969 " fill-opacity="1" fill-rule="nonzero"/></g><g clip-path="url(#1e3125ffc4)"><path fill="#163694" d="M 160.679688 25.058594 L 172.53125 25.058594 L 172.53125 41.023438 C 170.566406 43.359375 168.191406 45.261719 165.40625 46.738281 C 162.621094 48.210938 159.59375 48.945312 156.320312 48.945312 C 153.375 48.945312 150.589844 48.351562 147.96875 47.167969 C 145.347656 45.976562 143.078125 44.371094 141.148438 42.34375 C 139.226562 40.316406 137.699219 37.953125 136.574219 35.253906 C 135.449219 32.554688 134.886719 29.664062 134.886719 26.59375 C 134.886719 23.5625 135.449219 20.6875 136.574219 17.96875 C 137.699219 15.246094 139.226562 12.871094 141.148438 10.84375 C 143.078125 8.816406 145.347656 7.210938 147.96875 6.023438 C 150.589844 4.835938 153.375 4.242188 156.320312 4.242188 C 159.023438 4.242188 161.582031 4.773438 163.992188 5.839844 C 166.410156 6.90625 168.578125 8.292969 170.503906 10.011719 L 166.699219 14.867188 C 165.34375 13.433594 163.777344 12.277344 161.996094 11.398438 C 160.21875 10.515625 158.324219 10.074219 156.320312 10.074219 C 154.230469 10.074219 152.273438 10.515625 150.449219 11.398438 C 148.628906 12.277344 147.046875 13.472656 145.695312 14.992188 C 144.34375 16.503906 143.277344 18.253906 142.5 20.238281 C 141.722656 22.226562 141.335938 24.34375 141.335938 26.59375 C 141.335938 28.84375 141.722656 30.960938 142.5 32.949219 C 143.277344 34.933594 144.34375 36.675781 145.695312 38.171875 C 147.046875 39.664062 148.628906 40.839844 150.449219 41.703125 C 152.273438 42.558594 154.230469 42.988281 156.320312 42.988281 C 158.242188 42.988281 160.046875 42.609375 161.722656 41.851562 C 163.402344 41.09375 164.894531 40.078125 166.207031 38.8125 L 166.207031 31.015625 L 160.679688 31.015625 Z M 160.679688 25.058594 " fill-opacity="1" fill-rule="nonzero"/></g><g clip-path="url(#f3f5d7b60a)"><path fill="#163694" d="M 200.042969 4.179688 C 202.988281 4.179688 205.773438 4.773438 208.394531 5.960938 C 211.011719 7.148438 213.292969 8.753906 215.238281 10.78125 C 217.1875 12.808594 218.734375 15.183594 219.878906 17.90625 C 221.023438 20.628906 221.601562 23.5 221.601562 26.53125 C 221.601562 29.601562 221.023438 32.492188 219.878906 35.191406 C 218.734375 37.890625 217.179688 40.253906 215.214844 42.28125 C 213.25 44.308594 210.953125 45.917969 208.332031 47.105469 C 205.710938 48.292969 202.929688 48.882812 199.980469 48.882812 C 197.035156 48.882812 194.25 48.292969 191.628906 47.105469 C 189.007812 45.917969 186.726562 44.308594 184.785156 42.28125 C 182.839844 40.253906 181.304688 37.890625 180.175781 35.191406 C 179.054688 32.492188 178.492188 29.601562 178.492188 26.53125 C 178.492188 23.5 179.054688 20.628906 180.175781 17.90625 C 181.304688 15.183594 182.851562 12.808594 184.816406 10.78125 C 186.78125 8.753906 189.070312 7.148438 191.691406 5.960938 C 194.3125 4.773438 197.09375 4.179688 200.042969 4.179688 Z M 200.042969 42.804688 C 202.132812 42.804688 204.085938 42.382812 205.90625 41.546875 C 207.730469 40.707031 209.316406 39.550781 210.667969 38.078125 C 212.019531 36.601562 213.082031 34.871094 213.859375 32.886719 C 214.636719 30.902344 215.027344 28.78125 215.027344 26.53125 C 215.027344 24.28125 214.636719 22.171875 213.859375 20.207031 C 213.082031 18.242188 212.019531 16.523438 210.667969 15.054688 C 209.316406 13.578125 207.730469 12.421875 205.90625 11.582031 C 204.085938 10.742188 202.132812 10.320312 200.042969 10.320312 C 197.957031 10.320312 196.003906 10.742188 194.179688 11.582031 C 192.359375 12.421875 190.773438 13.578125 189.421875 15.054688 C 188.070312 16.523438 186.996094 18.242188 186.195312 20.207031 C 185.398438 22.171875 185.003906 24.28125 185.003906 26.53125 C 185.003906 28.78125 185.398438 30.902344 186.195312 32.886719 C 186.996094 34.871094 188.070312 36.601562 189.421875 38.078125 C 190.773438 39.550781 192.359375 40.707031 194.179688 41.546875 C 196.003906 42.382812 197.957031 42.804688 200.042969 42.804688 Z M 200.042969 42.804688 " fill-opacity="1" fill-rule="nonzero"/></g><g clip-path="url(#273965c0be)"><path fill="#163694" d="M 75.222656 56.835938 C 75.941406 56.835938 76.640625 56.941406 77.324219 57.152344 C 78.007812 57.359375 78.515625 57.566406 78.84375 57.765625 L 79.328125 58.085938 L 78.109375 60.492188 C 78.011719 60.425781 77.878906 60.339844 77.703125 60.242188 C 77.53125 60.140625 77.210938 60.003906 76.742188 59.832031 C 76.269531 59.660156 75.835938 59.578125 75.433594 59.578125 C 74.929688 59.578125 74.539062 59.683594 74.265625 59.898438 C 73.996094 60.109375 73.863281 60.398438 73.863281 60.765625 C 73.863281 60.941406 73.925781 61.109375 74.054688 61.265625 C 74.183594 61.421875 74.398438 61.585938 74.707031 61.765625 C 75.019531 61.9375 75.292969 62.082031 75.527344 62.1875 C 75.765625 62.296875 76.125 62.453125 76.617188 62.667969 C 77.46875 63.03125 78.199219 63.527344 78.804688 64.152344 C 79.410156 64.773438 79.710938 65.480469 79.710938 66.273438 C 79.710938 67.03125 79.574219 67.695312 79.300781 68.261719 C 79.027344 68.828125 78.652344 69.269531 78.175781 69.59375 C 77.703125 69.914062 77.175781 70.148438 76.597656 70.300781 C 76.019531 70.457031 75.398438 70.539062 74.726562 70.539062 C 74.148438 70.539062 73.582031 70.476562 73.027344 70.359375 C 72.472656 70.242188 72.007812 70.097656 71.636719 69.921875 C 71.261719 69.746094 70.921875 69.570312 70.621094 69.398438 C 70.324219 69.226562 70.105469 69.082031 69.96875 68.964844 L 69.757812 68.789062 L 71.269531 66.261719 C 71.394531 66.363281 71.566406 66.5 71.789062 66.664062 C 72.019531 66.832031 72.414062 67.054688 72.984375 67.328125 C 73.558594 67.609375 74.0625 67.746094 74.5 67.746094 C 75.773438 67.746094 76.410156 67.316406 76.410156 66.453125 C 76.410156 66.269531 76.363281 66.101562 76.273438 65.949219 C 76.183594 65.792969 76.019531 65.636719 75.789062 65.484375 C 75.558594 65.324219 75.355469 65.203125 75.179688 65.109375 C 75.003906 65.019531 74.714844 64.878906 74.316406 64.695312 C 73.917969 64.507812 73.621094 64.367188 73.425781 64.269531 C 72.625 63.878906 72.003906 63.382812 71.566406 62.789062 C 71.132812 62.199219 70.914062 61.558594 70.914062 60.875 C 70.914062 59.691406 71.351562 58.722656 72.226562 57.964844 C 73.101562 57.210938 74.097656 56.835938 75.222656 56.835938 Z M 75.222656 56.835938 " fill-opacity="1" fill-rule="nonzero"/></g><path fill="#163694" d="M 89.4375 66.578125 L 83.472656 66.578125 C 83.472656 67.152344 83.660156 67.582031 84.035156 67.859375 C 84.410156 68.136719 84.816406 68.273438 85.253906 68.273438 C 85.710938 68.273438 86.074219 68.214844 86.339844 68.09375 C 86.609375 67.96875 86.914062 67.726562 87.261719 67.359375 L 89.308594 68.386719 C 88.453125 69.820312 87.03125 70.539062 85.046875 70.539062 C 83.808594 70.539062 82.742188 70.113281 81.859375 69.261719 C 80.96875 68.414062 80.527344 67.390625 80.527344 66.199219 C 80.527344 65 80.96875 63.976562 81.859375 63.121094 C 82.742188 62.261719 83.808594 61.832031 85.046875 61.832031 C 86.347656 61.832031 87.40625 62.210938 88.226562 62.964844 C 89.046875 63.71875 89.457031 64.796875 89.457031 66.191406 C 89.457031 66.386719 89.449219 66.515625 89.4375 66.578125 Z M 83.554688 65.011719 L 86.683594 65.011719 C 86.617188 64.585938 86.445312 64.257812 86.171875 64.027344 C 85.902344 63.796875 85.554688 63.679688 85.128906 63.679688 C 84.65625 63.679688 84.28125 63.804688 84.003906 64.046875 C 83.726562 64.292969 83.574219 64.613281 83.554688 65.011719 Z M 83.554688 65.011719 " fill-opacity="1" fill-rule="nonzero"/><path fill="#163694" d="M 91.339844 69.28125 C 90.574219 68.441406 90.191406 67.414062 90.191406 66.199219 C 90.191406 64.980469 90.574219 63.949219 91.339844 63.101562 C 92.113281 62.257812 93.089844 61.832031 94.277344 61.832031 C 95.367188 61.832031 96.261719 62.175781 96.96875 62.859375 L 96.96875 62.074219 L 99.804688 62.074219 L 99.804688 70.296875 L 97 70.296875 L 97 69.371094 L 96.96875 69.371094 C 96.261719 70.148438 95.367188 70.539062 94.277344 70.539062 C 93.089844 70.539062 92.113281 70.121094 91.339844 69.28125 Z M 93.761719 64.800781 C 93.390625 65.164062 93.207031 65.628906 93.207031 66.199219 C 93.207031 66.761719 93.382812 67.222656 93.734375 67.585938 C 94.085938 67.941406 94.550781 68.121094 95.128906 68.121094 C 95.683594 68.121094 96.136719 67.9375 96.496094 67.574219 C 96.855469 67.207031 97.035156 66.75 97.035156 66.191406 C 97.035156 65.628906 96.851562 65.164062 96.484375 64.800781 C 96.113281 64.433594 95.664062 64.253906 95.128906 64.253906 C 94.582031 64.253906 94.128906 64.433594 93.761719 64.800781 Z M 93.761719 64.800781 " fill-opacity="1" fill-rule="nonzero"/><path fill="#163694" d="M 113.75 57.078125 L 113.75 59.71875 L 109.117188 59.71875 L 109.117188 62.347656 L 113.394531 62.347656 L 113.394531 64.992188 L 109.117188 64.992188 L 109.117188 70.296875 L 106.109375 70.296875 L 106.109375 57.078125 Z M 113.75 57.078125 " fill-opacity="1" fill-rule="nonzero"/><path fill="#163694" d="M 115.964844 69.320312 C 115.054688 68.507812 114.597656 67.464844 114.597656 66.199219 C 114.597656 64.925781 115.074219 63.882812 116.023438 63.0625 C 116.976562 62.242188 118.152344 61.832031 119.554688 61.832031 C 120.929688 61.832031 122.089844 62.246094 123.035156 63.070312 C 123.980469 63.890625 124.453125 64.933594 124.453125 66.191406 C 124.453125 67.453125 123.992188 68.492188 123.066406 69.3125 C 122.140625 70.132812 120.972656 70.539062 119.554688 70.539062 C 118.078125 70.539062 116.882812 70.132812 115.964844 69.320312 Z M 118.167969 64.800781 C 117.796875 65.164062 117.613281 65.628906 117.613281 66.199219 C 117.613281 66.761719 117.789062 67.222656 118.144531 67.585938 C 118.492188 67.941406 118.957031 68.121094 119.535156 68.121094 C 120.089844 68.121094 120.546875 67.9375 120.902344 67.574219 C 121.265625 67.207031 121.445312 66.75 121.445312 66.191406 C 121.445312 65.628906 121.257812 65.164062 120.890625 64.800781 C 120.519531 64.433594 120.070312 64.253906 119.535156 64.253906 C 118.992188 64.253906 118.535156 64.433594 118.167969 64.800781 Z M 118.167969 64.800781 " fill-opacity="1" fill-rule="nonzero"/><path fill="#163694" d="M 126.558594 69.320312 C 125.648438 68.507812 125.191406 67.464844 125.191406 66.199219 C 125.191406 64.925781 125.664062 63.882812 126.617188 63.0625 C 127.570312 62.242188 128.746094 61.832031 130.148438 61.832031 C 131.523438 61.832031 132.683594 62.246094 133.628906 63.070312 C 134.574219 63.890625 135.046875 64.933594 135.046875 66.191406 C 135.046875 67.453125 134.582031 68.492188 133.660156 69.3125 C 132.734375 70.132812 131.566406 70.539062 130.148438 70.539062 C 128.671875 70.539062 127.476562 70.132812 126.558594 69.320312 Z M 128.761719 64.800781 C 128.390625 65.164062 128.207031 65.628906 128.207031 66.199219 C 128.207031 66.761719 128.382812 67.222656 128.734375 67.585938 C 129.085938 67.941406 129.550781 68.121094 130.128906 68.121094 C 130.683594 68.121094 131.140625 67.9375 131.496094 67.574219 C 131.855469 67.207031 132.039062 66.75 132.039062 66.191406 C 132.039062 65.628906 131.851562 65.164062 131.484375 64.800781 C 131.113281 64.433594 130.664062 64.253906 130.128906 64.253906 C 129.585938 64.253906 129.128906 64.433594 128.761719 64.800781 Z M 128.761719 64.800781 " fill-opacity="1" fill-rule="nonzero"/><g clip-path="url(#183cbdf561)"><path fill="#163694" d="M 136.933594 69.28125 C 136.167969 68.441406 135.785156 67.414062 135.785156 66.199219 C 135.785156 64.980469 136.167969 63.949219 136.933594 63.101562 C 137.707031 62.257812 138.683594 61.832031 139.871094 61.832031 C 140.960938 61.832031 141.855469 62.175781 142.5625 62.859375 L 142.5625 56.515625 L 145.398438 56.515625 L 145.398438 70.296875 L 142.59375 70.296875 L 142.59375 69.371094 L 142.5625 69.371094 C 141.855469 70.148438 140.960938 70.539062 139.871094 70.539062 C 138.683594 70.539062 137.707031 70.121094 136.933594 69.28125 Z M 139.355469 64.800781 C 138.984375 65.164062 138.800781 65.628906 138.800781 66.199219 C 138.800781 66.761719 138.976562 67.222656 139.328125 67.585938 C 139.679688 67.941406 140.144531 68.121094 140.722656 68.121094 C 141.277344 68.121094 141.730469 67.9375 142.089844 67.574219 C 142.449219 67.207031 142.632812 66.75 142.632812 66.191406 C 142.632812 65.628906 142.445312 65.164062 142.078125 64.800781 C 141.707031 64.433594 141.257812 64.253906 140.722656 64.253906 C 140.179688 64.253906 139.722656 64.433594 139.355469 64.800781 Z M 139.355469 64.800781 " fill-opacity="1" fill-rule="nonzero"/></g></svg>