<svg xmlns="http://www.w3.org/2000/svg" xmlns:xlink="http://www.w3.org/1999/xlink" width="100" zoomAndPan="magnify" viewBox="0 0 75 74.999997" height="100" preserveAspectRatio="xMidYMid meet" version="1.0"><defs><clipPath id="053206a858"><path d="M 5.371094 11.796875 L 69.871094 11.796875 L 69.871094 63.546875 L 5.371094 63.546875 Z M 5.371094 11.796875 " clip-rule="nonzero"/></clipPath></defs><g clip-path="url(#053206a858)"><path fill="#fcffc7" d="M 67.480469 11.796875 L 7.515625 11.796875 C 6.339844 11.796875 5.375 12.761719 5.375 13.9375 L 5.375 52.488281 C 5.375 53.667969 6.339844 54.628906 7.515625 54.628906 L 31.074219 54.628906 L 31.074219 58.914062 L 24.648438 58.914062 C 23.472656 58.914062 22.507812 59.875 22.507812 61.054688 C 22.507812 62.234375 23.472656 63.195312 24.648438 63.195312 L 50.347656 63.195312 C 51.527344 63.195312 52.492188 62.234375 52.492188 61.054688 C 52.492188 59.875 51.527344 58.914062 50.347656 58.914062 L 43.925781 58.914062 L 43.925781 54.628906 L 67.480469 54.628906 C 68.660156 54.628906 69.625 53.667969 69.625 52.488281 L 69.625 13.9375 C 69.625 12.761719 68.660156 11.796875 67.480469 11.796875 Z M 39.640625 58.914062 L 35.359375 58.914062 L 35.359375 54.628906 L 39.640625 54.628906 Z M 63.199219 50.347656 L 11.800781 50.347656 C 10.621094 50.347656 9.660156 49.382812 9.660156 48.203125 L 9.660156 18.222656 C 9.660156 17.042969 10.621094 16.082031 11.800781 16.082031 L 63.199219 16.082031 C 64.375 16.082031 65.339844 17.042969 65.339844 18.222656 L 65.339844 48.203125 C 65.339844 49.382812 64.375 50.347656 63.199219 50.347656 Z M 22.507812 24.648438 L 25.183594 24.648438 L 29.019531 38.074219 C 29.0625 38.203125 29.125 38.3125 29.191406 38.417969 C 29.234375 38.503906 29.253906 38.589844 29.316406 38.675781 C 29.402344 38.804688 29.511719 38.890625 29.617188 38.996094 C 29.683594 39.058594 29.726562 39.125 29.8125 39.1875 C 29.9375 39.273438 30.066406 39.339844 30.21875 39.402344 C 30.28125 39.425781 30.347656 39.488281 30.410156 39.511719 C 30.625 39.597656 30.859375 39.636719 31.097656 39.636719 L 43.945312 39.636719 C 44.929688 39.636719 45.789062 38.976562 46.023438 38.011719 L 48.164062 29.445312 C 48.335938 28.800781 48.164062 28.117188 47.777344 27.601562 C 47.394531 27.089844 46.75 26.789062 46.085938 26.789062 L 30.261719 26.789062 L 28.867188 21.925781 C 28.613281 21.007812 27.753906 20.363281 26.8125 20.363281 L 22.53125 20.363281 C 21.351562 20.363281 20.386719 21.328125 20.386719 22.503906 C 20.386719 23.683594 21.351562 24.648438 22.53125 24.648438 Z M 43.324219 31.070312 L 42.253906 35.355469 L 32.746094 35.355469 L 31.675781 31.070312 Z M 35.359375 43.921875 C 35.359375 45.101562 34.394531 46.0625 33.214844 46.0625 C 32.039062 46.0625 31.074219 45.101562 31.074219 43.921875 C 31.074219 42.742188 32.039062 41.78125 33.214844 41.78125 C 34.394531 41.78125 35.359375 42.742188 35.359375 43.921875 Z M 43.925781 43.921875 C 43.925781 45.101562 42.960938 46.0625 41.78125 46.0625 C 40.605469 46.0625 39.640625 45.101562 39.640625 43.921875 C 39.640625 42.742188 40.605469 41.78125 41.78125 41.78125 C 42.960938 41.78125 43.925781 42.742188 43.925781 43.921875 Z M 43.925781 43.921875 " fill-opacity="1" fill-rule="nonzero"/></g></svg>