<svg xmlns="http://www.w3.org/2000/svg" xmlns:xlink="http://www.w3.org/1999/xlink" width="100" zoomAndPan="magnify" viewBox="0 0 75 74.999997" height="100" preserveAspectRatio="xMidYMid meet" version="1.0"><defs><clipPath id="33f6475673"><path d="M 7.5 5.414062 L 67.5 5.414062 L 67.5 69.914062 L 7.5 69.914062 Z M 7.5 5.414062 " clip-rule="nonzero"/></clipPath></defs><g clip-path="url(#33f6475673)"><path fill="#545454" d="M 66.15625 66.910156 L 60.824219 66.910156 L 60.824219 62.910156 L 64.820312 62.910156 C 65.558594 62.910156 66.15625 62.3125 66.15625 61.578125 L 66.15625 25.59375 C 66.15625 25.125 65.910156 24.691406 65.507812 24.449219 C 58.441406 20.210938 58.765625 20.378906 58.515625 20.308594 C 58.464844 20.296875 58.410156 20.285156 58.359375 20.277344 C 58.34375 20.273438 58.324219 20.273438 58.308594 20.269531 C 58.191406 20.257812 58.078125 20.261719 57.972656 20.273438 C 57.828125 20.296875 53.578125 21.007812 50.160156 21.574219 L 50.160156 12.265625 C 50.160156 11.859375 49.976562 11.476562 49.660156 11.222656 C 42.398438 5.417969 42.976562 5.859375 42.796875 5.761719 C 42.578125 5.644531 42.34375 5.59375 42.113281 5.601562 C 42.074219 5.605469 42.035156 5.609375 41.996094 5.613281 C 41.980469 5.617188 41.898438 5.621094 41.765625 5.660156 C 41.644531 5.699219 35.867188 8.339844 25.617188 13.007812 C 25.144531 13.222656 24.839844 13.695312 24.839844 14.21875 L 24.839844 23.667969 C 15.511719 20.171875 15.949219 20.328125 15.785156 20.292969 C 15.613281 20.253906 15.429688 20.253906 15.25 20.289062 C 15.234375 20.292969 15.21875 20.292969 15.199219 20.296875 C 15.085938 20.324219 14.988281 20.359375 14.878906 20.421875 C 14.859375 20.429688 14.84375 20.441406 14.828125 20.449219 C 14.800781 20.464844 14.773438 20.480469 14.75 20.5 C 14.742188 20.503906 14.734375 20.507812 14.730469 20.515625 C 14.632812 20.585938 10.707031 23.53125 9.378906 24.527344 C 9.042969 24.777344 8.84375 25.171875 8.84375 25.59375 L 8.84375 61.578125 C 8.84375 62.3125 9.441406 62.910156 10.179688 62.910156 L 11.511719 62.910156 L 11.511719 66.910156 L 8.84375 66.910156 C 8.109375 66.910156 7.511719 67.503906 7.511719 68.242188 C 7.511719 68.976562 8.109375 69.574219 8.84375 69.574219 C 9.617188 69.574219 65.367188 69.574219 66.15625 69.574219 C 66.890625 69.574219 67.488281 68.976562 67.488281 68.242188 C 67.488281 67.503906 66.890625 66.910156 66.15625 66.910156 Z M 58.15625 66.910156 L 54.160156 66.910156 L 54.160156 62.910156 L 58.15625 62.910156 Z M 63.488281 60.246094 L 59.492188 60.246094 L 59.492188 23.949219 L 63.488281 26.347656 Z M 56.824219 60.246094 L 54.160156 60.246094 L 54.160156 54.914062 C 54.160156 54.175781 53.5625 53.582031 52.828125 53.582031 L 43.496094 53.582031 L 43.496094 25.386719 L 56.824219 23.167969 Z M 47.496094 22.019531 L 43.496094 22.6875 L 43.496094 9.707031 L 47.496094 12.90625 Z M 27.503906 15.078125 L 40.832031 9.003906 C 40.832031 10.761719 40.832031 51.484375 40.832031 53.582031 L 31.503906 53.582031 C 30.765625 53.582031 30.167969 54.175781 30.167969 54.914062 L 30.167969 60.246094 L 27.503906 60.246094 C 27.503906 58.082031 27.503906 17.210938 27.503906 15.078125 Z M 24.839844 60.246094 L 16.84375 60.246094 L 16.84375 23.515625 L 24.839844 26.515625 Z M 11.511719 26.257812 L 14.175781 24.257812 L 14.175781 60.246094 C 13.242188 60.246094 12.441406 60.246094 11.511719 60.246094 Z M 14.175781 62.910156 C 17.414062 62.910156 26.921875 62.910156 30.167969 62.910156 L 30.167969 66.910156 L 14.175781 66.910156 Z M 32.835938 66.910156 C 32.835938 65.617188 32.835938 57.542969 32.835938 56.246094 C 35.09375 56.246094 49.222656 56.246094 51.496094 56.246094 C 51.496094 57.535156 51.496094 65.609375 51.496094 66.910156 Z M 32.835938 66.910156 " fill-opacity="1" fill-rule="nonzero"/></g><path fill="#545454" d="M 30.167969 16.261719 L 32.835938 16.261719 L 32.835938 21.59375 L 30.167969 21.59375 Z M 30.167969 16.261719 " fill-opacity="1" fill-rule="nonzero"/><path fill="#545454" d="M 34.167969 16.261719 L 36.832031 16.261719 L 36.832031 21.59375 L 34.167969 21.59375 Z M 34.167969 16.261719 " fill-opacity="1" fill-rule="nonzero"/><path fill="#545454" d="M 30.167969 22.925781 L 32.835938 22.925781 L 32.835938 28.257812 L 30.167969 28.257812 Z M 30.167969 22.925781 " fill-opacity="1" fill-rule="nonzero"/><path fill="#545454" d="M 34.167969 22.925781 L 36.832031 22.925781 L 36.832031 28.257812 L 34.167969 28.257812 Z M 34.167969 22.925781 " fill-opacity="1" fill-rule="nonzero"/><path fill="#545454" d="M 30.167969 29.589844 L 32.835938 29.589844 L 32.835938 34.921875 L 30.167969 34.921875 Z M 30.167969 29.589844 " fill-opacity="1" fill-rule="nonzero"/><path fill="#545454" d="M 34.167969 29.589844 L 36.832031 29.589844 L 36.832031 34.921875 L 34.167969 34.921875 Z M 34.167969 29.589844 " fill-opacity="1" fill-rule="nonzero"/><path fill="#545454" d="M 30.167969 36.253906 L 32.835938 36.253906 L 32.835938 41.585938 L 30.167969 41.585938 Z M 30.167969 36.253906 " fill-opacity="1" fill-rule="nonzero"/><path fill="#545454" d="M 19.507812 29.589844 L 22.171875 29.589844 L 22.171875 34.921875 L 19.507812 34.921875 Z M 19.507812 29.589844 " fill-opacity="1" fill-rule="nonzero"/><path fill="#545454" d="M 19.507812 36.253906 L 22.171875 36.253906 L 22.171875 41.585938 L 19.507812 41.585938 Z M 19.507812 36.253906 " fill-opacity="1" fill-rule="nonzero"/><path fill="#545454" d="M 19.507812 42.917969 L 22.171875 42.917969 L 22.171875 48.25 L 19.507812 48.25 Z M 19.507812 42.917969 " fill-opacity="1" fill-rule="nonzero"/><path fill="#545454" d="M 19.507812 49.582031 L 22.171875 49.582031 L 22.171875 54.914062 L 19.507812 54.914062 Z M 19.507812 49.582031 " fill-opacity="1" fill-rule="nonzero"/><path fill="#545454" d="M 34.167969 36.253906 L 36.832031 36.253906 L 36.832031 41.585938 L 34.167969 41.585938 Z M 34.167969 36.253906 " fill-opacity="1" fill-rule="nonzero"/><path fill="#545454" d="M 44.832031 26.925781 L 47.496094 26.925781 L 47.496094 30.921875 L 44.832031 30.921875 Z M 44.832031 26.925781 " fill-opacity="1" fill-rule="nonzero"/><path fill="#545454" d="M 48.828125 26.925781 L 51.496094 26.925781 L 51.496094 30.921875 L 48.828125 30.921875 Z M 48.828125 26.925781 " fill-opacity="1" fill-rule="nonzero"/><path fill="#545454" d="M 52.828125 26.925781 L 55.492188 26.925781 L 55.492188 30.921875 L 52.828125 30.921875 Z M 52.828125 26.925781 " fill-opacity="1" fill-rule="nonzero"/><path fill="#545454" d="M 44.832031 32.257812 L 47.496094 32.257812 L 47.496094 36.253906 L 44.832031 36.253906 Z M 44.832031 32.257812 " fill-opacity="1" fill-rule="nonzero"/><path fill="#545454" d="M 48.828125 32.257812 L 51.496094 32.257812 L 51.496094 36.253906 L 48.828125 36.253906 Z M 48.828125 32.257812 " fill-opacity="1" fill-rule="nonzero"/><path fill="#545454" d="M 52.828125 32.257812 L 55.492188 32.257812 L 55.492188 36.253906 L 52.828125 36.253906 Z M 52.828125 32.257812 " fill-opacity="1" fill-rule="nonzero"/><path fill="#545454" d="M 44.832031 37.585938 L 47.496094 37.585938 L 47.496094 41.585938 L 44.832031 41.585938 Z M 44.832031 37.585938 " fill-opacity="1" fill-rule="nonzero"/><path fill="#545454" d="M 48.828125 37.585938 L 51.496094 37.585938 L 51.496094 41.585938 L 48.828125 41.585938 Z M 48.828125 37.585938 " fill-opacity="1" fill-rule="nonzero"/><path fill="#545454" d="M 52.828125 37.585938 L 55.492188 37.585938 L 55.492188 41.585938 L 52.828125 41.585938 Z M 52.828125 37.585938 " fill-opacity="1" fill-rule="nonzero"/><path fill="#545454" d="M 44.832031 42.917969 L 47.496094 42.917969 L 47.496094 46.917969 L 44.832031 46.917969 Z M 44.832031 42.917969 " fill-opacity="1" fill-rule="nonzero"/><path fill="#545454" d="M 48.828125 42.917969 L 51.496094 42.917969 L 51.496094 46.917969 L 48.828125 46.917969 Z M 48.828125 42.917969 " fill-opacity="1" fill-rule="nonzero"/><path fill="#545454" d="M 44.832031 48.25 L 47.496094 48.25 L 47.496094 52.246094 L 44.832031 52.246094 Z M 44.832031 48.25 " fill-opacity="1" fill-rule="nonzero"/><path fill="#545454" d="M 30.167969 42.917969 L 32.835938 42.917969 L 32.835938 48.25 L 30.167969 48.25 Z M 30.167969 42.917969 " fill-opacity="1" fill-rule="nonzero"/><path fill="#545454" d="M 35.5 57.578125 L 48.828125 57.578125 L 48.828125 60.246094 L 35.5 60.246094 Z M 35.5 57.578125 " fill-opacity="1" fill-rule="nonzero"/><path fill="#545454" d="M 35.5 61.578125 L 48.828125 61.578125 L 48.828125 64.242188 L 35.5 64.242188 Z M 35.5 61.578125 " fill-opacity="1" fill-rule="nonzero"/></svg>