<svg xmlns="http://www.w3.org/2000/svg" xmlns:xlink="http://www.w3.org/1999/xlink" width="100" zoomAndPan="magnify" viewBox="0 0 75 74.999997" height="100" preserveAspectRatio="xMidYMid meet" version="1.0"><defs><clipPath id="30af32dcea"><path d="M 6.007812 5.121094 L 69 5.121094 L 69 69.621094 L 6.007812 69.621094 Z M 6.007812 5.121094 " clip-rule="nonzero"/></clipPath></defs><g clip-path="url(#30af32dcea)"><path fill="#545454" d="M 39.210938 67.082031 C 39.957031 67.082031 40.5625 67.6875 40.5625 68.433594 C 40.5625 69.117188 40.054688 69.683594 39.394531 69.773438 L 39.210938 69.785156 L 35.605469 69.785156 C 34.855469 69.785156 34.25 69.179688 34.25 68.433594 C 34.25 67.75 34.761719 67.183594 35.421875 67.09375 L 35.605469 67.082031 Z M 42.820312 63.472656 C 43.566406 63.472656 44.171875 64.078125 44.171875 64.828125 C 44.171875 65.511719 43.664062 66.078125 43.003906 66.167969 L 42.820312 66.179688 L 31.996094 66.179688 C 31.25 66.179688 30.644531 65.574219 30.644531 64.828125 C 30.644531 64.140625 31.152344 63.574219 31.8125 63.484375 L 31.996094 63.472656 Z M 44.625 59.867188 C 45.371094 59.867188 45.976562 60.472656 45.976562 61.21875 C 45.976562 61.902344 45.46875 62.46875 44.808594 62.558594 L 44.625 62.570312 L 30.191406 62.570312 C 29.445312 62.570312 28.839844 61.964844 28.839844 61.21875 C 28.839844 60.535156 29.347656 59.96875 30.007812 59.878906 L 30.191406 59.867188 Z M 37.40625 18.378906 C 47.121094 18.378906 54.996094 26.25 54.996094 35.964844 C 54.996094 40.113281 52.523438 44.59375 47.679688 49.464844 C 46.679688 50.472656 46.082031 51.804688 45.988281 53.210938 L 45.976562 53.597656 L 45.976562 56.710938 C 45.976562 57.875 45.089844 58.835938 43.953125 58.953125 L 43.722656 58.964844 L 31.09375 58.964844 C 29.925781 58.964844 28.964844 58.078125 28.851562 56.941406 L 28.839844 56.707031 L 28.839844 53.597656 C 28.839844 52.050781 28.226562 50.566406 27.136719 49.464844 C 22.292969 44.59375 19.820312 40.113281 19.820312 35.964844 C 19.820312 26.25 27.695312 18.378906 37.40625 18.378906 Z M 21.222656 50.636719 C 21.707031 51.121094 21.746094 51.882812 21.34375 52.414062 L 21.222656 52.550781 L 17.394531 56.378906 C 16.867188 56.90625 16.011719 56.90625 15.480469 56.378906 C 14.996094 55.894531 14.957031 55.132812 15.359375 54.601562 L 15.480469 54.464844 L 19.308594 50.636719 C 19.835938 50.109375 20.695312 50.109375 21.222656 50.636719 Z M 55.523438 50.515625 L 55.660156 50.636719 L 59.488281 54.464844 C 60.015625 54.992188 60.015625 55.847656 59.488281 56.378906 C 59.003906 56.863281 58.242188 56.902344 57.710938 56.5 L 57.574219 56.378906 L 53.746094 52.550781 C 53.21875 52.023438 53.21875 51.167969 53.746094 50.636719 C 54.230469 50.152344 54.992188 50.113281 55.523438 50.515625 Z M 37.40625 21.082031 C 29.1875 21.082031 22.527344 27.746094 22.527344 35.964844 C 22.527344 39.261719 24.667969 43.144531 29.054688 47.558594 C 30.542969 49.058594 31.421875 51.050781 31.535156 53.148438 L 31.546875 53.597656 L 31.542969 56.257812 L 43.269531 56.257812 L 43.269531 53.597656 C 43.273438 51.636719 43.945312 49.746094 45.160156 48.230469 L 45.453125 47.886719 L 45.761719 47.558594 C 50.148438 43.144531 52.289062 39.261719 52.289062 35.964844 C 52.289062 27.746094 45.625 21.082031 37.40625 21.082031 Z M 13.132812 33.023438 C 13.878906 33.023438 14.484375 33.628906 14.484375 34.375 C 14.484375 35.058594 13.976562 35.625 13.316406 35.714844 L 13.132812 35.726562 L 7.722656 35.726562 C 6.972656 35.726562 6.367188 35.121094 6.367188 34.375 C 6.367188 33.691406 6.878906 33.125 7.539062 33.035156 L 7.722656 33.023438 Z M 67.25 33.023438 C 67.996094 33.023438 68.601562 33.628906 68.601562 34.375 C 68.601562 35.058594 68.09375 35.625 67.433594 35.714844 L 67.25 35.726562 L 61.835938 35.726562 C 61.089844 35.726562 60.484375 35.121094 60.484375 34.375 C 60.484375 33.691406 60.992188 33.125 61.652344 33.035156 L 61.835938 33.023438 Z M 39.210938 23.789062 C 44.941406 23.789062 49.582031 28.433594 49.582031 34.160156 C 49.582031 34.90625 48.976562 35.515625 48.230469 35.515625 C 47.484375 35.515625 46.878906 34.90625 46.878906 34.160156 C 46.878906 29.925781 43.445312 26.496094 39.210938 26.496094 C 38.464844 26.496094 37.859375 25.890625 37.859375 25.140625 C 37.859375 24.394531 38.464844 23.789062 39.210938 23.789062 Z M 17.257812 12.25 L 17.394531 12.371094 L 21.222656 16.199219 C 21.75 16.726562 21.75 17.585938 21.222656 18.113281 C 20.738281 18.597656 19.976562 18.636719 19.449219 18.234375 L 19.308594 18.113281 L 15.480469 14.285156 C 14.953125 13.757812 14.953125 12.902344 15.480469 12.371094 C 15.964844 11.886719 16.726562 11.847656 17.257812 12.25 Z M 59.488281 12.371094 C 59.972656 12.855469 60.011719 13.617188 59.609375 14.148438 L 59.488281 14.285156 L 55.660156 18.113281 C 55.132812 18.640625 54.277344 18.640625 53.746094 18.113281 C 53.261719 17.628906 53.222656 16.867188 53.625 16.339844 L 53.746094 16.199219 L 57.574219 12.371094 C 58.101562 11.84375 58.957031 11.84375 59.488281 12.371094 Z M 37.484375 5.0625 C 38.167969 5.0625 38.734375 5.570312 38.824219 6.230469 L 38.835938 6.414062 L 38.835938 11.828125 C 38.835938 12.574219 38.230469 13.179688 37.484375 13.179688 C 36.800781 13.179688 36.234375 12.671875 36.144531 12.011719 L 36.132812 11.828125 L 36.132812 6.414062 C 36.132812 5.667969 36.738281 5.0625 37.484375 5.0625 Z M 37.484375 5.0625 " fill-opacity="1" fill-rule="nonzero"/></g></svg>