<svg xmlns="http://www.w3.org/2000/svg" xmlns:xlink="http://www.w3.org/1999/xlink" width="100" zoomAndPan="magnify" viewBox="0 0 75 74.999997" height="100" preserveAspectRatio="xMidYMid meet" version="1.0"><defs><clipPath id="972d25d70e"><path d="M 11 5.550781 L 64 5.550781 L 64 69.300781 L 11 69.300781 Z M 11 5.550781 " clip-rule="nonzero"/></clipPath></defs><g clip-path="url(#972d25d70e)"><path fill="#b2ffaa" d="M 37.574219 5.523438 C 36.835938 5.523438 36.320312 5.808594 35.75 6.121094 C 35.179688 6.433594 34.59375 6.820312 34.019531 7.207031 C 33.445312 7.597656 32.882812 8 32.414062 8.296875 C 31.945312 8.597656 31.515625 8.800781 31.457031 8.8125 C 31.402344 8.832031 30.929688 8.863281 30.371094 8.839844 C 29.8125 8.816406 29.136719 8.753906 28.445312 8.703125 C 27.753906 8.648438 27.042969 8.597656 26.390625 8.609375 C 25.738281 8.621094 25.148438 8.632812 24.507812 9 C 23.871094 9.367188 23.566406 9.878906 23.230469 10.433594 C 22.890625 10.988281 22.582031 11.609375 22.28125 12.234375 C 21.984375 12.855469 21.695312 13.472656 21.441406 13.964844 C 21.183594 14.460938 20.917969 14.839844 20.875 14.882812 C 20.832031 14.921875 20.4375 15.199219 19.941406 15.453125 C 19.445312 15.710938 18.824219 15.992188 18.199219 16.292969 C 17.570312 16.589844 16.945312 16.898438 16.386719 17.234375 C 15.828125 17.566406 15.324219 17.871094 14.957031 18.503906 C 14.585938 19.140625 14.578125 19.726562 14.5625 20.375 C 14.550781 21.023438 14.589844 21.726562 14.644531 22.414062 C 14.695312 23.105469 14.753906 23.773438 14.78125 24.328125 C 14.804688 24.886719 14.773438 25.351562 14.761719 25.410156 C 14.742188 25.46875 14.542969 25.894531 14.242188 26.359375 C 13.9375 26.828125 13.546875 27.382812 13.15625 27.953125 C 12.761719 28.523438 12.363281 29.09375 12.046875 29.664062 C 11.734375 30.230469 11.449219 30.753906 11.449219 31.484375 C 11.449219 32.21875 11.734375 32.726562 12.046875 33.296875 C 12.363281 33.863281 12.761719 34.445312 13.15625 35.015625 C 13.546875 35.585938 13.9375 36.144531 14.242188 36.609375 C 14.542969 37.078125 14.746094 37.496094 14.761719 37.550781 C 14.777344 37.609375 14.808594 38.085938 14.78125 38.640625 C 14.757812 39.195312 14.695312 39.867188 14.644531 40.554688 C 14.589844 41.242188 14.550781 41.9375 14.5625 42.585938 C 14.574219 43.234375 14.589844 43.832031 14.957031 44.464844 C 15.324219 45.101562 15.828125 45.402344 16.386719 45.738281 C 16.945312 46.074219 17.570312 46.378906 18.199219 46.675781 C 18.824219 46.976562 19.445312 47.261719 19.941406 47.515625 C 20.4375 47.769531 20.835938 48.035156 20.875 48.078125 C 20.914062 48.117188 21.15625 48.464844 21.398438 48.917969 L 13.796875 62.011719 C 13.578125 62.394531 13.582031 62.769531 13.8125 63.144531 C 14.042969 63.519531 14.378906 63.695312 14.816406 63.667969 L 21.246094 63.285156 L 24.125 69 C 24.320312 69.390625 24.636719 69.59375 25.074219 69.605469 C 25.511719 69.621094 25.84375 69.4375 26.0625 69.058594 L 33.859375 55.640625 C 33.914062 55.679688 33.964844 55.710938 34.019531 55.75 C 34.59375 56.140625 35.179688 56.527344 35.75 56.839844 C 36.320312 57.152344 36.835938 57.433594 37.574219 57.433594 C 38.3125 57.433594 38.824219 57.152344 39.398438 56.839844 C 39.96875 56.527344 40.554688 56.140625 41.128906 55.75 C 41.183594 55.710938 41.234375 55.675781 41.289062 55.640625 L 49.078125 69.058594 C 49.300781 69.4375 49.628906 69.621094 50.066406 69.609375 C 50.507812 69.597656 50.824219 69.394531 51.023438 69 L 53.902344 63.285156 L 60.328125 63.667969 C 60.769531 63.699219 61.105469 63.527344 61.339844 63.148438 C 61.574219 62.773438 61.578125 62.394531 61.355469 62.011719 L 53.746094 48.921875 C 53.992188 48.464844 54.234375 48.117188 54.273438 48.078125 C 54.3125 48.035156 54.710938 47.769531 55.207031 47.515625 C 55.703125 47.261719 56.320312 46.976562 56.949219 46.675781 C 57.574219 46.378906 58.203125 46.074219 58.761719 45.738281 C 59.316406 45.402344 59.820312 45.101562 60.191406 44.464844 C 60.558594 43.832031 60.570312 43.234375 60.582031 42.585938 C 60.597656 41.9375 60.558594 41.242188 60.503906 40.554688 C 60.449219 39.867188 60.390625 39.195312 60.363281 38.640625 C 60.339844 38.085938 60.371094 37.609375 60.390625 37.550781 C 60.40625 37.492188 60.605469 37.078125 60.910156 36.609375 C 61.210938 36.144531 61.597656 35.585938 61.992188 35.015625 C 62.386719 34.445312 62.785156 33.863281 63.101562 33.296875 C 63.414062 32.726562 63.6875 32.21875 63.6875 31.484375 C 63.6875 30.753906 63.414062 30.230469 63.101562 29.664062 C 62.785156 29.09375 62.386719 28.523438 61.992188 27.953125 C 61.597656 27.382812 61.210938 26.828125 60.910156 26.359375 C 60.605469 25.894531 60.402344 25.464844 60.390625 25.410156 C 60.371094 25.351562 60.339844 24.882812 60.363281 24.328125 C 60.390625 23.773438 60.449219 23.105469 60.503906 22.414062 C 60.558594 21.726562 60.597656 21.023438 60.582031 20.375 C 60.570312 19.726562 60.558594 19.140625 60.191406 18.503906 C 59.820312 17.871094 59.316406 17.566406 58.761719 17.234375 C 58.203125 16.898438 57.574219 16.589844 56.949219 16.292969 C 56.320312 15.992188 55.703125 15.710938 55.207031 15.453125 C 54.710938 15.199219 54.3125 14.921875 54.273438 14.882812 C 54.230469 14.839844 53.960938 14.457031 53.707031 13.964844 C 53.449219 13.472656 53.164062 12.855469 52.863281 12.234375 C 52.5625 11.609375 52.253906 10.988281 51.917969 10.433594 C 51.578125 9.878906 51.273438 9.367188 50.636719 9 C 49.996094 8.632812 49.410156 8.621094 48.757812 8.609375 C 48.105469 8.597656 47.394531 8.652344 46.703125 8.703125 C 46.007812 8.753906 45.332031 8.8125 44.773438 8.839844 C 44.214844 8.863281 43.746094 8.832031 43.6875 8.8125 C 43.632812 8.796875 43.203125 8.597656 42.730469 8.296875 C 42.261719 8 41.699219 7.597656 41.128906 7.207031 C 40.554688 6.820312 39.96875 6.433594 39.398438 6.121094 C 38.824219 5.808594 38.3125 5.523438 37.574219 5.523438 Z M 37.570312 7.730469 C 37.617188 7.75 37.953125 7.835938 38.335938 8.046875 C 38.78125 8.289062 39.324219 8.652344 39.878906 9.03125 C 40.4375 9.410156 40.996094 9.804688 41.53125 10.144531 C 42.066406 10.488281 42.523438 10.777344 43.113281 10.9375 C 43.703125 11.09375 44.242188 11.070312 44.878906 11.039062 C 45.511719 11.011719 46.203125 10.941406 46.875 10.890625 C 47.546875 10.835938 48.203125 10.800781 48.707031 10.808594 C 49.144531 10.820312 49.480469 10.914062 49.527344 10.921875 C 49.558594 10.964844 49.804688 11.203125 50.023438 11.566406 C 50.289062 12 50.574219 12.582031 50.867188 13.183594 C 51.15625 13.789062 51.441406 14.414062 51.730469 14.972656 C 52.023438 15.535156 52.273438 16.011719 52.703125 16.441406 C 53.132812 16.867188 53.613281 17.113281 54.179688 17.402344 C 54.742188 17.691406 55.382812 17.984375 55.992188 18.273438 C 56.597656 18.5625 57.183594 18.851562 57.617188 19.113281 C 57.988281 19.335938 58.226562 19.578125 58.269531 19.609375 C 58.273438 19.660156 58.359375 19.992188 58.367188 20.417969 C 58.378906 20.921875 58.339844 21.574219 58.289062 22.242188 C 58.234375 22.910156 58.179688 23.597656 58.148438 24.226562 C 58.121094 24.855469 58.082031 25.394531 58.242188 25.980469 C 58.398438 26.566406 58.695312 27.019531 59.035156 27.550781 C 59.378906 28.082031 59.785156 28.640625 60.167969 29.191406 C 60.546875 29.742188 60.90625 30.285156 61.148438 30.726562 C 61.355469 31.105469 61.445312 31.433594 61.464844 31.484375 C 61.445312 31.527344 61.359375 31.851562 61.148438 32.230469 C 60.90625 32.671875 60.546875 33.214844 60.167969 33.765625 C 59.785156 34.320312 59.378906 34.886719 59.035156 35.417969 C 58.691406 35.949219 58.398438 36.402344 58.242188 36.988281 C 58.082031 37.574219 58.121094 38.113281 58.148438 38.742188 C 58.179688 39.371094 58.234375 40.058594 58.289062 40.726562 C 58.339844 41.394531 58.378906 42.035156 58.367188 42.539062 C 58.359375 42.96875 58.273438 43.296875 58.269531 43.351562 C 58.226562 43.378906 57.988281 43.625 57.617188 43.847656 C 57.183594 44.109375 56.597656 44.40625 55.992188 44.695312 C 55.382812 44.984375 54.742188 45.265625 54.179688 45.554688 C 53.613281 45.84375 53.132812 46.089844 52.703125 46.519531 C 52.273438 46.945312 52.023438 47.425781 51.730469 47.984375 C 51.441406 48.546875 51.15625 49.179688 50.867188 49.785156 C 50.574219 50.390625 50.289062 50.960938 50.023438 51.390625 C 49.800781 51.753906 49.558594 52.003906 49.527344 52.046875 C 49.480469 52.050781 49.144531 52.140625 48.707031 52.148438 C 48.203125 52.160156 47.546875 52.117188 46.875 52.066406 C 46.203125 52.015625 45.511719 51.949219 44.878906 51.917969 C 44.242188 51.890625 43.703125 51.863281 43.113281 52.019531 C 42.523438 52.175781 42.066406 52.472656 41.53125 52.8125 C 40.996094 53.152344 40.4375 53.558594 39.878906 53.9375 C 39.324219 54.316406 38.78125 54.667969 38.335938 54.914062 C 37.953125 55.121094 37.617188 55.207031 37.570312 55.226562 C 37.523438 55.207031 37.191406 55.117188 36.8125 54.914062 C 36.367188 54.667969 35.820312 54.316406 35.265625 53.9375 C 34.710938 53.558594 34.148438 53.152344 33.617188 52.8125 C 33.082031 52.472656 32.625 52.175781 32.035156 52.019531 C 31.445312 51.863281 30.902344 51.890625 30.269531 51.917969 C 29.636719 51.949219 28.945312 52.015625 28.273438 52.066406 C 27.601562 52.121094 26.945312 52.160156 26.4375 52.148438 C 26.007812 52.136719 25.679688 52.054688 25.621094 52.050781 C 25.59375 52.007812 25.347656 51.761719 25.121094 51.390625 C 24.859375 50.960938 24.570312 50.390625 24.277344 49.785156 C 23.988281 49.179688 23.703125 48.546875 23.414062 47.984375 C 23.121094 47.425781 22.875 46.945312 22.445312 46.519531 C 22.011719 46.089844 21.519531 45.84375 20.957031 45.554688 C 20.390625 45.265625 19.761719 44.984375 19.15625 44.695312 C 18.546875 44.40625 17.960938 44.105469 17.527344 43.847656 C 17.160156 43.625 16.921875 43.382812 16.875 43.351562 C 16.875 43.296875 16.785156 42.96875 16.777344 42.539062 C 16.765625 42.035156 16.808594 41.394531 16.859375 40.726562 C 16.910156 40.058594 16.96875 39.371094 16.996094 38.742188 C 17.027344 38.113281 17.0625 37.574219 16.90625 36.988281 C 16.746094 36.402344 16.453125 35.949219 16.109375 35.417969 C 15.765625 34.886719 15.359375 34.320312 14.976562 33.765625 C 14.597656 33.214844 14.242188 32.671875 14 32.230469 C 13.789062 31.851562 13.703125 31.527344 13.679688 31.484375 C 13.703125 31.433594 13.789062 31.101562 14 30.726562 C 14.242188 30.285156 14.597656 29.742188 14.976562 29.191406 C 15.359375 28.640625 15.765625 28.082031 16.109375 27.550781 C 16.453125 27.019531 16.746094 26.566406 16.90625 25.980469 C 17.0625 25.394531 17.027344 24.855469 16.996094 24.226562 C 16.96875 23.597656 16.910156 22.910156 16.859375 22.242188 C 16.808594 21.574219 16.765625 20.921875 16.777344 20.417969 C 16.785156 19.992188 16.875 19.660156 16.875 19.609375 C 16.921875 19.578125 17.160156 19.332031 17.527344 19.113281 C 17.960938 18.851562 18.546875 18.5625 19.15625 18.273438 C 19.761719 17.984375 20.390625 17.691406 20.957031 17.402344 C 21.519531 17.113281 22.011719 16.867188 22.445312 16.441406 C 22.875 16.011719 23.121094 15.535156 23.414062 14.972656 C 23.703125 14.414062 23.988281 13.789062 24.277344 13.183594 C 24.570312 12.582031 24.859375 12 25.121094 11.566406 C 25.347656 11.199219 25.589844 10.960938 25.621094 10.917969 C 25.671875 10.910156 26.003906 10.820312 26.4375 10.808594 C 26.945312 10.796875 27.601562 10.839844 28.273438 10.890625 C 28.945312 10.941406 29.636719 11.007812 30.269531 11.039062 C 30.902344 11.070312 31.445312 11.089844 32.035156 10.9375 C 32.625 10.777344 33.082031 10.488281 33.617188 10.144531 C 34.148438 9.804688 34.710938 9.410156 35.265625 9.03125 C 35.820312 8.652344 36.367188 8.289062 36.8125 8.046875 C 37.191406 7.839844 37.523438 7.753906 37.570312 7.730469 Z M 37.570312 14.820312 C 28.335938 14.820312 20.820312 22.296875 20.820312 31.484375 C 20.820312 40.675781 28.335938 48.136719 37.570312 48.136719 C 46.808594 48.136719 54.324219 40.675781 54.324219 31.484375 C 54.324219 22.296875 46.808594 14.820312 37.570312 14.820312 Z M 37.570312 17.03125 C 45.621094 17.03125 52.113281 23.496094 52.113281 31.484375 C 52.113281 39.476562 45.621094 45.929688 37.570312 45.929688 C 29.523438 45.929688 23.03125 39.476562 23.03125 31.484375 C 23.03125 23.496094 29.523438 17.03125 37.570312 17.03125 Z M 37.570312 25.605469 C 37.246094 25.605469 36.972656 25.730469 36.753906 25.972656 L 34.324219 28.65625 L 30.167969 25.800781 C 29.980469 25.671875 29.777344 25.609375 29.554688 25.609375 C 29.328125 25.605469 29.125 25.667969 28.9375 25.792969 C 28.75 25.914062 28.613281 26.078125 28.527344 26.285156 C 28.441406 26.492188 28.417969 26.707031 28.460938 26.925781 L 30.328125 36.460938 C 30.378906 36.71875 30.507812 36.933594 30.710938 37.105469 C 30.914062 37.273438 31.148438 37.355469 31.414062 37.355469 L 43.730469 37.355469 C 43.996094 37.355469 44.230469 37.273438 44.433594 37.105469 C 44.640625 36.933594 44.765625 36.71875 44.816406 36.460938 L 46.683594 26.925781 C 46.726562 26.707031 46.703125 26.492188 46.617188 26.285156 C 46.53125 26.078125 46.394531 25.914062 46.207031 25.792969 C 46.019531 25.667969 45.816406 25.605469 45.589844 25.609375 C 45.367188 25.609375 45.164062 25.671875 44.976562 25.800781 L 40.824219 28.65625 L 38.386719 25.972656 C 38.167969 25.730469 37.898438 25.605469 37.570312 25.605469 Z M 37.570312 28.359375 L 39.832031 30.859375 C 40.015625 31.0625 40.246094 31.179688 40.519531 31.214844 C 40.796875 31.246094 41.046875 31.183594 41.273438 31.027344 L 44 29.152344 L 42.824219 35.148438 L 32.320312 35.148438 L 31.152344 29.152344 L 33.871094 31.027344 C 34.097656 31.183594 34.347656 31.246094 34.625 31.210938 C 34.898438 31.179688 35.125 31.0625 35.3125 30.859375 Z M 22.566406 51.308594 C 22.777344 51.734375 22.996094 52.15625 23.230469 52.539062 C 23.566406 53.09375 23.871094 53.59375 24.507812 53.960938 C 25.148438 54.328125 25.738281 54.335938 26.390625 54.347656 C 27.042969 54.359375 27.753906 54.320312 28.445312 54.269531 C 29.136719 54.214844 29.8125 54.148438 30.371094 54.121094 C 30.929688 54.097656 31.402344 54.136719 31.457031 54.15625 C 31.496094 54.167969 31.71875 54.269531 32.003906 54.425781 L 25.183594 66.191406 L 22.890625 61.644531 C 22.792969 61.449219 22.648438 61.292969 22.457031 61.183594 C 22.265625 61.070312 22.0625 61.023438 21.839844 61.035156 L 16.742188 61.34375 Z M 52.578125 51.308594 L 58.402344 61.34375 L 53.3125 61.035156 C 53.09375 61.019531 52.886719 61.070312 52.695312 61.179688 C 52.503906 61.292969 52.359375 61.445312 52.261719 61.644531 L 49.96875 66.1875 L 43.140625 54.429688 C 43.425781 54.269531 43.648438 54.164062 43.6875 54.15625 C 43.746094 54.136719 44.214844 54.09375 44.773438 54.121094 C 45.332031 54.144531 46.007812 54.214844 46.703125 54.269531 C 47.394531 54.320312 48.105469 54.363281 48.757812 54.347656 C 49.410156 54.335938 49.996094 54.328125 50.636719 53.960938 C 51.273438 53.59375 51.578125 53.09375 51.917969 52.539062 C 52.148438 52.15625 52.367188 51.734375 52.578125 51.308594 Z M 52.578125 51.308594 " fill-opacity="1" fill-rule="nonzero"/></g></svg>