<svg xmlns="http://www.w3.org/2000/svg" xmlns:xlink="http://www.w3.org/1999/xlink" width="100" zoomAndPan="magnify" viewBox="0 0 75 74.999997" height="100" preserveAspectRatio="xMidYMid meet" version="1.0"><defs><clipPath id="129db568fc"><path d="M 5.4375 6.917969 L 69.9375 6.917969 L 69.9375 68.417969 L 5.4375 68.417969 Z M 5.4375 6.917969 " clip-rule="nonzero"/></clipPath></defs><g clip-path="url(#129db568fc)"><path fill="#545454" d="M 9.832031 6.917969 C 9.636719 6.917969 9.453125 6.957031 9.273438 7.03125 C 9.097656 7.105469 8.9375 7.210938 8.800781 7.347656 C 8.664062 7.484375 8.558594 7.640625 8.484375 7.820312 C 8.414062 7.996094 8.375 8.183594 8.375 8.375 L 8.375 13.992188 C 8.316406 14.1875 7.675781 16.3125 6.980469 18.695312 C 6.613281 19.941406 6.25 21.207031 5.972656 22.199219 C 5.832031 22.695312 5.71875 23.121094 5.632812 23.453125 C 5.589844 23.621094 5.554688 23.757812 5.527344 23.886719 C 5.5 24.015625 5.464844 24.011719 5.464844 24.394531 C 5.464844 25.890625 6.050781 27.25 6.992188 28.289062 C 6.941406 28.441406 6.917969 28.601562 6.917969 28.761719 L 6.917969 66.625 C 6.917969 66.816406 6.957031 67.003906 7.03125 67.179688 C 7.105469 67.359375 7.210938 67.515625 7.347656 67.652344 C 7.480469 67.789062 7.640625 67.894531 7.816406 67.96875 C 7.996094 68.042969 8.183594 68.078125 8.375 68.078125 L 16.867188 68.078125 C 17.027344 68.105469 17.183594 68.105469 17.34375 68.078125 L 37.253906 68.078125 C 37.414062 68.105469 37.570312 68.105469 37.730469 68.078125 L 57.640625 68.078125 C 57.800781 68.105469 57.957031 68.105469 58.117188 68.078125 L 66.625 68.078125 C 66.816406 68.078125 67.003906 68.042969 67.179688 67.96875 C 67.359375 67.894531 67.515625 67.789062 67.652344 67.652344 C 67.789062 67.515625 67.894531 67.359375 67.96875 67.179688 C 68.042969 67.003906 68.078125 66.816406 68.078125 66.625 L 68.078125 28.761719 C 68.082031 28.601562 68.054688 28.441406 68.003906 28.289062 C 68.945312 27.25 69.535156 25.890625 69.535156 24.394531 C 69.535156 24.011719 69.496094 24.015625 69.46875 23.886719 C 69.441406 23.757812 69.40625 23.621094 69.363281 23.453125 C 69.28125 23.121094 69.164062 22.695312 69.027344 22.199219 C 68.75 21.207031 68.382812 19.941406 68.019531 18.695312 C 67.320312 16.3125 66.683594 14.1875 66.625 13.992188 L 66.625 8.375 C 66.625 8.183594 66.585938 7.996094 66.511719 7.820312 C 66.4375 7.640625 66.332031 7.484375 66.195312 7.347656 C 66.058594 7.210938 65.902344 7.105469 65.722656 7.03125 C 65.546875 6.957031 65.359375 6.917969 65.167969 6.917969 Z M 11.289062 9.832031 L 63.710938 9.832031 L 63.710938 12.746094 L 11.289062 12.746094 Z M 10.917969 15.65625 L 64.082031 15.65625 C 64.296875 16.382812 64.65625 17.5625 65.226562 19.515625 C 65.589844 20.753906 65.953125 22.011719 66.222656 22.980469 C 66.355469 23.464844 66.46875 23.875 66.542969 24.167969 C 66.574219 24.285156 66.589844 24.363281 66.605469 24.433594 C 66.582031 26.039062 65.320312 27.304688 63.710938 27.304688 C 62.085938 27.304688 60.796875 26.019531 60.796875 24.394531 C 60.800781 24.203125 60.765625 24.023438 60.695312 23.847656 C 60.625 23.671875 60.523438 23.515625 60.390625 23.378906 C 60.261719 23.242188 60.109375 23.132812 59.9375 23.058594 C 59.761719 22.980469 59.582031 22.9375 59.394531 22.929688 C 59.203125 22.925781 59.019531 22.953125 58.84375 23.019531 C 58.664062 23.082031 58.503906 23.179688 58.367188 23.304688 C 58.226562 23.433594 58.113281 23.582031 58.03125 23.753906 C 57.949219 23.921875 57.902344 24.101562 57.890625 24.292969 C 57.886719 24.324219 57.886719 24.359375 57.886719 24.394531 C 57.886719 26.019531 56.601562 27.304688 54.972656 27.304688 C 53.347656 27.304688 52.0625 26.019531 52.0625 24.394531 C 52.066406 24.039062 51.957031 23.722656 51.730469 23.449219 C 51.699219 23.414062 51.667969 23.378906 51.632812 23.34375 C 51.53125 23.242188 51.414062 23.15625 51.285156 23.085938 C 51.285156 23.085938 51.28125 23.085938 51.28125 23.085938 C 51.238281 23.0625 51.195312 23.042969 51.152344 23.023438 C 51.015625 22.96875 50.875 22.933594 50.726562 22.921875 C 50.679688 22.917969 50.628906 22.917969 50.582031 22.917969 C 50.484375 22.917969 50.386719 22.929688 50.292969 22.953125 C 50.246094 22.960938 50.199219 22.972656 50.152344 22.988281 C 50.105469 23.003906 50.0625 23.019531 50.019531 23.039062 C 50.019531 23.042969 50.015625 23.042969 50.015625 23.042969 C 49.945312 23.074219 49.875 23.113281 49.8125 23.152344 C 49.796875 23.164062 49.777344 23.175781 49.761719 23.183594 C 49.746094 23.199219 49.730469 23.210938 49.714844 23.226562 C 49.652344 23.269531 49.597656 23.320312 49.542969 23.375 C 49.476562 23.445312 49.417969 23.523438 49.367188 23.605469 C 49.34375 23.648438 49.320312 23.6875 49.296875 23.730469 C 49.296875 23.730469 49.296875 23.734375 49.296875 23.734375 C 49.277344 23.777344 49.257812 23.820312 49.238281 23.863281 C 49.238281 23.867188 49.238281 23.867188 49.238281 23.867188 C 49.222656 23.914062 49.210938 23.957031 49.195312 24.003906 C 49.195312 24.003906 49.195312 24.007812 49.195312 24.007812 C 49.183594 24.054688 49.175781 24.101562 49.164062 24.148438 C 49.160156 24.195312 49.152344 24.242188 49.152344 24.292969 C 49.148438 24.328125 49.148438 24.359375 49.148438 24.394531 C 49.148438 26.019531 47.863281 27.304688 46.238281 27.304688 C 44.609375 27.304688 43.324219 26.019531 43.324219 24.394531 C 43.324219 24.34375 43.324219 24.296875 43.320312 24.25 C 43.292969 23.949219 43.183594 23.683594 42.996094 23.453125 C 42.996094 23.453125 42.996094 23.449219 42.996094 23.449219 C 42.867188 23.296875 42.71875 23.175781 42.542969 23.085938 C 42.503906 23.0625 42.457031 23.042969 42.414062 23.023438 C 42.277344 22.96875 42.136719 22.933594 41.988281 22.921875 C 41.894531 22.914062 41.796875 22.914062 41.699219 22.925781 C 41.652344 22.933594 41.601562 22.941406 41.554688 22.953125 C 41.460938 22.972656 41.371094 23 41.28125 23.039062 C 41.28125 23.042969 41.28125 23.042969 41.277344 23.042969 C 41.207031 23.074219 41.140625 23.113281 41.074219 23.152344 C 41.042969 23.175781 41.007812 23.199219 40.976562 23.226562 C 40.917969 23.269531 40.859375 23.320312 40.808594 23.375 C 40.707031 23.480469 40.625 23.601562 40.558594 23.730469 C 40.558594 23.730469 40.558594 23.734375 40.558594 23.734375 C 40.539062 23.777344 40.519531 23.820312 40.503906 23.863281 C 40.503906 23.867188 40.503906 23.867188 40.503906 23.867188 C 40.484375 23.914062 40.472656 23.957031 40.460938 24.003906 C 40.460938 24.003906 40.460938 24.007812 40.460938 24.007812 C 40.449219 24.054688 40.4375 24.101562 40.429688 24.148438 C 40.421875 24.195312 40.417969 24.242188 40.414062 24.292969 C 40.414062 24.328125 40.410156 24.359375 40.410156 24.394531 C 40.410156 26.019531 39.125 27.304688 37.5 27.304688 C 35.875 27.304688 34.585938 26.019531 34.585938 24.394531 C 34.585938 24.34375 34.585938 24.296875 34.582031 24.25 C 34.554688 23.949219 34.445312 23.683594 34.257812 23.453125 C 34.257812 23.453125 34.257812 23.449219 34.257812 23.449219 C 34.132812 23.296875 33.980469 23.175781 33.808594 23.085938 C 33.765625 23.0625 33.722656 23.042969 33.675781 23.023438 C 33.445312 22.929688 33.210938 22.898438 32.964844 22.925781 C 32.914062 22.933594 32.867188 22.941406 32.816406 22.953125 C 32.722656 22.972656 32.632812 23 32.542969 23.039062 C 32.542969 23.042969 32.542969 23.042969 32.542969 23.042969 C 32.472656 23.074219 32.402344 23.113281 32.335938 23.152344 C 32.320312 23.164062 32.304688 23.175781 32.289062 23.183594 C 32.273438 23.199219 32.257812 23.210938 32.242188 23.226562 C 32.0625 23.363281 31.921875 23.53125 31.824219 23.730469 C 31.824219 23.730469 31.824219 23.734375 31.824219 23.734375 C 31.800781 23.777344 31.78125 23.820312 31.765625 23.863281 C 31.765625 23.867188 31.765625 23.867188 31.765625 23.867188 C 31.75 23.914062 31.734375 23.957031 31.722656 24.003906 C 31.722656 24.003906 31.722656 24.007812 31.722656 24.007812 C 31.710938 24.054688 31.699219 24.101562 31.691406 24.148438 C 31.683594 24.195312 31.679688 24.242188 31.675781 24.292969 C 31.675781 24.328125 31.675781 24.359375 31.675781 24.394531 C 31.675781 26.019531 30.386719 27.304688 28.761719 27.304688 C 27.136719 27.304688 25.851562 26.019531 25.851562 24.394531 C 25.851562 24.34375 25.847656 24.296875 25.84375 24.25 C 25.816406 23.949219 25.710938 23.683594 25.519531 23.453125 C 25.519531 23.453125 25.519531 23.449219 25.519531 23.449219 C 25.394531 23.296875 25.246094 23.175781 25.070312 23.085938 C 25.027344 23.0625 24.984375 23.042969 24.941406 23.023438 C 24.710938 22.929688 24.472656 22.898438 24.226562 22.925781 C 24.175781 22.933594 24.128906 22.941406 24.082031 22.953125 C 23.988281 22.972656 23.894531 23 23.808594 23.039062 C 23.808594 23.042969 23.804688 23.042969 23.804688 23.042969 C 23.734375 23.074219 23.664062 23.113281 23.601562 23.152344 C 23.582031 23.164062 23.566406 23.175781 23.550781 23.183594 C 23.535156 23.199219 23.519531 23.210938 23.503906 23.226562 C 23.324219 23.363281 23.1875 23.53125 23.085938 23.730469 C 23.085938 23.730469 23.085938 23.734375 23.085938 23.734375 C 23.0625 23.777344 23.046875 23.820312 23.027344 23.863281 C 23.027344 23.867188 23.027344 23.867188 23.027344 23.867188 C 23.011719 23.914062 22.996094 23.957031 22.984375 24.003906 C 22.984375 24.003906 22.984375 24.007812 22.984375 24.007812 C 22.972656 24.054688 22.960938 24.101562 22.953125 24.148438 C 22.949219 24.195312 22.941406 24.242188 22.941406 24.292969 C 22.9375 24.328125 22.9375 24.359375 22.9375 24.394531 C 22.9375 26.019531 21.652344 27.304688 20.023438 27.304688 C 18.398438 27.304688 17.113281 26.019531 17.113281 24.394531 C 17.113281 24.34375 17.109375 24.296875 17.105469 24.25 C 17.082031 23.949219 16.972656 23.683594 16.78125 23.453125 C 16.78125 23.453125 16.78125 23.449219 16.78125 23.449219 C 16.65625 23.296875 16.507812 23.175781 16.332031 23.085938 C 16.289062 23.0625 16.246094 23.042969 16.203125 23.023438 C 15.972656 22.929688 15.734375 22.898438 15.488281 22.925781 C 15.441406 22.933594 15.390625 22.941406 15.34375 22.953125 C 15.25 22.972656 15.160156 23 15.070312 23.039062 C 15.070312 23.042969 15.070312 23.042969 15.066406 23.042969 C 14.996094 23.074219 14.929688 23.113281 14.863281 23.152344 C 14.847656 23.164062 14.832031 23.175781 14.816406 23.183594 C 14.796875 23.199219 14.78125 23.210938 14.765625 23.226562 C 14.585938 23.363281 14.449219 23.53125 14.347656 23.730469 C 14.347656 23.730469 14.347656 23.734375 14.347656 23.734375 C 14.328125 23.777344 14.308594 23.820312 14.292969 23.863281 C 14.292969 23.867188 14.292969 23.867188 14.292969 23.867188 C 14.273438 23.914062 14.261719 23.957031 14.25 24.003906 C 14.25 24.003906 14.25 24.007812 14.25 24.007812 C 14.234375 24.054688 14.226562 24.101562 14.21875 24.148438 C 14.210938 24.195312 14.207031 24.242188 14.203125 24.292969 C 14.199219 24.328125 14.199219 24.359375 14.199219 24.394531 C 14.199219 26.019531 12.914062 27.304688 11.289062 27.304688 C 9.675781 27.304688 8.417969 26.039062 8.390625 24.433594 C 8.410156 24.363281 8.425781 24.285156 8.453125 24.167969 C 8.53125 23.875 8.640625 23.464844 8.777344 22.980469 C 9.046875 22.011719 9.410156 20.753906 9.773438 19.515625 C 10.34375 17.5625 10.699219 16.382812 10.917969 15.65625 Z M 15.65625 28.195312 C 16.726562 29.421875 18.28125 30.21875 20.023438 30.21875 C 21.769531 30.21875 23.324219 29.421875 24.394531 28.195312 C 25.464844 29.421875 27.019531 30.21875 28.761719 30.21875 C 30.503906 30.21875 32.058594 29.421875 33.128906 28.195312 C 34.203125 29.421875 35.757812 30.21875 37.5 30.21875 C 39.242188 30.21875 40.796875 29.421875 41.867188 28.195312 C 42.9375 29.421875 44.492188 30.21875 46.238281 30.21875 C 47.980469 30.21875 49.535156 29.421875 50.605469 28.195312 C 51.675781 29.421875 53.230469 30.21875 54.972656 30.21875 C 56.71875 30.21875 58.273438 29.421875 59.34375 28.195312 C 60.414062 29.421875 61.96875 30.21875 63.710938 30.21875 C 64.214844 30.21875 64.699219 30.132812 65.167969 30.007812 L 65.167969 65.167969 L 59.34375 65.167969 L 59.34375 36.042969 C 59.34375 35.851562 59.304688 35.664062 59.230469 35.488281 C 59.15625 35.308594 59.050781 35.152344 58.914062 35.015625 C 58.777344 34.878906 58.621094 34.773438 58.441406 34.699219 C 58.265625 34.625 58.078125 34.585938 57.886719 34.585938 L 37.722656 34.585938 C 37.640625 34.574219 37.558594 34.566406 37.476562 34.566406 C 37.40625 34.570312 37.335938 34.574219 37.265625 34.585938 L 17.113281 34.585938 C 16.917969 34.585938 16.734375 34.625 16.554688 34.699219 C 16.375 34.773438 16.21875 34.878906 16.082031 35.015625 C 15.945312 35.152344 15.839844 35.308594 15.765625 35.488281 C 15.691406 35.664062 15.65625 35.851562 15.65625 36.042969 L 15.65625 65.167969 L 9.832031 65.167969 L 9.832031 30.007812 C 10.300781 30.132812 10.78125 30.21875 11.289062 30.21875 C 13.03125 30.21875 14.585938 29.421875 15.65625 28.195312 Z M 18.570312 37.5 L 36.042969 37.5 L 36.042969 65.167969 L 18.570312 65.167969 Z M 38.957031 37.5 L 56.429688 37.5 L 56.429688 65.167969 L 38.957031 65.167969 Z M 31.675781 49.148438 C 31.480469 49.148438 31.296875 49.1875 31.117188 49.261719 C 30.9375 49.335938 30.78125 49.4375 30.644531 49.574219 C 30.507812 49.710938 30.402344 49.871094 30.328125 50.046875 C 30.253906 50.226562 30.21875 50.414062 30.21875 50.605469 C 30.21875 50.796875 30.253906 50.984375 30.328125 51.164062 C 30.402344 51.339844 30.507812 51.5 30.644531 51.636719 C 30.78125 51.773438 30.9375 51.878906 31.117188 51.949219 C 31.296875 52.023438 31.480469 52.0625 31.675781 52.0625 C 31.867188 52.0625 32.054688 52.023438 32.230469 51.949219 C 32.410156 51.878906 32.566406 51.773438 32.703125 51.636719 C 32.839844 51.5 32.945312 51.339844 33.019531 51.164062 C 33.09375 50.984375 33.128906 50.796875 33.128906 50.605469 C 33.128906 50.414062 33.09375 50.226562 33.019531 50.046875 C 32.945312 49.871094 32.839844 49.710938 32.703125 49.574219 C 32.566406 49.4375 32.410156 49.335938 32.230469 49.261719 C 32.054688 49.1875 31.867188 49.148438 31.675781 49.148438 Z M 43.324219 49.148438 C 43.132812 49.148438 42.945312 49.1875 42.765625 49.261719 C 42.589844 49.335938 42.429688 49.4375 42.292969 49.574219 C 42.15625 49.710938 42.050781 49.871094 41.980469 50.046875 C 41.90625 50.226562 41.867188 50.414062 41.867188 50.605469 C 41.867188 50.796875 41.90625 50.984375 41.980469 51.164062 C 42.050781 51.339844 42.15625 51.5 42.292969 51.636719 C 42.429688 51.773438 42.589844 51.878906 42.765625 51.949219 C 42.945312 52.023438 43.132812 52.0625 43.324219 52.0625 C 43.515625 52.0625 43.703125 52.023438 43.882812 51.949219 C 44.058594 51.878906 44.21875 51.773438 44.355469 51.636719 C 44.492188 51.5 44.59375 51.339844 44.667969 51.164062 C 44.742188 50.984375 44.78125 50.796875 44.78125 50.605469 C 44.78125 50.414062 44.742188 50.226562 44.667969 50.046875 C 44.59375 49.871094 44.492188 49.710938 44.355469 49.574219 C 44.21875 49.4375 44.058594 49.335938 43.882812 49.261719 C 43.703125 49.1875 43.515625 49.148438 43.324219 49.148438 Z M 43.324219 49.148438 " fill-opacity="1" fill-rule="nonzero"/></g></svg>