<svg xmlns="http://www.w3.org/2000/svg" xmlns:xlink="http://www.w3.org/1999/xlink" width="100" zoomAndPan="magnify" viewBox="0 0 75 74.999997" height="100" preserveAspectRatio="xMidYMid meet" version="1.0"><defs><clipPath id="9eccb5d0e7"><path d="M 11 5.40625 L 69.90625 5.40625 L 69.90625 64 L 11 64 Z M 11 5.40625 " clip-rule="nonzero"/></clipPath><clipPath id="3abf88950c"><path d="M 5.40625 37 L 14 37 L 14 46 L 5.40625 46 Z M 5.40625 37 " clip-rule="nonzero"/></clipPath><clipPath id="44facbf609"><path d="M 29 61 L 38 61 L 38 69.90625 L 29 69.90625 Z M 29 61 " clip-rule="nonzero"/></clipPath></defs><g clip-path="url(#9eccb5d0e7)"><path fill="#545454" d="M 68.335938 5.445312 C 64.523438 5.445312 60.089844 6.269531 55.449219 7.824219 C 55.445312 7.824219 55.445312 7.824219 55.441406 7.824219 C 55.4375 7.828125 55.4375 7.828125 55.433594 7.828125 C 55.058594 7.953125 54.683594 8.078125 54.304688 8.210938 C 54.265625 8.226562 54.230469 8.242188 54.191406 8.261719 C 53.257812 8.597656 52.335938 8.964844 51.429688 9.34375 C 51.425781 9.347656 51.417969 9.351562 51.414062 9.351562 C 45.792969 11.71875 40.796875 14.875 37.433594 18.242188 L 30.875 24.800781 L 25.402344 24.800781 C 22.765625 24.800781 20.289062 25.824219 18.425781 27.6875 L 11.855469 34.257812 C 11.5 34.613281 11.398438 35.152344 11.597656 35.613281 C 11.789062 36.066406 12.238281 36.363281 12.726562 36.363281 C 12.738281 36.363281 12.746094 36.363281 12.757812 36.363281 L 23.222656 36.109375 C 22.722656 38.851562 23.027344 41.703125 24.199219 44.269531 C 20.636719 47.925781 17.898438 52.75 20.128906 54.984375 C 20.6875 55.542969 21.410156 55.789062 22.238281 55.789062 C 24.714844 55.789062 28.113281 53.574219 30.855469 50.898438 C 32.628906 51.707031 34.53125 52.128906 36.453125 52.128906 C 37.304688 52.128906 38.160156 52.042969 39.003906 51.886719 L 38.753906 62.355469 C 38.742188 62.859375 39.035156 63.320312 39.5 63.519531 C 39.65625 63.585938 39.820312 63.617188 39.984375 63.617188 C 40.304688 63.617188 40.621094 63.492188 40.855469 63.257812 L 47.425781 56.6875 C 49.289062 54.824219 50.3125 52.347656 50.3125 49.714844 L 50.3125 44.238281 L 56.824219 37.71875 C 60.214844 34.339844 63.378906 29.316406 65.746094 23.652344 C 65.746094 23.652344 65.746094 23.652344 65.746094 23.648438 C 66.140625 22.703125 66.519531 21.746094 66.867188 20.769531 C 66.996094 20.40625 67.113281 20.046875 67.230469 19.683594 C 67.238281 19.675781 67.246094 19.667969 67.25 19.65625 C 67.253906 19.640625 67.253906 19.625 67.257812 19.609375 C 68.808594 14.953125 69.621094 10.5 69.601562 6.667969 C 69.597656 5.992188 69.015625 5.445312 68.335938 5.445312 Z M 23.910156 33.628906 L 15.777344 33.824219 L 20.167969 29.429688 C 21.566406 28.035156 23.421875 27.261719 25.398438 27.261719 L 28.40625 27.261719 L 27.257812 28.414062 C 25.746094 29.929688 24.628906 31.71875 23.910156 33.628906 Z M 28.5625 40.675781 C 27.753906 41.1875 26.9375 41.789062 26.125 42.476562 C 25.363281 40.40625 25.25 38.148438 25.753906 35.992188 C 26.480469 37.761719 27.609375 39.4375 28.5625 40.675781 Z M 29.367188 48.914062 C 25.488281 52.796875 22.28125 53.648438 21.871094 53.242188 C 21.464844 52.832031 22.320312 49.625 26.199219 45.742188 C 27.914062 44.03125 29.75 42.667969 31.367188 41.910156 C 32.320312 41.464844 32.972656 41.34375 33.34375 41.34375 C 33.542969 41.34375 33.660156 41.378906 33.695312 41.417969 C 33.804688 41.527344 33.890625 42.28125 33.203125 43.746094 C 32.445312 45.367188 31.082031 47.199219 29.367188 48.914062 Z M 32.636719 48.988281 C 33.324219 48.175781 33.929688 47.355469 34.441406 46.546875 C 35.699219 47.511719 37.386719 48.628906 39.171875 49.347656 C 37.003906 49.859375 34.726562 49.753906 32.636719 48.988281 Z M 47.847656 49.710938 C 47.847656 51.6875 47.078125 53.546875 45.683594 54.945312 L 41.289062 59.335938 L 41.488281 51.195312 C 43.398438 50.476562 45.191406 49.363281 46.707031 47.847656 L 47.851562 46.703125 L 47.851562 49.710938 Z M 55.082031 35.976562 L 44.960938 46.105469 C 44.515625 46.550781 44.042969 46.953125 43.542969 47.320312 C 43.542969 47.320312 43.539062 47.320312 43.535156 47.324219 C 42.066406 48.171875 38.945312 46.964844 35.621094 44.332031 C 36.691406 41.757812 36.140625 40.375 35.4375 39.675781 C 34.738281 38.972656 33.355469 38.417969 30.777344 39.492188 C 28.289062 36.367188 27.046875 33.363281 27.632812 31.796875 C 28.035156 31.21875 28.488281 30.667969 29 30.15625 L 32.253906 26.902344 L 39.175781 19.984375 C 42.007812 17.148438 46.109375 14.460938 50.789062 12.316406 C 51.28125 14.734375 52.855469 17.417969 55.265625 19.828125 C 57.671875 22.230469 60.359375 23.800781 62.773438 24.289062 C 60.632812 29 57.9375 33.128906 55.082031 35.976562 Z M 63.769531 21.96875 C 61.765625 21.734375 59.210938 20.285156 57.007812 18.082031 C 54.800781 15.878906 53.34375 13.320312 53.109375 11.320312 C 53.707031 11.078125 54.3125 10.84375 54.921875 10.621094 C 54.921875 10.636719 54.925781 10.65625 54.925781 10.671875 C 54.863281 11.914062 55.894531 14.347656 58.3125 16.765625 C 60.742188 19.195312 63.191406 20.21875 64.441406 20.152344 C 64.445312 20.152344 64.457031 20.152344 64.464844 20.152344 C 64.242188 20.765625 64.007812 21.367188 63.769531 21.96875 Z M 65.25 17.738281 C 64.9375 17.703125 64.617188 17.675781 64.296875 17.691406 C 63.890625 17.746094 62.113281 17.078125 60.050781 15.015625 C 58.007812 12.976562 57.382812 11.203125 57.386719 10.804688 C 57.40625 10.476562 57.382812 10.148438 57.339844 9.820312 C 60.796875 8.75 64.167969 8.085938 67.113281 7.941406 C 66.976562 10.882812 66.316406 14.265625 65.25 17.738281 Z M 65.25 17.738281 " fill-opacity="1" fill-rule="nonzero"/></g><path fill="#545454" d="M 45.875 21.015625 C 43.640625 21.015625 41.539062 21.886719 39.960938 23.464844 C 38.382812 25.042969 37.515625 27.140625 37.515625 29.375 C 37.515625 31.609375 38.382812 33.707031 39.960938 35.285156 C 41.539062 36.867188 43.640625 37.734375 45.875 37.734375 C 48.105469 37.734375 50.207031 36.863281 51.785156 35.285156 C 53.363281 33.707031 54.230469 31.609375 54.230469 29.375 C 54.230469 27.140625 53.363281 25.042969 51.785156 23.464844 C 50.207031 21.886719 48.105469 21.015625 45.875 21.015625 Z M 50.042969 33.546875 C 48.929688 34.660156 47.449219 35.269531 45.875 35.269531 C 44.296875 35.269531 42.816406 34.65625 41.703125 33.546875 C 40.589844 32.429688 39.976562 30.953125 39.976562 29.375 C 39.976562 27.800781 40.589844 26.320312 41.703125 25.207031 C 42.816406 24.09375 44.296875 23.480469 45.875 23.480469 C 47.449219 23.480469 48.929688 24.09375 50.042969 25.207031 C 51.15625 26.320312 51.769531 27.800781 51.769531 29.375 C 51.769531 30.949219 51.15625 32.429688 50.042969 33.546875 Z M 50.042969 33.546875 " fill-opacity="1" fill-rule="nonzero"/><g clip-path="url(#3abf88950c)"><path fill="#545454" d="M 7.625 44.785156 L 12.773438 39.636719 C 13.253906 39.15625 13.253906 38.375 12.773438 37.894531 C 12.292969 37.414062 11.511719 37.414062 11.03125 37.894531 L 5.882812 43.042969 C 5.402344 43.527344 5.402344 44.304688 5.882812 44.785156 C 6.121094 45.027344 6.4375 45.148438 6.753906 45.148438 C 7.070312 45.148438 7.382812 45.027344 7.625 44.785156 Z M 7.625 44.785156 " fill-opacity="1" fill-rule="nonzero"/></g><path fill="#545454" d="M 19.09375 55.984375 C 18.613281 55.5 17.835938 55.5 17.351562 55.984375 L 9.382812 63.953125 C 8.902344 64.433594 8.902344 65.210938 9.382812 65.695312 C 9.625 65.933594 9.9375 66.054688 10.253906 66.054688 C 10.570312 66.054688 10.886719 65.933594 11.125 65.695312 L 19.09375 57.726562 C 19.574219 57.246094 19.574219 56.464844 19.09375 55.984375 Z M 19.09375 55.984375 " fill-opacity="1" fill-rule="nonzero"/><path fill="#545454" d="M 15.492188 46.859375 C 15.007812 46.378906 14.230469 46.378906 13.75 46.859375 L 7.003906 53.605469 C 6.523438 54.085938 6.523438 54.867188 7.003906 55.347656 C 7.246094 55.589844 7.558594 55.707031 7.875 55.707031 C 8.191406 55.707031 8.507812 55.589844 8.746094 55.347656 L 15.492188 48.601562 C 15.972656 48.121094 15.972656 47.34375 15.492188 46.859375 Z M 15.492188 46.859375 " fill-opacity="1" fill-rule="nonzero"/><g clip-path="url(#44facbf609)"><path fill="#545454" d="M 35.441406 62.304688 L 30.292969 67.453125 C 29.808594 67.9375 29.808594 68.714844 30.292969 69.195312 C 30.53125 69.4375 30.847656 69.558594 31.164062 69.558594 C 31.476562 69.558594 31.792969 69.4375 32.035156 69.195312 L 37.183594 64.046875 C 37.664062 63.566406 37.664062 62.785156 37.183594 62.304688 C 36.703125 61.824219 35.921875 61.824219 35.441406 62.304688 Z M 35.441406 62.304688 " fill-opacity="1" fill-rule="nonzero"/></g><path fill="#545454" d="M 26.476562 59.585938 L 19.730469 66.332031 C 19.25 66.8125 19.25 67.59375 19.730469 68.074219 C 19.96875 68.3125 20.285156 68.433594 20.601562 68.433594 C 20.917969 68.433594 21.230469 68.3125 21.472656 68.074219 L 28.21875 61.328125 C 28.699219 60.847656 28.699219 60.070312 28.21875 59.585938 C 27.734375 59.105469 26.957031 59.105469 26.476562 59.585938 Z M 26.476562 59.585938 " fill-opacity="1" fill-rule="nonzero"/></svg>