<svg xmlns="http://www.w3.org/2000/svg" xmlns:xlink="http://www.w3.org/1999/xlink" width="100" zoomAndPan="magnify" viewBox="0 0 75 74.999997" height="100" preserveAspectRatio="xMidYMid meet" version="1.0"><defs><clipPath id="a2c474f671"><path d="M 24 8.800781 L 29 8.800781 L 29 18 L 24 18 Z M 24 8.800781 " clip-rule="nonzero"/></clipPath><clipPath id="8a7b13e046"><path d="M 9.484375 22 L 19 22 L 19 26 L 9.484375 26 Z M 9.484375 22 " clip-rule="nonzero"/></clipPath></defs><path fill="#a6a6a6" d="M 49.808594 28.066406 C 48.878906 28.472656 48.160156 29.152344 47.699219 29.980469 C 46.589844 28.007812 44.140625 27.160156 42.027344 28.078125 C 41.050781 28.503906 40.292969 29.257812 39.84375 30.136719 C 38.625 28.542969 36.433594 27.921875 34.503906 28.761719 C 33.59375 29.160156 32.871094 29.828125 32.414062 30.644531 L 28.917969 22.621094 C 27.9375 20.367188 25.296875 19.335938 23.039062 20.316406 C 20.785156 21.300781 19.75 23.929688 20.730469 26.1875 L 29.257812 45.761719 C 27.386719 44.796875 25.027344 45.277344 23.691406 47.011719 C 22.1875 48.957031 22.554688 51.765625 24.5 53.269531 L 38.355469 63.949219 L 38.511719 64.074219 C 39.480469 64.804688 40.570312 65.335938 41.726562 65.632812 C 43.730469 66.175781 45.808594 66.011719 47.726562 65.175781 L 58.742188 60.378906 C 63.378906 58.359375 65.507812 52.945312 63.484375 48.300781 L 55.675781 30.375 C 54.695312 28.121094 52.066406 27.085938 49.808594 28.066406 Z M 61.855469 49.011719 C 63.484375 52.753906 61.769531 57.121094 58.035156 58.75 L 47.019531 63.546875 C 45.472656 64.21875 43.804688 64.34375 42.175781 63.910156 C 41.238281 63.667969 40.371094 63.246094 39.597656 62.660156 L 25.589844 51.863281 C 24.421875 50.957031 24.199219 49.273438 25.105469 48.101562 C 25.394531 47.734375 25.753906 47.464844 26.15625 47.289062 C 27.019531 46.914062 28.0625 46.996094 28.859375 47.621094 L 30.679688 49.019531 L 31.691406 51.34375 C 31.886719 51.796875 32.410156 52 32.863281 51.804688 C 33.3125 51.609375 33.527344 51.078125 33.332031 50.628906 L 22.375 25.476562 C 21.785156 24.125 22.40625 22.554688 23.757812 21.964844 C 25.113281 21.375 26.691406 21.988281 27.28125 23.339844 L 35.316406 41.785156 C 35.511719 42.234375 36.035156 42.441406 36.484375 42.246094 C 36.945312 42.046875 37.152344 41.523438 36.957031 41.070312 L 33.839844 33.921875 C 33.25 32.570312 33.863281 30.988281 35.21875 30.398438 C 36.582031 29.804688 38.15625 30.433594 38.75 31.792969 L 39.726562 33.960938 L 42.554688 40.445312 C 42.75 40.898438 43.273438 41.105469 43.722656 40.90625 C 44.175781 40.710938 44.382812 40.1875 44.183594 39.738281 L 41.355469 33.238281 C 40.765625 31.886719 41.390625 30.3125 42.746094 29.722656 C 44.097656 29.132812 45.679688 29.746094 46.269531 31.097656 L 49.976562 39.609375 C 50.171875 40.0625 50.695312 40.269531 51.148438 40.070312 C 51.597656 39.875 51.804688 39.351562 51.609375 38.898438 L 49.136719 33.230469 C 48.546875 31.875 49.171875 30.292969 50.523438 29.703125 C 51.875 29.113281 53.460938 29.734375 54.050781 31.089844 Z M 61.855469 49.011719 " fill-opacity="1" fill-rule="nonzero"/><path fill="#737373" d="M 54.046875 31.085938 L 61.855469 49.011719 C 63.484375 52.753906 61.769531 57.121094 58.035156 58.75 L 47.019531 63.546875 C 45.472656 64.21875 43.804688 64.34375 42.175781 63.910156 C 41.238281 63.667969 40.371094 63.246094 39.597656 62.660156 L 25.589844 51.863281 C 24.421875 50.957031 24.199219 49.273438 25.105469 48.101562 C 25.394531 47.734375 25.753906 47.464844 26.15625 47.289062 C 27.019531 46.914062 28.0625 46.996094 28.859375 47.621094 L 30.679688 49.019531 L 31.691406 51.34375 C 31.886719 51.796875 32.410156 52 32.863281 51.804688 C 33.3125 51.609375 33.527344 51.078125 33.332031 50.628906 L 22.375 25.476562 C 21.785156 24.125 22.40625 22.554688 23.757812 21.964844 C 25.113281 21.375 26.691406 21.988281 27.28125 23.339844 L 35.316406 41.785156 C 35.511719 42.234375 36.035156 42.441406 36.484375 42.246094 C 36.945312 42.046875 37.152344 41.523438 36.957031 41.070312 L 33.839844 33.921875 C 33.25 32.570312 33.863281 30.988281 35.21875 30.398438 C 36.582031 29.804688 38.15625 30.433594 38.75 31.792969 L 39.726562 33.960938 L 42.554688 40.445312 C 42.75 40.898438 43.273438 41.105469 43.722656 40.90625 C 44.175781 40.710938 44.382812 40.1875 44.183594 39.738281 L 41.355469 33.238281 C 40.765625 31.886719 41.390625 30.3125 42.746094 29.722656 C 44.097656 29.132812 45.679688 29.746094 46.269531 31.097656 L 49.976562 39.609375 C 50.171875 40.0625 50.695312 40.269531 51.148438 40.070312 C 51.597656 39.875 51.804688 39.351562 51.609375 38.898438 L 49.136719 33.230469 C 48.546875 31.875 49.171875 30.292969 50.523438 29.703125 C 51.875 29.109375 53.457031 29.734375 54.046875 31.085938 Z M 54.046875 31.085938 " fill-opacity="1" fill-rule="nonzero"/><path fill="#a6a6a6" d="M 21.46875 17.523438 C 21.152344 17.523438 20.851562 17.339844 20.71875 17.03125 L 17.910156 10.585938 C 17.730469 10.171875 17.921875 9.691406 18.335938 9.511719 C 18.75 9.332031 19.230469 9.519531 19.410156 9.933594 L 22.21875 16.378906 C 22.398438 16.792969 22.207031 17.273438 21.792969 17.453125 C 21.6875 17.5 21.578125 17.523438 21.46875 17.523438 Z M 21.46875 17.523438 " fill-opacity="1" fill-rule="nonzero"/><g clip-path="url(#a2c474f671)"><path fill="#a6a6a6" d="M 25.378906 17.28125 C 25.304688 17.28125 25.226562 17.269531 25.148438 17.246094 C 24.714844 17.117188 24.46875 16.664062 24.597656 16.230469 L 26.589844 9.492188 C 26.714844 9.058594 27.171875 8.8125 27.605469 8.9375 C 28.039062 9.066406 28.285156 9.523438 28.15625 9.953125 L 26.164062 16.695312 C 26.058594 17.050781 25.734375 17.28125 25.378906 17.28125 Z M 25.378906 17.28125 " fill-opacity="1" fill-rule="nonzero"/></g><path fill="#a6a6a6" d="M 29.574219 18.683594 C 29.308594 18.683594 29.050781 18.554688 28.890625 18.316406 C 28.640625 17.941406 28.746094 17.433594 29.121094 17.183594 L 34.980469 13.300781 C 35.355469 13.050781 35.863281 13.15625 36.113281 13.53125 C 36.363281 13.90625 36.257812 14.414062 35.882812 14.664062 L 30.023438 18.546875 C 29.886719 18.640625 29.726562 18.683594 29.574219 18.683594 Z M 29.574219 18.683594 " fill-opacity="1" fill-rule="nonzero"/><g clip-path="url(#8a7b13e046)"><path fill="#a6a6a6" d="M 10.378906 25.828125 C 10.011719 25.828125 9.675781 25.574219 9.585938 25.203125 C 9.480469 24.761719 9.75 24.320312 10.191406 24.214844 L 17.023438 22.570312 C 17.460938 22.464844 17.902344 22.734375 18.007812 23.175781 C 18.113281 23.613281 17.84375 24.054688 17.40625 24.160156 L 10.574219 25.804688 C 10.507812 25.820312 10.445312 25.828125 10.378906 25.828125 Z M 10.378906 25.828125 " fill-opacity="1" fill-rule="nonzero"/></g><path fill="#a6a6a6" d="M 18.625 20.222656 C 18.503906 20.222656 18.378906 20.195312 18.261719 20.136719 L 11.96875 17.007812 C 11.566406 16.804688 11.398438 16.3125 11.601562 15.910156 C 11.800781 15.503906 12.292969 15.339844 12.699219 15.542969 L 18.988281 18.675781 C 19.394531 18.875 19.558594 19.367188 19.355469 19.769531 C 19.214844 20.058594 18.925781 20.222656 18.625 20.222656 Z M 18.625 20.222656 " fill-opacity="1" fill-rule="nonzero"/></svg>