<svg xmlns="http://www.w3.org/2000/svg" xmlns:xlink="http://www.w3.org/1999/xlink" width="100" zoomAndPan="magnify" viewBox="0 0 75 74.999997" height="100" preserveAspectRatio="xMidYMid meet" version="1.0"><defs><clipPath id="5f875b8c08"><path d="M 6.875 7.5 L 68.375 7.5 L 68.375 67.5 L 6.875 67.5 Z M 6.875 7.5 " clip-rule="nonzero"/></clipPath></defs><g clip-path="url(#5f875b8c08)"><path fill="#ffffff" d="M 37.535156 7.503906 C 20.582031 7.503906 6.875 21.253906 6.875 38.261719 C 6.875 51.855469 15.65625 63.363281 27.839844 67.4375 C 29.363281 67.746094 29.917969 66.777344 29.917969 65.960938 C 29.917969 65.25 29.867188 62.804688 29.867188 60.257812 C 21.339844 62.09375 19.566406 56.59375 19.566406 56.59375 C 18.195312 53.027344 16.164062 52.109375 16.164062 52.109375 C 13.371094 50.226562 16.367188 50.226562 16.367188 50.226562 C 19.464844 50.429688 21.085938 53.382812 21.085938 53.382812 C 23.828125 58.070312 28.246094 56.746094 30.019531 55.929688 C 30.273438 53.945312 31.085938 52.570312 31.949219 51.804688 C 25.148438 51.09375 17.992188 48.445312 17.992188 36.628906 C 17.992188 33.269531 19.207031 30.519531 21.136719 28.382812 C 20.832031 27.617188 19.765625 24.460938 21.441406 20.234375 C 21.441406 20.234375 24.03125 19.417969 29.867188 23.390625 C 32.378906 22.714844 34.933594 22.375 37.535156 22.371094 C 40.121094 22.371094 42.761719 22.730469 45.199219 23.390625 C 51.035156 19.417969 53.625 20.234375 53.625 20.234375 C 55.300781 24.460938 54.234375 27.617188 53.929688 28.382812 C 55.90625 30.519531 57.074219 33.269531 57.074219 36.628906 C 57.074219 48.445312 49.917969 51.042969 43.066406 51.804688 C 44.183594 52.773438 45.148438 54.605469 45.148438 57.507812 C 45.148438 61.632812 45.097656 64.945312 45.097656 65.960938 C 45.097656 66.777344 45.65625 67.746094 47.175781 67.4375 C 59.359375 63.363281 68.140625 51.855469 68.140625 38.261719 C 68.191406 21.253906 54.4375 7.503906 37.535156 7.503906 Z M 37.535156 7.503906 " fill-opacity="1" fill-rule="evenodd"/></g></svg>