<svg xmlns="http://www.w3.org/2000/svg" xmlns:xlink="http://www.w3.org/1999/xlink" width="100" zoomAndPan="magnify" viewBox="0 0 75 74.999997" height="100" preserveAspectRatio="xMidYMid meet" version="1.0"><defs><clipPath id="00c59ef84a"><path d="M 5.203125 5.203125 L 69.703125 5.203125 L 69.703125 69.703125 L 5.203125 69.703125 Z M 5.203125 5.203125 " clip-rule="nonzero"/></clipPath></defs><g clip-path="url(#00c59ef84a)"><path fill="#ffffff" d="M 24.09375 5.425781 C 20.664062 5.589844 18.320312 6.136719 16.273438 6.941406 C 14.152344 7.769531 12.355469 8.875 10.566406 10.671875 C 8.777344 12.464844 7.675781 14.261719 6.855469 16.386719 C 6.0625 18.441406 5.523438 20.785156 5.375 24.21875 C 5.222656 27.652344 5.1875 28.753906 5.207031 37.511719 C 5.222656 46.269531 5.261719 47.367188 5.425781 50.808594 C 5.589844 54.238281 6.136719 56.582031 6.941406 58.632812 C 7.769531 60.753906 8.875 62.546875 10.671875 64.335938 C 12.464844 66.125 14.261719 67.222656 16.390625 68.046875 C 18.441406 68.839844 20.789062 69.378906 24.222656 69.527344 C 27.65625 69.679688 28.757812 69.714844 37.515625 69.699219 C 46.269531 69.679688 47.371094 69.640625 50.8125 69.480469 C 54.25 69.316406 56.582031 68.765625 58.632812 67.964844 C 60.753906 67.136719 62.550781 66.03125 64.335938 64.234375 C 66.125 62.4375 67.222656 60.640625 68.042969 58.515625 C 68.839844 56.464844 69.378906 54.117188 69.527344 50.6875 C 69.679688 47.246094 69.714844 46.144531 69.695312 37.390625 C 69.679688 28.632812 69.640625 27.535156 69.476562 24.097656 C 69.3125 20.65625 68.769531 18.320312 67.964844 16.269531 C 67.136719 14.152344 66.027344 12.355469 64.234375 10.566406 C 62.441406 8.777344 60.640625 7.675781 58.515625 6.859375 C 56.460938 6.0625 54.117188 5.523438 50.683594 5.375 C 47.253906 5.226562 46.148438 5.1875 37.390625 5.207031 C 28.632812 5.222656 27.535156 5.257812 24.09375 5.425781 M 24.472656 63.726562 C 21.328125 63.589844 19.621094 63.066406 18.480469 62.632812 C 16.976562 62.050781 15.902344 61.347656 14.769531 60.226562 C 13.632812 59.101562 12.9375 58.027344 12.347656 56.523438 C 11.90625 55.382812 11.375 53.679688 11.226562 50.535156 C 11.066406 47.136719 11.035156 46.117188 11.015625 37.503906 C 10.996094 28.894531 11.03125 27.875 11.179688 24.476562 C 11.3125 21.335938 11.839844 19.625 12.277344 18.488281 C 12.855469 16.980469 13.554688 15.910156 14.679688 14.773438 C 15.804688 13.640625 16.878906 12.945312 18.386719 12.355469 C 19.523438 11.910156 21.226562 11.382812 24.371094 11.234375 C 27.769531 11.074219 28.789062 11.042969 37.398438 11.023438 C 46.007812 11.003906 47.03125 11.035156 50.433594 11.1875 C 53.574219 11.324219 55.285156 11.84375 56.417969 12.28125 C 57.925781 12.863281 59 13.558594 60.132812 14.6875 C 61.265625 15.816406 61.964844 16.886719 62.554688 18.394531 C 62.996094 19.527344 63.523438 21.230469 63.671875 24.375 C 63.835938 27.777344 63.871094 28.796875 63.886719 37.40625 C 63.902344 46.011719 63.871094 47.035156 63.722656 50.433594 C 63.585938 53.578125 63.066406 55.285156 62.628906 56.425781 C 62.046875 57.929688 61.347656 59.003906 60.21875 60.136719 C 59.09375 61.269531 58.023438 61.96875 56.515625 62.558594 C 55.382812 63 53.671875 63.527344 50.535156 63.679688 C 47.132812 63.839844 46.113281 63.871094 37.5 63.890625 C 28.890625 63.910156 27.875 63.875 24.472656 63.726562 M 50.761719 20.214844 C 50.761719 20.726562 50.863281 21.222656 51.058594 21.695312 C 51.257812 22.167969 51.535156 22.585938 51.902344 22.949219 C 52.265625 23.3125 52.683594 23.589844 53.15625 23.785156 C 53.632812 23.980469 54.125 24.078125 54.640625 24.078125 C 55.152344 24.078125 55.644531 23.980469 56.121094 23.78125 C 56.59375 23.585938 57.011719 23.304688 57.375 22.941406 C 57.734375 22.578125 58.015625 22.15625 58.210938 21.683594 C 58.40625 21.207031 58.503906 20.714844 58.503906 20.203125 C 58.5 19.6875 58.402344 19.195312 58.203125 18.722656 C 58.007812 18.246094 57.726562 17.828125 57.363281 17.464844 C 57 17.105469 56.582031 16.824219 56.105469 16.628906 C 55.632812 16.433594 55.136719 16.335938 54.625 16.339844 C 54.113281 16.339844 53.617188 16.4375 53.144531 16.636719 C 52.671875 16.832031 52.253906 17.113281 51.890625 17.476562 C 51.527344 17.839844 51.25 18.257812 51.054688 18.734375 C 50.859375 19.207031 50.761719 19.703125 50.761719 20.214844 M 20.890625 37.484375 C 20.910156 46.628906 28.339844 54.027344 37.480469 54.011719 C 46.625 53.992188 54.027344 46.566406 54.011719 37.417969 C 53.996094 28.273438 46.566406 20.875 37.417969 20.890625 C 28.273438 20.910156 20.875 28.339844 20.890625 37.484375 M 26.699219 37.472656 C 26.699219 36.765625 26.765625 36.066406 26.902344 35.375 C 27.039062 34.683594 27.242188 34.007812 27.511719 33.355469 C 27.78125 32.703125 28.109375 32.082031 28.5 31.496094 C 28.890625 30.910156 29.335938 30.363281 29.835938 29.863281 C 30.332031 29.363281 30.875 28.917969 31.460938 28.523438 C 32.046875 28.128906 32.667969 27.796875 33.316406 27.527344 C 33.96875 27.253906 34.640625 27.050781 35.332031 26.910156 C 36.023438 26.773438 36.722656 26.703125 37.429688 26.699219 C 38.136719 26.699219 38.835938 26.765625 39.527344 26.902344 C 40.21875 27.039062 40.894531 27.242188 41.546875 27.511719 C 42.199219 27.78125 42.820312 28.109375 43.40625 28.5 C 43.992188 28.890625 44.539062 29.335938 45.039062 29.835938 C 45.539062 30.332031 45.984375 30.875 46.378906 31.460938 C 46.769531 32.046875 47.105469 32.664062 47.375 33.316406 C 47.648438 33.96875 47.851562 34.640625 47.992188 35.332031 C 48.128906 36.023438 48.199219 36.722656 48.203125 37.429688 C 48.203125 38.136719 48.136719 38.835938 48 39.527344 C 47.863281 40.21875 47.660156 40.890625 47.390625 41.546875 C 47.121094 42.199219 46.792969 42.816406 46.402344 43.40625 C 46.011719 43.992188 45.566406 44.535156 45.066406 45.039062 C 44.570312 45.539062 44.027344 45.984375 43.441406 46.378906 C 42.855469 46.769531 42.238281 47.101562 41.585938 47.375 C 40.933594 47.644531 40.261719 47.851562 39.570312 47.988281 C 38.878906 48.128906 38.179688 48.199219 37.472656 48.199219 C 36.765625 48.203125 36.066406 48.136719 35.375 48 C 34.683594 47.863281 34.007812 47.660156 33.355469 47.390625 C 32.703125 47.121094 32.082031 46.792969 31.496094 46.402344 C 30.910156 46.011719 30.363281 45.566406 29.863281 45.066406 C 29.363281 44.570312 28.917969 44.027344 28.523438 43.441406 C 28.132812 42.855469 27.796875 42.234375 27.527344 41.585938 C 27.257812 40.933594 27.050781 40.261719 26.910156 39.570312 C 26.773438 38.875 26.703125 38.179688 26.699219 37.472656 " fill-opacity="1" fill-rule="nonzero"/></g></svg>