<svg xmlns="http://www.w3.org/2000/svg" xmlns:xlink="http://www.w3.org/1999/xlink" width="100" zoomAndPan="magnify" viewBox="0 0 75 74.999997" height="100" preserveAspectRatio="xMidYMid meet" version="1.0"><defs><clipPath id="8f847205c5"><path d="M 1.261719 1.261719 L 74 1.261719 L 74 74 L 1.261719 74 Z M 1.261719 1.261719 " clip-rule="nonzero"/></clipPath></defs><g clip-path="url(#8f847205c5)"><path fill="#ffffff" d="M 63.117188 11.875 C 56.5625 5.320312 47.507812 1.265625 37.503906 1.261719 C 37.503906 1.261719 37.5 1.261719 37.496094 1.261719 C 37.496094 1.261719 37.492188 1.261719 37.492188 1.261719 C 27.488281 1.265625 18.429688 5.320312 11.875 11.875 C 9.875 13.878906 8.109375 16.113281 6.617188 18.539062 C 6.585938 18.578125 6.5625 18.617188 6.539062 18.660156 C 3.191406 24.152344 1.261719 30.597656 1.261719 37.496094 C 1.261719 44.398438 3.191406 50.84375 6.539062 56.332031 C 6.5625 56.378906 6.585938 56.417969 6.613281 56.457031 C 8.105469 58.882812 9.875 61.117188 11.875 63.117188 C 18.433594 69.675781 27.492188 73.730469 37.496094 73.730469 C 47.5 73.730469 56.5625 69.675781 63.117188 63.117188 C 69.675781 56.5625 73.730469 47.5 73.730469 37.496094 C 73.730469 27.492188 69.675781 18.433594 63.117188 11.875 Z M 67.179688 53.875 L 59.757812 53.96875 C 61.386719 49.320312 62.355469 44.089844 62.464844 38.554688 L 71.371094 38.648438 C 71.191406 44.160156 69.691406 49.335938 67.179688 53.875 Z M 3.605469 37.921875 L 12.523438 38.019531 C 12.582031 43.976562 13.628906 49.589844 15.4375 54.519531 L 8.234375 54.609375 C 5.355469 49.703125 3.679688 44.003906 3.605469 37.921875 Z M 8.234375 20.386719 L 15.4375 20.476562 C 13.761719 25.050781 12.738281 30.210938 12.550781 35.691406 L 3.65625 35.59375 C 3.960938 30.066406 5.589844 24.894531 8.234375 20.386719 Z M 47.691406 36.066406 C 47.632812 30.597656 47.253906 25.4375 46.625 20.863281 L 57.269531 20.996094 C 58.964844 25.527344 59.980469 30.691406 60.121094 36.199219 Z M 37.496094 71.394531 C 35.601562 71.394531 33.730469 67.804688 32.234375 62.003906 C 31.816406 60.375 31.4375 58.582031 31.109375 56.652344 L 43.910156 56.492188 C 43.574219 58.484375 43.1875 60.332031 42.757812 62.003906 C 41.265625 67.804688 39.394531 71.394531 37.496094 71.394531 Z M 30.75 54.328125 C 30.066406 49.546875 29.664062 44.054688 29.636719 38.199219 L 45.359375 38.367188 C 45.324219 44.09375 44.933594 49.460938 44.273438 54.160156 Z M 29.644531 35.875 C 29.707031 30.363281 30.101562 25.199219 30.75 20.667969 L 44.273438 20.835938 C 44.910156 25.375 45.296875 30.539062 45.355469 36.042969 Z M 31.109375 18.34375 C 31.441406 16.410156 31.816406 14.617188 32.234375 12.988281 C 33.730469 7.1875 35.605469 3.601562 37.496094 3.601562 C 39.394531 3.601562 41.265625 7.1875 42.757812 12.992188 C 43.1875 14.664062 43.574219 16.511719 43.910156 18.503906 Z M 46.273438 18.53125 C 45.914062 16.320312 45.488281 14.265625 45.011719 12.417969 C 44.113281 8.933594 42.992188 6.121094 41.703125 4.191406 C 46.195312 5.464844 50.230469 8.734375 53.367188 13.355469 C 54.460938 14.96875 55.449219 16.746094 56.304688 18.65625 Z M 29.984375 12.414062 C 29.523438 14.203125 29.109375 16.179688 28.753906 18.3125 L 18.898438 18.191406 C 19.707031 16.453125 20.617188 14.835938 21.625 13.355469 C 24.761719 8.734375 28.796875 5.464844 33.285156 4.191406 C 32 6.121094 30.882812 8.933594 29.984375 12.414062 Z M 28.398438 20.636719 C 27.757812 25.203125 27.371094 30.371094 27.304688 35.847656 L 14.890625 35.714844 C 15.082031 30.191406 16.15625 25.023438 17.914062 20.507812 Z M 14.863281 38.042969 L 27.300781 38.175781 C 27.328125 44.019531 27.722656 49.523438 28.402344 54.359375 L 17.914062 54.488281 C 16.023438 49.640625 14.925781 44.03125 14.863281 38.042969 Z M 28.753906 56.683594 C 29.109375 58.8125 29.519531 60.789062 29.984375 62.582031 C 30.878906 66.066406 32 68.875 33.289062 70.804688 C 28.796875 69.53125 24.761719 66.265625 21.625 61.640625 C 20.621094 60.160156 19.707031 58.539062 18.898438 56.804688 Z M 45.011719 62.582031 C 45.488281 60.730469 45.914062 58.679688 46.277344 56.464844 L 56.308594 56.339844 C 55.449219 58.253906 54.464844 60.027344 53.371094 61.640625 C 50.234375 66.261719 46.199219 69.53125 41.707031 70.804688 C 42.996094 68.875 44.113281 66.066406 45.011719 62.582031 Z M 46.625 54.132812 C 47.277344 49.410156 47.660156 44.0625 47.695312 38.394531 L 60.125 38.527344 C 60.011719 44.132812 58.988281 49.394531 57.269531 53.996094 Z M 62.457031 36.226562 C 62.328125 30.769531 61.367188 25.613281 59.757812 21.027344 L 67.179688 21.121094 C 69.6875 25.652344 71.183594 30.820312 71.371094 36.320312 Z M 61.464844 13.527344 C 63.066406 15.125 64.5 16.886719 65.757812 18.773438 L 58.859375 18.691406 C 57.847656 16.277344 56.652344 14.046875 55.296875 12.050781 C 53.652344 9.632812 51.773438 7.546875 49.714844 5.875 C 54.160156 7.589844 58.15625 10.214844 61.464844 13.527344 Z M 13.527344 13.527344 C 16.839844 10.21875 20.832031 7.589844 25.28125 5.871094 C 23.222656 7.546875 21.34375 9.628906 19.699219 12.050781 C 18.445312 13.898438 17.320312 15.949219 16.363281 18.160156 L 9.714844 18.074219 C 10.851562 16.449219 12.128906 14.925781 13.527344 13.527344 Z M 9.714844 56.917969 L 16.359375 56.835938 C 17.320312 59.046875 18.441406 61.09375 19.699219 62.945312 C 21.339844 65.367188 23.21875 67.449219 25.277344 69.125 C 20.832031 67.40625 16.835938 64.777344 13.527344 61.46875 C 12.128906 60.066406 10.851562 58.542969 9.714844 56.917969 Z M 61.464844 61.464844 C 58.15625 64.777344 54.160156 67.40625 49.714844 69.121094 C 51.773438 67.449219 53.652344 65.367188 55.296875 62.941406 C 56.652344 60.945312 57.847656 58.71875 58.859375 56.304688 L 65.757812 56.21875 C 64.503906 58.109375 63.066406 59.867188 61.464844 61.464844 Z M 61.464844 61.464844 " fill-opacity="1" fill-rule="nonzero"/></g></svg>