<svg xmlns="http://www.w3.org/2000/svg" xmlns:xlink="http://www.w3.org/1999/xlink" width="100" zoomAndPan="magnify" viewBox="0 0 75 74.999997" height="100" preserveAspectRatio="xMidYMid meet" version="1.0"><defs><clipPath id="bee2228b3f"><path d="M 6.25 6.605469 L 68.5 6.605469 L 68.5 68 L 6.25 68 Z M 6.25 6.605469 " clip-rule="nonzero"/></clipPath></defs><g clip-path="url(#bee2228b3f)"><path fill="#ffffff" d="M 59.042969 58.738281 L 49.925781 58.738281 L 49.925781 44.410156 C 49.925781 40.996094 49.863281 36.597656 45.183594 36.597656 C 40.433594 36.597656 39.707031 40.320312 39.707031 44.164062 L 39.707031 58.738281 L 30.589844 58.738281 L 30.589844 29.277344 L 39.34375 29.277344 L 39.34375 33.300781 L 39.464844 33.300781 C 39.902344 32.550781 40.433594 31.871094 41.054688 31.265625 C 41.675781 30.65625 42.367188 30.144531 43.128906 29.726562 C 43.886719 29.308594 44.691406 28.996094 45.535156 28.796875 C 46.378906 28.597656 47.234375 28.511719 48.101562 28.542969 C 57.34375 28.542969 59.046875 34.640625 59.046875 42.578125 Z M 20.304688 25.25 C 19.957031 25.25 19.613281 25.214844 19.269531 25.148438 C 18.929688 25.078125 18.597656 24.980469 18.277344 24.847656 C 17.957031 24.710938 17.652344 24.550781 17.363281 24.355469 C 17.074219 24.160156 16.808594 23.941406 16.5625 23.695312 C 16.316406 23.449219 16.097656 23.179688 15.902344 22.890625 C 15.710938 22.601562 15.546875 22.296875 15.414062 21.972656 C 15.28125 21.652344 15.179688 21.320312 15.113281 20.976562 C 15.042969 20.636719 15.011719 20.289062 15.011719 19.941406 C 15.011719 19.59375 15.042969 19.25 15.113281 18.90625 C 15.179688 18.5625 15.28125 18.230469 15.414062 17.910156 C 15.546875 17.589844 15.710938 17.28125 15.902344 16.992188 C 16.09375 16.703125 16.3125 16.433594 16.558594 16.1875 C 16.804688 15.941406 17.074219 15.722656 17.363281 15.527344 C 17.652344 15.332031 17.957031 15.171875 18.277344 15.035156 C 18.597656 14.902344 18.929688 14.800781 19.269531 14.734375 C 19.609375 14.667969 19.953125 14.632812 20.300781 14.632812 C 20.648438 14.632812 20.992188 14.667969 21.332031 14.734375 C 21.675781 14.800781 22.003906 14.902344 22.324219 15.035156 C 22.648438 15.167969 22.953125 15.332031 23.242188 15.527344 C 23.53125 15.71875 23.796875 15.941406 24.042969 16.1875 C 24.289062 16.433594 24.507812 16.699219 24.699219 16.992188 C 24.894531 17.28125 25.058594 17.585938 25.191406 17.910156 C 25.324219 18.230469 25.421875 18.5625 25.492188 18.90625 C 25.558594 19.246094 25.59375 19.589844 25.59375 19.941406 C 25.59375 20.289062 25.558594 20.632812 25.492188 20.976562 C 25.421875 21.316406 25.324219 21.648438 25.191406 21.972656 C 25.058594 22.292969 24.894531 22.601562 24.703125 22.890625 C 24.507812 23.179688 24.289062 23.449219 24.042969 23.695312 C 23.796875 23.941406 23.53125 24.160156 23.242188 24.355469 C 22.953125 24.546875 22.648438 24.710938 22.328125 24.84375 C 22.007812 24.980469 21.675781 25.078125 21.335938 25.148438 C 20.996094 25.214844 20.648438 25.25 20.304688 25.25 M 24.863281 58.738281 L 15.734375 58.738281 L 15.734375 29.277344 L 24.863281 29.277344 Z M 63.585938 6.136719 L 11.152344 6.136719 C 10.859375 6.132812 10.566406 6.160156 10.277344 6.214844 C 9.988281 6.269531 9.707031 6.351562 9.433594 6.460938 C 9.160156 6.570312 8.898438 6.707031 8.652344 6.867188 C 8.40625 7.027344 8.175781 7.210938 7.964844 7.417969 C 7.753906 7.625 7.566406 7.851562 7.398438 8.09375 C 7.230469 8.339844 7.089844 8.597656 6.976562 8.867188 C 6.859375 9.140625 6.769531 9.421875 6.710938 9.710938 C 6.648438 10 6.617188 10.292969 6.613281 10.585938 L 6.613281 63.414062 C 6.617188 63.710938 6.648438 64.003906 6.707031 64.292969 C 6.769531 64.582031 6.859375 64.863281 6.972656 65.136719 C 7.089844 65.40625 7.230469 65.664062 7.398438 65.910156 C 7.566406 66.152344 7.753906 66.378906 7.964844 66.585938 C 8.175781 66.792969 8.402344 66.976562 8.652344 67.136719 C 8.898438 67.300781 9.15625 67.4375 9.429688 67.546875 C 9.703125 67.65625 9.988281 67.738281 10.277344 67.792969 C 10.566406 67.847656 10.859375 67.875 11.152344 67.871094 L 63.585938 67.871094 C 63.882812 67.875 64.175781 67.847656 64.464844 67.796875 C 64.757812 67.742188 65.039062 67.660156 65.3125 67.550781 C 65.589844 67.4375 65.847656 67.304688 66.097656 67.140625 C 66.34375 66.980469 66.574219 66.796875 66.785156 66.589844 C 66.996094 66.382812 67.1875 66.15625 67.355469 65.914062 C 67.523438 65.667969 67.664062 65.410156 67.78125 65.136719 C 67.898438 64.867188 67.988281 64.585938 68.046875 64.296875 C 68.109375 64.003906 68.140625 63.710938 68.148438 63.414062 L 68.148438 10.582031 C 68.140625 10.289062 68.109375 9.996094 68.046875 9.703125 C 67.984375 9.414062 67.898438 9.132812 67.78125 8.863281 C 67.664062 8.589844 67.519531 8.332031 67.355469 8.085938 C 67.1875 7.84375 66.996094 7.617188 66.785156 7.410156 C 66.574219 7.207031 66.34375 7.019531 66.097656 6.859375 C 65.847656 6.699219 65.585938 6.5625 65.3125 6.453125 C 65.039062 6.34375 64.757812 6.261719 64.464844 6.207031 C 64.175781 6.15625 63.882812 6.128906 63.585938 6.132812 " fill-opacity="1" fill-rule="nonzero"/></g></svg>