<svg xmlns="http://www.w3.org/2000/svg" xmlns:xlink="http://www.w3.org/1999/xlink" width="100" zoomAndPan="magnify" viewBox="0 0 75 74.999997" height="100" preserveAspectRatio="xMidYMid meet" version="1.0"><defs><clipPath id="22df771849"><path d="M 7.5 7.5 L 67.5 7.5 L 67.5 67.5 L 7.5 67.5 Z M 7.5 7.5 " clip-rule="nonzero"/></clipPath></defs><g clip-path="url(#22df771849)"><path fill="#ffffff" d="M 37.664062 7.5 C 29.402344 7.5 28.410156 7.5 25.269531 7.664062 C 22.128906 7.664062 19.8125 8.328125 17.996094 8.988281 C 16.011719 9.8125 14.359375 10.804688 12.707031 12.457031 C 11.054688 14.113281 10.0625 15.765625 9.234375 17.746094 C 8.410156 19.730469 7.914062 21.878906 7.914062 25.019531 C 7.582031 28.492188 7.582031 29.484375 7.582031 37.582031 C 7.582031 45.847656 7.582031 46.839844 7.746094 49.980469 C 7.746094 53.121094 8.410156 55.433594 9.070312 57.253906 C 9.898438 59.234375 10.886719 60.886719 12.542969 62.542969 C 14.195312 64.195312 15.847656 65.1875 17.832031 66.011719 C 19.8125 66.839844 21.960938 67.335938 25.101562 67.335938 C 28.242188 67.335938 29.402344 67.5 37.5 67.5 C 45.597656 67.5 46.757812 67.5 49.898438 67.335938 C 53.039062 67.335938 55.351562 66.671875 57.167969 66.011719 C 59.152344 65.1875 60.804688 64.195312 62.457031 62.542969 C 64.113281 60.886719 65.101562 59.234375 65.929688 57.253906 C 66.589844 55.269531 67.253906 53.121094 67.253906 49.980469 C 67.253906 46.839844 67.417969 45.683594 67.417969 37.582031 C 67.417969 29.316406 67.417969 28.328125 67.253906 25.1875 C 67.253906 22.046875 66.589844 19.730469 65.929688 17.914062 C 65.101562 15.929688 64.113281 14.277344 62.457031 12.625 C 60.804688 10.972656 59.152344 9.980469 57.167969 9.152344 C 55.1875 8.328125 53.039062 7.832031 49.898438 7.832031 C 46.921875 7.5 45.929688 7.5 37.664062 7.5 Z M 35.019531 12.953125 C 35.847656 12.953125 36.671875 12.953125 37.664062 12.953125 C 45.765625 12.953125 46.589844 12.953125 49.898438 13.121094 C 52.871094 13.121094 54.359375 13.78125 55.515625 14.113281 C 57.003906 14.609375 57.996094 15.269531 58.988281 16.425781 C 59.980469 17.417969 60.640625 18.410156 61.300781 19.898438 C 61.632812 20.886719 62.128906 22.542969 62.292969 25.515625 C 62.292969 28.65625 62.457031 29.648438 62.457031 37.746094 C 62.457031 45.847656 62.457031 46.671875 62.292969 49.980469 C 62.292969 52.953125 61.632812 54.441406 61.300781 55.597656 C 60.804688 57.085938 60.144531 58.078125 58.988281 59.070312 C 57.996094 60.0625 57.003906 60.722656 55.515625 61.382812 C 54.523438 61.878906 52.871094 62.210938 49.898438 62.375 C 46.757812 62.375 45.765625 62.542969 37.664062 62.542969 C 29.566406 62.542969 28.738281 62.542969 25.433594 62.375 C 22.457031 62.375 20.972656 61.714844 19.8125 61.382812 C 18.328125 60.886719 17.335938 60.226562 16.34375 59.070312 C 15.351562 58.078125 14.691406 57.085938 14.027344 55.597656 C 13.699219 54.609375 13.203125 52.953125 13.039062 49.980469 C 13.039062 46.839844 12.871094 45.847656 12.871094 37.746094 C 12.871094 29.648438 12.871094 28.824219 13.039062 25.515625 C 13.039062 22.542969 13.699219 21.054688 14.027344 19.898438 C 14.523438 18.410156 15.1875 17.417969 16.34375 16.425781 C 17.335938 15.433594 18.328125 14.773438 19.8125 14.113281 C 20.804688 13.617188 22.457031 13.285156 25.433594 13.121094 C 28.242188 13.121094 29.234375 13.121094 34.855469 12.953125 Z M 37.664062 22.210938 C 29.070312 22.210938 22.128906 29.152344 22.128906 37.746094 C 22.128906 46.34375 29.070312 53.285156 37.664062 53.285156 C 46.261719 53.285156 53.203125 46.34375 53.203125 37.746094 C 53.203125 29.152344 46.261719 22.210938 37.664062 22.210938 Z M 37.664062 27.664062 C 43.285156 27.664062 47.746094 32.128906 47.746094 37.746094 C 47.746094 43.367188 43.285156 47.832031 37.664062 47.832031 C 32.046875 47.832031 27.582031 43.367188 27.582031 37.746094 C 27.582031 32.128906 32.046875 27.664062 37.664062 27.664062 Z M 37.664062 27.664062 " fill-opacity="1" fill-rule="nonzero"/></g></svg>