<svg xmlns="http://www.w3.org/2000/svg" xmlns:xlink="http://www.w3.org/1999/xlink" width="100" zoomAndPan="magnify" viewBox="0 0 75 74.999997" height="100" preserveAspectRatio="xMidYMid meet" version="1.0"><defs><clipPath id="0d7183f8ca"><path d="M 7 5.480469 L 67.953125 5.480469 L 67.953125 68.816406 L 7 68.816406 Z M 7 5.480469 " clip-rule="nonzero"/></clipPath></defs><g clip-path="url(#0d7183f8ca)"><path fill="#163696" d="M 18.324219 55.28125 C 18.324219 57.304688 16.683594 58.945312 14.660156 58.945312 C 12.636719 58.945312 10.992188 57.304688 10.992188 55.28125 C 10.992188 53.257812 12.636719 51.613281 14.660156 51.613281 C 16.683594 51.613281 18.324219 53.257812 18.324219 55.28125 Z M 37.421875 12.804688 C 39.449219 12.804688 41.085938 11.164062 41.085938 9.140625 C 41.085938 7.117188 39.449219 5.472656 37.421875 5.472656 C 35.398438 5.472656 33.757812 7.117188 33.757812 9.140625 C 33.757812 11.164062 35.398438 12.804688 37.421875 12.804688 Z M 55.507812 25.613281 L 55.503906 25.613281 L 59.5 32.527344 C 59.660156 32.804688 59.691406 33.128906 59.613281 33.417969 C 59.535156 33.703125 59.359375 33.953125 59.09375 34.121094 C 59.074219 34.125 59.058594 34.136719 59.042969 34.144531 C 58.769531 34.292969 58.460938 34.324219 58.175781 34.246094 C 57.886719 34.167969 57.625 33.980469 57.464844 33.703125 L 53.488281 26.816406 C 53.480469 26.800781 53.46875 26.777344 53.460938 26.761719 C 53.308594 26.488281 53.28125 26.179688 53.355469 25.894531 C 53.433594 25.613281 53.609375 25.359375 53.875 25.195312 C 53.894531 25.191406 53.910156 25.179688 53.925781 25.171875 C 54.199219 25.019531 54.511719 24.992188 54.792969 25.070312 C 55.085938 25.144531 55.347656 25.335938 55.503906 25.609375 Z M 57.859375 33.265625 C 58.027344 33.558594 58.402344 33.660156 58.695312 33.488281 C 58.988281 33.320312 59.089844 32.945312 58.921875 32.652344 C 58.753906 32.359375 58.378906 32.257812 58.085938 32.429688 C 57.792969 32.597656 57.691406 32.96875 57.859375 33.265625 Z M 44.507812 19.765625 C 43.804688 16.5 40.898438 14.054688 37.421875 14.054688 C 33.945312 14.054688 31.042969 16.5 30.335938 19.765625 C 30.253906 20.15625 30.546875 20.519531 30.949219 20.519531 L 43.898438 20.519531 C 44.296875 20.519531 44.589844 20.15625 44.507812 19.765625 Z M 25.046875 42.746094 C 25.21875 42.328125 25.238281 41.839844 24.953125 41.289062 C 23.882812 39.230469 24.019531 38.289062 25.285156 38.265625 C 26.125 38.25 27.691406 38.96875 29.945312 40.269531 L 33.433594 42.285156 C 33.449219 41.832031 33.457031 41.339844 33.457031 40.804688 C 33.410156 40.792969 33.359375 40.777344 33.3125 40.75 L 29.394531 38.488281 C 29.164062 38.355469 29.085938 38.058594 29.222656 37.832031 C 29.351562 37.601562 29.648438 37.523438 29.875 37.65625 L 33.460938 39.722656 L 33.460938 38.167969 C 33.371094 38.171875 33.28125 38.152344 33.195312 38.105469 L 30.003906 36.257812 C 29.773438 36.128906 29.695312 35.832031 29.824219 35.605469 C 29.957031 35.375 30.253906 35.296875 30.480469 35.425781 L 33.460938 37.144531 L 33.460938 35.679688 L 30.171875 33.78125 C 29.941406 33.648438 29.863281 33.351562 29.992188 33.125 C 30.125 32.894531 30.421875 32.816406 30.648438 32.945312 L 33.460938 34.570312 L 33.460938 33.914062 C 33.460938 33.65625 33.519531 33.410156 33.617188 33.191406 L 27.316406 29.554688 L 27.3125 29.554688 C 26.140625 28.875 25.199219 28.835938 24.277344 28.792969 C 23.429688 28.75 22.601562 28.714844 21.625 28.273438 L 18.789062 33.191406 C 20.425781 34.507812 21.445312 37.238281 22.453125 39.933594 C 22.976562 41.335938 23.496094 42.726562 24.089844 43.875 C 24.484375 43.582031 24.859375 43.199219 25.046875 42.746094 Z M 21.375 26.785156 L 21.375 26.789062 L 21.027344 27.390625 C 21.019531 27.398438 21.019531 27.40625 21.011719 27.414062 L 21.011719 27.421875 L 17.75 33.066406 L 17.746094 33.070312 C 17.738281 33.085938 17.730469 33.09375 17.726562 33.109375 L 17.394531 33.675781 C 17.394531 33.6875 17.386719 33.691406 17.382812 33.703125 C 17.222656 33.980469 16.960938 34.167969 16.667969 34.246094 C 16.386719 34.324219 16.074219 34.292969 15.800781 34.144531 C 15.785156 34.136719 15.765625 34.125 15.75 34.121094 C 15.484375 33.953125 15.308594 33.703125 15.234375 33.417969 C 15.152344 33.128906 15.1875 32.804688 15.347656 32.527344 L 15.34375 32.527344 L 19.320312 25.636719 C 19.328125 25.628906 19.335938 25.625 19.339844 25.613281 C 19.5 25.335938 19.761719 25.144531 20.054688 25.070312 C 20.335938 24.992188 20.648438 25.019531 20.921875 25.171875 C 20.925781 25.171875 20.9375 25.179688 20.945312 25.183594 C 21.222656 25.34375 21.410156 25.605469 21.488281 25.894531 C 21.566406 26.1875 21.535156 26.507812 21.375 26.785156 Z M 16.761719 32.429688 C 16.464844 32.257812 16.09375 32.359375 15.925781 32.652344 C 15.753906 32.945312 15.855469 33.320312 16.148438 33.488281 C 16.441406 33.660156 16.816406 33.558594 16.984375 33.265625 C 17.15625 32.96875 17.054688 32.597656 16.761719 32.429688 Z M 60.183594 58.945312 C 62.210938 58.945312 63.851562 57.304688 63.851562 55.28125 C 63.851562 53.257812 62.210938 51.613281 60.183594 51.613281 C 58.164062 51.613281 56.519531 53.257812 56.519531 55.28125 C 56.519531 57.304688 58.164062 58.945312 60.183594 58.945312 Z M 11.855469 50.632812 C 12.367188 50.429688 12.617188 49.847656 12.40625 49.335938 C 8.738281 40.300781 10.246094 29.871094 16.429688 22.226562 C 20.25 17.503906 25.636719 14.09375 31.800781 12.789062 C 32.339844 12.675781 32.683594 12.144531 32.570312 11.609375 C 32.457031 11.066406 31.925781 10.726562 31.386719 10.839844 C 24.769531 12.238281 18.988281 15.898438 14.882812 20.972656 C 8.230469 29.1875 6.613281 40.371094 10.558594 50.085938 C 10.765625 50.597656 11.347656 50.84375 11.855469 50.632812 Z M 43.046875 12.789062 C 49.207031 14.09375 54.589844 17.503906 58.414062 22.226562 C 64.601562 29.871094 66.105469 40.300781 62.4375 49.335938 C 62.230469 49.847656 62.476562 50.429688 62.988281 50.632812 C 63.496094 50.84375 64.082031 50.597656 64.285156 50.085938 C 68.230469 40.367188 66.613281 29.191406 59.960938 20.972656 C 55.859375 15.898438 50.074219 12.238281 43.457031 10.839844 C 42.917969 10.726562 42.390625 11.066406 42.277344 11.609375 C 42.160156 12.144531 42.503906 12.675781 43.046875 12.789062 Z M 67.269531 65.90625 C 66.5625 62.640625 63.660156 60.195312 60.183594 60.195312 C 56.707031 60.195312 53.804688 62.640625 53.101562 65.90625 C 53.015625 66.296875 53.3125 66.660156 53.710938 66.660156 L 66.660156 66.660156 C 67.0625 66.660156 67.355469 66.296875 67.269531 65.90625 Z M 50.425781 62.84375 C 42.363281 67.285156 32.480469 67.285156 24.417969 62.84375 C 23.933594 62.578125 23.328125 62.753906 23.0625 63.238281 C 22.796875 63.722656 22.976562 64.328125 23.457031 64.59375 C 32.121094 69.367188 42.726562 69.367188 51.386719 64.59375 C 51.871094 64.328125 52.046875 63.722656 51.78125 63.238281 C 51.515625 62.753906 50.910156 62.578125 50.425781 62.84375 Z M 42.6875 56.148438 C 43.058594 56.148438 43.398438 56.300781 43.644531 56.546875 C 43.886719 56.792969 44.042969 57.132812 44.042969 57.503906 C 44.042969 57.875 43.886719 58.214844 43.644531 58.460938 C 43.398438 58.710938 43.058594 58.859375 42.6875 58.859375 L 33.816406 58.859375 C 33.445312 58.859375 33.105469 58.710938 32.859375 58.460938 C 32.613281 58.214844 32.460938 57.875 32.460938 57.503906 C 32.460938 57.132812 32.613281 56.792969 32.859375 56.546875 C 33.105469 56.300781 33.445312 56.148438 33.816406 56.148438 Z M 34.699219 57.503906 C 34.699219 57.128906 34.394531 56.824219 34.019531 56.824219 C 33.640625 56.824219 33.339844 57.128906 33.339844 57.503906 C 33.339844 57.878906 33.640625 58.1875 34.019531 58.1875 C 34.394531 58.1875 34.699219 57.878906 34.699219 57.503906 Z M 42.617188 37.746094 C 42.410156 37.746094 42.222656 37.832031 42.085938 37.96875 C 41.945312 38.105469 41.859375 38.296875 41.859375 38.503906 L 41.859375 43.859375 C 41.859375 44.125 41.644531 44.339844 41.378906 44.339844 C 41.113281 44.339844 40.894531 44.125 40.894531 43.859375 L 40.894531 34.242188 C 40.894531 34.035156 40.8125 33.84375 40.671875 33.707031 C 40.535156 33.570312 40.347656 33.484375 40.140625 33.484375 C 39.929688 33.484375 39.742188 33.570312 39.605469 33.707031 C 39.46875 33.84375 39.382812 34.035156 39.382812 34.242188 L 39.382812 42.640625 C 39.382812 42.90625 39.164062 43.121094 38.898438 43.121094 C 38.632812 43.121094 38.417969 42.90625 38.417969 42.640625 L 38.417969 32.515625 C 38.417969 32.308594 38.332031 32.121094 38.195312 31.984375 C 38.054688 31.84375 37.867188 31.761719 37.660156 31.761719 C 37.453125 31.761719 37.265625 31.84375 37.125 31.984375 C 36.988281 32.121094 36.902344 32.308594 36.902344 32.515625 L 36.902344 41.988281 C 36.902344 42.253906 36.6875 42.46875 36.421875 42.46875 C 36.15625 42.46875 35.941406 42.253906 35.941406 41.988281 L 35.941406 33.914062 C 35.941406 33.707031 35.851562 33.515625 35.714844 33.375 C 35.578125 33.242188 35.390625 33.15625 35.179688 33.15625 C 34.972656 33.15625 34.785156 33.242188 34.648438 33.375 C 34.507812 33.515625 34.425781 33.707031 34.425781 33.914062 L 34.425781 40.46875 C 34.425781 41.457031 34.40625 42.328125 34.359375 43.082031 C 34.359375 43.113281 34.355469 43.144531 34.351562 43.171875 C 34.261719 44.5625 34.074219 45.53125 33.769531 46.042969 C 33.078125 47.191406 32.125 46.796875 30.769531 44.675781 C 30.390625 44.078125 29.898438 43.816406 29.382812 43.75 C 28.808594 43.679688 28.199219 43.839844 27.679688 44.078125 C 28.457031 45.300781 29.527344 46.597656 30.597656 47.894531 C 32.644531 50.375 34.710938 52.878906 35.042969 55.183594 L 41.441406 55.183594 C 41.558594 53.984375 41.984375 53.160156 42.417969 52.320312 C 42.890625 51.402344 43.375 50.46875 43.375 48.949219 L 43.375 38.503906 C 43.375 38.296875 43.289062 38.105469 43.152344 37.96875 C 43.015625 37.832031 42.828125 37.746094 42.617188 37.746094 Z M 14.660156 60.195312 C 11.183594 60.195312 8.277344 62.640625 7.574219 65.90625 C 7.488281 66.296875 7.785156 66.660156 8.183594 66.660156 L 21.136719 66.660156 C 21.535156 66.660156 21.828125 66.296875 21.742188 65.90625 C 21.042969 62.640625 18.136719 60.195312 14.660156 60.195312 Z M 56.058594 33.191406 L 53.222656 28.277344 C 52.242188 28.714844 51.414062 28.75 50.570312 28.792969 C 49.644531 28.835938 48.703125 28.878906 47.53125 29.554688 L 41.414062 33.085938 C 41.691406 33.390625 41.859375 33.796875 41.859375 34.242188 L 41.859375 34.292969 L 44.195312 32.945312 C 44.425781 32.816406 44.71875 32.894531 44.847656 33.125 C 44.984375 33.351562 44.902344 33.648438 44.675781 33.78125 L 41.859375 35.402344 L 41.859375 36.957031 C 42.058594 36.859375 42.277344 36.800781 42.511719 36.785156 C 42.507812 36.617188 42.589844 36.449219 42.75 36.359375 L 44.363281 35.425781 C 44.589844 35.296875 44.886719 35.371094 45.019531 35.605469 C 45.152344 35.832031 45.074219 36.128906 44.84375 36.257812 L 43.507812 37.03125 C 43.625 37.101562 43.738281 37.191406 43.835938 37.289062 C 44.042969 37.496094 44.199219 37.761719 44.277344 38.054688 L 44.964844 37.65625 C 45.199219 37.523438 45.492188 37.601562 45.625 37.832031 C 45.757812 38.058594 45.679688 38.355469 45.449219 38.488281 L 44.339844 39.128906 L 44.339844 40.597656 L 44.898438 40.269531 C 47.152344 38.96875 48.722656 38.25 49.5625 38.269531 C 50.824219 38.289062 50.964844 39.230469 49.894531 41.292969 C 49.609375 41.839844 49.621094 42.328125 49.796875 42.746094 C 49.988281 43.199219 50.363281 43.585938 50.757812 43.875 C 51.347656 42.726562 51.871094 41.335938 52.390625 39.9375 C 53.402344 37.238281 54.421875 34.507812 56.058594 33.191406 Z M 56.058594 33.191406 " fill-opacity="1" fill-rule="nonzero"/></g></svg>