<svg xmlns="http://www.w3.org/2000/svg" xmlns:xlink="http://www.w3.org/1999/xlink" width="120" zoomAndPan="magnify" viewBox="0 0 90 89.999999" height="120" preserveAspectRatio="xMidYMid meet" version="1.0"><defs><clipPath id="697e6815a7"><path d="M 27 26.417969 L 63 26.417969 L 63 63.917969 L 27 63.917969 Z M 27 26.417969 " clip-rule="nonzero"/></clipPath></defs><g clip-path="url(#697e6815a7)"><path fill="#ffffff" d="M 44.957031 63.578125 C 44.878906 63.578125 44.800781 63.578125 44.726562 63.578125 C 41.78125 62.804688 37.601562 60.949219 34.042969 57 C 26.144531 48.25 28.003906 36.25 28.46875 33.929688 C 28.46875 33.695312 28.699219 33.464844 28.933594 33.386719 C 31.332031 32.457031 33.652344 31.53125 35.976562 30.523438 C 38.917969 29.285156 41.78125 27.890625 44.570312 26.574219 C 44.800781 26.417969 45.113281 26.417969 45.34375 26.574219 C 48.132812 27.96875 51.074219 29.285156 54.015625 30.601562 C 56.261719 31.605469 58.660156 32.535156 61.058594 33.464844 C 61.292969 33.542969 61.523438 33.773438 61.523438 34.007812 C 61.988281 36.328125 63.847656 48.328125 55.871094 57.078125 C 52.3125 61.023438 48.132812 62.804688 45.1875 63.578125 C 45.113281 63.578125 45.035156 63.578125 44.957031 63.578125 Z M 29.859375 34.625 C 29.472656 37.179688 28.15625 48.097656 35.203125 55.992188 C 38.453125 59.554688 42.246094 61.257812 44.957031 62.03125 C 47.667969 61.257812 51.460938 59.554688 54.710938 55.992188 C 61.757812 48.097656 60.441406 37.179688 60.054688 34.625 C 57.808594 33.773438 55.5625 32.84375 53.394531 31.917969 C 50.53125 30.675781 47.742188 29.363281 45.035156 28.046875 C 42.324219 29.363281 39.460938 30.675781 36.671875 31.917969 C 34.429688 32.84375 32.183594 33.773438 29.859375 34.625 Z M 29.859375 34.625 " fill-opacity="1" fill-rule="nonzero"/></g><path fill="#ffffff" d="M 44.957031 52.742188 C 40.699219 52.742188 37.214844 49.257812 37.214844 45 C 37.214844 40.742188 40.699219 37.257812 44.957031 37.257812 C 45.421875 37.257812 45.730469 37.566406 45.730469 38.03125 C 45.730469 38.496094 45.421875 38.804688 44.957031 38.804688 C 41.550781 38.804688 38.761719 41.59375 38.761719 45 C 38.761719 48.40625 41.550781 51.191406 44.957031 51.191406 C 48.363281 51.191406 51.148438 48.40625 51.148438 45 C 51.148438 44.535156 51.460938 44.226562 51.925781 44.226562 C 52.390625 44.226562 52.699219 44.535156 52.699219 45 C 52.699219 49.257812 49.214844 52.742188 44.957031 52.742188 Z M 44.957031 52.742188 " fill-opacity="1" fill-rule="nonzero"/><path fill="#ffffff" d="M 45.730469 47.324219 C 45.5 47.324219 45.34375 47.246094 45.1875 47.089844 L 42.09375 43.992188 C 41.78125 43.683594 41.78125 43.21875 42.09375 42.910156 C 42.402344 42.601562 42.867188 42.601562 43.175781 42.910156 L 45.652344 45.386719 L 51.304688 38.34375 C 51.539062 38.03125 52.078125 37.953125 52.390625 38.1875 C 52.699219 38.417969 52.777344 38.960938 52.542969 39.269531 L 46.351562 47.011719 C 46.195312 47.167969 45.964844 47.324219 45.730469 47.324219 Z M 45.730469 47.324219 " fill-opacity="1" fill-rule="nonzero"/></svg>