<svg xmlns="http://www.w3.org/2000/svg" xmlns:xlink="http://www.w3.org/1999/xlink" width="60" zoomAndPan="magnify" viewBox="0 0 45 44.999999" height="60" preserveAspectRatio="xMidYMid meet" version="1.0"><defs><clipPath id="db9b719ac2"><path d="M 9.355469 10.628906 L 35.605469 10.628906 L 35.605469 34.628906 L 9.355469 34.628906 Z M 9.355469 10.628906 " clip-rule="nonzero"/></clipPath></defs><g clip-path="url(#db9b719ac2)"><path fill="#ffffff" d="M 33.839844 22.601562 C 34.835938 22.722656 35.484375 23.605469 35.542969 24.566406 C 35.605469 25.617188 34.605469 27.070312 33.855469 27.65625 C 32.835938 28.457031 31.59375 28.9375 30.4375 29.496094 C 27.9375 30.703125 25.363281 31.542969 24.113281 34.121094 C 24.046875 34.257812 23.988281 34.332031 23.953125 34.34375 C 23.882812 34.363281 23.863281 34.222656 23.925781 33.960938 C 24.519531 31.292969 25.714844 28.734375 27.429688 26.597656 C 28.828125 24.847656 31.339844 22.292969 33.839844 22.601562 Z M 20.117188 10.632812 C 18.683594 10.632812 17.328125 11.453125 16.765625 12.792969 C 16.148438 14.265625 16.761719 15.847656 17.527344 17.132812 C 17.964844 17.863281 18.453125 18.558594 18.859375 19.304688 C 19.214844 19.960938 19.53125 20.640625 19.804688 21.339844 C 21.0625 24.566406 22.085938 27.875 20.996094 31.148438 C 20.867188 31.523438 20.574219 32.457031 21.027344 31.78125 C 21.152344 31.589844 21.273438 31.382812 21.410156 31.109375 C 22.875 28.214844 23.777344 25.058594 24.445312 21.875 C 25.070312 18.898438 25.652344 15.175781 23.699219 12.550781 C 22.847656 11.40625 21.558594 10.632812 20.117188 10.632812 Z M 17.613281 32.347656 C 17.648438 31.496094 17.582031 30.582031 17.503906 29.753906 C 17.382812 28.503906 17.140625 27.273438 16.808594 26.0625 C 16.277344 24.113281 15.3125 21.929688 13.226562 21.261719 C 12.292969 20.960938 11.28125 21.058594 10.476562 21.652344 C 10.03125 21.980469 9.6875 22.4375 9.527344 22.953125 C 9.421875 23.285156 9.390625 23.636719 9.445312 23.992188 C 9.816406 26.1875 12.539062 26.617188 14.066406 27.753906 C 15.839844 29.066406 16.925781 30.269531 17.261719 33.273438 C 17.296875 33.59375 17.351562 34.066406 17.472656 33.496094 C 17.558594 33.105469 17.59375 32.75 17.613281 32.347656 Z M 17.613281 32.347656 " fill-opacity="1" fill-rule="nonzero"/></g></svg>