<svg xmlns="http://www.w3.org/2000/svg" xmlns:xlink="http://www.w3.org/1999/xlink" width="60" zoomAndPan="magnify" viewBox="0 0 45 44.999999" height="60" preserveAspectRatio="xMidYMid meet" version="1.0"><defs><clipPath id="6dfb2a0e39"><path d="M 0 2.109375 L 45 2.109375 L 45 42.609375 L 0 42.609375 Z M 0 2.109375 " clip-rule="nonzero"/></clipPath></defs><g clip-path="url(#6dfb2a0e39)"><path fill="#ffffff" d="M 41.972656 22.675781 C 43.683594 22.882812 44.792969 24.398438 44.890625 26.046875 C 45 27.851562 43.289062 30.347656 42 31.355469 C 40.25 32.726562 38.113281 33.554688 36.128906 34.511719 C 31.839844 36.585938 27.421875 38.027344 25.277344 42.453125 C 25.160156 42.6875 25.058594 42.8125 24.996094 42.832031 C 24.878906 42.867188 24.84375 42.625 24.953125 42.175781 C 25.96875 37.59375 28.027344 33.203125 30.964844 29.535156 C 33.371094 26.535156 37.679688 22.144531 41.972656 22.675781 Z M 18.417969 2.132812 C 15.957031 2.132812 13.628906 3.539062 12.664062 5.835938 C 11.601562 8.371094 12.65625 11.082031 13.972656 13.292969 C 14.71875 14.542969 15.558594 15.734375 16.253906 17.015625 C 16.867188 18.140625 17.40625 19.3125 17.875 20.511719 C 20.039062 26.046875 21.796875 31.726562 19.921875 37.351562 C 19.707031 37.992188 19.199219 39.597656 19.976562 38.433594 C 20.191406 38.109375 20.398438 37.746094 20.632812 37.277344 C 23.148438 32.3125 24.699219 26.894531 25.84375 21.433594 C 26.917969 16.320312 27.917969 9.929688 24.5625 5.421875 C 23.105469 3.457031 20.886719 2.132812 18.417969 2.132812 Z M 14.117188 39.40625 C 14.179688 37.945312 14.0625 36.378906 13.925781 34.953125 C 13.71875 32.808594 13.304688 30.699219 12.738281 28.617188 C 11.828125 25.273438 10.167969 21.523438 6.589844 20.378906 C 4.984375 19.863281 3.246094 20.027344 1.867188 21.042969 C 1.101562 21.613281 0.515625 22.394531 0.234375 23.28125 C 0.0546875 23.847656 0 24.453125 0.0976562 25.066406 C 0.730469 28.832031 5.410156 29.570312 8.03125 31.519531 C 11.070312 33.773438 12.9375 35.835938 13.511719 40.992188 C 13.574219 41.542969 13.664062 42.355469 13.875 41.378906 C 14.027344 40.703125 14.082031 40.101562 14.117188 39.40625 Z M 14.117188 39.40625 " fill-opacity="1" fill-rule="nonzero"/></g></svg>