<svg xmlns="http://www.w3.org/2000/svg" xmlns:xlink="http://www.w3.org/1999/xlink" width="100" zoomAndPan="magnify" viewBox="0 0 75 74.999997" height="100" preserveAspectRatio="xMidYMid meet" version="1.0"><defs><clipPath id="178b3a46d3"><path d="M 18.878906 33 L 56.378906 33 L 56.378906 41.914062 L 18.878906 41.914062 Z M 18.878906 33 " clip-rule="nonzero"/></clipPath></defs><g clip-path="url(#178b3a46d3)"><path fill="#fefefe" d="M 54.640625 39.949219 C 53.832031 39.757812 52.597656 39.710938 51.289062 40.582031 C 49.050781 42.074219 47.605469 41.101562 46.910156 40.632812 C 46.886719 40.617188 46.863281 40.601562 46.839844 40.585938 C 46.78125 40.542969 46.234375 40.152344 45.394531 39.949219 C 44.585938 39.757812 43.351562 39.710938 42.042969 40.582031 C 39.804688 42.074219 38.359375 41.101562 37.664062 40.632812 C 37.644531 40.617188 37.621094 40.605469 37.601562 40.589844 C 37.527344 40.535156 36.984375 40.15625 36.15625 39.957031 C 35.351562 39.765625 34.117188 39.71875 32.808594 40.589844 C 30.566406 42.078125 29.125 41.109375 28.429688 40.640625 C 28.40625 40.625 28.382812 40.609375 28.359375 40.59375 C 28.300781 40.550781 27.753906 40.160156 26.910156 39.957031 C 26.105469 39.765625 24.871094 39.71875 23.5625 40.589844 C 21.320312 42.078125 19.878906 41.109375 19.183594 40.640625 C 19.15625 40.621094 19.132812 40.605469 19.109375 40.589844 L 18.90625 40.894531 C 18.929688 40.910156 18.953125 40.929688 18.980469 40.945312 C 19.332031 41.183594 19.925781 41.582031 20.730469 41.710938 C 20.902344 41.738281 21.082031 41.753906 21.257812 41.753906 C 22.066406 41.753906 22.90625 41.464844 23.765625 40.894531 C 24.292969 40.542969 24.851562 40.324219 25.421875 40.246094 C 25.878906 40.179688 26.34375 40.203125 26.8125 40.3125 C 27.613281 40.5 28.136719 40.886719 28.144531 40.890625 C 28.167969 40.90625 28.199219 40.929688 28.226562 40.945312 C 28.578125 41.183594 29.171875 41.582031 29.976562 41.710938 C 30.152344 41.738281 30.328125 41.753906 30.503906 41.753906 C 31.3125 41.753906 32.152344 41.464844 33.011719 40.894531 C 33.539062 40.542969 34.097656 40.324219 34.667969 40.246094 C 35.125 40.179688 35.589844 40.203125 36.058594 40.3125 C 36.832031 40.496094 37.347656 40.859375 37.386719 40.886719 C 37.410156 40.902344 37.433594 40.921875 37.460938 40.9375 C 37.8125 41.175781 38.40625 41.574219 39.210938 41.703125 C 39.386719 41.730469 39.5625 41.746094 39.742188 41.746094 C 40.546875 41.746094 41.386719 41.457031 42.246094 40.886719 C 42.773438 40.539062 43.332031 40.316406 43.902344 40.238281 C 44.359375 40.171875 44.828125 40.195312 45.292969 40.304688 C 46.09375 40.492188 46.621094 40.878906 46.625 40.882812 C 46.648438 40.898438 46.679688 40.921875 46.707031 40.9375 C 47.058594 41.175781 47.652344 41.574219 48.457031 41.703125 C 48.632812 41.730469 48.808594 41.746094 48.988281 41.746094 C 49.792969 41.746094 50.632812 41.457031 51.492188 40.886719 C 52.019531 40.539062 52.578125 40.316406 53.148438 40.238281 C 53.605469 40.171875 54.074219 40.195312 54.539062 40.304688 C 55.339844 40.492188 55.867188 40.878906 55.871094 40.882812 L 56.089844 40.589844 C 56.066406 40.570312 55.511719 40.160156 54.640625 39.949219 Z M 54.640625 37.6875 C 53.832031 37.492188 52.597656 37.445312 51.289062 38.316406 C 49.050781 39.808594 47.605469 38.835938 46.910156 38.367188 C 46.886719 38.351562 46.863281 38.335938 46.839844 38.320312 C 46.78125 38.277344 46.234375 37.886719 45.394531 37.6875 C 44.585938 37.492188 43.351562 37.445312 42.042969 38.316406 C 39.804688 39.808594 38.359375 38.835938 37.664062 38.367188 C 37.644531 38.351562 37.621094 38.339844 37.601562 38.324219 C 37.527344 38.269531 36.984375 37.890625 36.15625 37.691406 C 35.351562 37.5 34.117188 37.453125 32.808594 38.324219 C 30.566406 39.8125 29.125 38.84375 28.429688 38.375 C 28.40625 38.359375 28.382812 38.34375 28.359375 38.328125 C 28.300781 38.285156 27.753906 37.894531 26.910156 37.691406 C 26.105469 37.5 24.871094 37.453125 23.5625 38.324219 C 21.320312 39.8125 19.878906 38.84375 19.183594 38.375 C 19.15625 38.359375 19.132812 38.339844 19.109375 38.324219 L 18.90625 38.628906 C 18.929688 38.644531 18.953125 38.664062 18.980469 38.679688 C 19.332031 38.917969 19.925781 39.316406 20.730469 39.445312 C 20.902344 39.472656 21.082031 39.488281 21.257812 39.488281 C 22.066406 39.488281 22.90625 39.199219 23.765625 38.628906 C 24.292969 38.277344 24.851562 38.058594 25.421875 37.980469 C 25.878906 37.914062 26.34375 37.9375 26.8125 38.046875 C 27.613281 38.234375 28.136719 38.621094 28.144531 38.625 C 28.167969 38.640625 28.199219 38.664062 28.226562 38.679688 C 28.578125 38.917969 29.171875 39.316406 29.976562 39.445312 C 30.152344 39.472656 30.328125 39.488281 30.503906 39.488281 C 31.3125 39.488281 32.152344 39.199219 33.011719 38.628906 C 33.539062 38.277344 34.097656 38.058594 34.667969 37.980469 C 35.125 37.914062 35.589844 37.9375 36.058594 38.046875 C 36.832031 38.230469 37.347656 38.59375 37.386719 38.621094 L 37.386719 38.625 C 37.410156 38.640625 37.433594 38.65625 37.460938 38.671875 C 37.8125 38.910156 38.40625 39.308594 39.210938 39.4375 C 39.386719 39.46875 39.5625 39.480469 39.742188 39.480469 C 40.546875 39.480469 41.386719 39.195312 42.246094 38.625 C 42.773438 38.273438 43.332031 38.054688 43.902344 37.972656 C 44.359375 37.90625 44.828125 37.929688 45.292969 38.039062 C 46.09375 38.226562 46.621094 38.613281 46.625 38.617188 C 46.648438 38.632812 46.679688 38.65625 46.707031 38.671875 C 47.058594 38.910156 47.652344 39.308594 48.457031 39.4375 C 48.632812 39.46875 48.808594 39.480469 48.988281 39.480469 C 49.792969 39.480469 50.632812 39.195312 51.492188 38.625 C 52.019531 38.273438 52.578125 38.054688 53.148438 37.972656 C 53.605469 37.90625 54.074219 37.929688 54.539062 38.039062 C 55.339844 38.226562 55.867188 38.613281 55.871094 38.617188 L 56.089844 38.324219 C 56.066406 38.304688 55.511719 37.894531 54.640625 37.6875 Z M 54.640625 35.421875 C 53.832031 35.226562 52.597656 35.179688 51.289062 36.050781 C 49.050781 37.542969 47.605469 36.570312 46.910156 36.101562 C 46.886719 36.085938 46.863281 36.070312 46.839844 36.054688 C 46.78125 36.011719 46.234375 35.621094 45.394531 35.421875 C 44.585938 35.226562 43.351562 35.179688 42.042969 36.050781 C 39.804688 37.542969 38.359375 36.570312 37.664062 36.101562 C 37.644531 36.085938 37.621094 36.074219 37.601562 36.058594 C 37.527344 36.003906 36.984375 35.625 36.15625 35.429688 C 35.351562 35.234375 34.117188 35.1875 32.808594 36.058594 C 30.566406 37.550781 29.125 36.578125 28.429688 36.109375 C 28.40625 36.09375 28.382812 36.078125 28.359375 36.0625 C 28.300781 36.019531 27.753906 35.628906 26.910156 35.429688 C 26.105469 35.234375 24.871094 35.1875 23.5625 36.058594 C 21.320312 37.550781 19.878906 36.578125 19.183594 36.109375 C 19.15625 36.09375 19.132812 36.074219 19.109375 36.058594 L 18.90625 36.363281 C 18.929688 36.378906 18.953125 36.398438 18.980469 36.414062 C 19.332031 36.652344 19.925781 37.050781 20.730469 37.179688 C 20.902344 37.210938 21.082031 37.222656 21.257812 37.222656 C 22.066406 37.222656 22.90625 36.9375 23.765625 36.367188 C 24.292969 36.015625 24.851562 35.796875 25.421875 35.714844 C 25.878906 35.648438 26.34375 35.671875 26.8125 35.78125 C 27.613281 35.96875 28.136719 36.355469 28.144531 36.359375 C 28.167969 36.375 28.199219 36.398438 28.226562 36.414062 C 28.578125 36.652344 29.171875 37.050781 29.976562 37.179688 C 30.152344 37.210938 30.328125 37.222656 30.503906 37.222656 C 31.3125 37.222656 32.152344 36.9375 33.011719 36.367188 C 33.539062 36.015625 34.097656 35.796875 34.667969 35.714844 C 35.125 35.648438 35.589844 35.671875 36.058594 35.78125 C 36.832031 35.964844 37.347656 36.328125 37.386719 36.359375 C 37.410156 36.375 37.433594 36.390625 37.460938 36.40625 C 37.8125 36.644531 38.40625 37.042969 39.210938 37.175781 C 39.386719 37.203125 39.5625 37.214844 39.742188 37.214844 C 40.546875 37.214844 41.386719 36.929688 42.246094 36.359375 C 42.773438 36.007812 43.332031 35.789062 43.902344 35.707031 C 44.359375 35.640625 44.828125 35.664062 45.292969 35.773438 C 46.09375 35.964844 46.621094 36.347656 46.625 36.351562 C 46.648438 36.367188 46.679688 36.390625 46.707031 36.40625 C 47.058594 36.644531 47.652344 37.042969 48.457031 37.175781 C 48.632812 37.203125 48.808594 37.214844 48.988281 37.214844 C 49.792969 37.214844 50.632812 36.929688 51.492188 36.359375 C 52.019531 36.007812 52.578125 35.789062 53.148438 35.707031 C 53.605469 35.640625 54.074219 35.664062 54.539062 35.773438 C 55.339844 35.964844 55.867188 36.347656 55.871094 36.351562 L 56.089844 36.058594 C 56.066406 36.039062 55.511719 35.628906 54.640625 35.421875 Z M 56.089844 33.792969 L 55.871094 34.085938 C 55.867188 34.082031 55.339844 33.699219 54.539062 33.507812 C 54.074219 33.398438 53.605469 33.375 53.148438 33.441406 C 52.578125 33.523438 52.019531 33.742188 51.492188 34.09375 C 50.632812 34.664062 49.792969 34.949219 48.988281 34.949219 C 48.808594 34.949219 48.632812 34.9375 48.457031 34.910156 C 47.652344 34.78125 47.058594 34.378906 46.707031 34.140625 C 46.679688 34.125 46.648438 34.101562 46.625 34.085938 C 46.621094 34.082031 46.09375 33.699219 45.292969 33.507812 C 44.828125 33.398438 44.359375 33.375 43.902344 33.441406 C 43.332031 33.523438 42.773438 33.742188 42.246094 34.09375 C 41.386719 34.664062 40.546875 34.949219 39.742188 34.949219 C 39.5625 34.949219 39.386719 34.9375 39.210938 34.910156 C 38.40625 34.78125 37.8125 34.378906 37.460938 34.140625 C 37.433594 34.125 37.410156 34.109375 37.386719 34.09375 C 37.347656 34.0625 36.832031 33.699219 36.058594 33.515625 C 35.589844 33.40625 35.125 33.382812 34.667969 33.449219 C 34.097656 33.53125 33.539062 33.75 33.011719 34.101562 C 32.152344 34.671875 31.3125 34.957031 30.503906 34.957031 C 30.328125 34.957031 30.152344 34.945312 29.976562 34.914062 C 29.171875 34.785156 28.578125 34.386719 28.226562 34.148438 C 28.199219 34.132812 28.167969 34.109375 28.144531 34.09375 C 28.136719 34.089844 27.613281 33.707031 26.8125 33.515625 C 26.34375 33.40625 25.878906 33.382812 25.421875 33.449219 C 24.851562 33.53125 24.292969 33.75 23.765625 34.101562 C 22.90625 34.671875 22.066406 34.957031 21.257812 34.957031 C 21.082031 34.957031 20.902344 34.945312 20.730469 34.914062 C 19.925781 34.785156 19.332031 34.386719 18.980469 34.148438 C 18.953125 34.132812 18.929688 34.117188 18.90625 34.101562 L 19.109375 33.792969 C 19.132812 33.808594 19.15625 33.828125 19.183594 33.84375 C 19.878906 34.3125 21.320312 35.285156 23.5625 33.792969 C 24.871094 32.921875 26.105469 32.96875 26.910156 33.164062 C 27.753906 33.363281 28.300781 33.753906 28.359375 33.796875 C 28.382812 33.8125 28.40625 33.828125 28.429688 33.84375 C 29.125 34.3125 30.566406 35.285156 32.808594 33.792969 C 34.117188 32.921875 35.351562 32.96875 36.15625 33.164062 C 36.984375 33.359375 37.527344 33.738281 37.601562 33.792969 C 37.621094 33.808594 37.644531 33.824219 37.664062 33.835938 C 38.359375 34.304688 39.804688 35.277344 42.042969 33.785156 C 43.351562 32.914062 44.585938 32.960938 45.394531 33.15625 C 46.234375 33.355469 46.78125 33.746094 46.839844 33.789062 C 46.863281 33.804688 46.886719 33.820312 46.910156 33.835938 C 47.605469 34.304688 49.050781 35.277344 51.289062 33.785156 C 52.597656 32.914062 53.832031 32.960938 54.640625 33.15625 C 55.511719 33.363281 56.066406 33.773438 56.089844 33.792969 " fill-opacity="1" fill-rule="nonzero"/></g></svg>