<svg xmlns="http://www.w3.org/2000/svg" xmlns:xlink="http://www.w3.org/1999/xlink" width="100" zoomAndPan="magnify" viewBox="0 0 75 74.999997" height="100" preserveAspectRatio="xMidYMid meet" version="1.0"><defs><clipPath id="3b06edb0e4"><path d="M 0.421875 0 L 74.671875 0 L 74.671875 75 L 0.421875 75 Z M 0.421875 0 " clip-rule="nonzero"/></clipPath></defs><g clip-path="url(#3b06edb0e4)"><path fill="#163696" d="M 55.960938 24.617188 L 62.117188 24.617188 C 62.703125 24.617188 63.179688 25.089844 63.179688 25.679688 C 63.179688 26.265625 62.703125 26.742188 62.117188 26.742188 L 55.960938 26.742188 C 55.375 26.742188 54.898438 26.265625 54.898438 25.679688 C 54.898438 25.089844 55.375 24.617188 55.960938 24.617188 Z M 49.804688 13.375 C 49.386719 12.960938 49.386719 12.285156 49.804688 11.871094 L 54.15625 7.519531 C 54.570312 7.105469 55.242188 7.105469 55.65625 7.519531 C 56.070312 7.9375 56.070312 8.609375 55.65625 9.023438 L 51.304688 13.375 C 50.890625 13.792969 50.214844 13.789062 49.804688 13.375 Z M 11.820312 25.679688 C 11.820312 25.089844 12.296875 24.617188 12.882812 24.617188 L 19.039062 24.617188 C 19.625 24.617188 20.101562 25.089844 20.101562 25.679688 C 20.101562 26.265625 19.625 26.742188 19.039062 26.742188 L 12.882812 26.742188 C 12.296875 26.742188 11.820312 26.265625 11.820312 25.679688 Z M 19.34375 9.023438 C 18.925781 8.609375 18.925781 7.933594 19.34375 7.519531 C 19.757812 7.105469 20.429688 7.105469 20.84375 7.519531 L 25.195312 11.871094 C 25.871094 12.542969 25.382812 13.6875 24.445312 13.6875 C 24.171875 13.6875 23.902344 13.582031 23.695312 13.375 Z M 36.4375 7.214844 L 36.4375 1.0625 C 36.4375 0.476562 36.914062 0 37.5 0 C 38.085938 0 38.5625 0.476562 38.5625 1.0625 L 38.5625 7.214844 C 38.5625 7.804688 38.085938 8.277344 37.5 8.277344 C 36.914062 8.277344 36.4375 7.804688 36.4375 7.214844 Z M 37.5 13.222656 C 42.488281 13.222656 46.546875 16.886719 46.546875 21.390625 C 46.546875 23.273438 45.816406 25.113281 44.496094 26.570312 C 42.597656 28.65625 42.074219 30.109375 41.113281 32.5625 C 40.976562 32.542969 40.835938 32.527344 40.691406 32.527344 L 34.308594 32.527344 C 34.164062 32.527344 34.023438 32.542969 33.882812 32.5625 C 32.925781 30.113281 32.402344 28.652344 30.503906 26.570312 C 29.179688 25.113281 28.453125 23.273438 28.453125 21.390625 C 28.453125 16.886719 32.511719 13.222656 37.5 13.222656 Z M 38.59375 40.347656 L 36.40625 40.347656 C 35.464844 40.347656 34.710938 39.597656 34.710938 38.621094 L 40.289062 38.621094 C 40.289062 39.597656 39.53125 40.347656 38.59375 40.347656 Z M 41.613281 35.574219 C 41.613281 36.082031 41.199219 36.496094 40.691406 36.496094 L 34.308594 36.496094 C 33.800781 36.496094 33.386719 36.082031 33.386719 35.574219 C 33.386719 35.066406 33.800781 34.652344 34.308594 34.652344 L 40.691406 34.652344 C 41.199219 34.652344 41.613281 35.066406 41.613281 35.574219 Z M 31.320312 31.839844 L 32.003906 33.589844 C 30.8125 34.964844 31.089844 37.058594 32.585938 38.085938 L 32.585938 38.652344 C 32.585938 40.757812 34.300781 42.472656 36.40625 42.472656 L 38.59375 42.472656 C 40.699219 42.472656 42.414062 40.757812 42.414062 38.652344 L 42.414062 38.085938 C 43.910156 37.054688 44.1875 34.964844 42.996094 33.585938 C 43.886719 31.320312 44.324219 29.917969 46.066406 28 C 47.746094 26.152344 48.671875 23.804688 48.671875 21.390625 C 48.671875 15.714844 43.660156 11.097656 37.5 11.097656 C 31.339844 11.097656 26.328125 15.714844 26.328125 21.390625 C 26.328125 23.804688 27.25 26.152344 28.933594 28 C 30.003906 29.179688 30.738281 30.359375 31.320312 31.839844 Z M 71.503906 71.023438 C 71.140625 71.292969 70.886719 71.457031 70.378906 71.367188 C 70.019531 71.304688 69.753906 71.136719 69.550781 70.832031 C 67.605469 67.929688 65.019531 65.664062 61.648438 63.90625 C 60.945312 63.535156 60.101562 64.046875 60.097656 64.839844 L 60.054688 72.492188 C 60.054688 72.699219 59.878906 72.875 59.671875 72.875 L 50.40625 72.875 C 50.199219 72.875 50.023438 72.699219 50.023438 72.492188 L 50.023438 60.296875 C 50.023438 59.847656 49.742188 59.449219 49.316406 59.296875 C 44.71875 57.65625 41.261719 54.839844 38.746094 50.691406 C 38.398438 50.113281 38.5625 49.367188 39.121094 48.992188 C 39.5 48.738281 39.761719 48.589844 40.253906 48.695312 C 40.613281 48.773438 40.871094 48.957031 41.0625 49.269531 C 45.644531 56.78125 53.738281 59.117188 60.878906 61.171875 C 65.539062 62.617188 69.113281 65.277344 71.804688 69.3125 C 72.175781 69.875 72.042969 70.625 71.503906 71.023438 Z M 36.253906 50.691406 C 33.738281 54.839844 30.277344 57.65625 25.683594 59.296875 C 25.257812 59.449219 24.976562 59.847656 24.976562 60.296875 L 24.976562 72.492188 C 24.976562 72.699219 24.800781 72.875 24.59375 72.875 L 15.328125 72.875 C 15.121094 72.875 14.945312 72.699219 14.945312 72.484375 L 14.902344 64.839844 C 14.898438 64.039062 14.046875 63.539062 13.347656 63.90625 C 9.980469 65.664062 7.394531 67.929688 5.449219 70.832031 C 5.046875 71.433594 4.238281 71.574219 3.65625 71.144531 L 3.496094 71.023438 C 2.957031 70.625 2.824219 69.875 3.199219 69.3125 C 5.886719 65.277344 9.460938 62.617188 14.121094 61.171875 C 21.261719 59.117188 29.355469 56.78125 33.9375 49.269531 C 34.316406 48.652344 35.113281 48.476562 35.714844 48.882812 L 35.878906 48.992188 C 36.4375 49.367188 36.601562 50.113281 36.253906 50.691406 Z M 73.570312 68.132812 C 70.636719 63.734375 66.574219 60.710938 61.496094 59.140625 C 61.492188 59.136719 61.484375 59.136719 61.476562 59.132812 C 54.375 57.085938 47.03125 54.972656 42.875 48.164062 C 41.867188 46.511719 39.707031 46.039062 38.097656 47.117188 L 37.5 47.578125 C 36.632812 46.765625 35.488281 46.359375 34.289062 46.621094 C 33.367188 46.820312 32.617188 47.355469 32.125 48.164062 C 27.96875 54.972656 20.625 57.085938 13.523438 59.132812 C 13.515625 59.136719 13.507812 59.136719 13.5 59.140625 C 8.421875 60.710938 4.359375 63.734375 1.429688 68.132812 C 0.421875 69.640625 0.777344 71.664062 2.234375 72.734375 C 3.085938 73.363281 3.902344 73.652344 4.984375 73.464844 C 5.914062 73.300781 6.6875 72.800781 7.214844 72.015625 C 8.648438 69.875 10.484375 68.113281 12.789062 66.671875 L 12.820312 72.492188 C 12.820312 73.875 13.945312 75 15.328125 75 L 24.59375 75 C 25.976562 75 27.101562 73.875 27.101562 72.492188 L 27.101562 61.035156 C 31.441406 59.332031 34.933594 56.53125 37.5 52.683594 C 40.066406 56.53125 43.558594 59.332031 47.898438 61.035156 L 47.898438 72.492188 C 47.898438 73.875 49.023438 75 50.40625 75 L 59.671875 75 C 61.054688 75 62.179688 73.875 62.179688 72.5 L 62.210938 66.671875 C 64.515625 68.113281 66.347656 69.875 67.785156 72.015625 C 68.863281 73.621094 71.046875 74.003906 72.605469 72.851562 L 72.765625 72.734375 C 74.222656 71.664062 74.578125 69.640625 73.570312 68.132812 Z M 58.234375 53.222656 C 60.507812 53.222656 62.355469 51.375 62.355469 49.101562 C 62.355469 46.832031 60.507812 44.984375 58.234375 44.984375 C 55.964844 44.984375 54.117188 46.832031 54.117188 49.101562 C 54.117188 51.375 55.964844 53.222656 58.234375 53.222656 Z M 58.234375 42.859375 C 54.792969 42.859375 51.992188 45.660156 51.992188 49.101562 C 51.992188 52.546875 54.792969 55.347656 58.234375 55.347656 C 61.679688 55.347656 64.480469 52.546875 64.480469 49.101562 C 64.480469 45.660156 61.679688 42.859375 58.234375 42.859375 Z M 16.765625 44.984375 C 14.492188 44.984375 12.644531 46.832031 12.644531 49.101562 C 12.644531 51.375 14.492188 53.222656 16.765625 53.222656 C 19.035156 53.222656 20.882812 51.375 20.882812 49.101562 C 20.882812 46.832031 19.035156 44.984375 16.765625 44.984375 Z M 16.765625 55.347656 C 20.207031 55.347656 23.007812 52.546875 23.007812 49.101562 C 23.007812 45.660156 20.207031 42.859375 16.765625 42.859375 C 13.320312 42.859375 10.519531 45.660156 10.519531 49.101562 C 10.519531 52.546875 13.320312 55.347656 16.765625 55.347656 Z M 16.765625 55.347656 " fill-opacity="1" fill-rule="evenodd"/></g></svg>