<svg xmlns="http://www.w3.org/2000/svg" xmlns:xlink="http://www.w3.org/1999/xlink" width="100" zoomAndPan="magnify" viewBox="0 0 75 74.999997" height="100" preserveAspectRatio="xMidYMid meet" version="1.0"><defs><filter x="0%" y="0%" width="100%" height="100%" id="a5bd3b8840"><feColorMatrix values="0 0 0 0 1 0 0 0 0 1 0 0 0 0 1 0 0 0 1 0" color-interpolation-filters="sRGB"/></filter><mask id="6c114acf6d"><g filter="url(#a5bd3b8840)"><rect x="-7.5" width="90" fill="#000000" y="-7.5" height="89.999996" fill-opacity="0.09"/></g></mask><clipPath id="1191dc8680"><path d="M 0.890625 0.382812 L 38.160156 0.382812 L 38.160156 3 L 0.890625 3 Z M 0.890625 0.382812 " clip-rule="nonzero"/></clipPath><clipPath id="19b53c925c"><path d="M 0.890625 2 L 38.160156 2 L 38.160156 5 L 0.890625 5 Z M 0.890625 2 " clip-rule="nonzero"/></clipPath><clipPath id="d670a960d2"><path d="M 0.890625 4 L 38.160156 4 L 38.160156 6.382812 L 0.890625 6.382812 Z M 0.890625 4 " clip-rule="nonzero"/></clipPath><clipPath id="b0d8352d0f"><rect x="0" width="39" y="0" height="7"/></clipPath></defs><g mask="url(#6c114acf6d)"><g transform="matrix(1, 0, 0, 1, 18, 34)"><g clip-path="url(#b0d8352d0f)"><g clip-path="url(#1191dc8680)"><path fill="#ffffff" d="M 1.125 0.871094 C 1.945312 0.886719 2.425781 1.300781 3.003906 1.8125 C 3.492188 2.238281 4.027344 2.515625 4.6875 2.542969 C 5.398438 2.574219 6 2.320312 6.535156 1.863281 C 7.0625 1.40625 7.515625 0.945312 8.253906 0.878906 C 9.046875 0.808594 9.613281 1.144531 10.179688 1.65625 C 10.664062 2.09375 11.152344 2.449219 11.820312 2.527344 C 12.503906 2.605469 13.15625 2.429688 13.699219 2.011719 C 14.234375 1.597656 14.652344 1.058594 15.351562 0.914062 C 16.148438 0.75 16.828125 1.027344 17.410156 1.550781 C 17.867188 1.957031 18.308594 2.359375 18.925781 2.488281 C 19.628906 2.636719 20.363281 2.507812 20.945312 2.085938 C 21.445312 1.726562 21.835938 1.203125 22.433594 0.988281 C 23.199219 0.714844 24.007812 0.910156 24.613281 1.421875 C 25.082031 1.816406 25.488281 2.261719 26.09375 2.441406 C 26.746094 2.640625 27.507812 2.566406 28.09375 2.21875 C 28.640625 1.894531 29.019531 1.351562 29.589844 1.070312 C 30.398438 0.671875 31.332031 0.878906 31.992188 1.449219 C 32.523438 1.902344 32.996094 2.382812 33.71875 2.507812 C 34.480469 2.636719 35.207031 2.445312 35.804688 1.960938 C 36.46875 1.425781 36.941406 0.886719 37.863281 0.871094 C 38.097656 0.867188 38.101562 0.5 37.863281 0.503906 C 37.15625 0.519531 36.597656 0.777344 36.070312 1.242188 C 35.535156 1.710938 35.054688 2.148438 34.300781 2.179688 C 33.472656 2.214844 32.953125 1.8125 32.367188 1.292969 C 31.890625 0.867188 31.382812 0.566406 30.734375 0.515625 C 30.054688 0.460938 29.429688 0.660156 28.902344 1.089844 C 28.363281 1.519531 27.9375 2.039062 27.214844 2.15625 C 26.414062 2.28125 25.769531 1.972656 25.191406 1.449219 C 24.699219 1.007812 24.21875 0.621094 23.539062 0.53125 C 22.859375 0.441406 22.199219 0.597656 21.652344 1.011719 C 21.15625 1.386719 20.757812 1.902344 20.140625 2.089844 C 19.335938 2.335938 18.570312 2.089844 17.957031 1.554688 C 17.503906 1.15625 17.082031 0.738281 16.476562 0.585938 C 15.800781 0.410156 15.046875 0.511719 14.464844 0.898438 C 13.949219 1.238281 13.570312 1.765625 12.996094 2.019531 C 12.265625 2.335938 11.402344 2.191406 10.789062 1.703125 C 10.304688 1.316406 9.910156 0.847656 9.304688 0.636719 C 8.578125 0.382812 7.71875 0.484375 7.085938 0.917969 C 6.5 1.320312 6.074219 1.933594 5.359375 2.117188 C 4.460938 2.347656 3.738281 1.984375 3.089844 1.398438 C 2.507812 0.867188 1.9375 0.519531 1.125 0.503906 C 0.890625 0.5 0.890625 0.867188 1.125 0.871094 " fill-opacity="1" fill-rule="nonzero"/></g><g clip-path="url(#19b53c925c)"><path fill="#ffffff" d="M 1.125 2.851562 C 1.945312 2.867188 2.425781 3.28125 3.003906 3.792969 C 3.492188 4.21875 4.027344 4.496094 4.6875 4.523438 C 5.398438 4.554688 6 4.300781 6.535156 3.84375 C 7.0625 3.386719 7.515625 2.921875 8.253906 2.859375 C 9.046875 2.789062 9.613281 3.125 10.179688 3.636719 C 10.664062 4.074219 11.152344 4.429688 11.820312 4.507812 C 12.503906 4.585938 13.15625 4.410156 13.699219 3.992188 C 14.234375 3.578125 14.652344 3.039062 15.351562 2.894531 C 16.148438 2.730469 16.828125 3.007812 17.410156 3.53125 C 17.867188 3.9375 18.308594 4.339844 18.925781 4.46875 C 19.628906 4.617188 20.363281 4.488281 20.945312 4.066406 C 21.445312 3.707031 21.835938 3.183594 22.433594 2.96875 C 23.199219 2.695312 24.007812 2.890625 24.613281 3.402344 C 25.082031 3.796875 25.488281 4.238281 26.09375 4.421875 C 26.746094 4.621094 27.507812 4.546875 28.09375 4.199219 C 28.640625 3.875 29.019531 3.332031 29.589844 3.050781 C 30.398438 2.652344 31.332031 2.859375 31.992188 3.429688 C 32.523438 3.882812 32.996094 4.363281 33.71875 4.488281 C 34.480469 4.617188 35.207031 4.425781 35.804688 3.941406 C 36.46875 3.40625 36.941406 2.867188 37.863281 2.851562 C 38.097656 2.847656 38.101562 2.480469 37.863281 2.484375 C 37.15625 2.5 36.597656 2.757812 36.070312 3.21875 C 35.535156 3.691406 35.054688 4.125 34.300781 4.160156 C 33.472656 4.195312 32.953125 3.792969 32.367188 3.273438 C 31.890625 2.847656 31.382812 2.542969 30.734375 2.492188 C 30.054688 2.441406 29.429688 2.640625 28.902344 3.070312 C 28.363281 3.5 27.9375 4.019531 27.214844 4.132812 C 26.414062 4.261719 25.769531 3.949219 25.191406 3.429688 C 24.699219 2.988281 24.21875 2.601562 23.539062 2.511719 C 22.859375 2.421875 22.199219 2.578125 21.652344 2.992188 C 21.15625 3.367188 20.757812 3.882812 20.140625 4.070312 C 19.335938 4.316406 18.570312 4.070312 17.957031 3.53125 C 17.503906 3.136719 17.082031 2.71875 16.476562 2.5625 C 15.800781 2.390625 15.046875 2.492188 14.464844 2.878906 C 13.949219 3.21875 13.570312 3.746094 12.996094 3.996094 C 12.265625 4.316406 11.402344 4.171875 10.789062 3.683594 C 10.304688 3.296875 9.910156 2.828125 9.304688 2.617188 C 8.578125 2.363281 7.71875 2.464844 7.085938 2.898438 C 6.5 3.300781 6.074219 3.914062 5.359375 4.09375 C 4.460938 4.328125 3.738281 3.964844 3.089844 3.375 C 2.507812 2.847656 1.9375 2.5 1.125 2.484375 C 0.890625 2.480469 0.890625 2.847656 1.125 2.851562 " fill-opacity="1" fill-rule="nonzero"/></g><g clip-path="url(#d670a960d2)"><path fill="#ffffff" d="M 1.125 4.832031 C 1.945312 4.847656 2.425781 5.261719 3.003906 5.773438 C 3.492188 6.199219 4.027344 6.476562 4.6875 6.503906 C 5.398438 6.535156 6 6.28125 6.535156 5.824219 C 7.0625 5.367188 7.515625 4.902344 8.253906 4.839844 C 9.046875 4.769531 9.613281 5.101562 10.179688 5.617188 C 10.664062 6.054688 11.152344 6.410156 11.820312 6.488281 C 12.503906 6.566406 13.15625 6.390625 13.699219 5.972656 C 14.234375 5.558594 14.652344 5.019531 15.351562 4.875 C 16.148438 4.710938 16.828125 4.988281 17.410156 5.511719 C 17.867188 5.917969 18.308594 6.320312 18.925781 6.449219 C 19.628906 6.597656 20.363281 6.46875 20.945312 6.046875 C 21.445312 5.6875 21.835938 5.164062 22.433594 4.949219 C 23.199219 4.675781 24.007812 4.871094 24.613281 5.382812 C 25.082031 5.777344 25.488281 6.21875 26.09375 6.402344 C 26.746094 6.601562 27.507812 6.527344 28.09375 6.179688 C 28.640625 5.855469 29.019531 5.3125 29.589844 5.03125 C 30.398438 4.632812 31.332031 4.839844 31.992188 5.40625 C 32.523438 5.863281 32.996094 6.34375 33.71875 6.46875 C 34.480469 6.597656 35.207031 6.402344 35.804688 5.921875 C 36.46875 5.386719 36.941406 4.847656 37.863281 4.832031 C 38.097656 4.828125 38.101562 4.460938 37.863281 4.464844 C 37.15625 4.480469 36.597656 4.738281 36.070312 5.199219 C 35.535156 5.671875 35.054688 6.105469 34.300781 6.140625 C 33.472656 6.175781 32.953125 5.773438 32.367188 5.253906 C 31.890625 4.828125 31.382812 4.523438 30.734375 4.472656 C 30.054688 4.421875 29.429688 4.621094 28.902344 5.050781 C 28.363281 5.480469 27.9375 6 27.214844 6.113281 C 26.414062 6.242188 25.769531 5.929688 25.191406 5.410156 C 24.699219 4.964844 24.21875 4.582031 23.539062 4.492188 C 22.859375 4.402344 22.199219 4.558594 21.652344 4.972656 C 21.15625 5.347656 20.757812 5.863281 20.140625 6.050781 C 19.335938 6.296875 18.570312 6.050781 17.957031 5.511719 C 17.503906 5.117188 17.082031 4.699219 16.476562 4.542969 C 15.800781 4.371094 15.046875 4.472656 14.464844 4.855469 C 13.949219 5.199219 13.570312 5.726562 12.996094 5.976562 C 12.265625 6.296875 11.402344 6.152344 10.789062 5.664062 C 10.304688 5.277344 9.910156 4.804688 9.304688 4.597656 C 8.578125 4.34375 7.71875 4.445312 7.085938 4.878906 C 6.5 5.277344 6.074219 5.890625 5.359375 6.074219 C 4.460938 6.304688 3.738281 5.945312 3.089844 5.355469 C 2.507812 4.828125 1.9375 4.480469 1.125 4.464844 C 0.890625 4.460938 0.890625 4.828125 1.125 4.832031 " fill-opacity="1" fill-rule="nonzero"/></g></g></g></g></svg>