<svg xmlns="http://www.w3.org/2000/svg" xmlns:xlink="http://www.w3.org/1999/xlink" width="60" zoomAndPan="magnify" viewBox="0 0 45 44.999999" height="60" preserveAspectRatio="xMidYMid meet" version="1.0"><defs><clipPath id="06fa5d7698"><path d="M 0 4.5 L 45 4.5 L 45 40.5 L 0 40.5 Z M 0 4.5 " clip-rule="nonzero"/></clipPath></defs><g clip-path="url(#06fa5d7698)"><path fill="#ffffff" d="M 33.464844 26.304688 C 31.101562 28.875 27.972656 30.910156 24.652344 32 L 23.707031 32.292969 C 23.496094 32.355469 23.28125 32.429688 23.0625 32.457031 L 23.03125 32.457031 C 24.226562 33.730469 26.300781 35.132812 28.066406 35.171875 C 28.859375 35.191406 29.960938 34.929688 30.105469 34.015625 C 30.316406 32.660156 30.773438 32.265625 31.601562 31.21875 C 32.125 30.554688 32.503906 29.746094 32.804688 28.960938 L 32.988281 28.429688 C 33.15625 27.902344 33.488281 27.441406 34.101562 27.898438 C 34.996094 28.574219 33.199219 31.464844 32.722656 32.054688 L 32.085938 32.789062 C 31.261719 33.714844 31.691406 33.628906 31.429688 34.65625 C 31.035156 36.191406 28.75 36.777344 27.367188 36.550781 C 25.78125 36.292969 23.910156 35.179688 22.746094 34.144531 L 21.644531 33.078125 C 21.460938 32.898438 21.480469 32.917969 21.230469 32.957031 L 18.261719 33.273438 C 18.488281 34.101562 18.84375 34.929688 19.210938 35.703125 L 19.753906 36.746094 C 20.074219 37.324219 20.507812 37.992188 20.539062 38.667969 C 20.582031 39.601562 19.863281 40.265625 18.949219 40.300781 C 18.414062 40.320312 17.839844 40.117188 17.34375 39.929688 C 14.8125 38.980469 13.082031 36.835938 11.84375 34.519531 L 11.011719 32.683594 C 10.945312 32.507812 10.941406 32.386719 10.761719 32.308594 L 8.664062 31.339844 C 5.796875 29.875 3.160156 27.339844 1.277344 24.777344 C 0.378906 23.546875 0.0078125 22.882812 0.761719 21.472656 C 2.773438 17.726562 6.722656 14.128906 10.507812 12.3125 L 11.28125 11.949219 C 11.734375 11.742188 11.859375 11.648438 12.167969 11.269531 L 14.757812 8.648438 C 17.53125 6.179688 20.386719 4.644531 24.128906 4.511719 C 25.101562 4.5 26.003906 4.515625 26.953125 4.738281 C 29.011719 5.210938 29.851562 6.992188 28.304688 8.683594 C 27.304688 9.78125 27.222656 9.324219 28.488281 9.960938 C 30.667969 11.0625 32.671875 13.199219 33.929688 15.3125 C 34.195312 15.761719 34.632812 16.363281 34.15625 16.808594 C 33.3125 17.609375 32.847656 16.371094 32.519531 15.835938 C 31.492188 14.160156 30.101562 12.558594 28.398438 11.558594 L 27.578125 11.117188 C 27.214844 10.941406 26.777344 10.808594 26.5 10.503906 C 25.914062 9.859375 26.078125 8.988281 26.636719 8.382812 C 27.316406 7.644531 28.542969 6.644531 26.824219 6.164062 C 25.917969 5.910156 25.015625 5.902344 24.085938 5.910156 C 20.195312 5.933594 16.839844 8.46875 14.230469 11.113281 C 15.246094 10.871094 16.265625 10.800781 17.304688 10.796875 C 23.652344 10.785156 30.328125 14.164062 34 19.332031 C 35.964844 16.242188 39.457031 13.9375 42.984375 13.089844 C 43.527344 12.960938 44.519531 12.617188 44.917969 13.199219 C 45.210938 13.628906 44.777344 14.140625 44.535156 14.480469 C 43.96875 15.28125 43.488281 16.148438 43.074219 17.035156 C 41.183594 21.097656 41.234375 24.929688 43.480469 28.8125 L 44.847656 30.859375 C 44.96875 31.03125 45.085938 31.257812 45.035156 31.476562 C 44.871094 32.175781 44.203125 32.117188 43.640625 32.035156 C 40.457031 31.570312 37.515625 29.773438 35.335938 27.449219 C 34.84375 26.925781 34.320312 26.335938 33.96875 25.707031 Z M 17.042969 12.214844 C 14.652344 12.222656 12.351562 12.878906 10.246094 14.003906 C 11.808594 15.640625 13.113281 18.5 13.3125 20.804688 L 15.84375 19.832031 C 16.855469 19.472656 17.847656 19.148438 18.347656 20.449219 C 19.011719 22.175781 17.804688 23.300781 17.449219 24.746094 C 17.25 25.550781 17.574219 26.457031 16.429688 26.894531 C 15.800781 27.136719 15.113281 26.925781 14.53125 26.65625 L 13.046875 25.8125 C 12.398438 27.867188 11.726562 28.871094 10.445312 30.597656 C 11.445312 30.972656 12.421875 31.316406 13.46875 31.535156 C 20.109375 32.925781 27.867188 30.300781 32.410156 25.339844 C 32.78125 24.933594 33.105469 24.496094 33.457031 24.074219 C 34.261719 23.285156 34.628906 24.15625 35.011719 24.730469 C 37.007812 27.710938 39.492188 29.363281 42.808594 30.460938 C 39.464844 25.21875 39.523438 19.746094 42.796875 14.585938 C 39.394531 15.734375 36.84375 17.425781 34.867188 20.566406 C 34.484375 21.171875 33.902344 21.566406 33.347656 20.890625 C 33.09375 20.582031 32.882812 20.230469 32.644531 19.90625 C 29.546875 15.65625 23.707031 12.535156 18.503906 12.238281 Z M 8.976562 14.78125 C 7.929688 15.507812 6.910156 16.28125 5.972656 17.148438 C 4.632812 18.386719 2.175781 21.222656 1.75 22.851562 C 1.835938 23.183594 2.132812 23.523438 2.332031 23.800781 C 3.527344 25.464844 4.941406 26.984375 6.546875 28.257812 C 6.832031 28.480469 8.855469 29.972656 9.074219 29.945312 C 10.683594 28.214844 11.839844 25.9375 12.066406 23.570312 C 12.335938 20.742188 11.15625 16.769531 9.101562 14.84375 Z M 16.785156 21 C 15.898438 21.207031 15.042969 21.648438 14.199219 21.988281 L 13.765625 22.160156 C 13.367188 22.308594 13.484375 22.3125 13.484375 22.753906 C 13.480469 23.285156 13.539062 23.929688 13.398438 24.445312 L 14.359375 24.964844 C 14.867188 25.222656 15.359375 25.464844 15.910156 25.617188 C 16.003906 25.164062 16.023438 24.722656 16.15625 24.273438 C 16.269531 23.890625 17.777344 20.847656 16.785156 21 Z M 12.496094 32.753906 C 13.519531 35.050781 15.460938 37.695312 17.824219 38.609375 C 18.152344 38.738281 18.742188 38.960938 19.085938 38.835938 C 19.152344 38.46875 18.546875 37.515625 18.378906 37.179688 C 17.992188 36.417969 17.621094 35.652344 17.316406 34.851562 L 16.910156 33.714844 C 16.871094 33.59375 16.859375 33.421875 16.800781 33.320312 C 15.359375 33.3125 13.890625 33.117188 12.496094 32.753906 Z M 12.496094 32.753906 " fill-opacity="1" fill-rule="nonzero"/></g><path fill="#ffffff" d="M 8.058594 22.5625 L 7.988281 22.570312 C 5.171875 22.945312 4.535156 18.53125 7.523438 18.164062 C 7.996094 18.074219 8.59375 18.265625 8.980469 18.53125 C 10.6875 19.695312 10.082031 22.195312 8.058594 22.5625 Z M 7.597656 19.589844 C 6.570312 19.84375 6.742188 21.285156 7.9375 21.121094 C 8.988281 20.722656 8.722656 19.546875 7.597656 19.589844 Z M 7.597656 19.589844 " fill-opacity="1" fill-rule="nonzero"/></svg>