<svg xmlns="http://www.w3.org/2000/svg" xmlns:xlink="http://www.w3.org/1999/xlink" width="60" zoomAndPan="magnify" viewBox="0 0 45 44.999999" height="60" preserveAspectRatio="xMidYMid meet" version="1.0"><defs><clipPath id="4be9a0b813"><path d="M 7.125 10.316406 L 37.875 10.316406 L 37.875 34.316406 L 7.125 34.316406 Z M 7.125 10.316406 " clip-rule="nonzero"/></clipPath></defs><g clip-path="url(#4be9a0b813)"><path fill="#ffffff" d="M 29.886719 25.144531 C 28.277344 26.890625 26.148438 28.273438 23.890625 29.019531 L 23.25 29.214844 C 23.105469 29.257812 22.960938 29.308594 22.808594 29.328125 L 22.789062 29.328125 C 23.601562 30.191406 25.011719 31.148438 26.214844 31.175781 C 26.753906 31.1875 27.503906 31.007812 27.601562 30.386719 C 27.746094 29.464844 28.054688 29.199219 28.617188 28.488281 C 28.972656 28.035156 29.230469 27.484375 29.433594 26.953125 L 29.5625 26.589844 C 29.675781 26.230469 29.902344 25.917969 30.316406 26.230469 C 30.925781 26.6875 29.703125 28.65625 29.378906 29.054688 L 28.945312 29.554688 C 28.386719 30.183594 28.679688 30.125 28.5 30.824219 C 28.234375 31.867188 26.679688 32.265625 25.738281 32.113281 C 24.660156 31.9375 23.386719 31.179688 22.59375 30.476562 L 21.84375 29.75 C 21.722656 29.628906 21.734375 29.640625 21.566406 29.667969 L 19.546875 29.882812 C 19.699219 30.445312 19.941406 31.011719 20.191406 31.535156 L 20.558594 32.246094 C 20.777344 32.636719 21.074219 33.09375 21.09375 33.554688 C 21.125 34.1875 20.632812 34.636719 20.015625 34.664062 C 19.648438 34.675781 19.257812 34.539062 18.921875 34.410156 C 17.199219 33.765625 16.023438 32.304688 15.179688 30.730469 L 14.613281 29.484375 C 14.570312 29.363281 14.566406 29.28125 14.445312 29.226562 L 13.019531 28.570312 C 11.070312 27.574219 9.273438 25.847656 7.996094 24.105469 C 7.382812 23.269531 7.132812 22.816406 7.644531 21.859375 C 9.011719 19.308594 11.699219 16.863281 14.273438 15.628906 L 14.800781 15.382812 C 15.109375 15.242188 15.191406 15.175781 15.402344 14.917969 L 17.160156 13.136719 C 19.050781 11.457031 20.992188 10.414062 23.539062 10.324219 C 24.199219 10.316406 24.808594 10.328125 25.457031 10.476562 C 26.855469 10.800781 27.425781 12.011719 26.375 13.160156 C 25.695312 13.90625 25.640625 13.59375 26.5 14.027344 C 27.984375 14.777344 29.347656 16.234375 30.199219 17.667969 C 30.382812 17.972656 30.679688 18.382812 30.355469 18.6875 C 29.78125 19.230469 29.464844 18.390625 29.242188 18.023438 C 28.542969 16.882812 27.597656 15.792969 26.4375 15.113281 L 25.882812 14.816406 C 25.636719 14.695312 25.339844 14.605469 25.148438 14.398438 C 24.75 13.960938 24.863281 13.367188 25.242188 12.953125 C 25.703125 12.453125 26.539062 11.773438 25.367188 11.445312 C 24.75 11.273438 24.140625 11.269531 23.507812 11.273438 C 20.859375 11.289062 18.578125 13.015625 16.804688 14.8125 C 17.496094 14.648438 18.1875 14.601562 18.894531 14.597656 C 23.214844 14.589844 27.75 16.890625 30.25 20.402344 C 31.585938 18.300781 33.960938 16.734375 36.359375 16.15625 C 36.730469 16.070312 37.402344 15.835938 37.671875 16.230469 C 37.871094 16.523438 37.578125 16.871094 37.414062 17.105469 C 37.027344 17.648438 36.703125 18.234375 36.421875 18.839844 C 35.132812 21.601562 35.167969 24.207031 36.695312 26.851562 L 37.628906 28.242188 C 37.710938 28.359375 37.789062 28.511719 37.753906 28.660156 C 37.640625 29.136719 37.1875 29.097656 36.804688 29.039062 C 34.640625 28.726562 32.640625 27.503906 31.15625 25.921875 C 30.820312 25.566406 30.464844 25.164062 30.226562 24.738281 Z M 18.71875 15.5625 C 17.089844 15.570312 15.527344 16.015625 14.09375 16.777344 C 15.15625 17.890625 16.046875 19.835938 16.179688 21.402344 L 17.902344 20.742188 C 18.589844 20.496094 19.265625 20.277344 19.605469 21.164062 C 20.054688 22.335938 19.234375 23.101562 18.992188 24.082031 C 18.855469 24.632812 19.078125 25.246094 18.300781 25.546875 C 17.871094 25.710938 17.40625 25.566406 17.011719 25.382812 L 16 24.808594 C 15.558594 26.207031 15.101562 26.886719 14.230469 28.066406 C 14.910156 28.316406 15.574219 28.554688 16.285156 28.703125 C 20.804688 29.644531 26.078125 27.859375 29.167969 24.488281 C 29.421875 24.210938 29.640625 23.914062 29.878906 23.625 C 30.425781 23.09375 30.675781 23.683594 30.9375 24.074219 C 32.292969 26.101562 33.984375 27.226562 36.238281 27.96875 C 33.964844 24.40625 34.003906 20.683594 36.230469 17.175781 C 33.917969 17.957031 32.183594 19.105469 30.839844 21.242188 C 30.578125 21.65625 30.183594 21.921875 29.804688 21.460938 C 29.632812 21.25 29.488281 21.011719 29.328125 20.792969 C 27.222656 17.902344 23.25 15.78125 19.710938 15.578125 Z M 13.230469 17.308594 C 12.519531 17.800781 11.824219 18.328125 11.1875 18.917969 C 10.277344 19.761719 8.605469 21.6875 8.316406 22.792969 C 8.375 23.023438 8.574219 23.25 8.710938 23.441406 C 9.527344 24.574219 10.488281 25.605469 11.578125 26.472656 C 11.773438 26.625 13.148438 27.636719 13.296875 27.621094 C 14.390625 26.445312 15.179688 24.894531 15.332031 23.285156 C 15.515625 21.359375 14.714844 18.660156 13.316406 17.347656 Z M 18.542969 21.535156 C 17.9375 21.675781 17.355469 21.976562 16.785156 22.207031 L 16.488281 22.328125 C 16.214844 22.425781 16.296875 22.429688 16.296875 22.730469 C 16.292969 23.089844 16.332031 23.527344 16.238281 23.882812 L 16.894531 24.230469 C 17.238281 24.410156 17.570312 24.574219 17.949219 24.675781 C 18.011719 24.367188 18.023438 24.070312 18.113281 23.761719 C 18.191406 23.503906 19.21875 21.433594 18.542969 21.535156 Z M 15.625 29.53125 C 16.320312 31.09375 17.640625 32.890625 19.246094 33.511719 C 19.472656 33.597656 19.871094 33.753906 20.105469 33.667969 C 20.152344 33.417969 19.742188 32.769531 19.625 32.539062 C 19.359375 32.023438 19.109375 31.5 18.902344 30.957031 L 18.625 30.183594 C 18.597656 30.101562 18.59375 29.984375 18.550781 29.914062 C 17.574219 29.910156 16.574219 29.777344 15.625 29.53125 Z M 15.625 29.53125 " fill-opacity="1" fill-rule="nonzero"/></g><path fill="#ffffff" d="M 12.605469 22.597656 L 12.558594 22.605469 C 10.640625 22.859375 10.210938 19.855469 12.242188 19.609375 C 12.566406 19.546875 12.96875 19.675781 13.234375 19.855469 C 14.394531 20.648438 13.984375 22.347656 12.605469 22.597656 Z M 12.292969 20.578125 C 11.59375 20.75 11.710938 21.730469 12.527344 21.621094 C 13.238281 21.347656 13.058594 20.550781 12.292969 20.578125 Z M 12.292969 20.578125 " fill-opacity="1" fill-rule="nonzero"/></svg>