<svg xmlns="http://www.w3.org/2000/svg" xmlns:xlink="http://www.w3.org/1999/xlink" width="100" zoomAndPan="magnify" viewBox="0 0 75 74.999997" height="100" preserveAspectRatio="xMidYMid meet" version="1.0"><defs><clipPath id="5d31c9da2f"><path d="M 0.890625 36 L 74 36 L 74 75 L 0.890625 75 Z M 0.890625 36 " clip-rule="nonzero"/></clipPath></defs><g clip-path="url(#5d31c9da2f)"><path fill="#163696" d="M 2.058594 67.941406 C 1.417969 67.941406 0.890625 68.464844 0.890625 69.109375 C 0.890625 69.753906 1.417969 70.277344 2.058594 70.277344 L 10.1875 70.277344 C 11.476562 70.277344 12.585938 69.226562 12.585938 67.941406 L 12.585938 65.074219 C 13.171875 65.132812 13.757812 65.367188 14.398438 65.542969 L 39.546875 74.722656 C 39.546875 74.722656 39.605469 74.722656 39.605469 74.722656 C 40.015625 74.839844 40.367188 74.898438 40.773438 74.898438 C 41.769531 74.898438 42.761719 74.546875 43.582031 73.847656 L 71.125 50.921875 C 73.640625 48.757812 74.109375 44.839844 72.179688 42.265625 C 71.183594 40.921875 69.722656 40.101562 68.085938 39.925781 C 66.449219 39.75 64.871094 40.277344 63.640625 41.332031 L 50.132812 53.085938 C 50.367188 53.785156 50.484375 54.546875 50.484375 55.367188 C 50.484375 55.542969 50.484375 55.71875 50.425781 55.949219 L 65.160156 43.261719 C 65.921875 42.617188 66.859375 42.324219 67.851562 42.441406 C 68.847656 42.558594 69.722656 43.027344 70.308594 43.84375 C 71.535156 45.484375 71.242188 47.9375 69.605469 49.285156 L 42.0625 72.207031 C 41.59375 72.617188 40.890625 72.792969 40.308594 72.617188 L 15.453125 63.554688 L 15.160156 63.4375 C 14.398438 63.203125 13.523438 62.910156 12.585938 62.792969 L 12.585938 44.664062 L 15.335938 42.96875 C 15.453125 42.910156 15.511719 42.910156 15.628906 42.851562 C 15.6875 42.851562 15.6875 42.851562 15.746094 42.792969 C 15.863281 42.734375 15.921875 42.734375 16.039062 42.675781 C 16.039062 42.675781 16.097656 42.675781 16.097656 42.675781 C 16.152344 42.675781 16.210938 42.617188 16.269531 42.617188 C 16.328125 42.617188 16.328125 42.617188 16.386719 42.558594 C 16.445312 42.558594 16.445312 42.558594 16.503906 42.558594 C 16.5625 42.558594 16.621094 42.558594 16.679688 42.558594 C 16.679688 42.558594 16.679688 42.558594 16.738281 42.558594 C 16.914062 42.558594 17.03125 42.558594 17.148438 42.558594 C 17.148438 42.558594 17.207031 42.558594 17.207031 42.558594 C 17.265625 42.558594 17.265625 42.558594 17.324219 42.558594 C 17.382812 42.558594 17.441406 42.558594 17.5 42.617188 L 41.066406 50.6875 C 41.125 50.6875 41.125 50.6875 41.183594 50.746094 C 43.40625 51.214844 45.746094 53.261719 45.746094 55.425781 C 45.746094 56.710938 45.21875 57.996094 44.226562 58.816406 C 43.347656 59.578125 42.238281 59.925781 41.125 59.8125 L 26.5625 55.25 C 25.921875 55.074219 25.277344 55.425781 25.101562 56.007812 C 24.925781 56.652344 25.277344 57.296875 25.863281 57.472656 L 40.542969 62.089844 C 40.597656 62.089844 40.65625 62.148438 40.714844 62.148438 C 41.007812 62.207031 41.300781 62.207031 41.59375 62.207031 C 43.113281 62.207031 44.632812 61.625 45.804688 60.628906 C 47.265625 59.34375 48.144531 57.472656 48.144531 55.484375 C 48.144531 52.03125 44.925781 49.226562 41.828125 48.523438 L 18.199219 40.277344 C 18.144531 40.277344 18.085938 40.21875 18.027344 40.21875 C 17.265625 40.101562 16.503906 40.042969 15.335938 40.394531 C 15.042969 40.511719 14.691406 40.628906 14.339844 40.804688 C 14.28125 40.804688 14.28125 40.863281 14.222656 40.863281 L 12.585938 41.855469 L 12.585938 38.699219 C 12.585938 37.414062 11.535156 36.359375 10.1875 36.359375 L 2.058594 36.359375 C 1.417969 36.359375 0.890625 36.886719 0.890625 37.527344 C 0.890625 38.171875 1.417969 38.699219 2.058594 38.699219 L 10.246094 38.699219 L 10.1875 67.941406 Z M 2.058594 67.941406 " fill-opacity="1" fill-rule="nonzero"/></g><path fill="#163696" d="M 67.03125 15.832031 C 66.507812 14.195312 64.753906 13.492188 63.230469 12.851562 C 62.296875 12.441406 61.300781 12.03125 60.949219 11.5625 C 60.601562 11.039062 60.484375 9.925781 60.425781 8.933594 C 60.308594 7.292969 60.132812 5.421875 58.789062 4.429688 C 57.441406 3.433594 55.628906 3.84375 54.050781 4.253906 C 53.054688 4.488281 51.945312 4.722656 51.359375 4.546875 C 50.832031 4.371094 50.074219 3.550781 49.429688 2.792969 C 48.320312 1.503906 47.03125 0.101562 45.335938 0.101562 C 43.640625 0.101562 42.355469 1.503906 41.300781 2.792969 C 40.65625 3.550781 39.957031 4.371094 39.371094 4.546875 C 38.785156 4.722656 37.675781 4.488281 36.679688 4.253906 C 35.101562 3.902344 33.289062 3.492188 31.945312 4.429688 C 30.597656 5.421875 30.421875 7.292969 30.308594 8.933594 C 30.25 9.925781 30.132812 11.039062 29.78125 11.5625 C 29.429688 12.03125 28.375 12.5 27.5 12.851562 C 25.980469 13.492188 24.226562 14.195312 23.699219 15.832031 C 23.171875 17.410156 24.167969 18.933594 24.984375 20.335938 C 25.453125 21.269531 26.039062 22.265625 26.039062 22.910156 C 26.039062 23.550781 25.453125 24.546875 24.925781 25.421875 C 24.109375 26.828125 23.171875 28.40625 23.640625 29.925781 C 24.167969 31.5625 25.921875 32.265625 27.441406 32.910156 C 28.375 33.320312 29.371094 33.726562 29.722656 34.195312 C 30.074219 34.722656 30.191406 35.832031 30.25 36.828125 C 30.367188 38.464844 30.539062 40.335938 31.886719 41.332031 C 33.230469 42.324219 35.042969 41.914062 36.621094 41.507812 C 37.617188 41.273438 38.726562 41.039062 39.3125 41.214844 C 39.839844 41.390625 40.597656 42.207031 41.242188 42.96875 C 42.355469 44.253906 43.582031 45.65625 45.277344 45.65625 C 46.972656 45.65625 48.261719 44.253906 49.3125 42.96875 C 49.957031 42.207031 50.660156 41.390625 51.242188 41.214844 C 51.828125 41.039062 52.9375 41.273438 53.933594 41.507812 C 55.511719 41.855469 57.324219 42.265625 58.671875 41.332031 C 60.015625 40.335938 60.191406 38.464844 60.308594 36.828125 C 60.367188 35.832031 60.484375 34.722656 60.835938 34.195312 C 61.183594 33.726562 62.238281 33.261719 63.113281 32.910156 C 64.636719 32.265625 66.390625 31.5625 66.917969 29.925781 C 67.441406 28.347656 66.449219 26.828125 65.628906 25.421875 C 65.101562 24.488281 64.519531 23.550781 64.519531 22.910156 C 64.519531 22.265625 65.101562 21.269531 65.628906 20.394531 C 66.566406 18.992188 67.558594 17.410156 67.03125 15.832031 Z M 63.757812 19.167969 C 63.054688 20.335938 62.296875 21.621094 62.296875 22.910156 C 62.296875 24.195312 63.054688 25.421875 63.757812 26.652344 C 64.285156 27.585938 64.984375 28.699219 64.8125 29.226562 C 64.636719 29.808594 63.40625 30.335938 62.355469 30.804688 C 61.125 31.332031 59.78125 31.855469 59.078125 32.910156 C 58.320312 33.960938 58.203125 35.367188 58.085938 36.710938 C 57.96875 37.878906 57.851562 39.167969 57.382812 39.519531 C 56.914062 39.867188 55.570312 39.574219 54.519531 39.34375 C 53.171875 39.050781 51.769531 38.699219 50.542969 39.109375 C 49.371094 39.519531 48.4375 40.511719 47.558594 41.5625 C 46.855469 42.382812 45.980469 43.378906 45.335938 43.378906 C 44.691406 43.378906 43.816406 42.382812 43.054688 41.507812 C 42.179688 40.453125 41.242188 39.402344 40.074219 39.050781 C 39.664062 38.933594 39.253906 38.875 38.785156 38.875 C 37.910156 38.875 36.972656 39.109375 36.097656 39.285156 C 35.042969 39.519531 33.757812 39.808594 33.230469 39.460938 C 32.761719 39.109375 32.644531 37.820312 32.527344 36.652344 C 32.414062 35.308594 32.296875 33.902344 31.535156 32.851562 C 30.773438 31.855469 29.488281 31.273438 28.261719 30.746094 C 27.207031 30.277344 25.980469 29.808594 25.804688 29.167969 C 25.628906 28.640625 26.328125 27.46875 26.855469 26.59375 C 27.558594 25.421875 28.320312 24.136719 28.320312 22.851562 C 28.320312 21.5625 27.558594 20.335938 26.855469 19.109375 C 26.328125 18.171875 25.628906 17.0625 25.804688 16.535156 C 25.980469 15.949219 27.207031 15.421875 28.261719 14.957031 C 29.488281 14.429688 30.832031 13.902344 31.535156 12.851562 C 32.296875 11.796875 32.414062 10.394531 32.527344 9.046875 C 32.644531 7.878906 32.761719 6.59375 33.230469 6.242188 C 33.699219 5.890625 35.042969 6.183594 36.097656 6.417969 C 37.441406 6.710938 38.84375 7.058594 40.074219 6.652344 C 41.242188 6.242188 42.179688 5.246094 43.054688 4.195312 C 43.816406 3.433594 44.691406 2.441406 45.335938 2.441406 C 45.980469 2.441406 46.855469 3.433594 47.617188 4.3125 C 48.496094 5.363281 49.429688 6.417969 50.601562 6.769531 C 51.828125 7.175781 53.230469 6.828125 54.578125 6.535156 C 55.628906 6.300781 56.914062 6.007812 57.441406 6.359375 C 57.910156 6.710938 58.027344 7.996094 58.144531 9.164062 C 58.261719 10.511719 58.378906 11.914062 59.136719 12.96875 C 59.898438 13.960938 61.183594 14.546875 62.414062 15.074219 C 63.464844 15.539062 64.695312 16.007812 64.871094 16.652344 C 64.984375 17.121094 64.285156 18.230469 63.757812 19.167969 Z M 63.757812 19.167969 " fill-opacity="1" fill-rule="nonzero"/><path fill="#163696" d="M 45.335938 7.117188 C 36.621094 7.117188 29.546875 14.195312 29.546875 22.910156 C 29.546875 31.621094 36.621094 38.699219 45.335938 38.699219 C 54.050781 38.699219 61.125 31.621094 61.125 22.910156 C 61.125 14.195312 54.050781 7.117188 45.335938 7.117188 Z M 45.335938 36.359375 C 37.910156 36.359375 31.886719 30.335938 31.886719 22.910156 C 31.886719 15.480469 37.910156 9.457031 45.335938 9.457031 C 52.761719 9.457031 58.789062 15.480469 58.789062 22.910156 C 58.789062 30.335938 52.761719 36.359375 45.335938 36.359375 Z M 45.335938 36.359375 " fill-opacity="1" fill-rule="nonzero"/><path fill="#163696" d="M 52.121094 16.828125 L 42.414062 26.535156 L 38.550781 22.675781 C 38.085938 22.207031 37.382812 22.207031 36.914062 22.675781 C 36.449219 23.144531 36.449219 23.84375 36.914062 24.3125 L 41.59375 28.992188 C 41.828125 29.226562 42.121094 29.34375 42.414062 29.34375 C 42.703125 29.34375 42.996094 29.226562 43.230469 28.992188 L 53.757812 18.464844 C 54.226562 17.996094 54.226562 17.292969 53.757812 16.828125 C 53.289062 16.359375 52.589844 16.359375 52.121094 16.828125 Z M 52.121094 16.828125 " fill-opacity="1" fill-rule="nonzero"/></svg>