<svg xmlns="http://www.w3.org/2000/svg" xmlns:xlink="http://www.w3.org/1999/xlink" width="120" zoomAndPan="magnify" viewBox="0 0 90 89.999999" height="120" preserveAspectRatio="xMidYMid meet" version="1.0"><defs><clipPath id="74f4b8daef"><path d="M 24.582031 26.34375 L 65.082031 26.34375 L 65.082031 63 L 24.582031 63 Z M 24.582031 26.34375 " clip-rule="nonzero"/></clipPath></defs><g clip-path="url(#74f4b8daef)"><path fill="#ffffff" d="M 61.695312 50.28125 L 62.050781 51.359375 L 61.132812 50.691406 C 60.914062 50.53125 60.628906 50.53125 60.40625 50.691406 L 59.488281 51.359375 L 59.84375 50.28125 C 59.925781 50.027344 59.835938 49.75 59.621094 49.59375 L 58.699219 48.925781 L 59.835938 48.929688 C 60.101562 48.929688 60.339844 48.757812 60.421875 48.503906 L 60.769531 47.421875 L 61.117188 48.503906 C 61.199219 48.761719 61.4375 48.929688 61.703125 48.929688 L 62.839844 48.925781 L 61.921875 49.59375 C 61.703125 49.75 61.613281 50.027344 61.695312 50.28125 Z M 65.328125 48.117188 C 65.246094 47.863281 65.007812 47.691406 64.742188 47.691406 L 62.152344 47.699219 L 61.355469 45.234375 C 61.171875 44.671875 60.367188 44.667969 60.1875 45.234375 L 59.390625 47.699219 L 56.796875 47.691406 C 56.203125 47.691406 55.957031 48.460938 56.4375 48.804688 L 58.535156 50.328125 L 57.730469 52.789062 C 57.546875 53.351562 58.199219 53.824219 58.675781 53.476562 L 60.769531 51.949219 L 62.863281 53.476562 C 63.347656 53.828125 63.992188 53.351562 63.808594 52.789062 L 63.003906 50.328125 L 65.101562 48.804688 C 65.320312 48.652344 65.410156 48.371094 65.328125 48.117188 Z M 30.320312 50.28125 L 30.671875 51.363281 L 29.757812 50.691406 C 29.539062 50.53125 29.25 50.53125 29.03125 50.691406 L 28.113281 51.363281 L 28.46875 50.28125 C 28.550781 50.027344 28.460938 49.75 28.242188 49.59375 L 27.324219 48.925781 L 28.460938 48.929688 C 28.726562 48.929688 28.964844 48.757812 29.046875 48.503906 L 29.394531 47.421875 L 29.742188 48.503906 C 29.824219 48.761719 30.0625 48.929688 30.328125 48.929688 L 31.464844 48.925781 L 30.546875 49.59375 C 30.328125 49.75 30.238281 50.027344 30.320312 50.28125 Z M 33.367188 47.691406 L 30.777344 47.699219 L 29.980469 45.234375 C 29.796875 44.671875 28.992188 44.667969 28.808594 45.234375 L 28.015625 47.699219 L 25.421875 47.691406 C 24.828125 47.691406 24.582031 48.460938 25.0625 48.804688 L 27.160156 50.328125 L 26.355469 52.789062 C 26.171875 53.351562 26.824219 53.820312 27.300781 53.476562 L 29.394531 51.949219 L 31.488281 53.476562 C 31.96875 53.828125 32.617188 53.351562 32.433594 52.789062 L 31.628906 50.328125 L 33.726562 48.804688 C 34.207031 48.460938 33.960938 47.691406 33.367188 47.691406 Z M 55.636719 37.152344 C 55.902344 37.152344 56.140625 36.980469 56.222656 36.726562 L 56.6875 35.273438 L 57.160156 36.726562 C 57.242188 36.980469 57.476562 37.152344 57.746094 37.152344 L 59.269531 37.144531 L 58.035156 38.042969 C 57.816406 38.195312 57.726562 38.476562 57.808594 38.730469 L 58.285156 40.179688 L 57.050781 39.285156 C 56.839844 39.125 56.542969 39.125 56.328125 39.285156 L 55.09375 40.179688 L 55.570312 38.730469 C 55.652344 38.476562 55.5625 38.195312 55.34375 38.042969 L 54.109375 37.144531 Z M 51.847656 37.027344 L 54.261719 38.777344 L 53.335938 41.609375 C 53.152344 42.167969 53.804688 42.644531 54.28125 42.296875 L 56.6875 40.539062 L 59.097656 42.296875 C 59.566406 42.636719 60.230469 42.179688 60.042969 41.609375 L 59.117188 38.777344 L 61.53125 37.027344 C 62.011719 36.679688 61.765625 35.914062 61.171875 35.914062 L 58.191406 35.917969 L 57.273438 33.085938 C 57.09375 32.515625 56.289062 32.515625 56.105469 33.085938 L 55.1875 35.917969 L 52.207031 35.914062 C 51.613281 35.914062 51.367188 36.683594 51.847656 37.027344 Z M 32.421875 37.152344 C 32.6875 37.152344 32.925781 36.980469 33.007812 36.726562 L 33.476562 35.273438 L 33.945312 36.726562 C 34.027344 36.980469 34.261719 37.152344 34.53125 37.152344 L 36.054688 37.144531 L 34.820312 38.042969 C 34.601562 38.195312 34.511719 38.476562 34.59375 38.730469 L 35.070312 40.179688 L 33.835938 39.285156 C 33.621094 39.125 33.328125 39.125 33.113281 39.285156 L 31.878906 40.179688 L 32.355469 38.730469 C 32.4375 38.476562 32.347656 38.195312 32.132812 38.042969 L 30.894531 37.144531 Z M 28.632812 37.027344 L 31.046875 38.777344 L 30.121094 41.609375 C 29.933594 42.179688 30.597656 42.636719 31.066406 42.296875 L 33.476562 40.539062 L 35.882812 42.296875 C 36.363281 42.644531 37.011719 42.171875 36.828125 41.609375 L 35.902344 38.777344 L 38.316406 37.027344 C 38.800781 36.679688 38.550781 35.914062 37.957031 35.914062 L 34.976562 35.917969 L 34.058594 33.085938 C 33.875 32.515625 33.074219 32.515625 32.890625 33.085938 L 31.976562 35.917969 L 28.992188 35.914062 C 28.398438 35.914062 28.152344 36.679688 28.632812 37.027344 Z M 43.941406 31.257812 C 44.207031 31.257812 44.445312 31.089844 44.527344 30.835938 L 45.082031 29.109375 L 45.640625 30.835938 C 45.722656 31.089844 45.957031 31.257812 46.222656 31.257812 L 48.035156 31.253906 L 46.566406 32.316406 C 46.351562 32.472656 46.261719 32.75 46.34375 33.003906 L 46.90625 34.722656 L 45.445312 33.65625 C 45.234375 33.503906 44.929688 33.503906 44.71875 33.65625 L 43.257812 34.722656 L 43.820312 33.003906 C 43.902344 32.75 43.8125 32.472656 43.597656 32.316406 L 42.128906 31.253906 Z M 39.867188 31.136719 L 42.511719 33.050781 L 41.5 36.152344 C 41.3125 36.714844 41.960938 37.191406 42.445312 36.839844 L 45.082031 34.914062 L 47.71875 36.839844 C 48.199219 37.1875 48.851562 36.714844 48.667969 36.152344 L 47.652344 33.050781 L 50.296875 31.136719 C 50.777344 30.789062 50.527344 30.019531 49.933594 30.023438 L 46.667969 30.027344 L 45.667969 26.921875 C 45.484375 26.359375 44.679688 26.355469 44.496094 26.921875 L 43.496094 30.027344 L 40.226562 30.023438 C 39.636719 30.023438 39.386719 30.789062 39.867188 31.136719 Z M 45.082031 46.609375 C 43.851562 46.609375 42.851562 45.609375 42.851562 44.378906 C 42.851562 43.152344 43.851562 42.152344 45.082031 42.152344 C 46.3125 42.152344 47.3125 43.152344 47.3125 44.378906 C 47.3125 45.613281 46.3125 46.609375 45.082031 46.609375 Z M 45.082031 40.921875 C 43.175781 40.921875 41.625 42.472656 41.625 44.378906 C 41.625 46.289062 43.175781 47.835938 45.082031 47.835938 C 46.988281 47.835938 48.539062 46.289062 48.539062 44.378906 C 48.539062 42.472656 46.988281 40.921875 45.082031 40.921875 Z M 45.082031 61.023438 C 46.152344 61.023438 47.207031 60.90625 48.230469 60.679688 L 48.230469 53.203125 C 48.230469 51.964844 48.769531 50.863281 49.742188 50.09375 L 54.402344 46.441406 C 54.554688 46.320312 54.648438 46.148438 54.675781 45.953125 C 54.75 45.320312 54.011719 44.894531 53.5 45.296875 L 48.195312 49.457031 C 47.277344 50.179688 46.261719 50.523438 45.09375 50.523438 C 43.910156 50.523438 42.902344 50.1875 41.972656 49.457031 L 36.664062 45.296875 C 36.347656 45.046875 35.886719 45.097656 35.640625 45.417969 C 35.390625 45.734375 35.445312 46.191406 35.761719 46.441406 L 40.421875 50.09375 C 41.398438 50.863281 41.933594 51.964844 41.933594 53.203125 L 41.933594 60.679688 C 42.957031 60.90625 44.011719 61.023438 45.082031 61.023438 Z M 50.5 51.0625 C 49.820312 51.597656 49.460938 52.335938 49.460938 53.203125 L 49.460938 60.347656 C 51.457031 59.710938 53.304688 58.636719 54.871094 57.183594 C 55.121094 56.949219 55.511719 56.964844 55.742188 57.214844 C 55.972656 57.460938 55.957031 57.851562 55.710938 58.085938 C 49.75 63.636719 40.414062 63.632812 34.457031 58.085938 C 34.207031 57.851562 34.191406 57.460938 34.421875 57.214844 C 34.652344 56.964844 35.042969 56.949219 35.292969 57.183594 C 36.859375 58.636719 38.707031 59.710938 40.703125 60.347656 L 40.703125 53.203125 C 40.703125 52.335938 40.34375 51.597656 39.664062 51.0625 L 35.003906 47.40625 C 34.15625 46.746094 34.007812 45.507812 34.671875 44.660156 C 35.339844 43.808594 36.570312 43.660156 37.421875 44.328125 L 42.730469 48.488281 C 43.433594 49.039062 44.175781 49.296875 45.070312 49.296875 C 45.976562 49.296875 46.71875 49.050781 47.433594 48.488281 L 52.742188 44.328125 C 53.59375 43.660156 54.824219 43.808594 55.492188 44.660156 C 56.160156 45.507812 56.007812 46.742188 55.160156 47.40625 Z M 50.5 51.0625 " fill-opacity="1" fill-rule="evenodd"/></g></svg>