<svg xmlns="http://www.w3.org/2000/svg" xmlns:xlink="http://www.w3.org/1999/xlink" width="60" zoomAndPan="magnify" viewBox="0 0 45 44.999999" height="60" preserveAspectRatio="xMidYMid meet" version="1.0"><defs><clipPath id="daa6c21756"><path d="M 0 0.910156 L 44 0.910156 L 44 41.410156 L 0 41.410156 Z M 0 0.910156 " clip-rule="nonzero"/></clipPath></defs><g clip-path="url(#daa6c21756)"><path fill="#163696" d="M 43.820312 26.039062 L 35.746094 14.304688 C 35.574219 14.058594 35.234375 13.996094 34.988281 14.164062 L 30.660156 17.144531 C 30.542969 17.226562 30.460938 17.351562 30.433594 17.492188 C 30.40625 17.636719 30.441406 17.78125 30.523438 17.902344 L 31.257812 18.972656 C 29.601562 19.21875 28.132812 19.027344 26.890625 18.402344 C 26.015625 17.964844 25.09375 17.875 23.980469 18.125 C 21.875 18.59375 20.113281 19.089844 18.371094 19.703125 C 16.601562 19.800781 14.332031 19.558594 12.925781 18.632812 L 13.515625 17.773438 C 13.597656 17.652344 13.632812 17.507812 13.605469 17.363281 C 13.578125 17.222656 13.496094 17.097656 13.378906 17.015625 L 9.050781 14.035156 C 8.804688 13.867188 8.464844 13.929688 8.292969 14.175781 L 0.21875 25.910156 C 0.046875 26.160156 0.109375 26.5 0.359375 26.667969 L 4.683594 29.648438 C 4.773438 29.710938 4.882812 29.742188 4.992188 29.742188 C 5.023438 29.742188 5.058594 29.742188 5.089844 29.734375 C 5.234375 29.707031 5.359375 29.625 5.441406 29.507812 L 5.886719 28.863281 C 6.414062 29.738281 7.125 30.582031 8.039062 31.421875 L 7.730469 31.867188 C 7.035156 32.863281 7.28125 34.242188 8.28125 34.9375 C 8.609375 35.164062 8.984375 35.296875 9.371094 35.324219 L 9.34375 35.363281 C 8.648438 36.363281 8.894531 37.742188 9.894531 38.4375 C 10.277344 38.703125 10.71875 38.828125 11.152344 38.828125 C 11.730469 38.828125 12.304688 38.601562 12.726562 38.171875 C 12.886719 38.53125 13.140625 38.851562 13.484375 39.09375 C 13.855469 39.351562 14.292969 39.488281 14.738281 39.488281 C 14.871094 39.488281 15.003906 39.476562 15.132812 39.453125 C 15.371094 39.410156 15.59375 39.328125 15.800781 39.21875 C 15.941406 39.667969 16.226562 40.078125 16.644531 40.371094 C 17.027344 40.636719 17.464844 40.765625 17.898438 40.765625 C 18.597656 40.765625 19.285156 40.433594 19.714844 39.820312 L 20.035156 39.355469 L 23.085938 41.277344 C 23.484375 41.527344 23.921875 41.644531 24.359375 41.644531 C 25.15625 41.644531 25.9375 41.25 26.390625 40.527344 C 26.652344 40.113281 26.769531 39.652344 26.757812 39.195312 C 27.070312 39.34375 27.414062 39.417969 27.757812 39.417969 C 27.9375 39.417969 28.113281 39.402344 28.289062 39.359375 C 28.917969 39.21875 29.453125 38.84375 29.796875 38.300781 C 30.066406 37.871094 30.191406 37.375 30.160156 36.875 C 30.371094 36.9375 30.59375 36.96875 30.816406 36.96875 C 30.996094 36.96875 31.175781 36.949219 31.355469 36.910156 C 31.980469 36.765625 32.511719 36.390625 32.851562 35.851562 C 33.179688 35.332031 33.292969 34.722656 33.175781 34.121094 C 33.199219 34.121094 33.222656 34.125 33.25 34.125 C 34.042969 34.125 34.824219 33.726562 35.28125 33.003906 C 35.777344 32.210938 35.753906 31.238281 35.300781 30.488281 C 36.304688 30.175781 37.25 29.597656 38.03125 28.8125 L 38.597656 29.636719 C 38.675781 29.753906 38.804688 29.835938 38.945312 29.863281 C 38.976562 29.871094 39.011719 29.871094 39.042969 29.871094 C 39.15625 29.871094 39.261719 29.839844 39.355469 29.777344 L 43.679688 26.796875 C 43.929688 26.628906 43.992188 26.289062 43.820312 26.039062 Z M 4.851562 28.441406 L 1.425781 26.078125 L 8.882812 15.246094 L 12.308594 17.605469 Z M 10.457031 33.761719 C 10.289062 34.007812 10.035156 34.167969 9.738281 34.222656 C 9.445312 34.273438 9.148438 34.210938 8.90625 34.042969 C 8.660156 33.871094 8.5 33.617188 8.445312 33.320312 C 8.394531 33.027344 8.457031 32.730469 8.628906 32.488281 L 10.230469 30.1875 C 10.398438 29.941406 10.652344 29.78125 10.949219 29.726562 C 11.242188 29.675781 11.539062 29.738281 11.78125 29.90625 C 12.289062 30.257812 12.414062 30.957031 12.0625 31.460938 Z M 10.519531 37.539062 C 10.011719 37.1875 9.890625 36.492188 10.238281 35.984375 L 12.957031 32.082031 L 14.070312 30.480469 C 14.285156 30.171875 14.632812 30.003906 14.988281 30.003906 C 15.207031 30.003906 15.429688 30.070312 15.621094 30.203125 C 15.867188 30.375 16.027344 30.628906 16.082031 30.925781 C 16.132812 31.21875 16.070312 31.515625 15.902344 31.757812 L 12.070312 37.261719 C 11.71875 37.765625 11.023438 37.890625 10.519531 37.539062 Z M 14.941406 38.378906 C 14.648438 38.429688 14.351562 38.367188 14.109375 38.195312 C 13.605469 37.84375 13.480469 37.148438 13.828125 36.644531 L 15.933594 33.621094 C 16.285156 33.117188 16.980469 32.992188 17.484375 33.34375 C 17.992188 33.695312 18.117188 34.390625 17.765625 34.898438 L 17.335938 35.515625 C 17.335938 35.515625 17.332031 35.515625 17.332031 35.519531 L 15.664062 37.917969 C 15.492188 38.160156 15.238281 38.324219 14.941406 38.378906 Z M 18.820312 39.195312 C 18.46875 39.699219 17.773438 39.824219 17.265625 39.472656 C 16.761719 39.121094 16.636719 38.425781 16.988281 37.921875 L 18.226562 36.140625 C 18.578125 35.636719 19.277344 35.511719 19.78125 35.863281 C 20.285156 36.214844 20.410156 36.910156 20.058594 37.414062 Z M 34.359375 32.421875 C 33.972656 33.03125 33.167969 33.214844 32.558594 32.832031 L 26.234375 28.847656 C 25.980469 28.6875 25.640625 28.765625 25.480469 29.019531 C 25.320312 29.273438 25.398438 29.613281 25.652344 29.773438 L 31.523438 33.46875 C 31.816406 33.652344 32.023438 33.941406 32.097656 34.285156 C 32.175781 34.625 32.117188 34.976562 31.933594 35.269531 C 31.75 35.5625 31.457031 35.765625 31.117188 35.84375 C 30.773438 35.921875 30.425781 35.863281 30.132812 35.675781 L 29.050781 34.996094 C 29.046875 34.996094 29.046875 34.996094 29.046875 34.996094 C 29.046875 34.996094 29.046875 34.996094 29.046875 34.992188 L 24.324219 32.019531 C 24.070312 31.859375 23.730469 31.9375 23.574219 32.191406 C 23.410156 32.445312 23.488281 32.78125 23.742188 32.941406 L 28.46875 35.917969 C 28.761719 36.101562 28.964844 36.390625 29.042969 36.734375 C 29.121094 37.074219 29.0625 37.421875 28.878906 37.71875 C 28.691406 38.011719 28.398438 38.21875 28.054688 38.296875 C 27.714844 38.371094 27.367188 38.3125 27.078125 38.128906 L 23.105469 35.59375 C 22.855469 35.429688 22.515625 35.503906 22.355469 35.757812 C 22.191406 36.011719 22.265625 36.347656 22.519531 36.511719 L 25.066406 38.136719 L 25.0625 38.148438 C 25.667969 38.53125 25.851562 39.335938 25.46875 39.945312 C 25.085938 40.554688 24.277344 40.738281 23.667969 40.355469 L 20.660156 38.460938 L 20.953125 38.039062 C 21.289062 37.558594 21.417969 36.972656 21.3125 36.390625 C 21.210938 35.808594 20.886719 35.304688 20.402344 34.96875 C 19.988281 34.679688 19.503906 34.554688 19.03125 34.578125 C 19.144531 33.777344 18.816406 32.941406 18.109375 32.449219 C 17.773438 32.214844 17.382812 32.082031 16.980469 32.0625 C 17.429688 31.105469 17.140625 29.933594 16.246094 29.3125 C 15.246094 28.617188 13.867188 28.863281 13.175781 29.863281 L 13.144531 29.902344 C 12.984375 29.550781 12.730469 29.242188 12.40625 29.015625 C 11.921875 28.679688 11.335938 28.550781 10.757812 28.65625 C 10.175781 28.757812 9.667969 29.082031 9.335938 29.566406 L 8.667969 30.519531 C 7.734375 29.644531 7.042969 28.769531 6.574219 27.863281 L 12.304688 19.535156 C 13.457031 20.300781 14.9375 20.617188 16.195312 20.742188 C 15.859375 21.003906 15.582031 21.300781 15.34375 21.648438 L 13.375 24.519531 C 13.25 24.699219 13.207031 24.914062 13.253906 25.125 C 13.300781 25.339844 13.425781 25.519531 13.613281 25.632812 C 16.101562 27.140625 18.585938 26.578125 21.003906 23.953125 C 21.027344 23.929688 21.042969 23.921875 21.078125 23.925781 L 23.578125 24.09375 L 33.949219 30.625 C 34.558594 31.007812 34.742188 31.8125 34.359375 32.421875 Z M 34.359375 29.59375 L 24.042969 23.097656 C 23.964844 23.050781 23.878906 23.023438 23.789062 23.015625 L 21.152344 22.835938 C 20.785156 22.8125 20.449219 22.945312 20.203125 23.214844 C 18.253906 25.332031 16.371094 25.871094 14.460938 24.859375 L 16.242188 22.265625 C 16.632812 21.691406 17.167969 21.308594 18.023438 20.992188 C 19.957031 20.269531 21.867188 19.714844 24.214844 19.191406 C 25.082031 18.996094 25.757812 19.054688 26.398438 19.378906 C 27.984375 20.171875 29.84375 20.367188 31.9375 19.960938 L 37.398438 27.894531 C 36.566406 28.796875 35.484375 29.402344 34.359375 29.59375 Z M 39.1875 28.566406 L 31.730469 17.730469 L 35.15625 15.371094 L 42.613281 26.207031 Z M 20.488281 15.238281 C 20.898438 15.472656 21.324219 15.714844 21.730469 15.972656 C 21.820312 16.027344 21.917969 16.054688 22.019531 16.054688 C 22.121094 16.054688 22.222656 16.027344 22.308594 15.972656 C 22.714844 15.714844 23.140625 15.472656 23.550781 15.238281 C 25.496094 14.121094 27.507812 12.964844 28.265625 10.160156 C 28.28125 10.113281 28.285156 10.0625 28.285156 10.015625 L 28.285156 3.324219 C 28.285156 3.085938 28.132812 2.878906 27.910156 2.804688 L 22.1875 0.945312 C 22.078125 0.910156 21.960938 0.910156 21.851562 0.945312 L 16.128906 2.804688 C 15.90625 2.878906 15.75 3.085938 15.75 3.324219 L 15.75 10.015625 C 15.75 10.0625 15.757812 10.113281 15.769531 10.160156 C 16.53125 12.964844 18.542969 14.121094 20.488281 15.238281 Z M 16.84375 3.71875 L 22.019531 2.039062 L 27.195312 3.71875 L 27.195312 9.941406 C 26.539062 12.261719 24.902344 13.203125 23.007812 14.292969 C 22.683594 14.476562 22.351562 14.667969 22.019531 14.871094 C 21.691406 14.667969 21.355469 14.476562 21.035156 14.292969 C 19.140625 13.203125 17.5 12.261719 16.84375 9.941406 Z M 18.226562 8.839844 C 18.015625 8.628906 18.015625 8.285156 18.226562 8.070312 C 18.441406 7.855469 18.785156 7.855469 19 8.070312 L 20.90625 9.976562 L 25.039062 5.84375 C 25.253906 5.628906 25.597656 5.628906 25.8125 5.84375 C 26.023438 6.054688 26.023438 6.398438 25.8125 6.613281 L 21.289062 11.132812 C 21.1875 11.238281 21.050781 11.292969 20.90625 11.292969 C 20.761719 11.292969 20.621094 11.238281 20.519531 11.132812 Z M 18.226562 8.839844 " fill-opacity="1" fill-rule="nonzero"/></g></svg>