<svg xmlns="http://www.w3.org/2000/svg" xmlns:xlink="http://www.w3.org/1999/xlink" width="100" zoomAndPan="magnify" viewBox="0 0 75 74.999997" height="100" preserveAspectRatio="xMidYMid meet" version="1.0"><defs><clipPath id="79b2845988"><path d="M 31 20.765625 L 44 20.765625 L 44 33 L 31 33 Z M 31 20.765625 " clip-rule="nonzero"/></clipPath><clipPath id="e3774aa391"><path d="M 18.726562 26 L 26 26 L 26 34 L 18.726562 34 Z M 18.726562 26 " clip-rule="nonzero"/></clipPath><clipPath id="b04d7ffabd"><path d="M 50 26.257812 L 56.226562 26.257812 L 56.226562 33.28125 L 50 33.28125 Z M 50 26.257812 " clip-rule="nonzero"/></clipPath><clipPath id="12def82b74"><path d="M 25.160156 32.605469 L 45.878906 32.605469 L 45.878906 54.222656 L 25.160156 54.222656 Z M 25.160156 32.605469 " clip-rule="nonzero"/></clipPath></defs><g clip-path="url(#79b2845988)"><path fill="#ffffff" d="M 37.734375 29.308594 C 37.667969 29.269531 37.589844 29.25 37.511719 29.25 C 37.4375 29.25 37.359375 29.269531 37.289062 29.308594 L 34.738281 30.851562 L 35.414062 27.945312 C 35.449219 27.789062 35.394531 27.628906 35.273438 27.523438 L 33.019531 25.570312 L 35.992188 25.3125 C 36.152344 25.300781 36.289062 25.199219 36.351562 25.050781 L 37.511719 22.304688 L 38.675781 25.050781 C 38.734375 25.199219 38.875 25.300781 39.035156 25.3125 L 42.003906 25.570312 L 39.75 27.523438 C 39.628906 27.628906 39.578125 27.789062 39.613281 27.945312 L 40.289062 30.851562 Z M 40.511719 28.003906 L 43.339844 25.554688 C 43.472656 25.441406 43.523438 25.257812 43.46875 25.09375 C 43.414062 24.929688 43.269531 24.8125 43.09375 24.796875 L 39.367188 24.476562 L 37.910156 21.03125 C 37.84375 20.871094 37.6875 20.765625 37.511719 20.765625 C 37.339844 20.765625 37.183594 20.871094 37.117188 21.03125 L 35.660156 24.476562 L 31.929688 24.796875 C 31.757812 24.8125 31.609375 24.929688 31.558594 25.09375 C 31.503906 25.257812 31.554688 25.441406 31.683594 25.554688 L 34.515625 28.003906 L 33.667969 31.648438 C 33.625 31.816406 33.691406 31.992188 33.832031 32.09375 C 33.90625 32.148438 33.996094 32.175781 34.085938 32.175781 C 34.164062 32.175781 34.238281 32.15625 34.308594 32.117188 L 37.511719 30.183594 L 40.71875 32.117188 C 40.785156 32.15625 40.863281 32.175781 40.941406 32.175781 C 41.179688 32.175781 41.371094 31.984375 41.371094 31.746094 C 41.371094 31.703125 41.367188 31.660156 41.355469 31.617188 L 40.511719 28.003906 " fill-opacity="1" fill-rule="nonzero"/></g><path fill="#ffffff" d="M 31.886719 27.910156 L 30.953125 28.71875 C 30.839844 28.816406 30.789062 28.972656 30.824219 29.117188 L 31.34375 31.359375 L 29.371094 30.171875 C 29.242188 30.09375 29.082031 30.09375 28.953125 30.171875 L 26.980469 31.359375 L 27.503906 29.117188 C 27.535156 28.972656 27.488281 28.816406 27.371094 28.71875 L 25.632812 27.210938 L 27.925781 27.011719 C 28.078125 27 28.207031 26.90625 28.265625 26.765625 L 29.164062 24.644531 L 30.058594 26.765625 C 30.148438 26.972656 30.382812 27.070312 30.589844 26.984375 C 30.796875 26.894531 30.894531 26.65625 30.808594 26.449219 L 29.535156 23.445312 C 29.472656 23.292969 29.324219 23.195312 29.164062 23.195312 C 29 23.195312 28.851562 23.292969 28.789062 23.445312 L 27.613281 26.226562 L 24.605469 26.484375 C 24.441406 26.496094 24.304688 26.609375 24.253906 26.761719 C 24.203125 26.917969 24.25 27.089844 24.375 27.195312 L 26.65625 29.171875 L 25.972656 32.113281 C 25.933594 32.269531 25.996094 32.4375 26.128906 32.53125 C 26.199219 32.585938 26.285156 32.609375 26.367188 32.609375 C 26.441406 32.609375 26.511719 32.589844 26.578125 32.550781 L 29.164062 30.992188 L 31.75 32.550781 C 31.886719 32.636719 32.0625 32.628906 32.195312 32.53125 C 32.328125 32.4375 32.390625 32.269531 32.351562 32.113281 L 31.667969 29.171875 L 32.417969 28.523438 C 32.585938 28.378906 32.605469 28.121094 32.457031 27.953125 C 32.3125 27.78125 32.054688 27.765625 31.886719 27.910156 " fill-opacity="1" fill-rule="nonzero"/><path fill="#ffffff" d="M 48.371094 29.171875 L 50.652344 27.195312 C 50.773438 27.089844 50.824219 26.917969 50.773438 26.761719 C 50.722656 26.609375 50.582031 26.496094 50.421875 26.484375 L 47.414062 26.226562 L 46.238281 23.445312 C 46.175781 23.292969 46.027344 23.195312 45.863281 23.195312 C 45.699219 23.195312 45.554688 23.292969 45.488281 23.445312 L 44.21875 26.449219 C 44.132812 26.65625 44.230469 26.894531 44.433594 26.984375 C 44.640625 27.070312 44.878906 26.972656 44.96875 26.765625 L 45.863281 24.644531 L 46.761719 26.765625 C 46.820312 26.90625 46.949219 27 47.101562 27.011719 L 49.394531 27.210938 L 47.652344 28.71875 C 47.539062 28.816406 47.492188 28.972656 47.523438 29.117188 L 48.046875 31.359375 L 46.074219 30.171875 C 45.945312 30.09375 45.785156 30.09375 45.652344 30.171875 L 43.679688 31.359375 L 44.203125 29.117188 C 44.238281 28.972656 44.1875 28.816406 44.074219 28.71875 L 43.140625 27.910156 C 42.972656 27.765625 42.714844 27.78125 42.570312 27.953125 C 42.421875 28.121094 42.441406 28.378906 42.609375 28.523438 L 43.355469 29.171875 L 42.671875 32.113281 C 42.636719 32.269531 42.699219 32.4375 42.832031 32.53125 C 42.960938 32.628906 43.140625 32.636719 43.277344 32.550781 L 45.863281 30.992188 L 48.449219 32.550781 C 48.515625 32.589844 48.585938 32.609375 48.660156 32.609375 C 48.742188 32.609375 48.828125 32.585938 48.898438 32.53125 C 49.03125 32.4375 49.089844 32.269531 49.054688 32.113281 L 48.371094 29.171875 " fill-opacity="1" fill-rule="nonzero"/><g clip-path="url(#e3774aa391)"><path fill="#ffffff" d="M 24.390625 29.660156 L 23.667969 30.289062 C 23.558594 30.382812 23.511719 30.527344 23.546875 30.664062 L 23.878906 32.09375 L 22.621094 31.335938 C 22.5 31.261719 22.347656 31.261719 22.226562 31.335938 L 20.96875 32.09375 L 21.300781 30.664062 C 21.332031 30.527344 21.285156 30.382812 21.179688 30.289062 L 20.070312 29.328125 L 21.535156 29.203125 C 21.675781 29.191406 21.796875 29.101562 21.851562 28.972656 L 22.421875 27.617188 L 22.996094 28.972656 C 23.078125 29.164062 23.300781 29.253906 23.492188 29.171875 C 23.6875 29.09375 23.777344 28.867188 23.695312 28.675781 L 22.773438 26.492188 C 22.714844 26.351562 22.578125 26.261719 22.421875 26.261719 C 22.269531 26.261719 22.132812 26.351562 22.074219 26.492188 L 21.238281 28.464844 L 19.109375 28.648438 C 18.957031 28.660156 18.824219 28.761719 18.777344 28.910156 C 18.730469 29.054688 18.777344 29.214844 18.890625 29.3125 L 20.507812 30.714844 L 20.023438 32.800781 C 19.988281 32.949219 20.046875 33.101562 20.171875 33.191406 C 20.292969 33.28125 20.460938 33.289062 20.589844 33.210938 L 22.421875 32.105469 L 24.253906 33.210938 C 24.316406 33.246094 24.382812 33.265625 24.453125 33.265625 C 24.53125 33.265625 24.609375 33.242188 24.675781 33.191406 C 24.800781 33.101562 24.855469 32.949219 24.824219 32.800781 L 24.339844 30.714844 L 24.890625 30.238281 C 25.046875 30.097656 25.066406 29.859375 24.925781 29.699219 C 24.789062 29.542969 24.550781 29.523438 24.390625 29.660156 " fill-opacity="1" fill-rule="nonzero"/></g><g clip-path="url(#b04d7ffabd)"><path fill="#ffffff" d="M 56.246094 28.910156 C 56.199219 28.761719 56.070312 28.660156 55.917969 28.648438 L 53.785156 28.464844 L 52.953125 26.492188 C 52.894531 26.351562 52.757812 26.261719 52.601562 26.261719 C 52.449219 26.261719 52.3125 26.351562 52.253906 26.492188 L 51.332031 28.675781 C 51.25 28.867188 51.339844 29.09375 51.53125 29.171875 C 51.726562 29.253906 51.949219 29.164062 52.03125 28.972656 L 52.601562 27.617188 L 53.175781 28.972656 C 53.230469 29.101562 53.351562 29.191406 53.492188 29.203125 L 54.957031 29.328125 L 53.847656 30.289062 C 53.738281 30.382812 53.691406 30.527344 53.726562 30.664062 L 54.058594 32.09375 L 52.800781 31.335938 C 52.679688 31.261719 52.527344 31.261719 52.40625 31.335938 L 51.148438 32.09375 L 51.480469 30.664062 C 51.511719 30.527344 51.464844 30.382812 51.359375 30.289062 L 50.636719 29.660156 C 50.476562 29.523438 50.238281 29.542969 50.097656 29.699219 C 49.960938 29.859375 49.980469 30.097656 50.136719 30.238281 L 50.6875 30.714844 L 50.203125 32.800781 C 50.167969 32.949219 50.226562 33.101562 50.351562 33.191406 C 50.472656 33.28125 50.640625 33.289062 50.769531 33.210938 L 52.601562 32.105469 L 54.433594 33.210938 C 54.496094 33.246094 54.5625 33.265625 54.632812 33.265625 C 54.710938 33.265625 54.789062 33.242188 54.855469 33.191406 C 54.980469 33.101562 55.035156 32.949219 55.003906 32.800781 L 54.519531 30.714844 L 56.136719 29.3125 C 56.25 29.214844 56.292969 29.054688 56.246094 28.910156 " fill-opacity="1" fill-rule="nonzero"/></g><g clip-path="url(#12def82b74)"><path fill="#ffffff" d="M 45.386719 41.332031 C 45.003906 40.84375 44.441406 40.578125 43.800781 40.578125 L 40.367188 40.578125 C 40.835938 39.695312 41.121094 39.03125 41.21875 38.59375 C 41.21875 38.585938 41.222656 38.578125 41.222656 38.570312 C 41.394531 37.683594 41.324219 36.730469 41.027344 35.804688 C 40.730469 34.878906 40.226562 34.078125 39.578125 33.488281 C 39.164062 33.113281 38.714844 32.851562 38.242188 32.714844 C 37.757812 32.574219 37.269531 32.574219 36.796875 32.714844 C 36.027344 32.941406 35.550781 33.378906 35.378906 34.011719 C 35.25 34.5 35.339844 34.976562 35.429688 35.441406 C 35.558594 36.125 35.679688 36.773438 35.175781 37.535156 C 35.171875 37.546875 35.164062 37.558594 35.160156 37.566406 C 35.152344 37.578125 34.585938 38.601562 33.816406 39.625 C 32.894531 40.855469 32.046875 41.582031 31.496094 41.621094 L 26.769531 41.664062 C 25.890625 41.664062 25.175781 42.382812 25.175781 43.261719 L 25.175781 52.625 C 25.175781 53.507812 25.890625 54.222656 26.773438 54.222656 C 26.773438 54.222656 26.773438 54.222656 26.777344 54.222656 L 28.910156 54.214844 C 29.167969 54.214844 29.375 54.007812 29.375 53.75 C 29.375 53.492188 29.164062 53.285156 28.90625 53.285156 L 26.773438 53.292969 C 26.40625 53.292969 26.109375 52.992188 26.109375 52.625 L 26.109375 43.261719 C 26.109375 42.894531 26.40625 42.59375 26.773438 42.59375 C 26.777344 42.59375 26.777344 42.59375 26.777344 42.59375 L 31.515625 42.554688 C 31.523438 42.554688 31.53125 42.554688 31.539062 42.554688 C 32.050781 42.527344 32.589844 42.253906 33.1875 41.726562 C 33.617188 41.34375 34.082031 40.824219 34.5625 40.183594 C 35.324219 39.167969 35.886719 38.175781 35.964844 38.035156 C 36.277344 37.558594 36.441406 37.0625 36.472656 36.519531 C 36.496094 36.058594 36.414062 35.636719 36.34375 35.265625 C 36.269531 34.875 36.207031 34.535156 36.28125 34.253906 C 36.335938 34.042969 36.476562 33.78125 37.0625 33.609375 C 37.675781 33.429688 38.347656 33.632812 38.953125 34.179688 C 40.039062 35.167969 40.59375 36.898438 40.304688 38.394531 C 40.207031 38.832031 39.804688 39.695312 39.175781 40.816406 C 39.09375 40.960938 39.09375 41.136719 39.179688 41.28125 C 39.261719 41.421875 39.414062 41.511719 39.582031 41.511719 L 43.800781 41.511719 C 44.15625 41.511719 44.449219 41.648438 44.65625 41.910156 C 44.925781 42.25 45.011719 42.753906 44.890625 43.261719 C 44.828125 43.523438 44.710938 43.75 44.542969 43.933594 C 44.539062 43.933594 44.53125 43.933594 44.527344 43.933594 L 43.070312 43.933594 C 42.8125 43.933594 42.605469 44.144531 42.605469 44.402344 C 42.605469 44.660156 42.8125 44.867188 43.070312 44.867188 L 44.179688 44.867188 C 44.496094 45.3125 44.402344 45.914062 44.34375 46.15625 C 44.269531 46.480469 44.121094 46.742188 43.902344 46.9375 C 43.886719 46.9375 43.871094 46.9375 43.855469 46.9375 L 42.398438 46.9375 C 42.140625 46.9375 41.933594 47.144531 41.933594 47.402344 C 41.933594 47.660156 42.140625 47.871094 42.398438 47.871094 L 43.722656 47.871094 C 43.914062 48.207031 43.941406 48.667969 43.796875 49.125 C 43.675781 49.511719 43.453125 49.820312 43.152344 50.023438 L 41.730469 50.023438 C 41.472656 50.023438 41.261719 50.234375 41.261719 50.492188 C 41.261719 50.746094 41.472656 50.957031 41.730469 50.957031 L 43.027344 50.957031 C 43.140625 51.246094 43.140625 51.601562 43.023438 51.953125 C 42.703125 52.898438 41.910156 53.285156 40.285156 53.285156 L 35.242188 53.285156 C 35.238281 53.285156 35.230469 53.285156 35.226562 53.285156 C 33.804688 53.335938 32.769531 53.074219 32.234375 52.527344 C 31.820312 52.105469 31.828125 51.640625 31.832031 51.59375 C 31.832031 51.578125 31.832031 51.574219 31.832031 51.554688 L 31.851562 45.375 C 31.851562 45.117188 31.644531 44.90625 31.386719 44.90625 C 31.128906 44.90625 30.921875 45.113281 30.921875 45.371094 L 30.902344 51.539062 C 30.898438 51.613281 30.894531 51.8125 30.953125 52.074219 C 31.046875 52.472656 31.25 52.847656 31.542969 53.152344 C 32.21875 53.863281 33.335938 54.222656 34.867188 54.222656 C 34.992188 54.222656 35.121094 54.222656 35.253906 54.214844 L 40.285156 54.214844 C 40.886719 54.214844 41.664062 54.179688 42.351562 53.902344 C 43.117188 53.59375 43.640625 53.039062 43.90625 52.25 C 44.097656 51.691406 44.089844 51.121094 43.898438 50.625 C 44.261719 50.316406 44.527344 49.902344 44.6875 49.410156 C 44.890625 48.761719 44.859375 48.09375 44.609375 47.554688 C 44.921875 47.238281 45.140625 46.839844 45.253906 46.371094 C 45.324219 46.058594 45.4375 45.339844 45.136719 44.667969 C 45.460938 44.351562 45.6875 43.949219 45.796875 43.480469 C 45.984375 42.695312 45.832031 41.894531 45.386719 41.332031 " fill-opacity="1" fill-rule="nonzero"/></g><path fill="#ffffff" d="M 28.742188 50.957031 C 28.742188 51.03125 28.679688 51.089844 28.609375 51.089844 C 28.351562 51.089844 28.140625 51.296875 28.140625 51.554688 C 28.140625 51.8125 28.351562 52.019531 28.609375 52.019531 C 29.195312 52.019531 29.671875 51.542969 29.671875 50.957031 C 29.671875 50.699219 29.464844 50.492188 29.207031 50.492188 C 28.949219 50.492188 28.742188 50.699219 28.742188 50.957031 " fill-opacity="1" fill-rule="nonzero"/></svg>