<svg xmlns="http://www.w3.org/2000/svg" xmlns:xlink="http://www.w3.org/1999/xlink" width="100" zoomAndPan="magnify" viewBox="0 0 75 74.999997" height="100" preserveAspectRatio="xMidYMid meet" version="1.0"><defs><clipPath id="e4e46422dd"><path d="M 19 23 L 53 23 L 53 52.898438 L 19 52.898438 Z M 19 23 " clip-rule="nonzero"/></clipPath></defs><g clip-path="url(#e4e46422dd)"><path fill="#fefefe" d="M 50.273438 39.433594 L 48.59375 41.109375 C 48.363281 41.339844 47.988281 41.339844 47.757812 41.109375 C 47.527344 40.875 47.527344 40.5 47.757812 40.269531 C 47.757812 40.269531 49.433594 38.59375 49.433594 38.59375 C 54.496094 33.554688 50.871094 24.820312 43.738281 24.828125 C 41.585938 24.828125 39.558594 25.667969 38.039062 27.191406 C 38.03125 27.195312 36.8125 28.417969 36.808594 28.421875 L 31 34.230469 C 30.699219 34.527344 30.535156 34.925781 30.539062 35.34375 C 30.488281 36.699219 32.300781 37.410156 33.214844 36.453125 L 37.808594 31.863281 C 38.039062 31.632812 38.417969 31.632812 38.648438 31.863281 C 40.046875 33.308594 42.53125 33.3125 43.929688 31.863281 C 44.164062 31.632812 44.539062 31.632812 44.769531 31.867188 C 45 32.097656 45 32.472656 44.765625 32.703125 C 43.832031 33.632812 42.59375 34.144531 41.285156 34.144531 C 40.191406 34.144531 39.113281 33.765625 38.253906 33.09375 C 38.253906 33.09375 34.054688 37.289062 34.054688 37.289062 C 31.410156 39.789062 27.660156 36.042969 30.160156 33.390625 L 35.554688 28 C 35.554688 28 34.746094 27.191406 34.746094 27.191406 C 29.707031 22.132812 20.980469 25.753906 20.988281 32.894531 C 20.988281 35.046875 21.828125 37.070312 23.351562 38.59375 C 23.894531 39.144531 23.074219 39.976562 22.515625 39.433594 C 18.921875 35.988281 18.925781 29.800781 22.515625 26.355469 C 26.515625 22.363281 32.808594 22.910156 36.390625 27.160156 C 38.28125 25.027344 40.84375 23.605469 43.738281 23.644531 C 51.925781 23.632812 56.074219 33.652344 50.273438 39.433594 Z M 40.484375 36.144531 C 39.933594 35.601562 39.101562 36.429688 39.644531 36.984375 C 39.644531 36.984375 44.957031 42.296875 44.957031 42.296875 C 45.996094 43.375 44.429688 44.945312 43.347656 43.90625 C 43.347656 43.90625 38.453125 39.011719 38.453125 39.011719 L 38.035156 38.59375 C 37.484375 38.050781 36.652344 38.878906 37.199219 39.429688 C 37.199219 39.429688 37.617188 39.847656 37.617188 39.847656 L 42.511719 44.742188 C 42.957031 45.1875 42.957031 45.910156 42.511719 46.355469 C 42.066406 46.796875 41.34375 46.796875 40.902344 46.355469 L 36.007812 41.457031 L 35.589844 41.039062 C 35.355469 40.808594 34.980469 40.808594 34.75 41.039062 C 34.519531 41.269531 34.519531 41.644531 34.75 41.878906 L 40.0625 47.191406 C 41.101562 48.265625 39.53125 49.839844 38.453125 48.800781 C 38.453125 48.800781 33.140625 43.488281 33.140625 43.488281 C 32.910156 43.257812 32.535156 43.257812 32.304688 43.488281 C 32.070312 43.71875 32.070312 44.09375 32.304688 44.324219 C 32.308594 44.332031 32.71875 44.734375 32.71875 44.746094 C 32.71875 44.746094 37.613281 49.640625 37.613281 49.640625 C 38.054688 50.0625 38.054688 50.824219 37.613281 51.25 C 37.1875 51.675781 36.4375 51.679688 36.003906 51.25 L 25.449219 40.691406 C 24.90625 40.148438 24.058594 40.976562 24.609375 41.527344 C 24.609375 41.527344 35.167969 52.085938 35.167969 52.085938 C 35.601562 52.519531 36.199219 52.769531 36.808594 52.769531 C 38.054688 52.792969 39.160156 51.695312 39.132812 50.445312 C 39.109375 50.28125 39.113281 50.304688 39.257812 50.316406 C 40.53125 50.371094 41.703125 49.121094 41.566406 47.859375 C 42.882812 48.019531 44.15625 46.71875 44.015625 45.410156 C 46.078125 45.617188 47.316406 42.902344 45.796875 41.457031 C 45.796875 41.457031 40.484375 36.144531 40.484375 36.144531 Z M 40.484375 36.144531 " fill-opacity="1" fill-rule="nonzero"/></g></svg>