<svg xmlns="http://www.w3.org/2000/svg" xmlns:xlink="http://www.w3.org/1999/xlink" width="100" zoomAndPan="magnify" viewBox="0 0 75 74.999997" height="100" preserveAspectRatio="xMidYMid meet" version="1.0"><defs><clipPath id="1007269cf0"><path d="M 19 24.0625 L 55.691406 24.0625 L 55.691406 51 L 19 51 Z M 19 24.0625 " clip-rule="nonzero"/></clipPath></defs><g clip-path="url(#1007269cf0)"><path fill="#fefefe" d="M 55.957031 39.835938 C 55.882812 39.273438 55.734375 38.726562 55.515625 38.203125 C 55.296875 37.679688 55.011719 37.191406 54.664062 36.742188 C 54.316406 36.292969 53.914062 35.898438 53.460938 35.558594 C 53.003906 35.214844 52.511719 34.941406 51.984375 34.730469 C 52.195312 34.566406 52.382812 34.382812 52.554688 34.183594 C 52.722656 33.980469 52.871094 33.761719 52.996094 33.53125 C 53.125 33.296875 53.222656 33.054688 53.296875 32.800781 C 53.375 32.546875 53.421875 32.289062 53.445312 32.023438 C 53.464844 31.761719 53.460938 31.496094 53.425781 31.234375 C 53.394531 30.972656 53.332031 30.714844 53.246094 30.464844 C 53.160156 30.214844 53.050781 29.976562 52.914062 29.75 C 52.777344 29.523438 52.621094 29.3125 52.441406 29.117188 C 52.261719 28.921875 52.066406 28.75 51.851562 28.59375 C 51.636719 28.441406 51.40625 28.3125 51.164062 28.203125 C 50.921875 28.097656 50.671875 28.019531 50.410156 27.964844 C 50.152344 27.910156 49.890625 27.882812 49.625 27.882812 C 49.363281 27.882812 49.101562 27.910156 48.839844 27.964844 C 48.582031 28.019531 48.332031 28.097656 48.089844 28.203125 C 47.847656 28.3125 47.617188 28.441406 47.402344 28.59375 C 47.1875 28.75 46.988281 28.921875 46.8125 29.117188 C 46.632812 29.3125 46.472656 29.523438 46.339844 29.75 C 46.203125 29.976562 46.09375 30.214844 46.003906 30.464844 C 45.917969 30.714844 45.859375 30.972656 45.828125 31.234375 C 45.792969 31.496094 45.789062 31.761719 45.808594 32.023438 C 45.832031 32.289062 45.878906 32.546875 45.953125 32.800781 C 46.03125 33.054688 46.128906 33.296875 46.253906 33.53125 C 46.382812 33.761719 46.527344 33.980469 46.699219 34.183594 C 46.871094 34.382812 47.058594 34.566406 47.269531 34.730469 C 46.089844 35.195312 45.132812 35.945312 44.40625 36.984375 C 43.265625 35.925781 41.949219 35.167969 40.464844 34.714844 C 40.820312 34.5 41.148438 34.246094 41.453125 33.960938 C 41.753906 33.675781 42.019531 33.359375 42.253906 33.015625 C 42.488281 32.667969 42.683594 32.304688 42.835938 31.917969 C 42.988281 31.53125 43.101562 31.128906 43.167969 30.71875 C 43.234375 30.308594 43.257812 29.894531 43.234375 29.480469 C 43.210938 29.0625 43.144531 28.65625 43.03125 28.253906 C 42.921875 27.851562 42.769531 27.46875 42.574219 27.101562 C 42.378906 26.734375 42.144531 26.390625 41.875 26.074219 C 41.605469 25.757812 41.304688 25.472656 40.972656 25.21875 C 40.640625 24.96875 40.289062 24.753906 39.910156 24.578125 C 39.53125 24.40625 39.140625 24.273438 38.734375 24.183594 C 38.324219 24.09375 37.914062 24.050781 37.5 24.050781 C 37.082031 24.050781 36.671875 24.09375 36.261719 24.183594 C 35.855469 24.273438 35.464844 24.40625 35.085938 24.578125 C 34.707031 24.753906 34.355469 24.96875 34.023438 25.21875 C 33.691406 25.472656 33.390625 25.757812 33.121094 26.074219 C 32.851562 26.390625 32.617188 26.734375 32.421875 27.101562 C 32.230469 27.46875 32.074219 27.851562 31.964844 28.253906 C 31.851562 28.65625 31.785156 29.0625 31.761719 29.480469 C 31.738281 29.894531 31.761719 30.308594 31.828125 30.71875 C 31.894531 31.128906 32.007812 31.53125 32.160156 31.917969 C 32.3125 32.304688 32.507812 32.667969 32.742188 33.015625 C 32.976562 33.359375 33.242188 33.675781 33.542969 33.960938 C 33.847656 34.246094 34.175781 34.5 34.53125 34.714844 C 33.046875 35.167969 31.730469 35.925781 30.589844 36.984375 C 29.863281 35.945312 28.90625 35.195312 27.726562 34.730469 C 27.9375 34.566406 28.125 34.382812 28.296875 34.183594 C 28.46875 33.980469 28.617188 33.761719 28.742188 33.53125 C 28.867188 33.296875 28.964844 33.054688 29.042969 32.800781 C 29.117188 32.546875 29.164062 32.289062 29.1875 32.023438 C 29.207031 31.761719 29.203125 31.496094 29.167969 31.234375 C 29.136719 30.972656 29.078125 30.714844 28.992188 30.464844 C 28.90625 30.214844 28.792969 29.976562 28.65625 29.75 C 28.523438 29.523438 28.363281 29.3125 28.1875 29.117188 C 28.007812 28.921875 27.808594 28.75 27.59375 28.59375 C 27.378906 28.441406 27.148438 28.3125 26.90625 28.203125 C 26.664062 28.097656 26.414062 28.019531 26.15625 27.964844 C 25.894531 27.910156 25.632812 27.882812 25.371094 27.882812 C 25.105469 27.882812 24.84375 27.910156 24.585938 27.964844 C 24.324219 28.019531 24.074219 28.097656 23.832031 28.203125 C 23.589844 28.3125 23.363281 28.441406 23.144531 28.59375 C 22.929688 28.75 22.734375 28.921875 22.554688 29.117188 C 22.375 29.3125 22.21875 29.523438 22.082031 29.75 C 21.945312 29.976562 21.835938 30.214844 21.75 30.464844 C 21.664062 30.714844 21.601562 30.972656 21.570312 31.234375 C 21.539062 31.496094 21.53125 31.761719 21.554688 32.023438 C 21.574219 32.289062 21.621094 32.546875 21.699219 32.800781 C 21.773438 33.054688 21.875 33.296875 22 33.53125 C 22.125 33.761719 22.273438 33.980469 22.441406 34.183594 C 22.613281 34.382812 22.804688 34.566406 23.011719 34.730469 C 22.484375 34.941406 21.992188 35.214844 21.539062 35.558594 C 21.082031 35.898438 20.679688 36.292969 20.332031 36.742188 C 19.984375 37.191406 19.699219 37.679688 19.480469 38.203125 C 19.261719 38.726562 19.113281 39.273438 19.039062 39.835938 C 19.015625 40.019531 19.035156 40.203125 19.089844 40.378906 C 19.144531 40.558594 19.234375 40.714844 19.355469 40.855469 C 19.480469 40.996094 19.625 41.101562 19.796875 41.179688 C 19.964844 41.253906 20.144531 41.292969 20.328125 41.292969 L 27.804688 41.292969 C 27.460938 42.328125 27.285156 43.394531 27.285156 44.484375 L 27.285156 45.125 C 27.285156 45.292969 27.316406 45.457031 27.382812 45.613281 C 27.449219 45.769531 27.539062 45.90625 27.660156 46.027344 C 27.78125 46.144531 27.917969 46.238281 28.074219 46.304688 C 28.230469 46.367188 28.394531 46.398438 28.5625 46.398438 L 33.753906 46.398438 L 33.113281 50.121094 C 33.070312 50.382812 33.15625 50.589844 33.367188 50.746094 C 33.582031 50.902344 33.804688 50.917969 34.039062 50.792969 L 37.5 48.980469 L 40.953125 50.792969 C 41.1875 50.917969 41.410156 50.902344 41.625 50.746094 C 41.839844 50.589844 41.925781 50.382812 41.878906 50.121094 L 41.242188 46.398438 L 46.433594 46.398438 C 46.601562 46.398438 46.765625 46.367188 46.921875 46.304688 C 47.078125 46.238281 47.21875 46.144531 47.335938 46.027344 C 47.457031 45.90625 47.546875 45.769531 47.613281 45.613281 C 47.679688 45.457031 47.710938 45.292969 47.710938 45.125 L 47.710938 44.484375 C 47.710938 43.394531 47.535156 42.328125 47.191406 41.292969 L 54.667969 41.292969 C 54.855469 41.292969 55.03125 41.257812 55.203125 41.179688 C 55.371094 41.101562 55.519531 40.996094 55.640625 40.855469 C 55.765625 40.714844 55.855469 40.558594 55.910156 40.378906 C 55.964844 40.203125 55.980469 40.019531 55.957031 39.835938 Z M 47.070312 31.71875 C 47.070312 31.382812 47.136719 31.054688 47.265625 30.742188 C 47.394531 30.429688 47.582031 30.152344 47.820312 29.914062 C 48.058594 29.675781 48.335938 29.492188 48.648438 29.359375 C 48.960938 29.230469 49.285156 29.167969 49.625 29.167969 C 49.964844 29.167969 50.289062 29.230469 50.601562 29.359375 C 50.914062 29.492188 51.191406 29.675781 51.429688 29.914062 C 51.671875 30.152344 51.855469 30.429688 51.984375 30.742188 C 52.113281 31.054688 52.179688 31.382812 52.179688 31.71875 C 52.179688 32.058594 52.113281 32.382812 51.984375 32.695312 C 51.855469 33.007812 51.671875 33.285156 51.429688 33.523438 C 51.191406 33.765625 50.914062 33.949219 50.601562 34.078125 C 50.289062 34.207031 49.964844 34.273438 49.625 34.273438 C 49.285156 34.273438 48.960938 34.207031 48.648438 34.078125 C 48.335938 33.949219 48.058594 33.765625 47.820312 33.523438 C 47.582031 33.285156 47.394531 33.007812 47.265625 32.695312 C 47.136719 32.382812 47.070312 32.058594 47.070312 31.71875 Z M 33.03125 29.804688 C 33.03125 29.511719 33.058594 29.222656 33.117188 28.933594 C 33.171875 28.644531 33.257812 28.367188 33.371094 28.09375 C 33.484375 27.824219 33.621094 27.566406 33.785156 27.324219 C 33.945312 27.078125 34.132812 26.851562 34.339844 26.644531 C 34.546875 26.4375 34.773438 26.253906 35.015625 26.089844 C 35.261719 25.925781 35.515625 25.789062 35.789062 25.675781 C 36.058594 25.566406 36.339844 25.480469 36.625 25.421875 C 36.914062 25.367188 37.203125 25.335938 37.5 25.335938 C 37.792969 25.335938 38.082031 25.367188 38.371094 25.421875 C 38.65625 25.480469 38.9375 25.566406 39.207031 25.675781 C 39.480469 25.789062 39.738281 25.925781 39.980469 26.089844 C 40.222656 26.253906 40.449219 26.4375 40.65625 26.644531 C 40.863281 26.851562 41.050781 27.078125 41.214844 27.324219 C 41.375 27.566406 41.515625 27.824219 41.625 28.09375 C 41.738281 28.367188 41.824219 28.644531 41.878906 28.933594 C 41.9375 29.222656 41.964844 29.511719 41.964844 29.804688 C 41.964844 30.097656 41.9375 30.390625 41.878906 30.675781 C 41.824219 30.964844 41.738281 31.242188 41.625 31.515625 C 41.515625 31.785156 41.375 32.042969 41.214844 32.289062 C 41.050781 32.53125 40.863281 32.757812 40.65625 32.964844 C 40.449219 33.171875 40.222656 33.355469 39.980469 33.519531 C 39.738281 33.683594 39.480469 33.820312 39.207031 33.933594 C 38.9375 34.046875 38.65625 34.128906 38.371094 34.1875 C 38.082031 34.246094 37.792969 34.273438 37.5 34.273438 C 37.203125 34.273438 36.914062 34.242188 36.625 34.1875 C 36.339844 34.128906 36.058594 34.042969 35.789062 33.929688 C 35.519531 33.820312 35.261719 33.679688 35.015625 33.519531 C 34.773438 33.355469 34.546875 33.171875 34.339844 32.960938 C 34.132812 32.753906 33.949219 32.53125 33.785156 32.285156 C 33.621094 32.042969 33.484375 31.785156 33.371094 31.515625 C 33.257812 31.242188 33.175781 30.964844 33.117188 30.675781 C 33.058594 30.390625 33.03125 30.097656 33.03125 29.804688 Z M 22.816406 31.71875 C 22.816406 31.382812 22.882812 31.054688 23.011719 30.742188 C 23.140625 30.429688 23.328125 30.152344 23.566406 29.914062 C 23.804688 29.675781 24.082031 29.492188 24.394531 29.359375 C 24.707031 29.230469 25.03125 29.167969 25.371094 29.167969 C 25.710938 29.167969 26.035156 29.230469 26.347656 29.359375 C 26.660156 29.492188 26.9375 29.675781 27.175781 29.914062 C 27.414062 30.152344 27.601562 30.429688 27.730469 30.742188 C 27.859375 31.054688 27.925781 31.382812 27.925781 31.71875 C 27.925781 32.058594 27.859375 32.382812 27.730469 32.695312 C 27.601562 33.007812 27.414062 33.285156 27.175781 33.523438 C 26.9375 33.765625 26.660156 33.949219 26.347656 34.078125 C 26.035156 34.207031 25.710938 34.273438 25.371094 34.273438 C 25.03125 34.273438 24.707031 34.207031 24.394531 34.078125 C 24.082031 33.949219 23.804688 33.765625 23.566406 33.523438 C 23.328125 33.285156 23.140625 33.007812 23.011719 32.695312 C 22.882812 32.382812 22.816406 32.058594 22.816406 31.71875 Z M 28.3125 40.015625 L 20.304688 40 C 20.375 39.476562 20.519531 38.980469 20.738281 38.503906 C 20.960938 38.027344 21.246094 37.597656 21.601562 37.207031 C 21.957031 36.820312 22.359375 36.496094 22.816406 36.234375 C 23.269531 35.96875 23.753906 35.78125 24.265625 35.667969 C 24.777344 35.554688 25.296875 35.523438 25.820312 35.566406 C 26.339844 35.613281 26.84375 35.738281 27.328125 35.9375 C 27.816406 36.140625 28.257812 36.410156 28.660156 36.75 C 29.0625 37.085938 29.402344 37.476562 29.683594 37.921875 C 29.152344 38.570312 28.695312 39.269531 28.3125 40.015625 Z M 37.796875 47.691406 C 37.597656 47.589844 37.398438 47.589844 37.203125 47.691406 L 34.59375 49.0625 L 35.089844 46.15625 C 35.128906 45.9375 35.066406 45.746094 34.90625 45.59375 L 34.785156 45.472656 L 34.617188 45.308594 L 34.613281 45.304688 L 32.800781 43.539062 L 35.714844 43.113281 C 35.933594 43.078125 36.09375 42.964844 36.195312 42.765625 L 37.5 40.125 L 38.804688 42.761719 C 38.902344 42.960938 39.0625 43.078125 39.28125 43.109375 L 42.195312 43.535156 L 40.382812 45.304688 L 40.378906 45.308594 C 40.230469 45.453125 40.125 45.554688 40.09375 45.585938 L 40.09375 45.589844 L 40.089844 45.59375 C 39.917969 45.769531 39.859375 45.972656 39.914062 46.210938 C 39.917969 46.230469 39.925781 46.253906 39.933594 46.273438 L 40.410156 49.058594 Z M 46.433594 45.125 L 42.40625 45.125 C 42.816406 44.722656 43.324219 44.226562 43.960938 43.601562 L 44.011719 43.550781 C 44.015625 43.546875 44.019531 43.542969 44.023438 43.539062 C 44.0625 43.5 44.09375 43.457031 44.121094 43.410156 C 44.132812 43.390625 44.140625 43.371094 44.148438 43.347656 C 44.164062 43.316406 44.175781 43.285156 44.1875 43.25 C 44.199219 43.195312 44.207031 43.136719 44.203125 43.082031 L 44.203125 43.074219 C 44.203125 43.015625 44.191406 42.957031 44.171875 42.898438 C 44.15625 42.84375 44.128906 42.796875 44.097656 42.746094 L 44.09375 42.738281 C 44.054688 42.695312 44.015625 42.652344 43.976562 42.613281 C 43.960938 42.597656 43.941406 42.589844 43.925781 42.578125 C 43.652344 42.386719 43.886719 42.558594 39.796875 41.902344 L 38.074219 38.402344 C 38.011719 38.300781 37.933594 38.21875 37.828125 38.160156 C 37.726562 38.101562 37.617188 38.074219 37.5 38.074219 C 37.382812 38.074219 37.273438 38.101562 37.171875 38.160156 C 37.070312 38.21875 36.988281 38.300781 36.929688 38.402344 L 35.199219 41.898438 C 32.902344 42.382812 30.40625 42.113281 30.808594 43.238281 C 30.835938 43.359375 30.894531 43.464844 30.984375 43.550781 L 31.269531 43.828125 L 31.277344 43.839844 L 32.597656 45.125 L 28.5625 45.125 L 28.5625 44.484375 C 28.5625 43.898438 28.621094 43.316406 28.734375 42.742188 C 28.847656 42.167969 29.019531 41.609375 29.242188 41.066406 C 29.46875 40.523438 29.742188 40.007812 30.070312 39.519531 C 30.394531 39.03125 30.765625 38.582031 31.179688 38.167969 C 31.59375 37.75 32.046875 37.382812 32.535156 37.054688 C 33.023438 36.730469 33.535156 36.453125 34.078125 36.230469 C 34.621094 36.003906 35.179688 35.835938 35.753906 35.722656 C 36.332031 35.605469 36.910156 35.550781 37.5 35.550781 C 38.085938 35.550781 38.664062 35.605469 39.242188 35.722656 C 39.816406 35.835938 40.375 36.003906 40.917969 36.230469 C 41.460938 36.453125 41.976562 36.730469 42.460938 37.054688 C 42.949219 37.382812 43.402344 37.75 43.816406 38.167969 C 44.230469 38.582031 44.601562 39.03125 44.929688 39.519531 C 45.253906 40.007812 45.527344 40.523438 45.753906 41.066406 C 45.976562 41.609375 46.148438 42.167969 46.261719 42.742188 C 46.375 43.316406 46.433594 43.898438 46.433594 44.484375 Z M 54.667969 40.015625 L 46.683594 40.015625 C 46.300781 39.269531 45.84375 38.570312 45.3125 37.921875 C 45.59375 37.476562 45.9375 37.089844 46.339844 36.75 C 46.738281 36.414062 47.183594 36.144531 47.667969 35.945312 C 48.152344 35.742188 48.65625 35.621094 49.179688 35.574219 C 49.703125 35.527344 50.21875 35.5625 50.730469 35.675781 C 51.242188 35.792969 51.726562 35.980469 52.179688 36.242188 C 52.632812 36.503906 53.039062 36.832031 53.390625 37.21875 C 53.746094 37.605469 54.03125 38.039062 54.253906 38.511719 C 54.472656 38.988281 54.617188 39.488281 54.683594 40.007812 C 54.679688 40.011719 54.675781 40.015625 54.667969 40.015625 Z M 54.667969 40.015625 " fill-opacity="1" fill-rule="nonzero"/></g></svg>