<svg xmlns="http://www.w3.org/2000/svg" xmlns:xlink="http://www.w3.org/1999/xlink" width="100" zoomAndPan="magnify" viewBox="0 0 75 74.999997" height="100" preserveAspectRatio="xMidYMid meet" version="1.0"><defs><clipPath id="4ca6d0ff6a"><path d="M 46 32 L 56.382812 32 L 56.382812 38 L 46 38 Z M 46 32 " clip-rule="nonzero"/></clipPath><clipPath id="c4939f6f99"><path d="M 35 18.882812 L 44 18.882812 L 44 28 L 35 28 Z M 35 18.882812 " clip-rule="nonzero"/></clipPath><clipPath id="a88940d38e"><path d="M 18.882812 31 L 33 31 L 33 44 L 18.882812 44 Z M 18.882812 31 " clip-rule="nonzero"/></clipPath><clipPath id="8aa4ce37a2"><path d="M 27 31 L 44 31 L 44 56.382812 L 27 56.382812 Z M 27 31 " clip-rule="nonzero"/></clipPath></defs><path fill="#fefefe" d="M 53.828125 42.902344 C 53.804688 42.902344 50.632812 41.761719 48.832031 41.214844 C 48.503906 41.144531 48.179688 41.167969 47.859375 41.28125 C 46.5 41.890625 45.191406 42.597656 43.933594 43.402344 C 43.789062 43.492188 43.695312 43.625 43.65625 43.792969 C 43.617188 43.960938 43.644531 44.117188 43.738281 44.265625 C 43.828125 44.414062 43.960938 44.503906 44.128906 44.542969 C 44.296875 44.582031 44.453125 44.554688 44.601562 44.464844 C 45.792969 43.695312 47.035156 43.023438 48.328125 42.449219 C 48.40625 42.433594 48.484375 42.433594 48.558594 42.449219 C 50.363281 43.015625 53.382812 44.105469 53.410156 44.105469 C 53.570312 44.160156 53.730469 44.152344 53.886719 44.078125 C 54.039062 44.003906 54.144531 43.886719 54.203125 43.726562 C 54.261719 43.5625 54.253906 43.40625 54.179688 43.25 C 54.105469 43.09375 53.984375 42.988281 53.824219 42.933594 Z M 53.828125 42.902344 " fill-opacity="1" fill-rule="nonzero"/><g clip-path="url(#4ca6d0ff6a)"><path fill="#fefefe" d="M 55.667969 36.796875 L 50.59375 35.375 C 49.910156 35.03125 49.3125 34.574219 48.804688 34.003906 C 48.398438 33.617188 47.957031 33.28125 47.472656 33 C 47.324219 32.921875 47.171875 32.902344 47.011719 32.941406 C 46.847656 32.984375 46.726562 33.078125 46.636719 33.21875 C 46.550781 33.363281 46.527344 33.515625 46.5625 33.679688 C 46.597656 33.84375 46.6875 33.96875 46.824219 34.0625 C 47.21875 34.285156 47.582031 34.550781 47.914062 34.855469 C 48.542969 35.550781 49.277344 36.101562 50.117188 36.511719 L 50.21875 36.550781 L 55.34375 37.988281 C 55.402344 37.996094 55.457031 37.996094 55.515625 37.988281 C 55.652344 37.96875 55.773438 37.910156 55.875 37.8125 C 55.972656 37.710938 56.035156 37.589844 56.050781 37.449219 C 56.070312 37.308594 56.042969 37.179688 55.972656 37.058594 C 55.898438 36.933594 55.796875 36.847656 55.667969 36.796875 Z M 55.667969 36.796875 " fill-opacity="1" fill-rule="nonzero"/></g><path fill="#fefefe" d="M 48.082031 23.796875 C 48.1875 23.65625 48.226562 23.503906 48.207031 23.332031 C 48.183594 23.160156 48.105469 23.019531 47.96875 22.914062 C 47.832031 22.808594 47.675781 22.765625 47.503906 22.785156 C 47.332031 22.808594 47.191406 22.886719 47.085938 23.023438 C 47.085938 23.050781 45.070312 25.648438 43.96875 27.203125 C 43.773438 27.507812 43.683594 27.839844 43.699219 28.203125 C 43.839844 29.546875 44.074219 30.878906 44.402344 32.191406 C 44.703125 33.433594 45.160156 35.042969 45.644531 35.6875 C 46.128906 36.335938 46.128906 36.476562 46.128906 36.515625 C 45.785156 37.058594 45.226562 36.660156 44.839844 36.128906 C 44.742188 35.988281 44.605469 35.90625 44.4375 35.878906 C 44.265625 35.851562 44.113281 35.890625 43.972656 35.988281 C 43.835938 36.089844 43.753906 36.226562 43.726562 36.394531 C 43.699219 36.5625 43.734375 36.71875 43.835938 36.855469 C 44.730469 38.074219 45.886719 38.359375 46.789062 37.628906 C 47.90625 36.652344 47.171875 35.671875 46.640625 34.960938 C 46.058594 34.183594 45.070312 29.992188 44.9375 28.125 C 44.941406 28.042969 44.964844 27.96875 45 27.898438 C 46.105469 26.363281 48.058594 23.820312 48.082031 23.796875 Z M 48.082031 23.796875 " fill-opacity="1" fill-rule="nonzero"/><g clip-path="url(#c4939f6f99)"><path fill="#fefefe" d="M 43.070312 19.929688 C 43.164062 19.789062 43.195312 19.632812 43.160156 19.464844 C 43.125 19.296875 43.039062 19.164062 42.894531 19.070312 C 42.753906 18.976562 42.597656 18.945312 42.429688 18.980469 C 42.261719 19.011719 42.128906 19.101562 42.035156 19.242188 L 39.136719 23.628906 C 38.597656 24.171875 37.976562 24.597656 37.277344 24.90625 C 36.527344 25.332031 35.855469 25.851562 35.253906 26.464844 C 35.136719 26.585938 35.078125 26.730469 35.082031 26.898438 C 35.082031 27.066406 35.140625 27.210938 35.257812 27.332031 C 35.371094 27.449219 35.515625 27.511719 35.683594 27.519531 C 35.851562 27.523438 35.996094 27.46875 36.121094 27.355469 C 36.621094 26.835938 37.1875 26.394531 37.808594 26.027344 C 38.65625 25.640625 39.402344 25.113281 40.046875 24.445312 C 40.070312 24.417969 40.09375 24.390625 40.113281 24.363281 Z M 43.070312 19.929688 " fill-opacity="1" fill-rule="nonzero"/></g><path fill="#fefefe" d="M 25.769531 23.492188 C 25.769531 23.515625 27.683594 26.300781 28.816406 27.800781 C 29.042969 28.046875 29.320312 28.21875 29.644531 28.3125 C 31.375 28.726562 36.042969 29.230469 37.371094 28.777344 C 38.089844 28.53125 38.265625 28.558594 38.292969 28.566406 C 38.867188 29.296875 37.5625 29.734375 36.773438 29.839844 C 35.847656 30.003906 33.75 30.363281 34.492188 31.472656 C 34.605469 31.601562 34.75 31.671875 34.921875 31.683594 C 35.089844 31.691406 35.242188 31.640625 35.371094 31.527344 C 35.609375 31.316406 36.375 31.175781 36.992188 31.0625 C 38.355469 30.890625 39.238281 30.234375 39.480469 29.6875 C 39.730469 29.230469 39.753906 28.761719 39.550781 28.28125 C 38.96875 26.917969 37.808594 27.3125 36.964844 27.601562 C 36.046875 27.910156 31.753906 27.558594 29.925781 27.109375 C 29.851562 27.078125 29.785156 27.035156 29.730469 26.980469 C 28.601562 25.464844 26.792969 22.839844 26.773438 22.792969 C 26.683594 22.636719 26.546875 22.539062 26.371094 22.5 C 26.195312 22.460938 26.035156 22.492188 25.886719 22.59375 C 25.738281 22.695312 25.648438 22.835938 25.625 23.015625 C 25.597656 23.191406 25.636719 23.351562 25.75 23.492188 Z M 25.769531 23.492188 " fill-opacity="1" fill-rule="nonzero"/><path fill="#fefefe" d="M 25.285156 30.183594 L 21.972656 26.011719 C 21.867188 25.875 21.726562 25.796875 21.558594 25.777344 C 21.386719 25.757812 21.234375 25.800781 21.101562 25.90625 C 20.964844 26.015625 20.886719 26.152344 20.867188 26.324219 C 20.847656 26.492188 20.890625 26.644531 20.996094 26.78125 L 24.265625 30.921875 C 24.617188 31.601562 24.832031 32.320312 24.910156 33.082031 C 25.050781 33.816406 25.285156 34.519531 25.621094 35.1875 C 25.734375 35.425781 25.921875 35.546875 26.183594 35.546875 C 26.289062 35.546875 26.390625 35.523438 26.484375 35.472656 C 26.574219 35.421875 26.652344 35.351562 26.707031 35.261719 C 26.765625 35.171875 26.796875 35.074219 26.804688 34.96875 C 26.8125 34.863281 26.792969 34.761719 26.75 34.667969 C 26.46875 34.109375 26.265625 33.527344 26.140625 32.917969 C 26.046875 31.949219 25.765625 31.035156 25.285156 30.183594 Z M 25.285156 30.183594 " fill-opacity="1" fill-rule="nonzero"/><g clip-path="url(#a88940d38e)"><path fill="#fefefe" d="M 24.839844 42.074219 C 25.144531 41.933594 25.394531 41.722656 25.585938 41.445312 C 26.523438 39.933594 28.429688 35.648438 28.410156 34.238281 C 28.367188 33.917969 28.398438 33.605469 28.496094 33.296875 C 29.277344 32.996094 29.382812 34.042969 29.277344 34.863281 C 29.125 36.019531 28.863281 37.351562 29.632812 37.960938 C 30.242188 38.464844 31.089844 38.183594 31.367188 38.089844 L 32.03125 37.863281 C 32.195312 37.804688 32.3125 37.699219 32.386719 37.542969 C 32.460938 37.390625 32.46875 37.230469 32.414062 37.066406 C 32.355469 36.90625 32.25 36.789062 32.09375 36.714844 C 31.941406 36.640625 31.78125 36.628906 31.617188 36.6875 L 30.953125 36.910156 C 30.777344 36.988281 30.597656 37.019531 30.410156 37.003906 C 30.230469 36.734375 30.429688 35.574219 30.496094 35.027344 C 30.742188 33.179688 29.96875 31.929688 28.601562 31.996094 C 27.125 32.125 27.140625 33.347656 27.15625 34.242188 C 27.15625 35.214844 25.5 39.183594 24.515625 40.769531 C 24.464844 40.832031 24.402344 40.878906 24.332031 40.914062 C 22.542969 41.519531 19.472656 42.421875 19.4375 42.429688 C 19.273438 42.480469 19.152344 42.578125 19.070312 42.730469 C 18.988281 42.882812 18.96875 43.039062 19.019531 43.203125 C 19.066406 43.367188 19.167969 43.492188 19.316406 43.574219 C 19.46875 43.65625 19.625 43.671875 19.789062 43.625 C 19.789062 43.625 23.066406 42.671875 24.839844 42.074219 Z M 24.839844 42.074219 " fill-opacity="1" fill-rule="nonzero"/></g><path fill="#fefefe" d="M 29.855469 46.183594 C 29.585938 46.195312 29.324219 46.179688 29.058594 46.140625 C 28.140625 45.949219 27.222656 45.933594 26.300781 46.097656 C 26.265625 46.101562 26.230469 46.109375 26.199219 46.121094 L 21.226562 47.976562 C 21.085938 48.046875 20.984375 48.152344 20.921875 48.300781 C 20.863281 48.445312 20.859375 48.59375 20.914062 48.746094 C 20.964844 48.894531 21.0625 49.007812 21.203125 49.082031 C 21.339844 49.15625 21.488281 49.175781 21.640625 49.140625 L 26.582031 47.304688 C 27.335938 47.183594 28.089844 47.203125 28.835938 47.363281 C 29.179688 47.417969 29.523438 47.4375 29.871094 47.425781 C 30.042969 47.421875 30.1875 47.359375 30.308594 47.238281 C 30.425781 47.113281 30.484375 46.96875 30.484375 46.796875 C 30.480469 46.625 30.417969 46.480469 30.296875 46.359375 C 30.171875 46.238281 30.027344 46.179688 29.855469 46.183594 Z M 29.855469 46.183594 " fill-opacity="1" fill-rule="nonzero"/><g clip-path="url(#8aa4ce37a2)"><path fill="#fefefe" d="M 42.964844 33.792969 C 42.84375 33.667969 42.703125 33.574219 42.546875 33.511719 C 42.386719 33.445312 42.21875 33.414062 42.046875 33.417969 C 41.875 33.425781 41.710938 33.460938 41.554688 33.535156 C 41.398438 33.609375 41.261719 33.707031 41.148438 33.839844 C 41.082031 32.914062 40.628906 31.988281 39.609375 32 C 39.335938 32 39.085938 32.078125 38.855469 32.226562 C 38.625 32.375 38.457031 32.578125 38.34375 32.828125 C 38.214844 32 37.671875 31.34375 36.8125 31.359375 C 35.769531 31.359375 35.398438 32.355469 35.398438 33.367188 C 35.269531 33.066406 35.066406 32.835938 34.789062 32.671875 C 34.507812 32.511719 34.207031 32.445312 33.882812 32.480469 C 33.503906 32.503906 33.195312 32.667969 32.960938 32.964844 C 32.40625 33.636719 32.546875 34.761719 32.644531 35.753906 C 32.699219 36.300781 32.753906 36.707031 32.851562 37.410156 C 32.953125 38.117188 33.074219 38.992188 33.15625 39.835938 C 33.257812 40.910156 33.253906 41.875 33.261719 42.777344 C 33.285156 42.96875 33.257812 43.152344 33.179688 43.324219 C 32.867188 43.414062 31.828125 42.871094 31.328125 42.632812 C 29.652344 41.832031 28.21875 42.175781 27.863281 43.496094 C 27.527344 44.941406 28.691406 45.300781 29.550781 45.566406 C 30.480469 45.855469 33.742188 48.660156 34.9375 50.097656 C 34.976562 50.164062 35 50.238281 35.015625 50.316406 C 35.015625 52.199219 34.949219 55.40625 34.945312 55.4375 C 34.9375 55.609375 34.996094 55.757812 35.113281 55.882812 C 35.230469 56.007812 35.378906 56.070312 35.546875 56.078125 C 35.71875 56.082031 35.867188 56.023438 35.992188 55.90625 C 36.117188 55.789062 36.179688 55.644531 36.1875 55.472656 C 36.1875 55.445312 36.285156 52.082031 36.253906 50.199219 C 36.222656 49.867188 36.105469 49.566406 35.90625 49.296875 C 34.757812 47.929688 31.265625 44.796875 29.929688 44.382812 C 29.199219 44.152344 29.070312 44.035156 29.054688 44.003906 C 29.046875 43.925781 29.054688 43.851562 29.078125 43.777344 C 29.25 43.242188 30.140625 43.441406 30.800781 43.777344 C 31.859375 44.28125 33.054688 44.929688 33.859375 44.394531 C 34.664062 43.859375 34.5 43.003906 34.511719 42.535156 C 34.515625 40.765625 34.375 39.003906 34.097656 37.253906 C 34 36.574219 33.949219 36.191406 33.894531 35.65625 C 33.84375 35.121094 33.714844 33.953125 33.933594 33.792969 C 34.347656 33.5 34.5625 34.550781 34.734375 35.894531 C 35.179688 39.625 35.402344 39.976562 35.734375 40.210938 C 35.902344 40.335938 36.089844 40.375 36.292969 40.332031 C 36.867188 40.207031 36.851562 39.605469 36.84375 39.121094 C 36.84375 38.753906 36.8125 38.292969 36.78125 37.714844 C 36.695312 36.425781 36.636719 34.097656 36.660156 33.441406 C 36.660156 32.851562 36.757812 32.691406 36.816406 32.652344 C 36.875 32.617188 37.144531 32.652344 37.1875 33.554688 C 37.1875 33.777344 37.429688 37.699219 37.484375 38.824219 C 37.480469 39.042969 37.496094 39.265625 37.527344 39.484375 C 37.554688 39.78125 37.703125 39.984375 37.980469 40.097656 C 38.257812 40.210938 38.507812 40.167969 38.734375 39.972656 C 39.019531 39.71875 39.105469 39.375 39.21875 37.292969 C 39.273438 36.257812 39.28125 35.492188 39.285156 34.9375 C 39.285156 34.691406 39.285156 34.480469 39.285156 34.3125 C 39.285156 33.730469 39.484375 33.277344 39.621094 33.277344 C 39.757812 33.277344 39.898438 33.277344 39.949219 34.398438 C 40.007812 35.640625 40.109375 37.792969 40.117188 38.390625 C 40.117188 39.664062 40.171875 40.011719 40.46875 40.269531 C 40.628906 40.40625 40.816406 40.460938 41.027344 40.429688 C 41.597656 40.347656 41.660156 39.785156 41.691406 39.542969 C 41.71875 39.304688 41.769531 38.042969 41.789062 37.105469 C 41.808594 36.40625 41.789062 35.164062 42.085938 34.703125 C 42.238281 35.058594 42.304688 35.425781 42.285156 35.808594 C 42.328125 36.589844 42.285156 37.703125 42.261719 39.121094 C 42.21875 40.628906 42.34375 42.308594 42.261719 43.753906 C 42.21875 45.039062 41.953125 46.28125 41.476562 47.480469 C 41.007812 48.292969 40.710938 49.160156 40.574219 50.089844 C 40.574219 50.125 40.574219 50.160156 40.574219 50.195312 L 40.796875 55.515625 C 40.800781 55.683594 40.867188 55.828125 40.996094 55.945312 C 41.121094 56.0625 41.269531 56.117188 41.441406 56.109375 C 41.613281 56.101562 41.757812 56.035156 41.875 55.910156 C 41.988281 55.785156 42.042969 55.636719 42.039062 55.464844 L 41.820312 50.195312 C 41.917969 49.429688 42.15625 48.710938 42.53125 48.039062 C 42.902344 47.382812 43.359375 45.800781 43.480469 43.808594 C 43.578125 42.292969 43.453125 40.660156 43.480469 39.121094 C 43.578125 35.945312 43.617188 34.492188 42.964844 33.792969 Z M 42.964844 33.792969 " fill-opacity="1" fill-rule="nonzero"/></g></svg>