<svg xmlns="http://www.w3.org/2000/svg" xmlns:xlink="http://www.w3.org/1999/xlink" width="100" zoomAndPan="magnify" viewBox="0 0 75 74.999997" height="100" preserveAspectRatio="xMidYMid meet" version="1.0"><defs><clipPath id="f4caf0a741"><path d="M 19 18.695312 L 56 18.695312 L 56 56.195312 L 19 56.195312 Z M 19 18.695312 " clip-rule="nonzero"/></clipPath></defs><g clip-path="url(#f4caf0a741)"><path fill="#fefefe" d="M 46.757812 31.039062 L 49.84375 31.039062 C 50.136719 31.039062 50.375 31.277344 50.375 31.570312 C 50.375 31.867188 50.136719 32.105469 49.84375 32.105469 L 46.757812 32.105469 C 46.464844 32.105469 46.222656 31.867188 46.222656 31.570312 C 46.222656 31.277344 46.464844 31.039062 46.757812 31.039062 Z M 43.667969 25.402344 C 43.460938 25.195312 43.460938 24.855469 43.667969 24.648438 L 45.851562 22.46875 C 46.058594 22.257812 46.394531 22.257812 46.605469 22.46875 C 46.8125 22.675781 46.8125 23.011719 46.605469 23.21875 L 44.421875 25.402344 C 44.214844 25.609375 43.875 25.609375 43.667969 25.402344 Z M 24.625 31.570312 C 24.625 31.277344 24.863281 31.039062 25.15625 31.039062 L 28.242188 31.039062 C 28.535156 31.039062 28.773438 31.277344 28.773438 31.570312 C 28.773438 31.867188 28.535156 32.105469 28.242188 32.105469 L 25.15625 32.105469 C 24.863281 32.105469 24.625 31.867188 24.625 31.570312 Z M 28.394531 23.21875 C 28.1875 23.011719 28.1875 22.675781 28.394531 22.46875 C 28.601562 22.257812 28.941406 22.257812 29.148438 22.46875 L 31.332031 24.648438 C 31.667969 24.984375 31.425781 25.558594 30.953125 25.558594 C 30.816406 25.558594 30.679688 25.507812 30.578125 25.402344 Z M 36.96875 22.3125 L 36.96875 19.226562 C 36.96875 18.933594 37.207031 18.695312 37.5 18.695312 C 37.792969 18.695312 38.03125 18.933594 38.03125 19.226562 L 38.03125 22.3125 C 38.03125 22.609375 37.792969 22.847656 37.5 22.847656 C 37.207031 22.847656 36.96875 22.609375 36.96875 22.3125 Z M 37.5 25.328125 C 40 25.328125 42.035156 27.164062 42.035156 29.421875 C 42.035156 30.367188 41.671875 31.289062 41.007812 32.019531 C 40.054688 33.0625 39.792969 33.792969 39.3125 35.023438 C 39.242188 35.011719 39.171875 35.007812 39.101562 35.007812 L 35.898438 35.007812 C 35.828125 35.007812 35.757812 35.011719 35.6875 35.023438 C 35.207031 33.792969 34.941406 33.0625 33.992188 32.019531 C 33.328125 31.289062 32.964844 30.367188 32.964844 29.421875 C 32.964844 27.164062 35 25.328125 37.5 25.328125 Z M 38.050781 38.925781 L 36.953125 38.925781 C 36.480469 38.925781 36.101562 38.550781 36.101562 38.0625 L 38.898438 38.0625 C 38.898438 38.550781 38.519531 38.925781 38.050781 38.925781 Z M 39.5625 36.535156 C 39.5625 36.789062 39.355469 36.996094 39.101562 36.996094 L 35.898438 36.996094 C 35.644531 36.996094 35.4375 36.789062 35.4375 36.535156 C 35.4375 36.277344 35.644531 36.070312 35.898438 36.070312 L 39.101562 36.070312 C 39.355469 36.070312 39.5625 36.277344 39.5625 36.535156 Z M 34.398438 34.660156 L 34.742188 35.539062 C 34.148438 36.226562 34.285156 37.277344 35.035156 37.792969 L 35.035156 38.078125 C 35.035156 39.132812 35.894531 39.992188 36.949219 39.992188 L 38.046875 39.992188 C 39.105469 39.992188 39.964844 39.132812 39.964844 38.078125 L 39.964844 37.792969 C 40.714844 37.277344 40.851562 36.226562 40.253906 35.535156 C 40.703125 34.398438 40.921875 33.695312 41.796875 32.734375 C 42.636719 31.808594 43.101562 30.632812 43.101562 29.421875 C 43.101562 26.574219 40.589844 24.261719 37.5 24.261719 C 34.410156 24.261719 31.898438 26.574219 31.898438 29.421875 C 31.898438 30.632812 32.359375 31.808594 33.203125 32.734375 C 33.742188 33.328125 34.109375 33.917969 34.398438 34.660156 Z M 54.550781 54.308594 C 54.367188 54.441406 54.238281 54.527344 53.988281 54.480469 C 53.804688 54.449219 53.671875 54.363281 53.570312 54.210938 C 52.59375 52.757812 51.300781 51.621094 49.609375 50.738281 C 49.257812 50.554688 48.832031 50.808594 48.828125 51.207031 L 48.808594 55.046875 C 48.808594 55.148438 48.722656 55.238281 48.617188 55.238281 L 43.972656 55.238281 C 43.867188 55.238281 43.78125 55.148438 43.78125 55.046875 L 43.78125 48.929688 C 43.78125 48.707031 43.636719 48.503906 43.425781 48.429688 C 41.121094 47.605469 39.386719 46.195312 38.125 44.113281 C 37.949219 43.824219 38.03125 43.449219 38.3125 43.261719 C 38.503906 43.132812 38.632812 43.058594 38.882812 43.113281 C 39.0625 43.152344 39.191406 43.246094 39.285156 43.402344 C 41.582031 47.167969 45.640625 48.335938 49.222656 49.371094 C 51.558594 50.09375 53.351562 51.429688 54.699219 53.453125 C 54.886719 53.730469 54.820312 54.109375 54.550781 54.308594 Z M 36.875 44.113281 C 35.613281 46.195312 33.878906 47.605469 31.574219 48.429688 C 31.363281 48.503906 31.21875 48.707031 31.21875 48.929688 L 31.21875 55.046875 C 31.21875 55.148438 31.132812 55.238281 31.027344 55.238281 L 26.382812 55.238281 C 26.277344 55.238281 26.191406 55.148438 26.191406 55.042969 L 26.167969 51.207031 C 26.167969 50.808594 25.742188 50.554688 25.390625 50.738281 C 23.699219 51.621094 22.40625 52.757812 21.429688 54.210938 C 21.226562 54.511719 20.820312 54.585938 20.53125 54.367188 L 20.449219 54.308594 C 20.179688 54.109375 20.113281 53.730469 20.300781 53.453125 C 21.648438 51.429688 23.441406 50.09375 25.777344 49.371094 C 29.359375 48.335938 33.417969 47.167969 35.714844 43.402344 C 35.902344 43.089844 36.304688 43.003906 36.605469 43.207031 L 36.6875 43.261719 C 36.96875 43.449219 37.050781 43.824219 36.875 44.113281 Z M 55.585938 52.859375 C 54.117188 50.652344 52.078125 49.136719 49.53125 48.351562 C 49.53125 48.347656 49.527344 48.347656 49.523438 48.347656 C 45.960938 47.320312 42.277344 46.261719 40.195312 42.847656 C 39.6875 42.015625 38.605469 41.78125 37.800781 42.320312 L 37.5 42.554688 C 37.066406 42.144531 36.492188 41.941406 35.890625 42.074219 C 35.425781 42.171875 35.050781 42.441406 34.804688 42.847656 C 32.722656 46.261719 29.039062 47.320312 25.476562 48.347656 C 25.472656 48.347656 25.46875 48.347656 25.464844 48.351562 C 22.921875 49.136719 20.882812 50.652344 19.414062 52.859375 C 18.910156 53.613281 19.085938 54.628906 19.816406 55.167969 C 20.246094 55.480469 20.652344 55.628906 21.195312 55.53125 C 21.664062 55.449219 22.050781 55.199219 22.3125 54.804688 C 23.035156 53.730469 23.953125 52.851562 25.109375 52.125 L 25.125 55.046875 C 25.125 55.738281 25.6875 56.304688 26.382812 56.304688 L 31.027344 56.304688 C 31.722656 56.304688 32.285156 55.738281 32.285156 55.046875 L 32.285156 49.300781 C 34.460938 48.445312 36.210938 47.042969 37.5 45.113281 C 38.789062 47.042969 40.539062 48.445312 42.714844 49.300781 L 42.714844 55.046875 C 42.714844 55.738281 43.277344 56.304688 43.972656 56.304688 L 48.617188 56.304688 C 49.3125 56.304688 49.875 55.738281 49.875 55.046875 L 49.890625 52.125 C 51.046875 52.847656 51.964844 53.730469 52.683594 54.804688 C 53.226562 55.609375 54.320312 55.804688 55.101562 55.226562 L 55.183594 55.167969 C 55.914062 54.628906 56.089844 53.613281 55.585938 52.859375 Z M 47.898438 45.382812 C 49.035156 45.382812 49.960938 44.457031 49.960938 43.316406 C 49.960938 42.179688 49.035156 41.25 47.898438 41.25 C 46.757812 41.25 45.832031 42.179688 45.832031 43.316406 C 45.832031 44.457031 46.757812 45.382812 47.898438 45.382812 Z M 47.898438 40.1875 C 46.171875 40.1875 44.765625 41.589844 44.765625 43.316406 C 44.765625 45.042969 46.171875 46.449219 47.898438 46.449219 C 49.625 46.449219 51.027344 45.042969 51.027344 43.316406 C 51.027344 41.589844 49.625 40.1875 47.898438 40.1875 Z M 27.101562 41.25 C 25.964844 41.25 25.035156 42.179688 25.035156 43.316406 C 25.035156 44.457031 25.964844 45.382812 27.101562 45.382812 C 28.242188 45.382812 29.167969 44.457031 29.167969 43.316406 C 29.167969 42.179688 28.242188 41.25 27.101562 41.25 Z M 27.101562 46.449219 C 28.828125 46.449219 30.234375 45.042969 30.234375 43.316406 C 30.234375 41.589844 28.828125 40.1875 27.101562 40.1875 C 25.375 40.1875 23.972656 41.589844 23.972656 43.316406 C 23.972656 45.042969 25.375 46.449219 27.101562 46.449219 Z M 27.101562 46.449219 " fill-opacity="1" fill-rule="evenodd"/></g></svg>