<svg xmlns="http://www.w3.org/2000/svg" xmlns:xlink="http://www.w3.org/1999/xlink" width="100" zoomAndPan="magnify" viewBox="0 0 75 74.999997" height="100" preserveAspectRatio="xMidYMid meet" version="1.0"><defs><clipPath id="9d498ee45d"><path d="M 1.21875 24 L 73.78125 24 L 73.78125 50 L 1.21875 50 Z M 1.21875 24 " clip-rule="nonzero"/></clipPath><clipPath id="437a7926e6"><path d="M 1.21875 18.890625 L 51 18.890625 L 51 43 L 1.21875 43 Z M 1.21875 18.890625 " clip-rule="nonzero"/></clipPath></defs><g clip-path="url(#9d498ee45d)"><path fill="#163696" d="M 53.109375 24.691406 L 53.109375 43.882812 L 22.816406 43.90625 C 24.59375 45.359375 25.707031 47.363281 25.691406 49.988281 L 55.761719 49.972656 C 56.050781 39.777344 70.511719 39.8125 70.828125 49.914062 C 73 49.894531 73.300781 49.402344 73.320312 47.402344 L 73.320312 39.75 C 73.347656 36.332031 73.777344 38.585938 71.246094 32.101562 C 68.640625 25.191406 69.359375 25.828125 67.003906 25.652344 L 53.109375 24.695312 Z M 59.128906 36.007812 L 59.007812 27.855469 L 66.742188 28.335938 C 68.152344 28.429688 68.164062 28.4375 68.660156 30.074219 L 70.636719 35.347656 C 71.300781 36.964844 71.195312 37.441406 69.378906 37.207031 Z M 1.257812 43.921875 L 1.246094 48.230469 L 6.238281 50 L 10.621094 49.996094 C 10.605469 47.496094 11.644531 45.394531 13.484375 43.917969 Z M 1.257812 43.921875 " fill-opacity="1" fill-rule="evenodd"/></g><g clip-path="url(#437a7926e6)"><path fill="#163696" d="M 50.015625 18.921875 L 1.21875 18.921875 L 1.21875 42.242188 L 50.015625 42.242188 Z M 50.015625 18.921875 " fill-opacity="1" fill-rule="nonzero"/></g><path fill="#163696" d="M 57.34375 49.828125 C 57.34375 49.4375 57.382812 49.050781 57.460938 48.667969 C 57.535156 48.28125 57.648438 47.910156 57.796875 47.550781 C 57.949219 47.1875 58.132812 46.847656 58.347656 46.519531 C 58.566406 46.195312 58.8125 45.894531 59.089844 45.617188 C 59.363281 45.34375 59.664062 45.097656 59.988281 44.878906 C 60.316406 44.660156 60.65625 44.476562 61.019531 44.328125 C 61.378906 44.179688 61.753906 44.066406 62.136719 43.988281 C 62.519531 43.914062 62.90625 43.875 63.296875 43.875 C 63.6875 43.875 64.074219 43.914062 64.457031 43.988281 C 64.839844 44.066406 65.214844 44.179688 65.574219 44.328125 C 65.933594 44.476562 66.277344 44.660156 66.601562 44.878906 C 66.929688 45.097656 67.230469 45.34375 67.503906 45.617188 C 67.78125 45.894531 68.027344 46.195312 68.246094 46.519531 C 68.460938 46.847656 68.644531 47.1875 68.796875 47.550781 C 68.945312 47.910156 69.058594 48.28125 69.132812 48.667969 C 69.210938 49.050781 69.246094 49.4375 69.246094 49.828125 C 69.246094 50.21875 69.210938 50.605469 69.132812 50.988281 C 69.058594 51.371094 68.945312 51.742188 68.796875 52.105469 C 68.644531 52.464844 68.460938 52.808594 68.246094 53.132812 C 68.027344 53.457031 67.78125 53.757812 67.503906 54.035156 C 67.230469 54.3125 66.929688 54.558594 66.601562 54.777344 C 66.277344 54.992188 65.933594 55.175781 65.574219 55.324219 C 65.214844 55.476562 64.839844 55.589844 64.457031 55.664062 C 64.074219 55.742188 63.6875 55.777344 63.296875 55.777344 C 62.90625 55.777344 62.519531 55.742188 62.136719 55.664062 C 61.753906 55.589844 61.378906 55.476562 61.019531 55.324219 C 60.65625 55.175781 60.316406 54.992188 59.988281 54.777344 C 59.664062 54.558594 59.363281 54.3125 59.089844 54.035156 C 58.8125 53.757812 58.566406 53.457031 58.347656 53.132812 C 58.132812 52.808594 57.949219 52.464844 57.796875 52.105469 C 57.648438 51.742188 57.535156 51.371094 57.460938 50.988281 C 57.382812 50.605469 57.34375 50.21875 57.34375 49.828125 " fill-opacity="1" fill-rule="nonzero"/><path fill="#163696" d="M 12.207031 49.828125 C 12.207031 49.4375 12.246094 49.050781 12.320312 48.667969 C 12.398438 48.28125 12.511719 47.910156 12.660156 47.550781 C 12.808594 47.1875 12.992188 46.847656 13.210938 46.519531 C 13.425781 46.195312 13.671875 45.894531 13.949219 45.617188 C 14.226562 45.34375 14.527344 45.097656 14.851562 44.878906 C 15.175781 44.660156 15.519531 44.476562 15.878906 44.328125 C 16.242188 44.179688 16.613281 44.066406 16.996094 43.988281 C 17.378906 43.914062 17.765625 43.875 18.15625 43.875 C 18.546875 43.875 18.9375 43.914062 19.320312 43.988281 C 19.703125 44.066406 20.074219 44.179688 20.433594 44.328125 C 20.796875 44.476562 21.140625 44.660156 21.464844 44.878906 C 21.789062 45.097656 22.089844 45.34375 22.367188 45.617188 C 22.640625 45.894531 22.890625 46.195312 23.105469 46.519531 C 23.324219 46.847656 23.507812 47.1875 23.65625 47.550781 C 23.804688 47.910156 23.917969 48.28125 23.996094 48.667969 C 24.070312 49.050781 24.109375 49.4375 24.109375 49.828125 C 24.109375 50.21875 24.070312 50.605469 23.996094 50.988281 C 23.917969 51.371094 23.804688 51.742188 23.65625 52.105469 C 23.507812 52.464844 23.324219 52.808594 23.105469 53.132812 C 22.890625 53.457031 22.640625 53.757812 22.367188 54.035156 C 22.089844 54.3125 21.789062 54.558594 21.464844 54.777344 C 21.140625 54.992188 20.796875 55.175781 20.433594 55.324219 C 20.074219 55.476562 19.703125 55.589844 19.320312 55.664062 C 18.9375 55.742188 18.546875 55.777344 18.15625 55.777344 C 17.765625 55.777344 17.378906 55.742188 16.996094 55.664062 C 16.613281 55.589844 16.242188 55.476562 15.878906 55.324219 C 15.519531 55.175781 15.175781 54.992188 14.851562 54.777344 C 14.527344 54.558594 14.226562 54.3125 13.949219 54.035156 C 13.671875 53.757812 13.425781 53.457031 13.210938 53.132812 C 12.992188 52.808594 12.808594 52.464844 12.660156 52.105469 C 12.511719 51.742188 12.398438 51.371094 12.320312 50.988281 C 12.246094 50.605469 12.207031 50.21875 12.207031 49.828125 " fill-opacity="1" fill-rule="nonzero"/></svg>