<svg xmlns="http://www.w3.org/2000/svg" xmlns:xlink="http://www.w3.org/1999/xlink" width="100" zoomAndPan="magnify" viewBox="0 0 75 74.999997" height="100" preserveAspectRatio="xMidYMid meet" version="1.0"><defs><clipPath id="497f7eb65f"><path d="M 0 18.761719 L 74.761719 18.761719 L 74.761719 24 L 0 24 Z M 0 18.761719 " clip-rule="nonzero"/></clipPath><clipPath id="b7f6e03da2"><path d="M 0 22 L 74.761719 22 L 74.761719 28 L 0 28 Z M 0 22 " clip-rule="nonzero"/></clipPath><clipPath id="ac65ff9dcd"><path d="M 0 26 L 74.761719 26 L 74.761719 30.722656 L 0 30.722656 Z M 0 26 " clip-rule="nonzero"/></clipPath><clipPath id="1156ca757f"><path d="M 0 31.253906 L 74.761719 31.253906 L 74.761719 36 L 0 36 Z M 0 31.253906 " clip-rule="nonzero"/></clipPath><clipPath id="368534c365"><path d="M 0 35 L 74.761719 35 L 74.761719 40 L 0 40 Z M 0 35 " clip-rule="nonzero"/></clipPath><clipPath id="15a6966594"><path d="M 0 39 L 74.761719 39 L 74.761719 43.214844 L 0 43.214844 Z M 0 39 " clip-rule="nonzero"/></clipPath><clipPath id="debd664ec5"><path d="M 0 43.746094 L 74.761719 43.746094 L 74.761719 49 L 0 49 Z M 0 43.746094 " clip-rule="nonzero"/></clipPath><clipPath id="df9862d86a"><path d="M 0 47 L 74.761719 47 L 74.761719 53 L 0 53 Z M 0 47 " clip-rule="nonzero"/></clipPath><clipPath id="1248cb638f"><path d="M 0 51 L 74.761719 51 L 74.761719 55.707031 L 0 55.707031 Z M 0 51 " clip-rule="nonzero"/></clipPath></defs><g clip-path="url(#497f7eb65f)"><path fill="#163694" d="M 0.46875 19.742188 C 2.109375 19.773438 3.074219 20.605469 4.238281 21.625 C 5.214844 22.480469 6.289062 23.042969 7.605469 23.09375 C 9.035156 23.152344 10.238281 22.644531 11.308594 21.730469 C 12.371094 20.816406 13.277344 19.886719 14.753906 19.757812 C 16.347656 19.621094 17.480469 20.285156 18.617188 21.3125 C 19.589844 22.191406 20.566406 22.90625 21.910156 23.0625 C 23.277344 23.21875 24.585938 22.867188 25.671875 22.027344 C 26.742188 21.195312 27.582031 20.117188 28.980469 19.828125 C 30.582031 19.496094 31.9375 20.058594 33.113281 21.101562 C 34.023438 21.914062 34.910156 22.722656 36.148438 22.984375 C 37.554688 23.28125 39.027344 23.023438 40.195312 22.179688 C 41.199219 21.453125 41.976562 20.40625 43.175781 19.976562 C 44.710938 19.429688 46.328125 19.824219 47.546875 20.847656 C 48.488281 21.636719 49.304688 22.523438 50.515625 22.890625 C 51.824219 23.289062 53.347656 23.140625 54.523438 22.445312 C 55.613281 21.796875 56.375 20.703125 57.519531 20.140625 C 59.144531 19.34375 61.007812 19.761719 62.335938 20.898438 C 63.398438 21.808594 64.347656 22.773438 65.792969 23.019531 C 67.320312 23.28125 68.777344 22.894531 69.976562 21.929688 C 71.3125 20.855469 72.253906 19.777344 74.105469 19.742188 C 74.574219 19.730469 74.578125 19 74.105469 19.007812 C 72.683594 19.035156 71.5625 19.558594 70.511719 20.480469 C 69.4375 21.425781 68.472656 22.296875 66.964844 22.363281 C 65.300781 22.433594 64.257812 21.628906 63.085938 20.585938 C 62.132812 19.734375 61.117188 19.125 59.816406 19.023438 C 58.449219 18.917969 57.203125 19.320312 56.140625 20.179688 C 55.0625 21.042969 54.207031 22.082031 52.761719 22.3125 C 51.152344 22.570312 49.867188 21.945312 48.703125 20.898438 C 47.71875 20.011719 46.753906 19.238281 45.394531 19.058594 C 44.03125 18.878906 42.707031 19.191406 41.609375 20.023438 C 40.617188 20.777344 39.820312 21.808594 38.585938 22.1875 C 36.96875 22.679688 35.4375 22.183594 34.207031 21.109375 C 33.296875 20.3125 32.449219 19.476562 31.242188 19.164062 C 29.886719 18.820312 28.375 19.019531 27.203125 19.792969 C 26.171875 20.476562 25.414062 21.535156 24.261719 22.039062 C 22.800781 22.679688 21.070312 22.386719 19.839844 21.410156 C 18.863281 20.636719 18.074219 19.691406 16.859375 19.269531 C 15.40625 18.765625 13.683594 18.964844 12.414062 19.835938 C 11.242188 20.636719 10.390625 21.867188 8.957031 22.234375 C 7.152344 22.699219 5.710938 21.96875 4.410156 20.792969 C 3.238281 19.738281 2.097656 19.039062 0.46875 19.007812 C -0.00390625 19 -0.00390625 19.730469 0.46875 19.742188 " fill-opacity="1" fill-rule="nonzero"/></g><g clip-path="url(#b7f6e03da2)"><path fill="#163694" d="M 0.46875 23.710938 C 2.109375 23.742188 3.074219 24.574219 4.238281 25.59375 C 5.214844 26.449219 6.289062 27.011719 7.605469 27.0625 C 9.035156 27.121094 10.238281 26.613281 11.308594 25.695312 C 12.371094 24.785156 13.277344 23.855469 14.753906 23.726562 C 16.347656 23.585938 17.480469 24.253906 18.617188 25.28125 C 19.589844 26.160156 20.566406 26.875 21.910156 27.03125 C 23.277344 27.1875 24.585938 26.835938 25.671875 25.996094 C 26.742188 25.164062 27.582031 24.085938 28.980469 23.796875 C 30.582031 23.464844 31.9375 24.027344 33.113281 25.070312 C 34.023438 25.882812 34.910156 26.691406 36.148438 26.953125 C 37.554688 27.25 39.027344 26.992188 40.195312 26.148438 C 41.199219 25.421875 41.976562 24.375 43.175781 23.945312 C 44.710938 23.398438 46.328125 23.792969 47.546875 24.816406 C 48.488281 25.605469 49.304688 26.492188 50.515625 26.863281 C 51.824219 27.257812 53.347656 27.109375 54.523438 26.414062 C 55.613281 25.765625 56.375 24.671875 57.519531 24.109375 C 59.144531 23.3125 61.007812 23.730469 62.335938 24.867188 C 63.398438 25.777344 64.347656 26.742188 65.792969 26.988281 C 67.320312 27.25 68.777344 26.863281 69.976562 25.898438 C 71.3125 24.824219 72.253906 23.746094 74.105469 23.710938 C 74.574219 23.699219 74.578125 22.96875 74.105469 22.976562 C 72.683594 23.003906 71.5625 23.527344 70.511719 24.449219 C 69.4375 25.394531 68.472656 26.265625 66.964844 26.332031 C 65.300781 26.402344 64.257812 25.597656 63.085938 24.554688 C 62.132812 23.703125 61.117188 23.09375 59.816406 22.992188 C 58.449219 22.886719 57.203125 23.289062 56.140625 24.148438 C 55.0625 25.011719 54.207031 26.050781 52.761719 26.28125 C 51.152344 26.539062 49.867188 25.914062 48.703125 24.867188 C 47.71875 23.980469 46.753906 23.207031 45.394531 23.027344 C 44.03125 22.847656 42.707031 23.160156 41.609375 23.992188 C 40.617188 24.746094 39.820312 25.777344 38.585938 26.15625 C 36.96875 26.648438 35.4375 26.152344 34.207031 25.078125 C 33.296875 24.28125 32.449219 23.445312 31.242188 23.132812 C 29.886719 22.789062 28.375 22.988281 27.203125 23.761719 C 26.171875 24.445312 25.414062 25.503906 24.261719 26.007812 C 22.800781 26.648438 21.070312 26.355469 19.839844 25.378906 C 18.863281 24.605469 18.074219 23.660156 16.859375 23.238281 C 15.40625 22.734375 13.683594 22.933594 12.414062 23.804688 C 11.242188 24.609375 10.390625 25.835938 8.957031 26.203125 C 7.152344 26.667969 5.710938 25.9375 4.410156 24.761719 C 3.238281 23.703125 2.097656 23.007812 0.46875 22.976562 C -0.00390625 22.96875 -0.00390625 23.699219 0.46875 23.710938 " fill-opacity="1" fill-rule="nonzero"/></g><g clip-path="url(#ac65ff9dcd)"><path fill="#163694" d="M 0.46875 27.679688 C 2.109375 27.710938 3.074219 28.542969 4.238281 29.5625 C 5.214844 30.417969 6.289062 30.980469 7.605469 31.03125 C 9.035156 31.089844 10.238281 30.582031 11.308594 29.664062 C 12.371094 28.753906 13.277344 27.824219 14.753906 27.695312 C 16.347656 27.558594 17.480469 28.222656 18.617188 29.25 C 19.589844 30.128906 20.566406 30.84375 21.910156 31 C 23.277344 31.15625 24.585938 30.804688 25.671875 29.964844 C 26.742188 29.132812 27.582031 28.054688 28.980469 27.765625 C 30.582031 27.433594 31.9375 27.996094 33.113281 29.042969 C 34.023438 29.851562 34.910156 30.660156 36.148438 30.921875 C 37.554688 31.21875 39.027344 30.960938 40.195312 30.117188 C 41.199219 29.390625 41.976562 28.34375 43.175781 27.914062 C 44.710938 27.367188 46.328125 27.761719 47.546875 28.785156 C 48.488281 29.574219 49.304688 30.460938 50.515625 30.832031 C 51.824219 31.226562 53.347656 31.078125 54.523438 30.382812 C 55.613281 29.734375 56.375 28.640625 57.519531 28.078125 C 59.144531 27.28125 61.007812 27.699219 62.335938 28.835938 C 63.398438 29.746094 64.347656 30.710938 65.792969 30.957031 C 67.320312 31.21875 68.777344 30.832031 69.976562 29.867188 C 71.3125 28.792969 72.253906 27.714844 74.105469 27.679688 C 74.574219 27.667969 74.578125 26.9375 74.105469 26.945312 C 72.683594 26.972656 71.5625 27.496094 70.511719 28.417969 C 69.4375 29.363281 68.472656 30.234375 66.964844 30.300781 C 65.300781 30.371094 64.257812 29.566406 63.085938 28.523438 C 62.132812 27.671875 61.117188 27.0625 59.816406 26.960938 C 58.449219 26.855469 57.203125 27.257812 56.140625 28.117188 C 55.0625 28.984375 54.207031 30.019531 52.761719 30.25 C 51.152344 30.507812 49.867188 29.882812 48.703125 28.835938 C 47.71875 27.949219 46.753906 27.175781 45.394531 26.996094 C 44.03125 26.816406 42.707031 27.128906 41.609375 27.960938 C 40.617188 28.714844 39.820312 29.746094 38.585938 30.125 C 36.96875 30.617188 35.4375 30.121094 34.207031 29.046875 C 33.296875 28.25 32.449219 27.414062 31.242188 27.101562 C 29.886719 26.757812 28.375 26.957031 27.203125 27.730469 C 26.171875 28.414062 25.414062 29.472656 24.261719 29.976562 C 22.800781 30.617188 21.070312 30.324219 19.839844 29.347656 C 18.863281 28.574219 18.074219 27.628906 16.859375 27.207031 C 15.40625 26.703125 13.683594 26.902344 12.414062 27.773438 C 11.242188 28.574219 10.390625 29.804688 8.957031 30.171875 C 7.152344 30.636719 5.710938 29.90625 4.410156 28.730469 C 3.238281 27.671875 2.097656 26.976562 0.46875 26.945312 C -0.00390625 26.9375 -0.00390625 27.667969 0.46875 27.679688 " fill-opacity="1" fill-rule="nonzero"/></g><g clip-path="url(#1156ca757f)"><path fill="#163694" d="M 0.46875 32.234375 C 2.109375 32.265625 3.074219 33.097656 4.238281 34.117188 C 5.214844 34.972656 6.289062 35.535156 7.605469 35.585938 C 9.035156 35.644531 10.238281 35.136719 11.308594 34.222656 C 12.371094 33.308594 13.277344 32.378906 14.753906 32.25 C 16.347656 32.113281 17.480469 32.78125 18.617188 33.804688 C 19.589844 34.683594 20.566406 35.398438 21.910156 35.554688 C 23.277344 35.710938 24.585938 35.359375 25.671875 34.519531 C 26.742188 33.6875 27.582031 32.613281 28.980469 32.324219 C 30.582031 31.992188 31.9375 32.550781 33.113281 33.597656 C 34.023438 34.410156 34.910156 35.214844 36.148438 35.476562 C 37.554688 35.773438 39.027344 35.515625 40.195312 34.671875 C 41.199219 33.945312 41.976562 32.898438 43.175781 32.46875 C 44.710938 31.921875 46.328125 32.316406 47.546875 33.339844 C 48.488281 34.128906 49.304688 35.015625 50.515625 35.386719 C 51.824219 35.78125 53.347656 35.636719 54.523438 34.9375 C 55.613281 34.289062 56.375 33.195312 57.519531 32.632812 C 59.144531 31.835938 61.007812 32.253906 62.335938 33.390625 C 63.398438 34.304688 64.347656 35.265625 65.792969 35.511719 C 67.320312 35.773438 68.777344 35.386719 69.976562 34.421875 C 71.3125 33.347656 72.253906 32.269531 74.105469 32.234375 C 74.574219 32.226562 74.578125 31.492188 74.105469 31.5 C 72.683594 31.527344 71.5625 32.050781 70.511719 32.972656 C 69.4375 33.917969 68.472656 34.789062 66.964844 34.855469 C 65.300781 34.925781 64.257812 34.121094 63.085938 33.078125 C 62.132812 32.226562 61.117188 31.621094 59.816406 31.515625 C 58.449219 31.410156 57.203125 31.8125 56.140625 32.671875 C 55.0625 33.539062 54.207031 34.578125 52.761719 34.804688 C 51.152344 35.0625 49.867188 34.4375 48.703125 33.390625 C 47.71875 32.503906 46.753906 31.730469 45.394531 31.550781 C 44.03125 31.371094 42.707031 31.6875 41.609375 32.515625 C 40.617188 33.269531 39.820312 34.300781 38.585938 34.679688 C 36.96875 35.171875 35.4375 34.675781 34.207031 33.601562 C 33.296875 32.804688 32.449219 31.96875 31.242188 31.660156 C 29.886719 31.3125 28.375 31.511719 27.203125 32.285156 C 26.171875 32.96875 25.414062 34.027344 24.261719 34.53125 C 22.800781 35.171875 21.070312 34.878906 19.839844 33.902344 C 18.863281 33.128906 18.074219 32.183594 16.859375 31.761719 C 15.40625 31.257812 13.683594 31.457031 12.414062 32.328125 C 11.242188 33.128906 10.390625 34.359375 8.957031 34.726562 C 7.152344 35.191406 5.710938 34.460938 4.410156 33.285156 C 3.238281 32.230469 2.097656 31.53125 0.46875 31.5 C -0.00390625 31.492188 -0.00390625 32.226562 0.46875 32.234375 " fill-opacity="1" fill-rule="nonzero"/></g><g clip-path="url(#368534c365)"><path fill="#163694" d="M 0.46875 36.203125 C 2.109375 36.234375 3.074219 37.066406 4.238281 38.085938 C 5.214844 38.941406 6.289062 39.503906 7.605469 39.554688 C 9.035156 39.613281 10.238281 39.105469 11.308594 38.191406 C 12.371094 37.277344 13.277344 36.347656 14.753906 36.21875 C 16.347656 36.082031 17.480469 36.746094 18.617188 37.773438 C 19.589844 38.652344 20.566406 39.367188 21.910156 39.523438 C 23.277344 39.679688 24.585938 39.328125 25.671875 38.488281 C 26.742188 37.65625 27.582031 36.582031 28.980469 36.289062 C 30.582031 35.960938 31.9375 36.519531 33.113281 37.5625 C 34.023438 38.378906 34.910156 39.183594 36.148438 39.445312 C 37.554688 39.742188 39.027344 39.484375 40.195312 38.640625 C 41.199219 37.914062 41.976562 36.867188 43.175781 36.4375 C 44.710938 35.890625 46.328125 36.285156 47.546875 37.308594 C 48.488281 38.097656 49.304688 38.984375 50.515625 39.355469 C 51.824219 39.75 53.347656 39.605469 54.523438 38.90625 C 55.613281 38.257812 56.375 37.164062 57.519531 36.601562 C 59.144531 35.804688 61.007812 36.222656 62.335938 37.359375 C 63.398438 38.273438 64.347656 39.234375 65.792969 39.480469 C 67.320312 39.742188 68.777344 39.355469 69.976562 38.390625 C 71.3125 37.316406 72.253906 36.238281 74.105469 36.203125 C 74.574219 36.191406 74.578125 35.460938 74.105469 35.46875 C 72.683594 35.496094 71.5625 36.019531 70.511719 36.941406 C 69.4375 37.886719 68.472656 38.757812 66.964844 38.824219 C 65.300781 38.894531 64.257812 38.089844 63.085938 37.046875 C 62.132812 36.199219 61.117188 35.589844 59.816406 35.488281 C 58.449219 35.378906 57.203125 35.78125 56.140625 36.640625 C 55.0625 37.503906 54.207031 38.546875 52.761719 38.773438 C 51.152344 39.03125 49.867188 38.40625 48.703125 37.359375 C 47.71875 36.472656 46.753906 35.699219 45.394531 35.519531 C 44.03125 35.339844 42.707031 35.65625 41.609375 36.484375 C 40.617188 37.238281 39.820312 38.269531 38.585938 38.648438 C 36.96875 39.140625 35.4375 38.644531 34.207031 37.570312 C 33.296875 36.773438 32.449219 35.9375 31.242188 35.628906 C 29.886719 35.28125 28.375 35.480469 27.203125 36.253906 C 26.171875 36.9375 25.414062 37.996094 24.261719 38.5 C 22.800781 39.140625 21.070312 38.847656 19.839844 37.871094 C 18.863281 37.097656 18.074219 36.152344 16.859375 35.730469 C 15.40625 35.226562 13.683594 35.425781 12.414062 36.296875 C 11.242188 37.101562 10.390625 38.328125 8.957031 38.695312 C 7.152344 39.160156 5.710938 38.429688 4.410156 37.257812 C 3.238281 36.199219 2.097656 35.5 0.46875 35.46875 C -0.00390625 35.460938 -0.00390625 36.191406 0.46875 36.203125 " fill-opacity="1" fill-rule="nonzero"/></g><g clip-path="url(#15a6966594)"><path fill="#163694" d="M 0.46875 40.171875 C 2.109375 40.203125 3.074219 41.035156 4.238281 42.054688 C 5.214844 42.910156 6.289062 43.472656 7.605469 43.523438 C 9.035156 43.582031 10.238281 43.074219 11.308594 42.160156 C 12.371094 41.246094 13.277344 40.316406 14.753906 40.1875 C 16.347656 40.050781 17.480469 40.714844 18.617188 41.742188 C 19.589844 42.621094 20.566406 43.335938 21.910156 43.492188 C 23.277344 43.648438 24.585938 43.300781 25.671875 42.457031 C 26.742188 41.625 27.582031 40.546875 28.980469 40.257812 C 30.582031 39.925781 31.9375 40.488281 33.113281 41.535156 C 34.023438 42.347656 34.910156 43.152344 36.148438 43.414062 C 37.554688 43.710938 39.027344 43.453125 40.195312 42.609375 C 41.199219 41.882812 41.976562 40.835938 43.175781 40.40625 C 44.710938 39.859375 46.328125 40.253906 47.546875 41.277344 C 48.488281 42.066406 49.304688 42.953125 50.515625 43.324219 C 51.824219 43.71875 53.347656 43.574219 54.523438 42.875 C 55.613281 42.226562 56.375 41.132812 57.519531 40.570312 C 59.144531 39.773438 61.007812 40.191406 62.335938 41.328125 C 63.398438 42.242188 64.347656 43.203125 65.792969 43.449219 C 67.320312 43.710938 68.777344 43.324219 69.976562 42.359375 C 71.3125 41.285156 72.253906 40.207031 74.105469 40.171875 C 74.574219 40.160156 74.578125 39.429688 74.105469 39.4375 C 72.683594 39.464844 71.5625 39.988281 70.511719 40.910156 C 69.4375 41.855469 68.472656 42.726562 66.964844 42.792969 C 65.300781 42.863281 64.257812 42.058594 63.085938 41.015625 C 62.132812 40.167969 61.117188 39.558594 59.816406 39.457031 C 58.449219 39.347656 57.203125 39.75 56.140625 40.609375 C 55.0625 41.476562 54.207031 42.511719 52.761719 42.742188 C 51.152344 43 49.867188 42.375 48.703125 41.328125 C 47.71875 40.441406 46.753906 39.667969 45.394531 39.488281 C 44.03125 39.308594 42.707031 39.625 41.609375 40.453125 C 40.617188 41.207031 39.820312 42.238281 38.585938 42.617188 C 36.96875 43.109375 35.4375 42.613281 34.207031 41.539062 C 33.296875 40.742188 32.449219 39.90625 31.242188 39.59375 C 29.886719 39.25 28.375 39.449219 27.203125 40.222656 C 26.171875 40.90625 25.414062 41.964844 24.261719 42.46875 C 22.800781 43.109375 21.070312 42.816406 19.839844 41.839844 C 18.863281 41.066406 18.074219 40.121094 16.859375 39.699219 C 15.40625 39.195312 13.683594 39.394531 12.414062 40.265625 C 11.242188 41.070312 10.390625 42.296875 8.957031 42.664062 C 7.152344 43.128906 5.710938 42.398438 4.410156 41.226562 C 3.238281 40.167969 2.097656 39.46875 0.46875 39.4375 C -0.00390625 39.429688 -0.00390625 40.160156 0.46875 40.171875 " fill-opacity="1" fill-rule="nonzero"/></g><g clip-path="url(#debd664ec5)"><path fill="#163694" d="M 0.46875 44.726562 C 2.109375 44.757812 3.074219 45.589844 4.238281 46.609375 C 5.214844 47.464844 6.289062 48.027344 7.605469 48.078125 C 9.035156 48.136719 10.238281 47.628906 11.308594 46.714844 C 12.371094 45.800781 13.277344 44.871094 14.753906 44.742188 C 16.347656 44.605469 17.480469 45.273438 18.617188 46.296875 C 19.589844 47.175781 20.566406 47.890625 21.910156 48.046875 C 23.277344 48.203125 24.585938 47.855469 25.671875 47.011719 C 26.742188 46.179688 27.582031 45.105469 28.980469 44.816406 C 30.582031 44.484375 31.9375 45.042969 33.113281 46.089844 C 34.023438 46.902344 34.910156 47.707031 36.148438 47.96875 C 37.554688 48.265625 39.027344 48.007812 40.195312 47.164062 C 41.199219 46.4375 41.976562 45.390625 43.175781 44.960938 C 44.710938 44.414062 46.328125 44.808594 47.546875 45.832031 C 48.488281 46.621094 49.304688 47.511719 50.515625 47.878906 C 51.824219 48.273438 53.347656 48.128906 54.523438 47.429688 C 55.613281 46.78125 56.375 45.6875 57.519531 45.125 C 59.144531 44.328125 61.007812 44.746094 62.335938 45.882812 C 63.398438 46.796875 64.347656 47.757812 65.792969 48.003906 C 67.320312 48.265625 68.777344 47.878906 69.976562 46.914062 C 71.3125 45.839844 72.253906 44.761719 74.105469 44.726562 C 74.574219 44.71875 74.578125 43.984375 74.105469 43.992188 C 72.683594 44.019531 71.5625 44.542969 70.511719 45.464844 C 69.4375 46.410156 68.472656 47.28125 66.964844 47.347656 C 65.300781 47.417969 64.257812 46.613281 63.085938 45.570312 C 62.132812 44.722656 61.117188 44.113281 59.816406 44.011719 C 58.449219 43.902344 57.203125 44.304688 56.140625 45.164062 C 55.0625 46.03125 54.207031 47.070312 52.761719 47.296875 C 51.152344 47.554688 49.867188 46.929688 48.703125 45.882812 C 47.71875 44.996094 46.753906 44.222656 45.394531 44.042969 C 44.03125 43.863281 42.707031 44.179688 41.609375 45.007812 C 40.617188 45.761719 39.820312 46.792969 38.585938 47.171875 C 36.96875 47.664062 35.4375 47.167969 34.207031 46.09375 C 33.296875 45.296875 32.449219 44.460938 31.242188 44.152344 C 29.886719 43.804688 28.375 44.003906 27.203125 44.777344 C 26.171875 45.460938 25.414062 46.523438 24.261719 47.023438 C 22.800781 47.664062 21.070312 47.371094 19.839844 46.394531 C 18.863281 45.621094 18.074219 44.675781 16.859375 44.253906 C 15.40625 43.75 13.683594 43.953125 12.414062 44.820312 C 11.242188 45.625 10.390625 46.851562 8.957031 47.21875 C 7.152344 47.683594 5.710938 46.957031 4.410156 45.78125 C 3.238281 44.722656 2.097656 44.023438 0.46875 43.992188 C -0.00390625 43.984375 -0.00390625 44.71875 0.46875 44.726562 " fill-opacity="1" fill-rule="nonzero"/></g><g clip-path="url(#df9862d86a)"><path fill="#163694" d="M 0.46875 48.695312 C 2.109375 48.726562 3.074219 49.558594 4.238281 50.578125 C 5.214844 51.433594 6.289062 51.996094 7.605469 52.046875 C 9.035156 52.105469 10.238281 51.597656 11.308594 50.683594 C 12.371094 49.769531 13.277344 48.839844 14.753906 48.710938 C 16.347656 48.574219 17.480469 49.242188 18.617188 50.265625 C 19.589844 51.144531 20.566406 51.859375 21.910156 52.015625 C 23.277344 52.171875 24.585938 51.820312 25.671875 50.980469 C 26.742188 50.148438 27.582031 49.074219 28.980469 48.785156 C 30.582031 48.453125 31.9375 49.011719 33.113281 50.058594 C 34.023438 50.871094 34.910156 51.675781 36.148438 51.9375 C 37.554688 52.234375 39.027344 51.976562 40.195312 51.132812 C 41.199219 50.40625 41.976562 49.359375 43.175781 48.929688 C 44.710938 48.382812 46.328125 48.777344 47.546875 49.800781 C 48.488281 50.589844 49.304688 51.480469 50.515625 51.847656 C 51.824219 52.242188 53.347656 52.097656 54.523438 51.398438 C 55.613281 50.75 56.375 49.65625 57.519531 49.09375 C 59.144531 48.296875 61.007812 48.714844 62.335938 49.851562 C 63.398438 50.765625 64.347656 51.726562 65.792969 51.972656 C 67.320312 52.234375 68.777344 51.847656 69.976562 50.882812 C 71.3125 49.808594 72.253906 48.730469 74.105469 48.695312 C 74.574219 48.6875 74.578125 47.953125 74.105469 47.960938 C 72.683594 47.988281 71.5625 48.511719 70.511719 49.433594 C 69.4375 50.378906 68.472656 51.25 66.964844 51.316406 C 65.300781 51.386719 64.257812 50.582031 63.085938 49.539062 C 62.132812 48.691406 61.117188 48.082031 59.816406 47.980469 C 58.449219 47.871094 57.203125 48.273438 56.140625 49.132812 C 55.0625 50 54.207031 51.039062 52.761719 51.265625 C 51.152344 51.523438 49.867188 50.898438 48.703125 49.851562 C 47.71875 48.964844 46.753906 48.191406 45.394531 48.011719 C 44.03125 47.832031 42.707031 48.148438 41.609375 48.976562 C 40.617188 49.730469 39.820312 50.761719 38.585938 51.140625 C 36.96875 51.632812 35.4375 51.136719 34.207031 50.0625 C 33.296875 49.265625 32.449219 48.429688 31.242188 48.121094 C 29.886719 47.773438 28.375 47.972656 27.203125 48.746094 C 26.171875 49.429688 25.414062 50.488281 24.261719 50.992188 C 22.800781 51.632812 21.070312 51.339844 19.839844 50.363281 C 18.863281 49.59375 18.074219 48.644531 16.859375 48.222656 C 15.40625 47.71875 13.683594 47.921875 12.414062 48.789062 C 11.242188 49.59375 10.390625 50.820312 8.957031 51.1875 C 7.152344 51.652344 5.710938 50.925781 4.410156 49.75 C 3.238281 48.691406 2.097656 47.992188 0.46875 47.960938 C -0.00390625 47.953125 -0.00390625 48.6875 0.46875 48.695312 " fill-opacity="1" fill-rule="nonzero"/></g><g clip-path="url(#1248cb638f)"><path fill="#163694" d="M 0.46875 52.664062 C 2.109375 52.695312 3.074219 53.527344 4.238281 54.546875 C 5.214844 55.402344 6.289062 55.964844 7.605469 56.015625 C 9.035156 56.074219 10.238281 55.566406 11.308594 54.652344 C 12.371094 53.738281 13.277344 52.808594 14.753906 52.679688 C 16.347656 52.542969 17.480469 53.210938 18.617188 54.234375 C 19.589844 55.113281 20.566406 55.828125 21.910156 55.984375 C 23.277344 56.140625 24.585938 55.792969 25.671875 54.949219 C 26.742188 54.117188 27.582031 53.042969 28.980469 52.753906 C 30.582031 52.421875 31.9375 52.980469 33.113281 54.027344 C 34.023438 54.839844 34.910156 55.648438 36.148438 55.90625 C 37.554688 56.203125 39.027344 55.945312 40.195312 55.101562 C 41.199219 54.375 41.976562 53.328125 43.175781 52.898438 C 44.710938 52.351562 46.328125 52.746094 47.546875 53.769531 C 48.488281 54.558594 49.304688 55.449219 50.515625 55.816406 C 51.824219 56.210938 53.347656 56.066406 54.523438 55.367188 C 55.613281 54.71875 56.375 53.625 57.519531 53.0625 C 59.144531 52.265625 61.007812 52.683594 62.335938 53.820312 C 63.398438 54.734375 64.347656 55.695312 65.792969 55.941406 C 67.320312 56.203125 68.777344 55.816406 69.976562 54.851562 C 71.3125 53.777344 72.253906 52.699219 74.105469 52.664062 C 74.574219 52.65625 74.578125 51.921875 74.105469 51.929688 C 72.683594 51.957031 71.5625 52.480469 70.511719 53.402344 C 69.4375 54.347656 68.472656 55.21875 66.964844 55.285156 C 65.300781 55.355469 64.257812 54.550781 63.085938 53.507812 C 62.132812 52.660156 61.117188 52.050781 59.816406 51.949219 C 58.449219 51.839844 57.203125 52.242188 56.140625 53.101562 C 55.0625 53.96875 54.207031 55.007812 52.761719 55.234375 C 51.152344 55.492188 49.867188 54.867188 48.703125 53.824219 C 47.71875 52.933594 46.753906 52.160156 45.394531 51.980469 C 44.03125 51.800781 42.707031 52.117188 41.609375 52.945312 C 40.617188 53.699219 39.820312 54.730469 38.585938 55.109375 C 36.96875 55.601562 35.4375 55.105469 34.207031 54.03125 C 33.296875 53.234375 32.449219 52.398438 31.242188 52.089844 C 29.886719 51.742188 28.375 51.941406 27.203125 52.714844 C 26.171875 53.398438 25.414062 54.457031 24.261719 54.960938 C 22.800781 55.601562 21.070312 55.308594 19.839844 54.332031 C 18.863281 53.5625 18.074219 52.613281 16.859375 52.191406 C 15.40625 51.6875 13.683594 51.890625 12.414062 52.757812 C 11.242188 53.5625 10.390625 54.789062 8.957031 55.15625 C 7.152344 55.621094 5.710938 54.894531 4.410156 53.71875 C 3.238281 52.660156 2.097656 51.960938 0.46875 51.929688 C -0.00390625 51.921875 -0.00390625 52.65625 0.46875 52.664062 " fill-opacity="1" fill-rule="nonzero"/></g></svg>