<svg xmlns="http://www.w3.org/2000/svg" xmlns:xlink="http://www.w3.org/1999/xlink" width="100" zoomAndPan="magnify" viewBox="0 0 75 74.999997" height="100" preserveAspectRatio="xMidYMid meet" version="1.0"><defs><clipPath id="1d94323894"><path d="M 18.816406 21.523438 L 56.316406 21.523438 L 56.316406 53.773438 L 18.816406 53.773438 Z M 18.816406 21.523438 " clip-rule="nonzero"/></clipPath></defs><g clip-path="url(#1d94323894)"><path fill="#163694" d="M 47.363281 42.769531 L 47.363281 42.015625 C 47.363281 41.742188 47.277344 41.523438 47.09375 41.320312 L 43.277344 37.148438 C 43.074219 36.925781 42.824219 36.816406 42.519531 36.816406 L 40.480469 36.816406 C 40.15625 36.816406 39.894531 37.078125 39.894531 37.402344 L 39.894531 42.769531 C 39.894531 42.921875 39.953125 43.074219 40.066406 43.183594 C 40.175781 43.292969 40.324219 43.355469 40.480469 43.355469 L 46.777344 43.355469 C 47.101562 43.355469 47.363281 43.089844 47.363281 42.769531 Z M 46.191406 42.183594 L 41.066406 42.183594 L 41.066406 37.988281 L 42.457031 37.988281 L 46.191406 42.070312 Z M 41.882812 44.609375 C 41.882812 44.933594 41.621094 45.195312 41.296875 45.195312 L 40.539062 45.195312 C 40.214844 45.195312 39.953125 44.933594 39.953125 44.609375 C 39.953125 44.285156 40.214844 44.023438 40.539062 44.023438 L 41.296875 44.023438 C 41.621094 44.023438 41.882812 44.285156 41.882812 44.609375 Z M 33.472656 38.71875 C 33.703125 38.945312 33.703125 39.316406 33.472656 39.546875 L 29.277344 43.742188 C 29.164062 43.855469 29.011719 43.914062 28.863281 43.914062 C 28.710938 43.914062 28.5625 43.855469 28.449219 43.742188 C 28.21875 43.515625 28.21875 43.144531 28.449219 42.914062 L 32.644531 38.71875 C 32.875 38.488281 33.246094 38.488281 33.472656 38.71875 Z M 24.691406 39.988281 C 24.464844 39.757812 24.464844 39.386719 24.691406 39.160156 L 28.886719 34.960938 C 29.117188 34.734375 29.488281 34.734375 29.71875 34.960938 C 29.945312 35.191406 29.945312 35.5625 29.71875 35.789062 L 25.519531 39.988281 C 25.40625 40.101562 25.257812 40.15625 25.105469 40.15625 C 24.957031 40.15625 24.808594 40.101562 24.691406 39.988281 Z M 24.636719 43.800781 C 24.40625 43.570312 24.40625 43.199219 24.636719 42.972656 L 32.703125 34.90625 C 32.929688 34.675781 33.300781 34.675781 33.53125 34.90625 C 33.757812 35.132812 33.757812 35.503906 33.53125 35.734375 L 25.464844 43.800781 C 25.351562 43.914062 25.199219 43.96875 25.050781 43.96875 C 24.898438 43.96875 24.75 43.914062 24.636719 43.800781 Z M 55.542969 29.777344 L 51.347656 25.1875 C 50.886719 24.683594 50.28125 24.414062 49.59375 24.414062 L 46.289062 24.414062 L 46.289062 23.28125 C 46.289062 22.316406 45.503906 21.527344 44.535156 21.527344 L 27.527344 21.527344 C 26.558594 21.527344 25.773438 22.316406 25.773438 23.28125 L 25.773438 26.84375 L 24.054688 26.84375 C 23.085938 26.84375 22.300781 27.632812 22.300781 28.601562 L 22.300781 32.164062 L 20.578125 32.164062 C 19.613281 32.164062 18.824219 32.949219 18.824219 33.917969 L 18.824219 49.335938 C 18.824219 50.304688 19.613281 51.089844 20.578125 51.089844 L 21.210938 51.089844 C 21.480469 52.449219 22.683594 53.476562 24.121094 53.476562 C 25.558594 53.476562 26.761719 52.449219 27.035156 51.089844 L 27.347656 51.089844 C 27.617188 52.449219 28.820312 53.476562 30.257812 53.476562 C 31.695312 53.476562 32.898438 52.449219 33.171875 51.089844 L 40.339844 51.089844 C 40.613281 52.449219 41.816406 53.476562 43.253906 53.476562 C 44.691406 53.476562 45.894531 52.449219 46.167969 51.089844 L 47.464844 51.089844 C 48.429688 51.089844 49.21875 50.304688 49.21875 49.335938 L 49.21875 45.773438 L 50.9375 45.773438 C 51.90625 45.773438 52.691406 44.984375 52.691406 44.019531 L 52.691406 40.453125 L 54.410156 40.453125 C 55.378906 40.453125 56.167969 39.667969 56.167969 38.699219 L 56.167969 31.378906 C 56.167969 30.769531 55.957031 30.230469 55.542969 29.777344 Z M 26.945312 23.28125 C 26.945312 22.960938 27.207031 22.699219 27.527344 22.699219 L 44.535156 22.699219 C 44.855469 22.699219 45.117188 22.960938 45.117188 23.28125 L 45.117188 29.734375 L 42.816406 29.734375 L 42.816406 28.601562 C 42.816406 27.632812 42.027344 26.84375 41.058594 26.84375 L 26.945312 26.84375 Z M 23.472656 28.601562 C 23.472656 28.277344 23.730469 28.015625 24.054688 28.015625 L 41.058594 28.015625 C 41.382812 28.015625 41.644531 28.277344 41.644531 28.601562 L 41.644531 35.050781 L 39.339844 35.050781 L 39.339844 33.917969 C 39.339844 32.949219 38.554688 32.164062 37.585938 32.164062 L 23.472656 32.164062 Z M 20.578125 33.335938 L 37.585938 33.335938 C 37.90625 33.335938 38.167969 33.597656 38.167969 33.917969 L 38.167969 45.371094 L 19.996094 45.371094 L 19.996094 33.917969 C 19.996094 33.597656 20.257812 33.335938 20.578125 33.335938 Z M 24.121094 52.304688 C 23.128906 52.304688 22.324219 51.496094 22.324219 50.503906 C 22.324219 49.511719 23.128906 48.703125 24.121094 48.703125 C 25.113281 48.703125 25.921875 49.511719 25.921875 50.503906 C 25.921875 51.496094 25.113281 52.304688 24.121094 52.304688 Z M 30.257812 52.304688 C 29.265625 52.304688 28.460938 51.496094 28.460938 50.503906 C 28.460938 49.511719 29.265625 48.703125 30.257812 48.703125 C 31.25 48.703125 32.058594 49.511719 32.058594 50.503906 C 32.058594 51.496094 31.25 52.304688 30.257812 52.304688 Z M 30.257812 47.535156 C 28.820312 47.535156 27.617188 48.558594 27.347656 49.917969 L 27.035156 49.917969 C 26.761719 48.558594 25.558594 47.535156 24.121094 47.535156 C 22.683594 47.535156 21.480469 48.558594 21.210938 49.917969 L 20.578125 49.917969 C 20.257812 49.917969 19.996094 49.65625 19.996094 49.335938 L 19.996094 46.542969 L 38.167969 46.542969 L 38.167969 49.917969 L 33.171875 49.917969 C 32.898438 48.558594 31.695312 47.535156 30.257812 47.535156 Z M 43.253906 52.304688 C 42.261719 52.304688 41.453125 51.496094 41.453125 50.503906 C 41.453125 49.511719 42.261719 48.703125 43.253906 48.703125 C 44.246094 48.703125 45.054688 49.511719 45.054688 50.503906 C 45.054688 51.496094 44.246094 52.304688 43.253906 52.304688 Z M 47.464844 49.917969 L 46.167969 49.917969 C 45.894531 48.558594 44.691406 47.535156 43.253906 47.535156 C 41.816406 47.535156 40.613281 48.558594 40.339844 49.917969 L 39.339844 49.917969 L 39.339844 36.222656 L 42.648438 36.222656 C 43.003906 36.222656 43.292969 36.351562 43.535156 36.613281 L 47.730469 41.203125 C 47.945312 41.4375 48.046875 41.699219 48.046875 42.015625 L 48.046875 45.433594 L 47.207031 45.433594 C 46.59375 45.433594 46.09375 45.933594 46.09375 46.546875 L 46.09375 47.808594 C 46.09375 48.421875 46.59375 48.921875 47.207031 48.921875 L 48.046875 48.921875 L 48.046875 49.335938 C 48.046875 49.65625 47.785156 49.917969 47.464844 49.917969 Z M 44.539062 35.976562 L 44.539062 32.667969 L 45.929688 32.667969 L 49.664062 36.753906 L 49.664062 36.863281 L 45.351562 36.863281 Z M 48.046875 46.601562 L 48.046875 47.75 L 47.265625 47.75 L 47.265625 46.601562 Z M 50.9375 44.601562 L 49.21875 44.601562 L 49.21875 42.015625 C 49.21875 41.40625 49.007812 40.863281 48.597656 40.414062 L 46.421875 38.035156 L 50.25 38.035156 C 50.574219 38.035156 50.835938 37.773438 50.835938 37.449219 L 50.835938 36.699219 C 50.835938 36.425781 50.75 36.203125 50.566406 36.003906 L 46.753906 31.832031 C 46.546875 31.605469 46.296875 31.496094 45.992188 31.496094 L 43.953125 31.496094 C 43.628906 31.496094 43.367188 31.757812 43.367188 32.082031 L 43.367188 35.160156 C 43.191406 35.105469 43.007812 35.070312 42.816406 35.058594 L 42.816406 30.90625 L 46.121094 30.90625 C 46.476562 30.90625 46.769531 31.03125 47.007812 31.296875 L 51.207031 35.886719 C 51.421875 36.121094 51.519531 36.378906 51.519531 36.699219 L 51.519531 40.113281 L 50.683594 40.113281 C 50.066406 40.113281 49.566406 40.613281 49.566406 41.230469 L 49.566406 42.488281 C 49.566406 43.105469 50.066406 43.605469 50.683594 43.605469 L 51.519531 43.605469 L 51.519531 44.019531 C 51.519531 44.339844 51.257812 44.601562 50.9375 44.601562 Z M 48.011719 30.660156 L 48.011719 27.351562 L 49.40625 27.351562 L 53.140625 31.433594 L 53.140625 31.546875 L 48.824219 31.546875 Z M 51.519531 41.285156 L 51.519531 42.433594 L 50.738281 42.433594 L 50.738281 41.285156 Z M 54.410156 39.28125 L 52.691406 39.28125 L 52.691406 36.699219 C 52.691406 36.085938 52.484375 35.546875 52.070312 35.097656 L 49.894531 32.71875 L 53.726562 32.71875 C 54.046875 32.71875 54.3125 32.457031 54.3125 32.132812 L 54.3125 31.378906 C 54.3125 31.105469 54.226562 30.886719 54.039062 30.683594 L 50.226562 26.515625 C 50.023438 26.289062 49.773438 26.179688 49.46875 26.179688 L 47.425781 26.179688 C 47.105469 26.179688 46.839844 26.441406 46.839844 26.765625 L 46.839844 29.839844 C 46.664062 29.785156 46.480469 29.753906 46.289062 29.738281 L 46.289062 25.585938 L 49.59375 25.585938 C 49.953125 25.585938 50.242188 25.714844 50.484375 25.976562 L 54.679688 30.570312 C 54.894531 30.804688 54.996094 31.0625 54.996094 31.378906 L 54.996094 34.796875 L 54.15625 34.796875 C 53.542969 34.796875 53.042969 35.296875 53.042969 35.910156 L 53.042969 37.171875 C 53.042969 37.785156 53.542969 38.285156 54.15625 38.285156 L 54.996094 38.285156 L 54.996094 38.699219 C 54.996094 39.019531 54.734375 39.28125 54.410156 39.28125 Z M 54.996094 35.96875 L 54.996094 37.117188 L 54.210938 37.117188 L 54.210938 35.96875 Z M 54.996094 35.96875 " fill-opacity="1" fill-rule="nonzero"/></g></svg>