<svg xmlns="http://www.w3.org/2000/svg" xmlns:xlink="http://www.w3.org/1999/xlink" width="100" zoomAndPan="magnify" viewBox="0 0 75 74.999997" height="100" preserveAspectRatio="xMidYMid meet" version="1.0"><defs><clipPath id="cf687b2421"><path d="M 18.75 18.75 L 56.25 18.75 L 56.25 56.25 L 18.75 56.25 Z M 18.75 18.75 " clip-rule="nonzero"/></clipPath></defs><g clip-path="url(#cf687b2421)"><path fill="#163694" d="M 43.117188 43.652344 L 40.796875 43.707031 C 40.792969 43.707031 40.789062 43.707031 40.785156 43.707031 C 40.5 43.707031 40.261719 43.476562 40.253906 43.1875 C 40.246094 42.894531 40.480469 42.652344 40.773438 42.644531 L 41.851562 42.617188 L 37.5 38.265625 L 33.148438 42.617188 L 34.226562 42.644531 C 34.519531 42.652344 34.753906 42.894531 34.746094 43.1875 C 34.738281 43.476562 34.5 43.707031 34.214844 43.707031 C 34.210938 43.707031 34.207031 43.707031 34.203125 43.707031 L 31.882812 43.652344 C 31.597656 43.644531 31.371094 43.414062 31.363281 43.132812 L 31.308594 40.8125 C 31.300781 40.519531 31.535156 40.277344 31.828125 40.269531 C 32.121094 40.265625 32.363281 40.496094 32.371094 40.789062 L 32.394531 41.867188 L 37.125 37.140625 C 37.332031 36.933594 37.667969 36.933594 37.875 37.140625 L 42.605469 41.867188 L 42.628906 40.789062 C 42.636719 40.496094 42.878906 40.261719 43.171875 40.269531 C 43.464844 40.277344 43.699219 40.519531 43.691406 40.8125 L 43.636719 43.132812 C 43.628906 43.414062 43.402344 43.644531 43.117188 43.652344 Z M 32.335938 48.207031 C 32.351562 48.261719 32.363281 48.316406 32.363281 48.375 C 32.363281 49.125 31.859375 49.78125 31.109375 50.148438 L 31.109375 55.71875 C 31.109375 56.011719 30.871094 56.25 30.578125 56.25 L 20.542969 56.25 C 20.25 56.25 20.011719 56.011719 20.011719 55.71875 L 20.011719 50.148438 C 19.261719 49.78125 18.757812 49.125 18.757812 48.375 C 18.757812 48.316406 18.765625 48.261719 18.785156 48.207031 L 20.039062 44.453125 C 20.109375 44.238281 20.3125 44.09375 20.542969 44.09375 L 30.578125 44.09375 C 30.804688 44.09375 31.007812 44.238281 31.082031 44.453125 Z M 30.195312 45.152344 L 27.886719 45.152344 L 28.132812 47.84375 L 31.09375 47.84375 Z M 24.238281 48.90625 C 24.519531 49.195312 25.011719 49.394531 25.558594 49.394531 C 26.109375 49.394531 26.601562 49.195312 26.878906 48.90625 Z M 27.066406 47.84375 L 26.820312 45.152344 L 24.296875 45.152344 L 24.050781 47.84375 Z M 28.417969 48.90625 C 28.699219 49.195312 29.191406 49.394531 29.738281 49.394531 C 30.289062 49.394531 30.785156 49.195312 31.0625 48.90625 Z M 20.027344 47.84375 L 22.984375 47.84375 L 23.230469 45.152344 L 20.925781 45.152344 Z M 20.058594 48.90625 C 20.335938 49.195312 20.828125 49.394531 21.378906 49.394531 C 21.929688 49.394531 22.421875 49.195312 22.699219 48.90625 Z M 23.902344 52.132812 L 22.632812 52.132812 L 22.632812 55.1875 L 23.902344 55.1875 Z M 30.046875 50.441406 C 29.945312 50.449219 29.84375 50.457031 29.738281 50.457031 C 28.886719 50.457031 28.128906 50.128906 27.648438 49.628906 C 27.171875 50.128906 26.414062 50.457031 25.558594 50.457031 C 24.707031 50.457031 23.949219 50.128906 23.46875 49.628906 C 22.992188 50.128906 22.230469 50.457031 21.378906 50.457031 C 21.277344 50.457031 21.175781 50.449219 21.074219 50.441406 L 21.074219 55.1875 L 21.570312 55.1875 L 21.570312 51.601562 C 21.570312 51.308594 21.808594 51.070312 22.101562 51.070312 L 24.433594 51.070312 C 24.726562 51.070312 24.964844 51.308594 24.964844 51.601562 L 24.964844 55.1875 L 30.046875 55.1875 Z M 29.546875 51.601562 L 29.546875 54.101562 C 29.546875 54.394531 29.308594 54.632812 29.015625 54.632812 L 26.097656 54.632812 C 25.804688 54.632812 25.566406 54.394531 25.566406 54.101562 L 25.566406 51.601562 C 25.566406 51.308594 25.804688 51.070312 26.097656 51.070312 L 29.015625 51.070312 C 29.308594 51.070312 29.546875 51.308594 29.546875 51.601562 Z M 28.484375 52.132812 L 26.628906 52.132812 L 26.628906 53.570312 L 28.484375 53.570312 Z M 53.429688 51.601562 L 53.429688 54.101562 C 53.429688 54.394531 53.191406 54.632812 52.898438 54.632812 L 49.980469 54.632812 C 49.683594 54.632812 49.449219 54.394531 49.449219 54.101562 L 49.449219 51.601562 C 49.449219 51.308594 49.683594 51.070312 49.980469 51.070312 L 52.898438 51.070312 C 53.191406 51.070312 53.429688 51.308594 53.429688 51.601562 Z M 52.367188 52.132812 L 50.511719 52.132812 L 50.511719 53.570312 L 52.367188 53.570312 Z M 54.988281 50.148438 L 54.988281 55.71875 C 54.988281 56.011719 54.75 56.25 54.457031 56.25 L 44.421875 56.25 C 44.128906 56.25 43.890625 56.011719 43.890625 55.71875 L 43.890625 50.148438 C 43.140625 49.78125 42.636719 49.125 42.636719 48.375 C 42.636719 48.316406 42.648438 48.261719 42.664062 48.207031 L 43.917969 44.453125 C 43.992188 44.238281 44.195312 44.09375 44.421875 44.09375 L 54.457031 44.09375 C 54.6875 44.09375 54.890625 44.238281 54.960938 44.453125 L 56.214844 48.207031 C 56.234375 48.261719 56.242188 48.316406 56.242188 48.375 C 56.242188 49.125 55.738281 49.78125 54.988281 50.148438 Z M 48.121094 48.90625 C 48.398438 49.195312 48.890625 49.394531 49.441406 49.394531 C 49.988281 49.394531 50.480469 49.195312 50.761719 48.90625 Z M 50.949219 47.84375 L 50.703125 45.152344 L 48.179688 45.152344 L 47.933594 47.84375 Z M 54.074219 45.152344 L 51.769531 45.152344 L 52.015625 47.84375 L 54.972656 47.84375 Z M 52.300781 48.90625 C 52.578125 49.195312 53.070312 49.394531 53.621094 49.394531 C 54.171875 49.394531 54.664062 49.195312 54.941406 48.90625 Z M 43.90625 47.84375 L 46.867188 47.84375 L 47.113281 45.152344 L 44.804688 45.152344 Z M 43.9375 48.90625 C 44.21875 49.195312 44.710938 49.394531 45.261719 49.394531 C 45.808594 49.394531 46.300781 49.195312 46.582031 48.90625 Z M 47.78125 52.132812 L 46.515625 52.132812 L 46.515625 55.1875 L 47.78125 55.1875 Z M 53.925781 50.441406 C 53.824219 50.449219 53.722656 50.457031 53.621094 50.457031 C 52.769531 50.457031 52.011719 50.128906 51.53125 49.628906 C 51.050781 50.128906 50.292969 50.457031 49.441406 50.457031 C 48.589844 50.457031 47.828125 50.128906 47.351562 49.628906 C 46.871094 50.128906 46.113281 50.457031 45.261719 50.457031 C 45.15625 50.457031 45.054688 50.449219 44.953125 50.441406 L 44.953125 55.1875 L 45.453125 55.1875 L 45.453125 51.601562 C 45.453125 51.308594 45.691406 51.070312 45.984375 51.070312 L 48.3125 51.070312 C 48.609375 51.070312 48.84375 51.308594 48.84375 51.601562 L 48.84375 55.1875 L 53.925781 55.1875 Z M 28.828125 25.128906 L 28.828125 23.179688 C 28.828125 22.972656 28.945312 22.789062 29.128906 22.699219 L 37.269531 18.816406 C 37.414062 18.746094 37.582031 18.746094 37.730469 18.816406 L 45.871094 22.699219 C 46.054688 22.789062 46.171875 22.972656 46.171875 23.179688 L 46.171875 25.128906 C 46.171875 25.421875 45.933594 25.660156 45.640625 25.660156 L 45.40625 25.660156 L 45.40625 35.578125 C 45.40625 35.871094 45.171875 36.109375 44.875 36.109375 L 30.125 36.109375 C 29.828125 36.109375 29.59375 35.871094 29.59375 35.578125 L 29.59375 25.660156 L 29.359375 25.660156 C 29.066406 25.660156 28.828125 25.421875 28.828125 25.128906 Z M 38.789062 35.046875 L 40.023438 35.046875 L 40.023438 33.816406 L 38.789062 33.816406 Z M 37.726562 33.816406 L 36.492188 33.816406 L 36.492188 35.046875 L 37.726562 35.046875 Z M 42.320312 31.519531 L 41.085938 31.519531 L 41.085938 32.753906 L 42.320312 32.753906 Z M 40.023438 31.519531 L 38.789062 31.519531 L 38.789062 32.753906 L 40.023438 32.753906 Z M 41.085938 35.046875 L 42.320312 35.046875 L 42.320312 33.816406 L 41.085938 33.816406 Z M 42.320312 30.457031 L 42.320312 29.222656 L 41.085938 29.222656 L 41.085938 30.457031 Z M 42.320312 27.660156 L 32.679688 27.660156 L 32.679688 35.046875 L 35.429688 35.046875 L 35.429688 33.285156 C 35.429688 32.988281 35.667969 32.753906 35.960938 32.753906 L 37.726562 32.753906 L 37.726562 30.988281 C 37.726562 30.695312 37.964844 30.457031 38.257812 30.457031 L 40.023438 30.457031 L 40.023438 28.691406 C 40.023438 28.398438 40.261719 28.160156 40.554688 28.160156 L 42.320312 28.160156 Z M 44.34375 25.660156 L 30.65625 25.660156 L 30.65625 35.046875 L 31.617188 35.046875 L 31.617188 27.128906 C 31.617188 26.835938 31.855469 26.597656 32.148438 26.597656 L 42.851562 26.597656 C 43.144531 26.597656 43.382812 26.835938 43.382812 27.128906 L 43.382812 35.046875 L 44.34375 35.046875 Z M 29.890625 24.597656 L 45.109375 24.597656 L 45.109375 23.511719 L 37.5 19.882812 L 29.890625 23.511719 Z M 41.832031 22.789062 L 33.167969 22.789062 C 32.875 22.789062 32.640625 23.027344 32.640625 23.320312 C 32.640625 23.613281 32.875 23.851562 33.167969 23.851562 L 41.832031 23.851562 C 42.125 23.851562 42.359375 23.613281 42.359375 23.320312 C 42.359375 23.027344 42.125 22.789062 41.832031 22.789062 Z M 41.832031 22.789062 " fill-opacity="1" fill-rule="nonzero"/></g></svg>