<svg xmlns="http://www.w3.org/2000/svg" xmlns:xlink="http://www.w3.org/1999/xlink" width="100" zoomAndPan="magnify" viewBox="0 0 75 74.999997" height="100" preserveAspectRatio="xMidYMid meet" version="1.0"><defs><clipPath id="4a42d12ea4"><path d="M 18.839844 21.898438 L 56.339844 21.898438 L 56.339844 53.398438 L 18.839844 53.398438 Z M 18.839844 21.898438 " clip-rule="nonzero"/></clipPath></defs><g clip-path="url(#4a42d12ea4)"><path fill="#fefefe" d="M 55.519531 24.011719 L 52.734375 24.011719 L 52.734375 22.5 C 52.734375 22.167969 52.464844 21.898438 52.132812 21.898438 C 45.21875 21.898438 43 22.5 38.574219 23.699219 C 38.230469 23.792969 37.871094 23.890625 37.496094 23.988281 C 37.125 23.890625 36.765625 23.792969 36.421875 23.699219 C 31.996094 22.5 29.777344 21.898438 22.859375 21.898438 C 22.53125 21.898438 22.261719 22.167969 22.261719 22.5 L 22.261719 24.011719 L 19.476562 24.011719 C 19.144531 24.011719 18.875 24.28125 18.875 24.613281 L 18.875 50.542969 C 18.875 50.875 19.144531 51.144531 19.476562 51.144531 L 34.277344 51.144531 L 34.277344 51.152344 C 34.277344 52.222656 35.144531 53.089844 36.210938 53.089844 L 38.8125 53.089844 C 39.878906 53.089844 40.75 52.222656 40.75 51.152344 L 40.75 51.144531 L 55.519531 51.144531 C 55.851562 51.144531 56.121094 50.875 56.121094 50.542969 L 56.121094 24.613281 C 56.121094 24.28125 55.851562 24.011719 55.519531 24.011719 Z M 38.890625 24.859375 C 43.210938 23.6875 45.253906 23.132812 51.535156 23.101562 L 51.535156 46.988281 C 45.6875 47.039062 41.273438 47.816406 38.097656 49.359375 L 38.097656 25.074219 C 38.371094 25 38.632812 24.925781 38.890625 24.859375 Z M 23.460938 23.101562 C 29.742188 23.132812 31.785156 23.6875 36.105469 24.859375 C 36.363281 24.925781 36.625 25 36.898438 25.074219 L 36.898438 49.359375 C 33.722656 47.816406 29.308594 47.039062 23.460938 46.988281 Z M 54.921875 49.941406 L 40.148438 49.941406 C 39.816406 49.941406 39.546875 50.210938 39.546875 50.542969 L 39.546875 51.152344 C 39.546875 51.558594 39.21875 51.890625 38.8125 51.890625 L 36.210938 51.890625 C 35.808594 51.890625 35.476562 51.558594 35.476562 51.152344 L 35.476562 50.542969 C 35.476562 50.210938 35.207031 49.941406 34.875 49.941406 L 20.074219 49.941406 L 20.074219 25.210938 L 22.261719 25.210938 L 22.261719 47.589844 C 22.261719 47.921875 22.53125 48.1875 22.859375 48.1875 C 29.375 48.1875 34.0625 49.070312 37.199219 50.878906 C 37.289062 50.929688 37.394531 50.957031 37.496094 50.957031 C 37.601562 50.957031 37.707031 50.929688 37.796875 50.878906 C 40.933594 49.070312 45.621094 48.1875 52.132812 48.1875 C 52.464844 48.1875 52.734375 47.921875 52.734375 47.589844 L 52.734375 25.210938 L 54.921875 25.210938 Z M 35.820312 32.824219 L 30.480469 29.742188 C 30.292969 29.632812 30.066406 29.632812 29.878906 29.742188 L 24.539062 32.824219 C 24.351562 32.933594 24.238281 33.128906 24.238281 33.34375 L 24.238281 39.511719 C 24.238281 39.726562 24.351562 39.925781 24.539062 40.03125 L 29.878906 43.117188 C 29.972656 43.167969 30.074219 43.195312 30.179688 43.195312 C 30.285156 43.195312 30.386719 43.167969 30.480469 43.117188 L 35.820312 40.03125 C 36.007812 39.925781 36.121094 39.726562 36.121094 39.511719 L 36.121094 33.34375 C 36.121094 33.128906 36.007812 32.933594 35.820312 32.824219 Z M 30.179688 35.734375 L 29.484375 35.332031 L 33.625 32.945312 L 34.320312 33.34375 Z M 27.9375 34.441406 L 32.074219 32.050781 L 32.421875 32.25 L 28.285156 34.640625 Z M 27.335938 35.480469 L 27.683594 35.679688 L 27.683594 36.722656 L 27.335938 36.519531 Z M 30.179688 30.957031 L 30.875 31.355469 L 26.734375 33.746094 L 26.039062 33.34375 Z M 25.441406 34.386719 L 26.132812 34.785156 L 26.132812 36.867188 C 26.132812 37.082031 26.25 37.28125 26.433594 37.386719 L 27.984375 38.28125 C 28.078125 38.335938 28.179688 38.363281 28.285156 38.363281 C 28.386719 38.363281 28.492188 38.335938 28.585938 38.28125 C 28.769531 38.175781 28.882812 37.976562 28.882812 37.761719 L 28.882812 36.375 L 29.578125 36.773438 L 29.578125 41.554688 L 25.441406 39.164062 Z M 30.78125 41.554688 L 30.78125 36.773438 L 34.917969 34.386719 L 34.917969 39.164062 Z M 44.464844 32.054688 C 44.464844 31.722656 44.734375 31.453125 45.066406 31.453125 L 49.628906 31.453125 C 49.960938 31.453125 50.230469 31.722656 50.230469 32.054688 C 50.230469 32.386719 49.960938 32.65625 49.628906 32.65625 L 45.066406 32.65625 C 44.734375 32.65625 44.464844 32.386719 44.464844 32.054688 Z M 44.464844 30.113281 C 44.464844 29.78125 44.734375 29.511719 45.066406 29.511719 L 49.628906 29.511719 C 49.960938 29.511719 50.230469 29.78125 50.230469 30.113281 C 50.230469 30.445312 49.960938 30.714844 49.628906 30.714844 L 45.066406 30.714844 C 44.734375 30.714844 44.464844 30.445312 44.464844 30.113281 Z M 44.464844 35.457031 C 44.464844 35.125 44.734375 34.855469 45.066406 34.855469 L 49.628906 34.855469 C 49.960938 34.855469 50.230469 35.125 50.230469 35.457031 C 50.230469 35.789062 49.960938 36.058594 49.628906 36.058594 L 45.066406 36.058594 C 44.734375 36.058594 44.464844 35.789062 44.464844 35.457031 Z M 44.464844 37.398438 C 44.464844 37.066406 44.734375 36.796875 45.066406 36.796875 L 49.628906 36.796875 C 49.960938 36.796875 50.230469 37.066406 50.230469 37.398438 C 50.230469 37.730469 49.960938 38 49.628906 38 L 45.066406 38 C 44.734375 38 44.464844 37.730469 44.464844 37.398438 Z M 44.464844 42.746094 C 44.464844 42.414062 44.734375 42.144531 45.066406 42.144531 L 49.628906 42.144531 C 49.960938 42.144531 50.230469 42.414062 50.230469 42.746094 C 50.230469 43.074219 49.960938 43.34375 49.628906 43.34375 L 45.066406 43.34375 C 44.734375 43.34375 44.464844 43.074219 44.464844 42.746094 Z M 44.464844 40.800781 C 44.464844 40.46875 44.734375 40.203125 45.066406 40.203125 L 49.628906 40.203125 C 49.960938 40.203125 50.230469 40.46875 50.230469 40.800781 C 50.230469 41.132812 49.960938 41.402344 49.628906 41.402344 L 45.066406 41.402344 C 44.734375 41.402344 44.464844 41.132812 44.464844 40.800781 Z M 40.542969 33.042969 L 42.183594 33.042969 C 42.8125 33.042969 43.324219 32.53125 43.324219 31.902344 L 43.324219 30.265625 C 43.324219 29.636719 42.8125 29.125 42.183594 29.125 L 40.542969 29.125 C 39.914062 29.125 39.402344 29.636719 39.402344 30.265625 L 39.402344 31.902344 C 39.402344 32.53125 39.914062 33.042969 40.542969 33.042969 Z M 40.605469 30.324219 L 42.121094 30.324219 L 42.121094 31.84375 L 40.605469 31.84375 Z M 40.542969 38.386719 L 42.183594 38.386719 C 42.8125 38.386719 43.324219 37.875 43.324219 37.246094 L 43.324219 35.609375 C 43.324219 34.980469 42.8125 34.46875 42.183594 34.46875 L 40.542969 34.46875 C 39.914062 34.46875 39.402344 34.980469 39.402344 35.609375 L 39.402344 37.246094 C 39.402344 37.875 39.914062 38.386719 40.542969 38.386719 Z M 40.605469 35.667969 L 42.121094 35.667969 L 42.121094 37.1875 L 40.605469 37.1875 Z M 40.542969 43.734375 L 42.183594 43.734375 C 42.8125 43.734375 43.324219 43.222656 43.324219 42.59375 L 43.324219 40.953125 C 43.324219 40.324219 42.8125 39.8125 42.183594 39.8125 L 40.542969 39.8125 C 39.914062 39.8125 39.402344 40.324219 39.402344 40.953125 L 39.402344 42.59375 C 39.402344 43.222656 39.914062 43.734375 40.542969 43.734375 Z M 40.605469 41.015625 L 42.121094 41.015625 L 42.121094 42.53125 L 40.605469 42.53125 Z M 40.605469 41.015625 " fill-opacity="1" fill-rule="nonzero"/></g></svg>