<svg xmlns="http://www.w3.org/2000/svg" xmlns:xlink="http://www.w3.org/1999/xlink" width="100" zoomAndPan="magnify" viewBox="0 0 75 74.999997" height="100" preserveAspectRatio="xMidYMid meet" version="1.0"><defs><clipPath id="6787808985"><path d="M 10.511719 28.941406 L 64.511719 28.941406 L 64.511719 46.191406 L 10.511719 46.191406 Z M 10.511719 28.941406 " clip-rule="nonzero"/></clipPath></defs><g clip-path="url(#6787808985)"><path fill="#163694" d="M 33.992188 28.9375 L 33.972656 28.9375 C 30.9375 29.101562 28.292969 29.976562 26.035156 31.5625 L 26.03125 31.566406 C 25.019531 32.3125 24.097656 33.144531 23.273438 34.066406 L 23.265625 34.078125 C 18.585938 39.976562 16.019531 43.023438 15.574219 43.21875 L 15.570312 43.21875 C 15.542969 43.230469 15.515625 43.246094 15.492188 43.269531 C 13.878906 44.753906 12.300781 45.523438 10.757812 45.570312 C 10.625 45.574219 10.523438 45.683594 10.527344 45.8125 C 10.53125 45.941406 10.636719 46.042969 10.765625 46.042969 C 10.765625 46.042969 10.769531 46.042969 10.769531 46.042969 C 12.421875 45.992188 14.09375 45.195312 15.78125 43.648438 L 15.777344 43.648438 C 16.335938 43.367188 18.949219 40.28125 23.628906 34.386719 C 24.429688 33.488281 25.324219 32.675781 26.308594 31.953125 C 28.488281 30.417969 31.050781 29.574219 33.988281 29.414062 C 37.914062 29.527344 40.09375 30.898438 40.519531 33.53125 L 40.515625 33.53125 C 40.496094 34.257812 40.40625 34.707031 40.25 34.878906 C 38.722656 33.945312 37.304688 33.476562 35.988281 33.476562 C 34.445312 33.476562 33.046875 34.117188 31.792969 35.40625 C 31.78125 35.417969 31.769531 35.433594 31.761719 35.449219 C 31.707031 35.53125 31.65625 35.617188 31.609375 35.703125 C 30.171875 38.25 31.011719 40.402344 34.125 42.15625 L 34.136719 42.160156 C 35.601562 42.890625 37.558594 43.257812 40.011719 43.257812 C 40.386719 43.257812 40.777344 43.246094 41.175781 43.230469 C 43.132812 43.160156 46.128906 42.582031 50.175781 41.492188 L 50.171875 41.492188 C 50.445312 41.4375 50.777344 41.410156 51.171875 41.410156 C 51.335938 41.410156 51.507812 41.414062 51.695312 41.425781 L 51.691406 41.425781 C 51.753906 41.429688 51.804688 41.4375 51.851562 41.445312 C 51.011719 42.046875 50.628906 42.664062 50.703125 43.292969 C 50.757812 43.804688 51.261719 44.195312 52.214844 44.46875 C 52.46875 44.558594 52.761719 44.601562 53.101562 44.601562 C 54.121094 44.601562 55.527344 44.195312 57.324219 43.378906 L 57.328125 43.378906 C 58.390625 44.582031 59.671875 45.183594 61.167969 45.183594 C 62.121094 45.183594 63.160156 44.941406 64.285156 44.457031 C 64.40625 44.40625 64.460938 44.265625 64.410156 44.144531 C 64.371094 44.054688 64.285156 44 64.191406 44 C 64.160156 44 64.128906 44.007812 64.097656 44.019531 C 63.042969 44.472656 62.074219 44.699219 61.191406 44.699219 C 59.765625 44.699219 58.558594 44.113281 57.574219 42.9375 C 57.527344 42.882812 57.460938 42.851562 57.390625 42.851562 C 57.355469 42.851562 57.324219 42.859375 57.292969 42.875 C 55.46875 43.710938 54.078125 44.132812 53.121094 44.132812 C 52.828125 44.132812 52.574219 44.09375 52.363281 44.015625 L 52.34375 44.007812 C 51.59375 43.796875 51.203125 43.542969 51.175781 43.242188 L 51.175781 43.234375 C 51.117188 42.742188 51.515625 42.214844 52.378906 41.660156 C 52.429688 41.625 52.464844 41.574219 52.480469 41.515625 C 52.519531 41.359375 52.472656 41.230469 52.339844 41.125 C 52.269531 41.070312 52.175781 41.03125 52.054688 41 C 51.960938 40.976562 51.851562 40.960938 51.726562 40.949219 L 51.707031 40.949219 L 51.71875 40.949219 C 51.527344 40.941406 51.34375 40.933594 51.175781 40.933594 C 50.746094 40.933594 50.378906 40.964844 50.078125 41.027344 L 50.0625 41.03125 C 46.046875 42.109375 43.082031 42.6875 41.160156 42.753906 L 41.15625 42.753906 C 40.761719 42.773438 40.378906 42.78125 40.007812 42.78125 C 37.640625 42.78125 35.757812 42.433594 34.359375 41.742188 C 31.523438 40.140625 30.742188 38.207031 32.023438 35.933594 C 32.0625 35.867188 32.101562 35.796875 32.144531 35.726562 L 32.140625 35.726562 C 33.292969 34.550781 34.582031 33.964844 36.003906 33.964844 C 37.269531 33.964844 38.644531 34.429688 40.125 35.363281 C 40.164062 35.390625 40.207031 35.402344 40.253906 35.402344 C 40.285156 35.402344 40.316406 35.394531 40.34375 35.382812 C 40.753906 35.210938 40.96875 34.582031 40.992188 33.5 C 40.992188 33.488281 40.992188 33.472656 40.988281 33.457031 C 40.523438 30.5625 38.1875 29.058594 33.992188 28.9375 Z M 33.992188 28.9375 " fill-opacity="0.996" fill-rule="nonzero"/></g></svg>