<svg xmlns="http://www.w3.org/2000/svg" xmlns:xlink="http://www.w3.org/1999/xlink" width="100" zoomAndPan="magnify" viewBox="0 0 75 74.999997" height="100" preserveAspectRatio="xMidYMid meet" version="1.0"><defs><clipPath id="06665bd0a5"><path d="M 0.777344 23.542969 L 74.753906 23.542969 L 74.753906 47 L 0.777344 47 Z M 0.777344 23.542969 " clip-rule="nonzero"/></clipPath></defs><g clip-path="url(#06665bd0a5)"><path fill="#163694" d="M 32.945312 23.535156 L 32.917969 23.535156 C 28.757812 23.761719 25.136719 24.960938 22.042969 27.132812 L 22.039062 27.136719 C 20.652344 28.160156 19.386719 29.300781 18.257812 30.5625 L 18.25 30.578125 C 11.835938 38.660156 8.320312 42.832031 7.710938 43.101562 L 7.707031 43.101562 C 7.667969 43.117188 7.628906 43.140625 7.597656 43.171875 C 5.386719 45.203125 3.226562 46.257812 1.113281 46.324219 C 0.929688 46.328125 0.792969 46.476562 0.796875 46.65625 C 0.800781 46.832031 0.945312 46.96875 1.125 46.96875 C 1.125 46.96875 1.128906 46.96875 1.128906 46.96875 C 3.390625 46.902344 5.683594 45.808594 7.996094 43.691406 L 7.988281 43.691406 C 8.753906 43.304688 12.335938 39.078125 18.746094 31 C 19.84375 29.769531 21.070312 28.65625 22.417969 27.667969 C 25.402344 25.5625 28.914062 24.410156 32.9375 24.1875 C 38.316406 24.34375 41.304688 26.222656 41.886719 29.828125 L 41.878906 29.828125 C 41.855469 30.824219 41.730469 31.441406 41.515625 31.675781 C 39.425781 30.398438 37.480469 29.753906 35.679688 29.753906 C 33.566406 29.753906 31.648438 30.632812 29.929688 32.398438 C 29.914062 32.414062 29.898438 32.4375 29.886719 32.457031 C 29.8125 32.570312 29.742188 32.6875 29.679688 32.804688 C 27.710938 36.292969 28.859375 39.242188 33.125 41.644531 L 33.140625 41.652344 C 35.148438 42.652344 37.828125 43.15625 41.191406 43.15625 C 41.703125 43.15625 42.238281 43.140625 42.785156 43.117188 C 45.464844 43.019531 49.570312 42.230469 55.117188 40.734375 L 55.109375 40.734375 C 55.484375 40.660156 55.9375 40.625 56.480469 40.625 C 56.703125 40.625 56.941406 40.628906 57.195312 40.644531 L 57.191406 40.644531 C 57.277344 40.648438 57.347656 40.660156 57.410156 40.671875 C 56.261719 41.496094 55.734375 42.339844 55.835938 43.203125 C 55.914062 43.902344 56.601562 44.4375 57.910156 44.8125 C 58.257812 44.9375 58.65625 44.996094 59.125 44.996094 C 60.519531 44.996094 62.445312 44.4375 64.910156 43.320312 L 64.914062 43.320312 C 66.371094 44.96875 68.125 45.792969 70.175781 45.792969 C 71.480469 45.792969 72.902344 45.460938 74.445312 44.796875 C 74.609375 44.726562 74.6875 44.535156 74.617188 44.371094 C 74.5625 44.246094 74.445312 44.171875 74.316406 44.171875 C 74.273438 44.171875 74.230469 44.183594 74.1875 44.199219 C 72.742188 44.820312 71.417969 45.128906 70.207031 45.128906 C 68.253906 45.128906 66.601562 44.328125 65.25 42.714844 C 65.1875 42.640625 65.097656 42.597656 65 42.597656 C 64.953125 42.597656 64.910156 42.609375 64.867188 42.628906 C 62.367188 43.777344 60.460938 44.355469 59.148438 44.355469 C 58.75 44.355469 58.402344 44.300781 58.113281 44.191406 L 58.085938 44.183594 C 57.058594 43.894531 56.523438 43.546875 56.484375 43.132812 L 56.484375 43.121094 C 56.40625 42.449219 56.949219 41.726562 58.132812 40.964844 C 58.203125 40.917969 58.25 40.847656 58.273438 40.769531 C 58.328125 40.554688 58.261719 40.378906 58.078125 40.234375 C 57.984375 40.15625 57.855469 40.105469 57.6875 40.0625 C 57.5625 40.03125 57.410156 40.007812 57.238281 39.992188 L 57.214844 39.992188 L 57.230469 39.992188 C 56.96875 39.980469 56.714844 39.96875 56.484375 39.96875 C 55.898438 39.96875 55.394531 40.011719 54.980469 40.097656 L 54.960938 40.105469 C 49.457031 41.582031 45.398438 42.375 42.765625 42.464844 L 42.757812 42.464844 C 42.21875 42.492188 41.695312 42.503906 41.183594 42.503906 C 37.941406 42.503906 35.363281 42.027344 33.445312 41.078125 C 29.5625 38.882812 28.492188 36.234375 30.246094 33.121094 C 30.300781 33.03125 30.355469 32.933594 30.414062 32.835938 L 30.40625 32.835938 C 31.984375 31.226562 33.75 30.421875 35.699219 30.421875 C 37.433594 30.421875 39.316406 31.058594 41.34375 32.339844 C 41.398438 32.375 41.457031 32.394531 41.523438 32.394531 C 41.566406 32.394531 41.609375 32.382812 41.644531 32.367188 C 42.207031 32.128906 42.5 31.269531 42.535156 29.785156 C 42.535156 29.769531 42.535156 29.75 42.527344 29.726562 C 41.890625 25.761719 38.691406 23.703125 32.945312 23.535156 Z M 32.945312 23.535156 " fill-opacity="0.996" fill-rule="nonzero"/></g></svg>