<svg xmlns="http://www.w3.org/2000/svg" xmlns:xlink="http://www.w3.org/1999/xlink" width="100" zoomAndPan="magnify" viewBox="0 0 75 74.999997" height="100" preserveAspectRatio="xMidYMid meet" version="1.0"><defs><clipPath id="8a381d856d"><path d="M 18.75 18.75 L 56.25 18.75 L 56.25 56.25 L 18.75 56.25 Z M 18.75 18.75 " clip-rule="nonzero"/></clipPath></defs><g clip-path="url(#8a381d856d)"><path fill="#163694" d="M 37.5 56.25 C 27.164062 56.25 18.75 47.835938 18.75 37.5 C 18.75 27.164062 27.164062 18.75 37.5 18.75 C 47.835938 18.75 56.25 27.164062 56.25 37.5 C 56.25 47.835938 47.835938 56.25 37.5 56.25 Z M 37.5 19.027344 C 27.3125 19.027344 19.027344 27.3125 19.027344 37.5 C 19.027344 47.6875 27.3125 55.972656 37.5 55.972656 C 47.6875 55.972656 55.972656 47.6875 55.972656 37.5 C 55.972656 27.3125 47.6875 19.027344 37.5 19.027344 Z M 37.5 19.027344 " fill-opacity="1" fill-rule="nonzero"/></g></svg>