<svg xmlns="http://www.w3.org/2000/svg" xmlns:xlink="http://www.w3.org/1999/xlink" width="100" zoomAndPan="magnify" viewBox="0 0 75 74.999997" height="100" preserveAspectRatio="xMidYMid meet" version="1.0"><defs><clipPath id="016a016ea5"><path d="M 18.75 18.300781 L 56.25 18.300781 L 56.25 55.800781 L 18.75 55.800781 Z M 18.75 18.300781 " clip-rule="nonzero"/></clipPath></defs><g clip-path="url(#016a016ea5)"><path fill="#ffffff" d="M 37.5 55.800781 C 27.164062 55.800781 18.75 47.386719 18.75 37.050781 C 18.75 26.714844 27.164062 18.300781 37.5 18.300781 C 47.835938 18.300781 56.25 26.714844 56.25 37.050781 C 56.25 47.386719 47.835938 55.800781 37.5 55.800781 Z M 37.5 18.578125 C 27.3125 18.578125 19.027344 26.863281 19.027344 37.050781 C 19.027344 47.238281 27.3125 55.523438 37.5 55.523438 C 47.6875 55.523438 55.972656 47.238281 55.972656 37.050781 C 55.972656 26.863281 47.6875 18.578125 37.5 18.578125 Z M 37.5 18.578125 " fill-opacity="1" fill-rule="nonzero"/></g></svg>