<svg xmlns="http://www.w3.org/2000/svg" xmlns:xlink="http://www.w3.org/1999/xlink" width="100" zoomAndPan="magnify" viewBox="0 0 75 74.999997" height="100" preserveAspectRatio="xMidYMid meet" version="1.0"><defs><clipPath id="74301b82b6"><path d="M 18.789062 18.789062 L 56.289062 18.789062 L 56.289062 56.289062 L 18.789062 56.289062 Z M 18.789062 18.789062 " clip-rule="nonzero"/></clipPath></defs><g clip-path="url(#74301b82b6)"><path fill="#163694" d="M 37.496094 19.449219 C 37.316406 19.449219 37.167969 19.300781 37.167969 19.121094 C 37.167969 18.9375 37.316406 18.789062 37.496094 18.789062 C 37.675781 18.789062 37.824219 18.9375 37.824219 19.121094 C 37.824219 19.300781 37.675781 19.449219 37.496094 19.449219 Z M 38.800781 19.492188 C 38.617188 19.480469 38.480469 19.324219 38.496094 19.144531 C 38.507812 18.960938 38.664062 18.824219 38.84375 18.839844 C 39.027344 18.851562 39.164062 19.007812 39.148438 19.191406 C 39.136719 19.371094 38.980469 19.507812 38.800781 19.492188 Z M 40.09375 19.632812 C 39.914062 19.609375 39.789062 19.441406 39.816406 19.261719 C 39.84375 19.082031 40.007812 18.957031 40.1875 18.984375 C 40.367188 19.007812 40.492188 19.175781 40.46875 19.355469 C 40.441406 19.535156 40.273438 19.660156 40.09375 19.632812 Z M 41.378906 19.867188 C 41.199219 19.828125 41.085938 19.652344 41.125 19.476562 C 41.164062 19.296875 41.339844 19.1875 41.519531 19.226562 C 41.695312 19.261719 41.808594 19.4375 41.769531 19.617188 C 41.730469 19.792969 41.554688 19.90625 41.378906 19.867188 Z M 42.640625 20.191406 C 42.464844 20.140625 42.367188 19.957031 42.417969 19.785156 C 42.46875 19.609375 42.652344 19.511719 42.828125 19.5625 C 43 19.613281 43.097656 19.796875 43.046875 19.972656 C 42.996094 20.144531 42.8125 20.242188 42.640625 20.191406 Z M 43.875 20.609375 C 43.703125 20.542969 43.617188 20.355469 43.683594 20.183594 C 43.746094 20.015625 43.9375 19.929688 44.105469 19.992188 C 44.277344 20.058594 44.363281 20.246094 44.296875 20.417969 C 44.234375 20.585938 44.042969 20.671875 43.875 20.609375 Z M 45.074219 21.113281 C 44.910156 21.039062 44.839844 20.84375 44.914062 20.675781 C 44.992188 20.511719 45.1875 20.441406 45.351562 20.515625 C 45.515625 20.59375 45.589844 20.789062 45.511719 20.953125 C 45.433594 21.117188 45.238281 21.191406 45.074219 21.113281 Z M 46.238281 21.703125 C 46.078125 21.617188 46.019531 21.417969 46.109375 21.257812 C 46.195312 21.097656 46.398438 21.042969 46.554688 21.128906 C 46.714844 21.21875 46.773438 21.417969 46.683594 21.578125 C 46.597656 21.734375 46.394531 21.792969 46.238281 21.703125 Z M 47.351562 22.378906 C 47.203125 22.277344 47.160156 22.074219 47.257812 21.921875 C 47.355469 21.769531 47.5625 21.730469 47.710938 21.828125 C 47.863281 21.925781 47.90625 22.132812 47.808594 22.28125 C 47.707031 22.433594 47.503906 22.476562 47.351562 22.378906 Z M 48.417969 23.128906 C 48.273438 23.019531 48.246094 22.8125 48.355469 22.667969 C 48.464844 22.523438 48.671875 22.496094 48.816406 22.605469 C 48.960938 22.71875 48.988281 22.921875 48.878906 23.066406 C 48.769531 23.210938 48.5625 23.238281 48.417969 23.128906 Z M 49.425781 23.957031 C 49.289062 23.835938 49.277344 23.628906 49.398438 23.492188 C 49.515625 23.355469 49.726562 23.34375 49.859375 23.464844 C 49.996094 23.582031 50.011719 23.792969 49.890625 23.925781 C 49.769531 24.0625 49.5625 24.078125 49.425781 23.957031 Z M 50.371094 24.851562 C 50.246094 24.722656 50.246094 24.515625 50.375 24.386719 C 50.503906 24.261719 50.714844 24.261719 50.839844 24.390625 C 50.96875 24.523438 50.964844 24.730469 50.835938 24.855469 C 50.707031 24.984375 50.5 24.984375 50.371094 24.851562 Z M 51.25 25.816406 C 51.132812 25.675781 51.152344 25.46875 51.289062 25.351562 C 51.425781 25.234375 51.636719 25.25 51.753906 25.390625 C 51.871094 25.527344 51.851562 25.734375 51.714844 25.851562 C 51.578125 25.96875 51.371094 25.953125 51.25 25.816406 Z M 52.058594 26.839844 C 51.953125 26.691406 51.984375 26.484375 52.128906 26.378906 C 52.277344 26.273438 52.484375 26.304688 52.589844 26.449219 C 52.695312 26.59375 52.664062 26.800781 52.519531 26.910156 C 52.375 27.015625 52.167969 26.984375 52.058594 26.839844 Z M 52.792969 27.917969 C 52.695312 27.761719 52.742188 27.558594 52.894531 27.464844 C 53.050781 27.367188 53.253906 27.414062 53.347656 27.566406 C 53.445312 27.71875 53.398438 27.921875 53.246094 28.019531 C 53.09375 28.117188 52.890625 28.070312 52.792969 27.917969 Z M 53.445312 29.042969 C 53.359375 28.882812 53.421875 28.683594 53.582031 28.601562 C 53.742188 28.515625 53.941406 28.574219 54.027344 28.734375 C 54.113281 28.894531 54.050781 29.09375 53.890625 29.179688 C 53.730469 29.265625 53.53125 29.203125 53.445312 29.042969 Z M 54.015625 30.214844 C 53.941406 30.050781 54.015625 29.855469 54.183594 29.78125 C 54.347656 29.710938 54.542969 29.785156 54.617188 29.949219 C 54.691406 30.117188 54.613281 30.3125 54.449219 30.382812 C 54.28125 30.457031 54.089844 30.382812 54.015625 30.214844 Z M 54.5 31.425781 C 54.4375 31.257812 54.527344 31.066406 54.699219 31.007812 C 54.867188 30.945312 55.054688 31.035156 55.117188 31.207031 C 55.179688 31.375 55.089844 31.566406 54.917969 31.625 C 54.746094 31.6875 54.558594 31.597656 54.5 31.425781 Z M 54.890625 32.667969 C 54.84375 32.496094 54.945312 32.3125 55.121094 32.265625 C 55.296875 32.214844 55.476562 32.320312 55.527344 32.492188 C 55.574219 32.667969 55.472656 32.847656 55.296875 32.898438 C 55.121094 32.945312 54.941406 32.84375 54.890625 32.667969 Z M 55.195312 33.9375 C 55.160156 33.757812 55.273438 33.585938 55.453125 33.550781 C 55.628906 33.515625 55.804688 33.628906 55.839844 33.808594 C 55.875 33.984375 55.757812 34.160156 55.582031 34.195312 C 55.402344 34.230469 55.230469 34.113281 55.195312 33.9375 Z M 55.40625 35.222656 C 55.382812 35.042969 55.507812 34.878906 55.691406 34.855469 C 55.871094 34.832031 56.035156 34.960938 56.058594 35.140625 C 56.078125 35.320312 55.953125 35.484375 55.773438 35.507812 C 55.59375 35.53125 55.425781 35.402344 55.40625 35.222656 Z M 55.519531 36.519531 C 55.511719 36.339844 55.648438 36.183594 55.832031 36.175781 C 56.011719 36.164062 56.167969 36.304688 56.175781 36.484375 C 56.1875 36.667969 56.046875 36.820312 55.867188 36.832031 C 55.683594 36.839844 55.53125 36.703125 55.519531 36.519531 Z M 55.542969 37.824219 C 55.546875 37.644531 55.695312 37.5 55.878906 37.5 C 56.058594 37.503906 56.203125 37.65625 56.203125 37.835938 C 56.199219 38.019531 56.046875 38.164062 55.867188 38.160156 C 55.683594 38.15625 55.539062 38.007812 55.542969 37.824219 Z M 55.472656 39.125 C 55.492188 38.945312 55.648438 38.8125 55.832031 38.828125 C 56.011719 38.84375 56.144531 39.003906 56.128906 39.183594 C 56.113281 39.367188 55.953125 39.5 55.773438 39.484375 C 55.59375 39.46875 55.457031 39.308594 55.472656 39.125 Z M 55.3125 40.417969 C 55.339844 40.242188 55.507812 40.117188 55.6875 40.148438 C 55.867188 40.175781 55.988281 40.347656 55.960938 40.527344 C 55.929688 40.703125 55.761719 40.828125 55.582031 40.796875 C 55.402344 40.769531 55.28125 40.597656 55.3125 40.417969 Z M 55.054688 41.699219 C 55.097656 41.519531 55.273438 41.410156 55.449219 41.453125 C 55.628906 41.496094 55.738281 41.671875 55.695312 41.851562 C 55.652344 42.027344 55.476562 42.136719 55.296875 42.09375 C 55.121094 42.050781 55.011719 41.875 55.054688 41.699219 Z M 54.707031 42.953125 C 54.761719 42.78125 54.945312 42.683594 55.121094 42.738281 C 55.292969 42.792969 55.386719 42.980469 55.332031 43.152344 C 55.277344 43.324219 55.09375 43.421875 54.921875 43.367188 C 54.746094 43.3125 54.652344 43.125 54.707031 42.953125 Z M 54.269531 44.179688 C 54.335938 44.011719 54.527344 43.929688 54.695312 43.996094 C 54.863281 44.0625 54.945312 44.253906 54.878906 44.425781 C 54.8125 44.59375 54.621094 44.675781 54.453125 44.609375 C 54.28125 44.539062 54.199219 44.347656 54.269531 44.179688 Z M 53.742188 45.371094 C 53.820312 45.210938 54.015625 45.140625 54.179688 45.21875 C 54.34375 45.300781 54.410156 45.496094 54.332031 45.660156 C 54.253906 45.824219 54.054688 45.890625 53.894531 45.8125 C 53.730469 45.730469 53.660156 45.535156 53.742188 45.371094 Z M 53.128906 46.523438 C 53.21875 46.367188 53.421875 46.3125 53.578125 46.402344 C 53.734375 46.496094 53.789062 46.695312 53.699219 46.851562 C 53.609375 47.007812 53.40625 47.0625 53.25 46.972656 C 53.09375 46.882812 53.039062 46.679688 53.128906 46.523438 Z M 52.4375 47.628906 C 52.539062 47.476562 52.742188 47.4375 52.894531 47.539062 C 53.042969 47.640625 53.082031 47.847656 52.980469 47.996094 C 52.878906 48.144531 52.671875 48.183594 52.523438 48.082031 C 52.375 47.980469 52.335938 47.777344 52.4375 47.628906 Z M 51.664062 48.679688 C 51.777344 48.535156 51.984375 48.511719 52.125 48.625 C 52.269531 48.738281 52.292969 48.941406 52.179688 49.085938 C 52.066406 49.226562 51.863281 49.253906 51.71875 49.140625 C 51.578125 49.027344 51.550781 48.820312 51.664062 48.679688 Z M 50.820312 49.671875 C 50.941406 49.539062 51.152344 49.527344 51.285156 49.648438 C 51.417969 49.773438 51.429688 49.980469 51.304688 50.113281 C 51.183594 50.25 50.976562 50.257812 50.839844 50.136719 C 50.707031 50.011719 50.699219 49.804688 50.820312 49.671875 Z M 49.90625 50.601562 C 50.039062 50.476562 50.246094 50.480469 50.371094 50.613281 C 50.496094 50.746094 50.492188 50.953125 50.359375 51.078125 C 50.226562 51.203125 50.019531 51.199219 49.894531 51.066406 C 49.769531 50.933594 49.773438 50.726562 49.90625 50.601562 Z M 48.929688 51.464844 C 49.070312 51.347656 49.277344 51.367188 49.390625 51.507812 C 49.507812 51.648438 49.488281 51.855469 49.347656 51.972656 C 49.207031 52.085938 49 52.066406 48.882812 51.925781 C 48.769531 51.785156 48.789062 51.578125 48.929688 51.464844 Z M 47.890625 52.253906 C 48.039062 52.148438 48.246094 52.183594 48.351562 52.332031 C 48.453125 52.480469 48.417969 52.683594 48.273438 52.789062 C 48.125 52.894531 47.917969 52.859375 47.8125 52.710938 C 47.707031 52.5625 47.746094 52.359375 47.890625 52.253906 Z M 46.800781 52.964844 C 46.957031 52.871094 47.160156 52.921875 47.253906 53.078125 C 47.347656 53.234375 47.296875 53.4375 47.140625 53.527344 C 46.984375 53.621094 46.785156 53.574219 46.691406 53.417969 C 46.597656 53.261719 46.644531 53.058594 46.800781 52.964844 Z M 45.660156 53.597656 C 45.824219 53.515625 46.019531 53.582031 46.105469 53.742188 C 46.1875 53.90625 46.121094 54.101562 45.960938 54.183594 C 45.796875 54.265625 45.601562 54.203125 45.519531 54.039062 C 45.433594 53.878906 45.5 53.679688 45.660156 53.597656 Z M 44.480469 54.148438 C 44.648438 54.078125 44.839844 54.15625 44.910156 54.324219 C 44.980469 54.488281 44.902344 54.683594 44.734375 54.753906 C 44.566406 54.824219 44.375 54.746094 44.304688 54.578125 C 44.234375 54.410156 44.3125 54.21875 44.480469 54.148438 Z M 43.261719 54.609375 C 43.433594 54.550781 43.617188 54.644531 43.675781 54.816406 C 43.734375 54.988281 43.640625 55.171875 43.46875 55.230469 C 43.296875 55.289062 43.113281 55.195312 43.054688 55.023438 C 42.996094 54.851562 43.089844 54.667969 43.261719 54.609375 Z M 42.011719 54.980469 C 42.1875 54.933594 42.367188 55.039062 42.410156 55.214844 C 42.457031 55.390625 42.351562 55.570312 42.175781 55.617188 C 42 55.660156 41.820312 55.554688 41.773438 55.378906 C 41.730469 55.203125 41.835938 55.023438 42.011719 54.980469 Z M 40.738281 55.257812 C 40.917969 55.226562 41.085938 55.34375 41.121094 55.523438 C 41.152344 55.703125 41.035156 55.875 40.855469 55.90625 C 40.675781 55.9375 40.507812 55.820312 40.472656 55.640625 C 40.441406 55.460938 40.558594 55.292969 40.738281 55.257812 Z M 39.449219 55.445312 C 39.628906 55.425781 39.789062 55.554688 39.808594 55.738281 C 39.828125 55.917969 39.699219 56.078125 39.519531 56.097656 C 39.339844 56.117188 39.175781 55.988281 39.15625 55.808594 C 39.136719 55.628906 39.269531 55.464844 39.449219 55.445312 Z M 38.148438 55.539062 C 38.328125 55.53125 38.480469 55.671875 38.488281 55.855469 C 38.496094 56.035156 38.351562 56.1875 38.171875 56.195312 C 37.988281 56.203125 37.835938 56.058594 37.832031 55.878906 C 37.824219 55.695312 37.964844 55.542969 38.148438 55.539062 Z M 36.84375 55.539062 C 37.027344 55.542969 37.167969 55.695312 37.160156 55.878906 C 37.15625 56.058594 37.003906 56.203125 36.820312 56.195312 C 36.640625 56.1875 36.496094 56.035156 36.503906 55.855469 C 36.511719 55.671875 36.664062 55.53125 36.84375 55.539062 Z M 35.542969 55.445312 C 35.722656 55.464844 35.855469 55.628906 35.835938 55.808594 C 35.816406 55.988281 35.652344 56.117188 35.472656 56.097656 C 35.292969 56.078125 35.164062 55.917969 35.183594 55.738281 C 35.203125 55.554688 35.363281 55.425781 35.542969 55.445312 Z M 34.253906 55.257812 C 34.433594 55.292969 34.550781 55.460938 34.519531 55.640625 C 34.484375 55.820312 34.316406 55.9375 34.136719 55.90625 C 33.957031 55.875 33.839844 55.703125 33.871094 55.523438 C 33.90625 55.34375 34.074219 55.226562 34.253906 55.257812 Z M 32.980469 54.980469 C 33.15625 55.023438 33.261719 55.203125 33.21875 55.378906 C 33.171875 55.554688 32.992188 55.660156 32.816406 55.617188 C 32.640625 55.570312 32.535156 55.390625 32.582031 55.214844 C 32.625 55.039062 32.804688 54.933594 32.980469 54.980469 Z M 31.730469 54.609375 C 31.902344 54.667969 31.996094 54.851562 31.9375 55.023438 C 31.878906 55.195312 31.695312 55.289062 31.523438 55.230469 C 31.351562 55.171875 31.257812 54.988281 31.316406 54.816406 C 31.375 54.644531 31.558594 54.550781 31.730469 54.609375 Z M 30.511719 54.148438 C 30.679688 54.21875 30.757812 54.410156 30.6875 54.578125 C 30.617188 54.746094 30.425781 54.824219 30.257812 54.753906 C 30.089844 54.683594 30.011719 54.488281 30.082031 54.324219 C 30.152344 54.15625 30.347656 54.078125 30.511719 54.148438 Z M 29.332031 53.597656 C 29.492188 53.679688 29.558594 53.878906 29.472656 54.039062 C 29.390625 54.203125 29.195312 54.265625 29.03125 54.183594 C 28.871094 54.101562 28.804688 53.90625 28.886719 53.742188 C 28.972656 53.582031 29.167969 53.515625 29.332031 53.597656 Z M 28.191406 52.964844 C 28.347656 53.058594 28.394531 53.261719 28.300781 53.417969 C 28.207031 53.574219 28.007812 53.621094 27.851562 53.527344 C 27.695312 53.4375 27.644531 53.234375 27.738281 53.078125 C 27.832031 52.921875 28.035156 52.871094 28.191406 52.964844 Z M 27.101562 52.253906 C 27.246094 52.359375 27.285156 52.5625 27.179688 52.710938 C 27.074219 52.859375 26.867188 52.894531 26.71875 52.789062 C 26.574219 52.683594 26.539062 52.480469 26.640625 52.332031 C 26.746094 52.183594 26.953125 52.148438 27.101562 52.253906 Z M 26.0625 51.464844 C 26.203125 51.578125 26.222656 51.785156 26.109375 51.925781 C 25.992188 52.066406 25.785156 52.085938 25.644531 51.972656 C 25.503906 51.855469 25.484375 51.648438 25.601562 51.507812 C 25.714844 51.367188 25.921875 51.347656 26.0625 51.464844 Z M 25.085938 50.601562 C 25.214844 50.726562 25.222656 50.933594 25.097656 51.066406 C 24.972656 51.199219 24.765625 51.203125 24.632812 51.078125 C 24.5 50.953125 24.496094 50.746094 24.621094 50.613281 C 24.746094 50.480469 24.953125 50.476562 25.085938 50.601562 Z M 24.171875 49.671875 C 24.292969 49.804688 24.285156 50.011719 24.152344 50.136719 C 24.015625 50.257812 23.808594 50.25 23.6875 50.113281 C 23.5625 49.980469 23.574219 49.773438 23.707031 49.648438 C 23.839844 49.527344 24.050781 49.539062 24.171875 49.671875 Z M 23.328125 48.679688 C 23.441406 48.820312 23.414062 49.027344 23.273438 49.140625 C 23.128906 49.253906 22.925781 49.226562 22.8125 49.085938 C 22.699219 48.941406 22.722656 48.738281 22.867188 48.625 C 23.007812 48.511719 23.214844 48.535156 23.328125 48.679688 Z M 22.554688 47.628906 C 22.65625 47.777344 22.617188 47.980469 22.46875 48.082031 C 22.320312 48.183594 22.113281 48.144531 22.011719 47.996094 C 21.910156 47.847656 21.949219 47.640625 22.097656 47.539062 C 22.25 47.4375 22.453125 47.476562 22.554688 47.628906 Z M 21.863281 46.523438 C 21.953125 46.679688 21.898438 46.882812 21.742188 46.972656 C 21.585938 47.0625 21.386719 47.007812 21.292969 46.851562 C 21.203125 46.695312 21.257812 46.496094 21.414062 46.402344 C 21.570312 46.3125 21.773438 46.367188 21.863281 46.523438 Z M 21.25 45.371094 C 21.332031 45.535156 21.261719 45.730469 21.097656 45.8125 C 20.9375 45.890625 20.738281 45.824219 20.660156 45.660156 C 20.582031 45.496094 20.648438 45.300781 20.8125 45.21875 C 20.976562 45.140625 21.171875 45.210938 21.25 45.371094 Z M 20.722656 44.179688 C 20.792969 44.347656 20.710938 44.539062 20.539062 44.609375 C 20.371094 44.675781 20.179688 44.59375 20.113281 44.425781 C 20.046875 44.253906 20.128906 44.0625 20.296875 43.996094 C 20.464844 43.929688 20.65625 44.011719 20.722656 44.179688 Z M 20.285156 42.953125 C 20.339844 43.125 20.246094 43.3125 20.070312 43.367188 C 19.898438 43.421875 19.714844 43.324219 19.660156 43.152344 C 19.605469 42.980469 19.699219 42.792969 19.871094 42.738281 C 20.046875 42.683594 20.230469 42.78125 20.285156 42.953125 Z M 19.9375 41.699219 C 19.980469 41.875 19.871094 42.050781 19.695312 42.09375 C 19.515625 42.136719 19.339844 42.027344 19.296875 41.851562 C 19.253906 41.671875 19.363281 41.496094 19.539062 41.453125 C 19.71875 41.410156 19.894531 41.519531 19.9375 41.699219 Z M 19.679688 40.417969 C 19.710938 40.597656 19.589844 40.769531 19.410156 40.796875 C 19.230469 40.828125 19.0625 40.703125 19.03125 40.527344 C 19.003906 40.347656 19.125 40.175781 19.304688 40.148438 C 19.484375 40.117188 19.652344 40.242188 19.679688 40.417969 Z M 19.519531 39.125 C 19.535156 39.308594 19.398438 39.46875 19.21875 39.484375 C 19.039062 39.5 18.878906 39.367188 18.863281 39.183594 C 18.847656 39.003906 18.980469 38.84375 19.160156 38.828125 C 19.339844 38.8125 19.5 38.945312 19.519531 39.125 Z M 19.449219 37.824219 C 19.453125 38.007812 19.308594 38.15625 19.125 38.160156 C 18.945312 38.164062 18.792969 38.019531 18.789062 37.835938 C 18.789062 37.65625 18.933594 37.503906 19.113281 37.5 C 19.296875 37.5 19.445312 37.644531 19.449219 37.824219 Z M 19.472656 36.519531 C 19.460938 36.703125 19.308594 36.839844 19.125 36.832031 C 18.945312 36.820312 18.804688 36.667969 18.816406 36.484375 C 18.824219 36.304688 18.980469 36.164062 19.160156 36.175781 C 19.34375 36.183594 19.480469 36.339844 19.472656 36.519531 Z M 19.585938 35.222656 C 19.566406 35.402344 19.398438 35.53125 19.21875 35.507812 C 19.039062 35.484375 18.914062 35.320312 18.933594 35.140625 C 18.957031 34.960938 19.121094 34.832031 19.300781 34.855469 C 19.484375 34.878906 19.609375 35.042969 19.585938 35.222656 Z M 19.796875 33.9375 C 19.761719 34.113281 19.589844 34.230469 19.410156 34.195312 C 19.234375 34.160156 19.117188 33.984375 19.152344 33.808594 C 19.1875 33.628906 19.363281 33.515625 19.539062 33.550781 C 19.71875 33.585938 19.832031 33.757812 19.796875 33.9375 Z M 20.101562 32.667969 C 20.050781 32.84375 19.871094 32.945312 19.695312 32.898438 C 19.519531 32.847656 19.417969 32.667969 19.464844 32.492188 C 19.515625 32.320312 19.695312 32.214844 19.871094 32.265625 C 20.046875 32.3125 20.148438 32.496094 20.101562 32.667969 Z M 20.492188 31.425781 C 20.433594 31.597656 20.246094 31.6875 20.074219 31.625 C 19.902344 31.566406 19.8125 31.375 19.875 31.207031 C 19.9375 31.035156 20.125 30.945312 20.292969 31.007812 C 20.464844 31.066406 20.554688 31.257812 20.492188 31.425781 Z M 20.976562 30.214844 C 20.902344 30.382812 20.710938 30.457031 20.542969 30.382812 C 20.378906 30.3125 20.300781 30.117188 20.375 29.949219 C 20.449219 29.785156 20.644531 29.710938 20.808594 29.78125 C 20.976562 29.855469 21.050781 30.050781 20.976562 30.214844 Z M 21.546875 29.042969 C 21.460938 29.203125 21.261719 29.265625 21.101562 29.179688 C 20.941406 29.09375 20.882812 28.894531 20.964844 28.734375 C 21.050781 28.574219 21.25 28.515625 21.410156 28.601562 C 21.570312 28.683594 21.632812 28.882812 21.546875 29.042969 Z M 22.199219 27.917969 C 22.101562 28.070312 21.898438 28.117188 21.746094 28.019531 C 21.59375 27.921875 21.546875 27.71875 21.644531 27.566406 C 21.738281 27.414062 21.941406 27.367188 22.097656 27.464844 C 22.25 27.558594 22.296875 27.761719 22.199219 27.917969 Z M 22.933594 26.839844 C 22.824219 26.984375 22.617188 27.015625 22.472656 26.910156 C 22.328125 26.800781 22.292969 26.59375 22.402344 26.449219 C 22.507812 26.304688 22.714844 26.273438 22.863281 26.378906 C 23.007812 26.484375 23.039062 26.691406 22.933594 26.839844 Z M 23.742188 25.816406 C 23.621094 25.953125 23.414062 25.96875 23.277344 25.851562 C 23.140625 25.734375 23.121094 25.527344 23.238281 25.390625 C 23.355469 25.25 23.566406 25.234375 23.703125 25.351562 C 23.839844 25.46875 23.859375 25.675781 23.742188 25.816406 Z M 24.621094 24.851562 C 24.492188 24.984375 24.285156 24.984375 24.15625 24.855469 C 24.027344 24.730469 24.023438 24.523438 24.152344 24.390625 C 24.277344 24.261719 24.488281 24.261719 24.617188 24.386719 C 24.746094 24.515625 24.746094 24.722656 24.621094 24.851562 Z M 25.566406 23.957031 C 25.429688 24.078125 25.222656 24.0625 25.101562 23.925781 C 24.980469 23.792969 24.996094 23.582031 25.132812 23.464844 C 25.269531 23.34375 25.476562 23.355469 25.59375 23.492188 C 25.714844 23.628906 25.703125 23.835938 25.566406 23.957031 Z M 26.574219 23.128906 C 26.429688 23.238281 26.222656 23.210938 26.113281 23.066406 C 26.003906 22.921875 26.03125 22.71875 26.175781 22.605469 C 26.320312 22.496094 26.527344 22.523438 26.636719 22.667969 C 26.746094 22.8125 26.71875 23.019531 26.574219 23.128906 Z M 27.640625 22.378906 C 27.488281 22.476562 27.285156 22.433594 27.183594 22.28125 C 27.085938 22.132812 27.128906 21.925781 27.28125 21.828125 C 27.429688 21.730469 27.636719 21.769531 27.734375 21.921875 C 27.832031 22.074219 27.789062 22.277344 27.640625 22.378906 Z M 28.753906 21.703125 C 28.597656 21.792969 28.394531 21.734375 28.308594 21.578125 C 28.21875 21.417969 28.277344 21.21875 28.4375 21.128906 C 28.59375 21.042969 28.792969 21.097656 28.882812 21.257812 C 28.972656 21.417969 28.914062 21.617188 28.753906 21.703125 Z M 29.917969 21.113281 C 29.753906 21.191406 29.558594 21.117188 29.480469 20.953125 C 29.402344 20.789062 29.476562 20.59375 29.640625 20.515625 C 29.804688 20.441406 30 20.511719 30.078125 20.675781 C 30.152344 20.84375 30.082031 21.039062 29.917969 21.113281 Z M 31.117188 20.609375 C 30.949219 20.671875 30.757812 20.585938 30.695312 20.417969 C 30.628906 20.246094 30.714844 20.058594 30.886719 19.992188 C 31.054688 19.929688 31.246094 20.015625 31.308594 20.183594 C 31.375 20.355469 31.289062 20.542969 31.117188 20.609375 Z M 32.351562 20.191406 C 32.179688 20.242188 31.996094 20.144531 31.945312 19.972656 C 31.894531 19.796875 31.992188 19.613281 32.164062 19.5625 C 32.339844 19.511719 32.523438 19.609375 32.574219 19.785156 C 32.625 19.957031 32.527344 20.140625 32.351562 20.191406 Z M 33.613281 19.867188 C 33.4375 19.90625 33.261719 19.792969 33.222656 19.617188 C 33.183594 19.4375 33.296875 19.261719 33.472656 19.226562 C 33.652344 19.1875 33.828125 19.296875 33.867188 19.476562 C 33.90625 19.652344 33.792969 19.828125 33.613281 19.867188 Z M 34.898438 19.632812 C 34.71875 19.660156 34.550781 19.535156 34.523438 19.355469 C 34.5 19.175781 34.625 19.007812 34.804688 18.984375 C 34.984375 18.957031 35.148438 19.082031 35.175781 19.261719 C 35.203125 19.441406 35.078125 19.609375 34.898438 19.632812 Z M 36.191406 19.492188 C 36.011719 19.507812 35.855469 19.371094 35.84375 19.191406 C 35.828125 19.007812 35.964844 18.851562 36.148438 18.839844 C 36.328125 18.824219 36.484375 18.960938 36.496094 19.144531 C 36.511719 19.324219 36.375 19.480469 36.191406 19.492188 Z M 36.191406 19.492188 " fill-opacity="1" fill-rule="evenodd"/></g></svg>