<svg xmlns="http://www.w3.org/2000/svg" xmlns:xlink="http://www.w3.org/1999/xlink" width="100" zoomAndPan="magnify" viewBox="0 0 75 74.999997" height="100" preserveAspectRatio="xMidYMid meet" version="1.0"><defs><clipPath id="770a1b644a"><path d="M 18.789062 19.679688 L 56.289062 19.679688 L 56.289062 57.179688 L 18.789062 57.179688 Z M 18.789062 19.679688 " clip-rule="nonzero"/></clipPath></defs><g clip-path="url(#770a1b644a)"><path fill="#ffffff" d="M 37.496094 20.339844 C 37.316406 20.339844 37.167969 20.191406 37.167969 20.011719 C 37.167969 19.832031 37.316406 19.683594 37.496094 19.683594 C 37.675781 19.683594 37.824219 19.832031 37.824219 20.011719 C 37.824219 20.191406 37.675781 20.339844 37.496094 20.339844 Z M 38.800781 20.386719 C 38.617188 20.375 38.480469 20.214844 38.496094 20.035156 C 38.507812 19.855469 38.664062 19.71875 38.84375 19.730469 C 39.027344 19.742188 39.164062 19.902344 39.148438 20.082031 C 39.136719 20.261719 38.980469 20.398438 38.800781 20.386719 Z M 40.09375 20.527344 C 39.914062 20.5 39.789062 20.332031 39.816406 20.152344 C 39.84375 19.972656 40.007812 19.851562 40.1875 19.875 C 40.367188 19.902344 40.492188 20.070312 40.46875 20.246094 C 40.441406 20.425781 40.273438 20.550781 40.09375 20.527344 Z M 41.378906 20.757812 C 41.199219 20.71875 41.085938 20.542969 41.125 20.367188 C 41.164062 20.191406 41.339844 20.078125 41.519531 20.117188 C 41.695312 20.15625 41.808594 20.332031 41.769531 20.507812 C 41.730469 20.683594 41.554688 20.796875 41.378906 20.757812 Z M 42.640625 21.085938 C 42.464844 21.03125 42.367188 20.851562 42.417969 20.675781 C 42.46875 20.503906 42.652344 20.402344 42.828125 20.453125 C 43 20.507812 43.097656 20.6875 43.046875 20.863281 C 42.996094 21.035156 42.8125 21.136719 42.640625 21.085938 Z M 43.875 21.5 C 43.703125 21.4375 43.617188 21.246094 43.683594 21.078125 C 43.746094 20.90625 43.9375 20.820312 44.105469 20.886719 C 44.277344 20.949219 44.363281 21.140625 44.296875 21.308594 C 44.234375 21.480469 44.042969 21.566406 43.875 21.5 Z M 45.074219 22.007812 C 44.910156 21.929688 44.839844 21.734375 44.914062 21.570312 C 44.992188 21.40625 45.1875 21.332031 45.351562 21.410156 C 45.515625 21.484375 45.589844 21.679688 45.511719 21.847656 C 45.433594 22.011719 45.238281 22.082031 45.074219 22.007812 Z M 46.238281 22.597656 C 46.078125 22.507812 46.019531 22.308594 46.109375 22.148438 C 46.195312 21.992188 46.398438 21.933594 46.554688 22.023438 C 46.714844 22.109375 46.773438 22.3125 46.683594 22.46875 C 46.597656 22.628906 46.394531 22.683594 46.238281 22.597656 Z M 47.351562 23.269531 C 47.203125 23.171875 47.160156 22.96875 47.257812 22.816406 C 47.355469 22.664062 47.5625 22.621094 47.710938 22.71875 C 47.863281 22.820312 47.90625 23.023438 47.808594 23.175781 C 47.707031 23.328125 47.503906 23.371094 47.351562 23.269531 Z M 48.417969 24.023438 C 48.273438 23.914062 48.246094 23.707031 48.355469 23.5625 C 48.464844 23.417969 48.671875 23.390625 48.816406 23.5 C 48.960938 23.609375 48.988281 23.816406 48.878906 23.960938 C 48.769531 24.105469 48.5625 24.132812 48.417969 24.023438 Z M 49.425781 24.847656 C 49.289062 24.730469 49.277344 24.519531 49.398438 24.386719 C 49.515625 24.25 49.726562 24.234375 49.859375 24.355469 C 49.996094 24.476562 50.011719 24.683594 49.890625 24.820312 C 49.769531 24.957031 49.5625 24.96875 49.425781 24.847656 Z M 50.371094 25.746094 C 50.246094 25.617188 50.246094 25.40625 50.375 25.28125 C 50.503906 25.152344 50.714844 25.15625 50.839844 25.285156 C 50.96875 25.414062 50.964844 25.621094 50.835938 25.75 C 50.707031 25.875 50.5 25.875 50.371094 25.746094 Z M 51.25 26.707031 C 51.132812 26.570312 51.152344 26.363281 51.289062 26.246094 C 51.425781 26.125 51.636719 26.144531 51.753906 26.28125 C 51.871094 26.421875 51.851562 26.628906 51.714844 26.746094 C 51.578125 26.863281 51.371094 26.847656 51.25 26.707031 Z M 52.058594 27.730469 C 51.953125 27.585938 51.984375 27.378906 52.128906 27.269531 C 52.277344 27.164062 52.484375 27.195312 52.589844 27.339844 C 52.695312 27.488281 52.664062 27.695312 52.519531 27.800781 C 52.375 27.910156 52.167969 27.875 52.058594 27.730469 Z M 52.792969 28.808594 C 52.695312 28.65625 52.742188 28.453125 52.894531 28.355469 C 53.050781 28.257812 53.253906 28.304688 53.347656 28.457031 C 53.445312 28.613281 53.398438 28.816406 53.246094 28.910156 C 53.09375 29.007812 52.890625 28.960938 52.792969 28.808594 Z M 53.445312 29.9375 C 53.359375 29.777344 53.421875 29.578125 53.582031 29.492188 C 53.742188 29.40625 53.941406 29.46875 54.027344 29.628906 C 54.113281 29.789062 54.050781 29.988281 53.890625 30.074219 C 53.730469 30.15625 53.53125 30.097656 53.445312 29.9375 Z M 54.015625 31.109375 C 53.941406 30.941406 54.015625 30.75 54.183594 30.675781 C 54.347656 30.601562 54.542969 30.675781 54.617188 30.84375 C 54.691406 31.007812 54.613281 31.203125 54.449219 31.277344 C 54.28125 31.351562 54.089844 31.273438 54.015625 31.109375 Z M 54.5 32.320312 C 54.4375 32.148438 54.527344 31.960938 54.699219 31.898438 C 54.867188 31.835938 55.054688 31.925781 55.117188 32.097656 C 55.179688 32.269531 55.089844 32.457031 54.917969 32.519531 C 54.746094 32.578125 54.558594 32.488281 54.5 32.320312 Z M 54.890625 33.5625 C 54.84375 33.386719 54.945312 33.207031 55.121094 33.15625 C 55.296875 33.109375 55.476562 33.210938 55.527344 33.386719 C 55.574219 33.558594 55.472656 33.742188 55.296875 33.789062 C 55.121094 33.839844 54.941406 33.734375 54.890625 33.5625 Z M 55.195312 34.828125 C 55.160156 34.652344 55.273438 34.476562 55.453125 34.441406 C 55.628906 34.40625 55.804688 34.523438 55.839844 34.699219 C 55.875 34.878906 55.757812 35.050781 55.582031 35.085938 C 55.402344 35.121094 55.230469 35.007812 55.195312 34.828125 Z M 55.40625 36.113281 C 55.382812 35.933594 55.507812 35.769531 55.691406 35.746094 C 55.871094 35.726562 56.035156 35.851562 56.058594 36.03125 C 56.078125 36.210938 55.953125 36.378906 55.773438 36.398438 C 55.59375 36.421875 55.425781 36.296875 55.40625 36.113281 Z M 55.519531 37.414062 C 55.511719 37.230469 55.648438 37.078125 55.832031 37.066406 C 56.011719 37.058594 56.167969 37.195312 56.175781 37.378906 C 56.1875 37.558594 56.046875 37.714844 55.867188 37.722656 C 55.683594 37.734375 55.53125 37.59375 55.519531 37.414062 Z M 55.542969 38.71875 C 55.546875 38.535156 55.695312 38.390625 55.878906 38.394531 C 56.058594 38.398438 56.203125 38.546875 56.203125 38.730469 C 56.199219 38.910156 56.046875 39.054688 55.867188 39.050781 C 55.683594 39.046875 55.539062 38.898438 55.542969 38.71875 Z M 55.472656 40.019531 C 55.492188 39.839844 55.648438 39.703125 55.832031 39.71875 C 56.011719 39.738281 56.144531 39.898438 56.128906 40.078125 C 56.113281 40.257812 55.953125 40.390625 55.773438 40.375 C 55.59375 40.359375 55.457031 40.199219 55.472656 40.019531 Z M 55.3125 41.3125 C 55.339844 41.132812 55.507812 41.011719 55.6875 41.039062 C 55.867188 41.070312 55.988281 41.238281 55.960938 41.417969 C 55.929688 41.597656 55.761719 41.71875 55.582031 41.6875 C 55.402344 41.660156 55.28125 41.492188 55.3125 41.3125 Z M 55.054688 42.589844 C 55.097656 42.414062 55.273438 42.304688 55.449219 42.347656 C 55.628906 42.386719 55.738281 42.566406 55.695312 42.742188 C 55.652344 42.917969 55.476562 43.027344 55.296875 42.984375 C 55.121094 42.945312 55.011719 42.765625 55.054688 42.589844 Z M 54.707031 43.84375 C 54.761719 43.671875 54.945312 43.578125 55.121094 43.632812 C 55.292969 43.6875 55.386719 43.871094 55.332031 44.042969 C 55.277344 44.21875 55.09375 44.3125 54.921875 44.257812 C 54.746094 44.203125 54.652344 44.019531 54.707031 43.84375 Z M 54.269531 45.074219 C 54.335938 44.90625 54.527344 44.820312 54.695312 44.890625 C 54.863281 44.957031 54.945312 45.148438 54.878906 45.316406 C 54.8125 45.484375 54.621094 45.566406 54.453125 45.5 C 54.28125 45.433594 54.199219 45.242188 54.269531 45.074219 Z M 53.742188 46.265625 C 53.820312 46.101562 54.015625 46.035156 54.179688 46.113281 C 54.34375 46.191406 54.410156 46.390625 54.332031 46.550781 C 54.253906 46.714844 54.054688 46.785156 53.894531 46.703125 C 53.730469 46.625 53.660156 46.425781 53.742188 46.265625 Z M 53.128906 47.414062 C 53.21875 47.257812 53.421875 47.203125 53.578125 47.296875 C 53.734375 47.386719 53.789062 47.589844 53.699219 47.746094 C 53.609375 47.902344 53.40625 47.957031 53.25 47.863281 C 53.09375 47.773438 53.039062 47.574219 53.128906 47.414062 Z M 52.4375 48.519531 C 52.539062 48.367188 52.742188 48.332031 52.894531 48.433594 C 53.042969 48.535156 53.082031 48.738281 52.980469 48.890625 C 52.878906 49.039062 52.671875 49.078125 52.523438 48.976562 C 52.375 48.875 52.335938 48.667969 52.4375 48.519531 Z M 51.664062 49.570312 C 51.777344 49.429688 51.984375 49.402344 52.125 49.515625 C 52.269531 49.628906 52.292969 49.835938 52.179688 49.976562 C 52.066406 50.121094 51.863281 50.144531 51.71875 50.03125 C 51.578125 49.917969 51.550781 49.710938 51.664062 49.570312 Z M 50.820312 50.5625 C 50.941406 50.429688 51.152344 50.421875 51.285156 50.542969 C 51.417969 50.664062 51.429688 50.871094 51.304688 51.007812 C 51.183594 51.140625 50.976562 51.148438 50.839844 51.027344 C 50.707031 50.90625 50.699219 50.699219 50.820312 50.5625 Z M 49.90625 51.492188 C 50.039062 51.367188 50.246094 51.375 50.371094 51.503906 C 50.496094 51.636719 50.492188 51.84375 50.359375 51.96875 C 50.226562 52.09375 50.019531 52.089844 49.894531 51.957031 C 49.769531 51.828125 49.773438 51.617188 49.90625 51.492188 Z M 48.929688 52.355469 C 49.070312 52.242188 49.277344 52.261719 49.390625 52.402344 C 49.507812 52.542969 49.488281 52.75 49.347656 52.863281 C 49.207031 52.980469 49 52.957031 48.882812 52.816406 C 48.769531 52.679688 48.789062 52.472656 48.929688 52.355469 Z M 47.890625 53.144531 C 48.039062 53.039062 48.246094 53.074219 48.351562 53.222656 C 48.453125 53.371094 48.417969 53.578125 48.273438 53.683594 C 48.125 53.785156 47.917969 53.75 47.8125 53.601562 C 47.707031 53.453125 47.746094 53.25 47.890625 53.144531 Z M 46.800781 53.859375 C 46.957031 53.765625 47.160156 53.816406 47.253906 53.96875 C 47.347656 54.125 47.296875 54.328125 47.140625 54.421875 C 46.984375 54.515625 46.785156 54.464844 46.691406 54.308594 C 46.597656 54.15625 46.644531 53.953125 46.800781 53.859375 Z M 45.660156 54.492188 C 45.824219 54.410156 46.019531 54.472656 46.105469 54.636719 C 46.1875 54.796875 46.121094 54.996094 45.960938 55.078125 C 45.796875 55.160156 45.601562 55.09375 45.519531 54.933594 C 45.433594 54.769531 45.5 54.574219 45.660156 54.492188 Z M 44.480469 55.039062 C 44.648438 54.96875 44.839844 55.046875 44.910156 55.214844 C 44.980469 55.382812 44.902344 55.574219 44.734375 55.644531 C 44.566406 55.714844 44.375 55.636719 44.304688 55.46875 C 44.234375 55.300781 44.3125 55.109375 44.480469 55.039062 Z M 43.261719 55.5 C 43.433594 55.441406 43.617188 55.535156 43.675781 55.707031 C 43.734375 55.878906 43.640625 56.066406 43.46875 56.125 C 43.296875 56.179688 43.113281 56.089844 43.054688 55.917969 C 42.996094 55.746094 43.089844 55.558594 43.261719 55.5 Z M 42.011719 55.871094 C 42.1875 55.828125 42.367188 55.933594 42.410156 56.109375 C 42.457031 56.285156 42.351562 56.460938 42.175781 56.507812 C 42 56.554688 41.820312 56.449219 41.773438 56.273438 C 41.730469 56.097656 41.835938 55.917969 42.011719 55.871094 Z M 40.738281 56.152344 C 40.917969 56.117188 41.085938 56.238281 41.121094 56.414062 C 41.152344 56.59375 41.035156 56.765625 40.855469 56.796875 C 40.675781 56.832031 40.507812 56.710938 40.472656 56.53125 C 40.441406 56.355469 40.558594 56.183594 40.738281 56.152344 Z M 39.449219 56.335938 C 39.628906 56.316406 39.789062 56.449219 39.808594 56.628906 C 39.828125 56.808594 39.699219 56.972656 39.519531 56.992188 C 39.339844 57.011719 39.175781 56.878906 39.15625 56.699219 C 39.136719 56.519531 39.269531 56.355469 39.449219 56.335938 Z M 38.148438 56.429688 C 38.328125 56.421875 38.480469 56.566406 38.488281 56.746094 C 38.496094 56.929688 38.351562 57.082031 38.171875 57.085938 C 37.988281 57.09375 37.835938 56.953125 37.832031 56.769531 C 37.824219 56.589844 37.964844 56.4375 38.148438 56.429688 Z M 36.84375 56.429688 C 37.027344 56.4375 37.167969 56.589844 37.160156 56.769531 C 37.15625 56.953125 37.003906 57.09375 36.820312 57.085938 C 36.640625 57.082031 36.496094 56.929688 36.503906 56.746094 C 36.511719 56.566406 36.664062 56.421875 36.84375 56.429688 Z M 35.542969 56.335938 C 35.722656 56.355469 35.855469 56.519531 35.835938 56.699219 C 35.816406 56.878906 35.652344 57.011719 35.472656 56.992188 C 35.292969 56.972656 35.164062 56.808594 35.183594 56.628906 C 35.203125 56.449219 35.363281 56.316406 35.542969 56.335938 Z M 34.253906 56.152344 C 34.433594 56.183594 34.550781 56.355469 34.519531 56.53125 C 34.484375 56.710938 34.316406 56.832031 34.136719 56.796875 C 33.957031 56.765625 33.839844 56.59375 33.871094 56.414062 C 33.90625 56.238281 34.074219 56.117188 34.253906 56.152344 Z M 32.980469 55.871094 C 33.15625 55.917969 33.261719 56.097656 33.21875 56.273438 C 33.171875 56.449219 32.992188 56.554688 32.816406 56.507812 C 32.640625 56.460938 32.535156 56.285156 32.582031 56.109375 C 32.625 55.933594 32.804688 55.828125 32.980469 55.871094 Z M 31.730469 55.5 C 31.902344 55.558594 31.996094 55.746094 31.9375 55.917969 C 31.878906 56.089844 31.695312 56.179688 31.523438 56.125 C 31.351562 56.066406 31.257812 55.878906 31.316406 55.707031 C 31.375 55.535156 31.558594 55.441406 31.730469 55.5 Z M 30.511719 55.039062 C 30.679688 55.109375 30.757812 55.300781 30.6875 55.46875 C 30.617188 55.636719 30.425781 55.714844 30.257812 55.644531 C 30.089844 55.574219 30.011719 55.382812 30.082031 55.214844 C 30.152344 55.046875 30.347656 54.96875 30.511719 55.039062 Z M 29.332031 54.492188 C 29.492188 54.574219 29.558594 54.769531 29.472656 54.933594 C 29.390625 55.09375 29.195312 55.160156 29.03125 55.078125 C 28.871094 54.996094 28.804688 54.796875 28.886719 54.636719 C 28.972656 54.472656 29.167969 54.410156 29.332031 54.492188 Z M 28.191406 53.859375 C 28.347656 53.953125 28.394531 54.15625 28.300781 54.308594 C 28.207031 54.464844 28.007812 54.515625 27.851562 54.421875 C 27.695312 54.328125 27.644531 54.125 27.738281 53.96875 C 27.832031 53.816406 28.035156 53.765625 28.191406 53.859375 Z M 27.101562 53.144531 C 27.246094 53.25 27.285156 53.453125 27.179688 53.601562 C 27.074219 53.75 26.867188 53.785156 26.71875 53.683594 C 26.574219 53.578125 26.539062 53.371094 26.640625 53.222656 C 26.746094 53.074219 26.953125 53.039062 27.101562 53.144531 Z M 26.0625 52.355469 C 26.203125 52.472656 26.222656 52.679688 26.109375 52.816406 C 25.992188 52.957031 25.785156 52.980469 25.644531 52.863281 C 25.503906 52.75 25.484375 52.542969 25.601562 52.402344 C 25.714844 52.261719 25.921875 52.242188 26.0625 52.355469 Z M 25.085938 51.492188 C 25.214844 51.617188 25.222656 51.828125 25.097656 51.957031 C 24.972656 52.089844 24.765625 52.09375 24.632812 51.96875 C 24.5 51.84375 24.496094 51.636719 24.621094 51.503906 C 24.746094 51.375 24.953125 51.367188 25.085938 51.492188 Z M 24.171875 50.5625 C 24.292969 50.699219 24.285156 50.90625 24.152344 51.027344 C 24.015625 51.148438 23.808594 51.140625 23.6875 51.007812 C 23.5625 50.871094 23.574219 50.664062 23.707031 50.542969 C 23.839844 50.421875 24.050781 50.429688 24.171875 50.5625 Z M 23.328125 49.570312 C 23.441406 49.710938 23.414062 49.917969 23.273438 50.03125 C 23.128906 50.144531 22.925781 50.121094 22.8125 49.976562 C 22.699219 49.835938 22.722656 49.628906 22.867188 49.515625 C 23.007812 49.402344 23.214844 49.429688 23.328125 49.570312 Z M 22.554688 48.519531 C 22.65625 48.667969 22.617188 48.875 22.46875 48.976562 C 22.320312 49.078125 22.113281 49.039062 22.011719 48.886719 C 21.910156 48.738281 21.949219 48.535156 22.097656 48.433594 C 22.25 48.332031 22.453125 48.367188 22.554688 48.519531 Z M 21.863281 47.414062 C 21.953125 47.574219 21.898438 47.773438 21.742188 47.863281 C 21.585938 47.957031 21.386719 47.902344 21.292969 47.746094 C 21.203125 47.589844 21.257812 47.386719 21.414062 47.296875 C 21.570312 47.203125 21.773438 47.257812 21.863281 47.414062 Z M 21.25 46.265625 C 21.332031 46.425781 21.261719 46.625 21.097656 46.703125 C 20.9375 46.785156 20.738281 46.714844 20.660156 46.550781 C 20.582031 46.390625 20.648438 46.191406 20.8125 46.113281 C 20.976562 46.035156 21.171875 46.101562 21.25 46.265625 Z M 20.722656 45.074219 C 20.792969 45.242188 20.710938 45.433594 20.539062 45.5 C 20.371094 45.566406 20.179688 45.484375 20.113281 45.316406 C 20.046875 45.148438 20.128906 44.957031 20.296875 44.890625 C 20.464844 44.820312 20.65625 44.90625 20.722656 45.074219 Z M 20.285156 43.84375 C 20.339844 44.019531 20.246094 44.203125 20.070312 44.257812 C 19.898438 44.3125 19.714844 44.21875 19.660156 44.042969 C 19.605469 43.871094 19.699219 43.6875 19.871094 43.632812 C 20.046875 43.578125 20.230469 43.671875 20.285156 43.84375 Z M 19.9375 42.589844 C 19.980469 42.765625 19.871094 42.945312 19.695312 42.984375 C 19.515625 43.027344 19.339844 42.917969 19.296875 42.742188 C 19.253906 42.566406 19.363281 42.386719 19.539062 42.347656 C 19.71875 42.304688 19.894531 42.414062 19.9375 42.589844 Z M 19.679688 41.3125 C 19.710938 41.492188 19.589844 41.660156 19.410156 41.6875 C 19.230469 41.71875 19.0625 41.597656 19.03125 41.417969 C 19.003906 41.238281 19.125 41.070312 19.304688 41.039062 C 19.484375 41.011719 19.652344 41.132812 19.679688 41.3125 Z M 19.519531 40.019531 C 19.535156 40.199219 19.398438 40.359375 19.21875 40.375 C 19.039062 40.390625 18.878906 40.257812 18.863281 40.078125 C 18.847656 39.898438 18.980469 39.738281 19.160156 39.722656 C 19.339844 39.703125 19.5 39.839844 19.519531 40.019531 Z M 19.449219 38.71875 C 19.453125 38.898438 19.308594 39.046875 19.125 39.050781 C 18.945312 39.054688 18.792969 38.910156 18.789062 38.730469 C 18.789062 38.546875 18.933594 38.398438 19.113281 38.394531 C 19.296875 38.390625 19.445312 38.535156 19.449219 38.71875 Z M 19.472656 37.414062 C 19.460938 37.59375 19.308594 37.734375 19.125 37.722656 C 18.945312 37.714844 18.804688 37.558594 18.816406 37.378906 C 18.824219 37.195312 18.980469 37.058594 19.160156 37.066406 C 19.34375 37.078125 19.480469 37.230469 19.472656 37.414062 Z M 19.585938 36.113281 C 19.566406 36.296875 19.398438 36.421875 19.21875 36.398438 C 19.039062 36.378906 18.914062 36.210938 18.933594 36.03125 C 18.957031 35.851562 19.121094 35.726562 19.300781 35.746094 C 19.484375 35.769531 19.609375 35.933594 19.585938 36.113281 Z M 19.796875 34.828125 C 19.761719 35.007812 19.589844 35.121094 19.410156 35.085938 C 19.234375 35.050781 19.117188 34.878906 19.152344 34.699219 C 19.1875 34.523438 19.363281 34.40625 19.539062 34.441406 C 19.71875 34.476562 19.832031 34.652344 19.796875 34.828125 Z M 20.101562 33.5625 C 20.050781 33.734375 19.871094 33.839844 19.695312 33.789062 C 19.519531 33.742188 19.417969 33.558594 19.464844 33.386719 C 19.515625 33.210938 19.695312 33.109375 19.871094 33.15625 C 20.046875 33.207031 20.148438 33.386719 20.101562 33.5625 Z M 20.492188 32.320312 C 20.433594 32.488281 20.246094 32.578125 20.074219 32.519531 C 19.902344 32.457031 19.8125 32.269531 19.875 32.097656 C 19.9375 31.925781 20.125 31.835938 20.292969 31.898438 C 20.464844 31.960938 20.554688 32.148438 20.492188 32.320312 Z M 20.976562 31.109375 C 20.902344 31.273438 20.710938 31.351562 20.542969 31.277344 C 20.378906 31.203125 20.300781 31.007812 20.375 30.84375 C 20.449219 30.675781 20.644531 30.601562 20.808594 30.675781 C 20.976562 30.75 21.050781 30.941406 20.976562 31.109375 Z M 21.546875 29.9375 C 21.460938 30.097656 21.261719 30.15625 21.101562 30.074219 C 20.941406 29.988281 20.882812 29.789062 20.964844 29.628906 C 21.050781 29.46875 21.25 29.40625 21.410156 29.492188 C 21.570312 29.578125 21.632812 29.777344 21.546875 29.9375 Z M 22.199219 28.808594 C 22.101562 28.960938 21.898438 29.007812 21.746094 28.910156 C 21.59375 28.816406 21.546875 28.613281 21.644531 28.457031 C 21.738281 28.304688 21.941406 28.257812 22.097656 28.355469 C 22.25 28.453125 22.296875 28.65625 22.199219 28.808594 Z M 22.933594 27.730469 C 22.824219 27.875 22.617188 27.910156 22.472656 27.800781 C 22.328125 27.695312 22.292969 27.488281 22.402344 27.339844 C 22.507812 27.195312 22.714844 27.164062 22.863281 27.269531 C 23.007812 27.378906 23.039062 27.585938 22.933594 27.730469 Z M 23.742188 26.707031 C 23.621094 26.84375 23.414062 26.863281 23.277344 26.746094 C 23.140625 26.628906 23.121094 26.421875 23.238281 26.28125 C 23.355469 26.144531 23.566406 26.125 23.703125 26.246094 C 23.839844 26.363281 23.859375 26.570312 23.742188 26.707031 Z M 24.621094 25.746094 C 24.492188 25.875 24.285156 25.875 24.15625 25.75 C 24.027344 25.621094 24.023438 25.414062 24.152344 25.285156 C 24.277344 25.15625 24.488281 25.152344 24.617188 25.28125 C 24.746094 25.40625 24.746094 25.617188 24.621094 25.746094 Z M 25.566406 24.847656 C 25.429688 24.96875 25.222656 24.957031 25.101562 24.820312 C 24.980469 24.683594 24.996094 24.476562 25.132812 24.355469 C 25.269531 24.234375 25.476562 24.25 25.59375 24.386719 C 25.714844 24.519531 25.703125 24.730469 25.566406 24.847656 Z M 26.574219 24.023438 C 26.429688 24.132812 26.222656 24.105469 26.113281 23.960938 C 26.003906 23.816406 26.03125 23.609375 26.175781 23.5 C 26.320312 23.390625 26.527344 23.417969 26.636719 23.5625 C 26.746094 23.707031 26.71875 23.914062 26.574219 24.023438 Z M 27.640625 23.269531 C 27.488281 23.371094 27.285156 23.328125 27.183594 23.175781 C 27.085938 23.023438 27.128906 22.820312 27.28125 22.71875 C 27.429688 22.621094 27.636719 22.664062 27.734375 22.816406 C 27.832031 22.96875 27.789062 23.171875 27.640625 23.269531 Z M 28.753906 22.597656 C 28.597656 22.683594 28.394531 22.628906 28.308594 22.46875 C 28.21875 22.3125 28.277344 22.109375 28.4375 22.023438 C 28.59375 21.933594 28.792969 21.992188 28.882812 22.148438 C 28.972656 22.308594 28.914062 22.507812 28.753906 22.597656 Z M 29.917969 22.007812 C 29.753906 22.082031 29.558594 22.011719 29.480469 21.847656 C 29.402344 21.679688 29.476562 21.484375 29.640625 21.410156 C 29.804688 21.332031 30 21.40625 30.078125 21.570312 C 30.152344 21.734375 30.082031 21.929688 29.917969 22.007812 Z M 31.117188 21.5 C 30.949219 21.566406 30.757812 21.480469 30.695312 21.308594 C 30.628906 21.140625 30.714844 20.949219 30.886719 20.886719 C 31.054688 20.820312 31.246094 20.90625 31.308594 21.078125 C 31.375 21.246094 31.289062 21.4375 31.117188 21.5 Z M 32.351562 21.085938 C 32.179688 21.136719 31.996094 21.035156 31.945312 20.863281 C 31.894531 20.6875 31.992188 20.507812 32.164062 20.453125 C 32.339844 20.402344 32.523438 20.503906 32.574219 20.675781 C 32.625 20.851562 32.527344 21.03125 32.351562 21.085938 Z M 33.613281 20.757812 C 33.4375 20.796875 33.261719 20.6875 33.222656 20.507812 C 33.183594 20.332031 33.296875 20.15625 33.472656 20.117188 C 33.652344 20.078125 33.828125 20.191406 33.867188 20.367188 C 33.90625 20.542969 33.792969 20.71875 33.613281 20.757812 Z M 34.898438 20.527344 C 34.71875 20.550781 34.550781 20.425781 34.523438 20.246094 C 34.5 20.070312 34.625 19.902344 34.804688 19.875 C 34.984375 19.851562 35.148438 19.972656 35.175781 20.152344 C 35.203125 20.332031 35.078125 20.5 34.898438 20.527344 Z M 36.191406 20.386719 C 36.011719 20.398438 35.855469 20.261719 35.84375 20.082031 C 35.828125 19.902344 35.964844 19.742188 36.148438 19.730469 C 36.328125 19.71875 36.484375 19.855469 36.496094 20.035156 C 36.511719 20.214844 36.375 20.375 36.191406 20.386719 Z M 36.191406 20.386719 " fill-opacity="1" fill-rule="evenodd"/></g></svg>