<svg xmlns="http://www.w3.org/2000/svg" xmlns:xlink="http://www.w3.org/1999/xlink" width="120" zoomAndPan="magnify" viewBox="0 0 90 89.999999" height="120" preserveAspectRatio="xMidYMid meet" version="1.0"><defs><clipPath id="8f894ca1a1"><path d="M 6.335938 9 L 83.585938 9 L 83.585938 83 L 6.335938 83 Z M 6.335938 9 " clip-rule="nonzero"/></clipPath><clipPath id="a1696d51fa"><path d="M 43 36 L 83.585938 36 L 83.585938 48 L 43 48 Z M 43 36 " clip-rule="nonzero"/></clipPath><clipPath id="87473dba1c"><path d="M 6.335938 36 L 47 36 L 47 48 L 6.335938 48 Z M 6.335938 36 " clip-rule="nonzero"/></clipPath></defs><path fill="#163694" d="M 57.105469 53.367188 C 56.945312 53.367188 56.792969 53.339844 56.644531 53.277344 C 56.496094 53.21875 56.367188 53.128906 56.253906 53.019531 C 56.140625 52.90625 56.054688 52.777344 55.992188 52.628906 C 55.929688 52.484375 55.898438 52.332031 55.898438 52.171875 C 55.898438 52.011719 55.925781 51.859375 55.988281 51.710938 C 56.046875 51.5625 56.132812 51.433594 56.246094 51.320312 C 56.355469 51.207031 56.488281 51.117188 56.632812 51.058594 C 56.78125 50.996094 56.933594 50.964844 57.09375 50.960938 L 57.105469 50.960938 C 57.265625 50.960938 57.417969 50.992188 57.566406 51.054688 C 57.710938 51.113281 57.84375 51.203125 57.953125 51.316406 C 58.066406 51.425781 58.152344 51.558594 58.214844 51.703125 C 58.277344 51.851562 58.308594 52.003906 58.308594 52.164062 C 58.308594 52.324219 58.277344 52.476562 58.214844 52.625 C 58.152344 52.773438 58.066406 52.902344 57.953125 53.015625 C 57.84375 53.128906 57.710938 53.214844 57.566406 53.277344 C 57.417969 53.335938 57.265625 53.367188 57.105469 53.367188 Z M 57.105469 53.367188 " fill-opacity="1" fill-rule="nonzero"/><path fill="#163694" d="M 39.066406 66.59375 C 38.90625 66.59375 38.753906 66.566406 38.605469 66.503906 C 38.457031 66.445312 38.328125 66.359375 38.214844 66.246094 C 38.101562 66.132812 38.015625 66.003906 37.953125 65.859375 C 37.890625 65.710938 37.859375 65.558594 37.859375 65.398438 C 37.859375 65.238281 37.886719 65.085938 37.949219 64.9375 C 38.007812 64.789062 38.09375 64.660156 38.207031 64.546875 C 38.320312 64.433594 38.449219 64.34375 38.59375 64.285156 C 38.742188 64.222656 38.894531 64.191406 39.054688 64.191406 L 39.066406 64.191406 C 39.226562 64.191406 39.378906 64.21875 39.527344 64.28125 C 39.675781 64.34375 39.804688 64.429688 39.917969 64.542969 C 40.03125 64.65625 40.117188 64.785156 40.179688 64.933594 C 40.238281 65.078125 40.269531 65.234375 40.269531 65.390625 C 40.269531 65.550781 40.238281 65.707031 40.179688 65.851562 C 40.117188 66 40.03125 66.128906 39.917969 66.242188 C 39.804688 66.355469 39.675781 66.441406 39.527344 66.503906 C 39.378906 66.5625 39.226562 66.59375 39.066406 66.59375 Z M 39.066406 66.59375 " fill-opacity="1" fill-rule="nonzero"/><path fill="#163694" d="M 35.460938 38.9375 C 35.300781 38.9375 35.144531 38.910156 35 38.847656 C 34.851562 38.789062 34.722656 38.703125 34.609375 38.589844 C 34.492188 38.476562 34.40625 38.347656 34.34375 38.199219 C 34.28125 38.054688 34.25 37.898438 34.25 37.742188 C 34.25 37.582031 34.28125 37.429688 34.339844 37.28125 C 34.402344 37.132812 34.488281 37.003906 34.597656 36.890625 C 34.710938 36.777344 34.839844 36.6875 34.988281 36.625 C 35.136719 36.566406 35.289062 36.535156 35.449219 36.53125 L 35.460938 36.53125 C 35.617188 36.53125 35.773438 36.5625 35.917969 36.625 C 36.066406 36.683594 36.195312 36.773438 36.308594 36.882812 C 36.421875 36.996094 36.507812 37.128906 36.570312 37.273438 C 36.632812 37.421875 36.660156 37.574219 36.660156 37.734375 C 36.660156 37.894531 36.632812 38.046875 36.570312 38.195312 C 36.507812 38.34375 36.421875 38.472656 36.308594 38.585938 C 36.195312 38.699219 36.066406 38.785156 35.917969 38.847656 C 35.773438 38.90625 35.617188 38.9375 35.460938 38.9375 Z M 35.460938 38.9375 " fill-opacity="1" fill-rule="nonzero"/><path fill="#163694" d="M 59.507812 48.558594 C 59.351562 48.558594 59.195312 48.527344 59.046875 48.46875 C 58.902344 48.40625 58.769531 48.320312 58.65625 48.210938 C 58.542969 48.097656 58.457031 47.96875 58.394531 47.820312 C 58.332031 47.671875 58.300781 47.519531 58.300781 47.359375 C 58.300781 47.203125 58.328125 47.046875 58.390625 46.898438 C 58.449219 46.753906 58.535156 46.621094 58.648438 46.507812 C 58.761719 46.394531 58.890625 46.308594 59.039062 46.246094 C 59.183594 46.183594 59.339844 46.152344 59.496094 46.152344 L 59.507812 46.152344 C 59.667969 46.152344 59.820312 46.183594 59.96875 46.242188 C 60.117188 46.304688 60.246094 46.390625 60.359375 46.503906 C 60.472656 46.617188 60.558594 46.746094 60.621094 46.894531 C 60.679688 47.042969 60.710938 47.195312 60.710938 47.355469 C 60.710938 47.515625 60.679688 47.667969 60.621094 47.816406 C 60.558594 47.960938 60.472656 48.09375 60.359375 48.207031 C 60.246094 48.316406 60.117188 48.40625 59.96875 48.464844 C 59.820312 48.527344 59.667969 48.558594 59.507812 48.558594 Z M 59.507812 48.558594 " fill-opacity="1" fill-rule="nonzero"/><g clip-path="url(#8f894ca1a1)"><path fill="#163694" d="M 67.199219 82.882812 C 65.902344 82.785156 64.742188 82.328125 63.730469 81.511719 L 50.410156 72.242188 C 49.605469 71.746094 48.75 71.371094 47.839844 71.113281 C 46.929688 70.855469 46 70.726562 45.054688 70.726562 C 44.109375 70.726562 43.183594 70.855469 42.273438 71.113281 C 41.363281 71.371094 40.503906 71.746094 39.699219 72.242188 L 26.382812 81.507812 C 23.742188 83.347656 22.1875 83.003906 21.347656 82.394531 C 20.507812 81.785156 19.703125 80.410156 20.632812 77.332031 L 25.332031 61.800781 C 25.554688 60.882812 25.648438 59.953125 25.613281 59.007812 C 25.574219 58.0625 25.410156 57.140625 25.117188 56.242188 C 24.828125 55.339844 24.417969 54.5 23.890625 53.714844 C 23.363281 52.925781 22.742188 52.226562 22.023438 51.617188 L 9.09375 41.8125 C 6.53125 39.871094 6.375 38.285156 6.695312 37.296875 C 7.015625 36.3125 8.074219 35.121094 11.289062 35.054688 L 27.511719 34.726562 C 28.453125 34.652344 29.367188 34.453125 30.253906 34.125 C 31.140625 33.800781 31.96875 33.359375 32.734375 32.804688 C 33.5 32.246094 34.171875 31.597656 34.757812 30.855469 C 35.34375 30.113281 35.816406 29.304688 36.175781 28.429688 L 41.503906 13.105469 C 42.558594 10.066406 44.019531 9.429688 45.054688 9.429688 C 46.09375 9.429688 47.550781 10.066406 48.609375 13.105469 L 53.9375 28.429688 C 54.296875 29.304688 54.769531 30.113281 55.355469 30.855469 C 55.9375 31.597656 56.613281 32.246094 57.378906 32.804688 C 58.144531 33.359375 58.96875 33.800781 59.855469 34.125 C 60.742188 34.453125 61.660156 34.652344 62.601562 34.726562 L 78.824219 35.054688 C 82.039062 35.121094 83.09375 36.3125 83.417969 37.296875 C 83.738281 38.285156 83.582031 39.871094 81.019531 41.8125 L 68.089844 51.617188 C 67.371094 52.226562 66.746094 52.925781 66.21875 53.714844 C 65.695312 54.5 65.285156 55.339844 64.992188 56.242188 C 64.699219 57.140625 64.535156 58.0625 64.5 59.007812 C 64.464844 59.953125 64.558594 60.882812 64.78125 61.800781 L 69.476562 77.332031 C 70.410156 80.410156 69.605469 81.785156 68.765625 82.394531 C 68.296875 82.730469 67.773438 82.890625 67.199219 82.882812 Z M 45.054688 68.332031 C 47.496094 68.285156 49.742188 68.933594 51.785156 70.265625 L 65.101562 79.535156 C 66.585938 80.566406 67.273438 80.503906 67.351562 80.449219 C 67.425781 80.394531 67.699219 79.753906 67.175781 78.027344 L 62.476562 62.5 C 62.1875 61.34375 62.0625 60.171875 62.101562 58.984375 C 62.144531 57.792969 62.347656 56.632812 62.714844 55.5 C 63.082031 54.367188 63.597656 53.308594 64.265625 52.324219 C 64.933594 51.335938 65.722656 50.460938 66.636719 49.699219 L 79.566406 39.898438 C 81 38.808594 81.15625 38.128906 81.128906 38.042969 C 81.101562 37.953125 80.574219 37.496094 78.773438 37.460938 L 62.550781 37.128906 C 61.363281 37.050781 60.210938 36.804688 59.09375 36.398438 C 57.972656 35.992188 56.933594 35.441406 55.96875 34.742188 C 55.007812 34.042969 54.160156 33.222656 53.429688 32.285156 C 52.695312 31.34375 52.109375 30.324219 51.664062 29.21875 L 46.335938 13.894531 C 45.746094 12.191406 45.148438 11.832031 45.054688 11.832031 C 44.964844 11.832031 44.367188 12.191406 43.773438 13.894531 L 38.445312 29.21875 C 38.003906 30.324219 37.414062 31.34375 36.683594 32.285156 C 35.953125 33.222656 35.105469 34.042969 34.140625 34.742188 C 33.179688 35.441406 32.136719 35.992188 31.019531 36.398438 C 29.902344 36.804688 28.746094 37.050781 27.558594 37.128906 L 11.339844 37.460938 C 9.535156 37.496094 9.011719 37.953125 8.980469 38.042969 C 8.953125 38.128906 9.109375 38.808594 10.546875 39.898438 L 23.476562 49.699219 C 24.390625 50.460938 25.179688 51.335938 25.847656 52.324219 C 26.511719 53.308594 27.03125 54.367188 27.398438 55.5 C 27.765625 56.632812 27.96875 57.792969 28.007812 58.984375 C 28.050781 60.171875 27.925781 61.34375 27.632812 62.5 L 22.933594 78.027344 C 22.414062 79.753906 22.6875 80.394531 22.761719 80.449219 C 22.839844 80.503906 23.527344 80.566406 25.007812 79.535156 L 38.324219 70.269531 C 40.371094 68.933594 42.613281 68.285156 45.054688 68.332031 Z M 45.054688 68.332031 " fill-opacity="1" fill-rule="nonzero"/></g><g clip-path="url(#a1696d51fa)"><path fill="#163694" d="M 45.054688 47.355469 C 44.75 47.355469 44.480469 47.253906 44.253906 47.046875 C 44.023438 46.84375 43.894531 46.589844 43.859375 46.285156 C 43.828125 45.980469 43.898438 45.703125 44.074219 45.453125 C 44.253906 45.207031 44.492188 45.046875 44.789062 44.980469 L 82.019531 36.5625 C 82.175781 36.527344 82.332031 36.523438 82.488281 36.550781 C 82.648438 36.574219 82.792969 36.632812 82.929688 36.71875 C 83.0625 36.800781 83.175781 36.910156 83.269531 37.039062 C 83.359375 37.171875 83.425781 37.3125 83.460938 37.46875 C 83.496094 37.625 83.5 37.78125 83.472656 37.9375 C 83.445312 38.097656 83.386719 38.242188 83.304688 38.378906 C 83.21875 38.511719 83.109375 38.625 82.980469 38.71875 C 82.847656 38.808594 82.707031 38.875 82.550781 38.90625 L 45.320312 47.324219 C 45.234375 47.34375 45.144531 47.355469 45.054688 47.355469 Z M 45.054688 47.355469 " fill-opacity="1" fill-rule="nonzero"/></g><path fill="#163694" d="M 45.054688 47.355469 C 44.894531 47.355469 44.742188 47.324219 44.59375 47.261719 C 44.449219 47.203125 44.316406 47.117188 44.207031 47.003906 C 44.09375 46.890625 44.003906 46.761719 43.945312 46.613281 C 43.882812 46.464844 43.851562 46.3125 43.851562 46.152344 L 43.851562 10.628906 C 43.851562 10.472656 43.882812 10.316406 43.945312 10.171875 C 44.007812 10.023438 44.09375 9.894531 44.207031 9.78125 C 44.320312 9.667969 44.449219 9.582031 44.597656 9.519531 C 44.742188 9.457031 44.894531 9.429688 45.054688 9.429688 C 45.214844 9.429688 45.367188 9.457031 45.515625 9.519531 C 45.664062 9.582031 45.792969 9.667969 45.90625 9.78125 C 46.019531 9.894531 46.105469 10.023438 46.167969 10.171875 C 46.226562 10.316406 46.257812 10.472656 46.257812 10.628906 L 46.257812 46.152344 C 46.257812 46.3125 46.226562 46.464844 46.167969 46.613281 C 46.105469 46.761719 46.019531 46.890625 45.90625 47.003906 C 45.792969 47.117188 45.664062 47.203125 45.515625 47.261719 C 45.367188 47.324219 45.214844 47.355469 45.054688 47.355469 Z M 45.054688 47.355469 " fill-opacity="1" fill-rule="nonzero"/><g clip-path="url(#87473dba1c)"><path fill="#163694" d="M 45.058594 47.355469 C 44.96875 47.355469 44.878906 47.34375 44.789062 47.324219 L 7.5625 38.90625 C 7.40625 38.871094 7.261719 38.808594 7.132812 38.71875 C 7.003906 38.625 6.894531 38.511719 6.808594 38.375 C 6.722656 38.242188 6.667969 38.097656 6.640625 37.9375 C 6.613281 37.78125 6.617188 37.625 6.652344 37.46875 C 6.6875 37.3125 6.753906 37.171875 6.84375 37.039062 C 6.9375 36.910156 7.050781 36.804688 7.183594 36.71875 C 7.320312 36.632812 7.464844 36.578125 7.621094 36.550781 C 7.78125 36.523438 7.9375 36.527344 8.09375 36.5625 L 45.320312 44.980469 C 45.621094 45.046875 45.859375 45.207031 46.035156 45.453125 C 46.214844 45.703125 46.285156 45.980469 46.25 46.285156 C 46.21875 46.589844 46.085938 46.84375 45.859375 47.046875 C 45.628906 47.253906 45.363281 47.355469 45.058594 47.355469 Z M 45.058594 47.355469 " fill-opacity="1" fill-rule="nonzero"/></g><path fill="#163694" d="M 22.207031 82.707031 C 21.730469 82.707031 21.378906 82.496094 21.152344 82.078125 C 20.925781 81.660156 20.941406 81.25 21.199219 80.851562 L 44.046875 45.5 C 44.132812 45.367188 44.242188 45.253906 44.371094 45.164062 C 44.503906 45.070312 44.648438 45.007812 44.804688 44.976562 C 44.960938 44.941406 45.117188 44.941406 45.273438 44.96875 C 45.429688 44.996094 45.574219 45.054688 45.710938 45.140625 C 45.84375 45.226562 45.957031 45.335938 46.046875 45.46875 C 46.136719 45.601562 46.199219 45.742188 46.234375 45.898438 C 46.265625 46.054688 46.269531 46.210938 46.238281 46.367188 C 46.210938 46.527344 46.152344 46.671875 46.066406 46.804688 L 23.21875 82.15625 C 22.980469 82.523438 22.644531 82.707031 22.207031 82.707031 Z M 22.207031 82.707031 " fill-opacity="1" fill-rule="nonzero"/><path fill="#163694" d="M 67.90625 82.707031 C 67.46875 82.707031 67.128906 82.523438 66.894531 82.15625 L 44.046875 46.804688 C 43.960938 46.671875 43.902344 46.527344 43.875 46.371094 C 43.84375 46.210938 43.847656 46.054688 43.878906 45.902344 C 43.914062 45.746094 43.976562 45.601562 44.066406 45.46875 C 44.15625 45.339844 44.269531 45.230469 44.402344 45.144531 C 44.539062 45.058594 44.683594 45 44.839844 44.96875 C 44.996094 44.941406 45.152344 44.945312 45.308594 44.976562 C 45.464844 45.011719 45.609375 45.074219 45.738281 45.164062 C 45.871094 45.253906 45.980469 45.367188 46.066406 45.5 L 68.914062 80.851562 C 69.171875 81.25 69.1875 81.660156 68.960938 82.078125 C 68.734375 82.496094 68.378906 82.707031 67.90625 82.707031 Z M 67.90625 82.707031 " fill-opacity="1" fill-rule="nonzero"/></svg>