<svg xmlns="http://www.w3.org/2000/svg" xmlns:xlink="http://www.w3.org/1999/xlink" width="100" zoomAndPan="magnify" viewBox="0 0 75 74.999997" height="100" preserveAspectRatio="xMidYMid meet" version="1.0"><defs><clipPath id="08a0cabdc9"><path d="M 18.753906 18.753906 L 56.253906 18.753906 L 56.253906 56.253906 L 18.753906 56.253906 Z M 18.753906 18.753906 " clip-rule="nonzero"/></clipPath></defs><g clip-path="url(#08a0cabdc9)"><path fill="#163694" d="M 44.980469 24.359375 L 27.136719 24.359375 C 26.980469 24.359375 26.851562 24.414062 26.742188 24.523438 C 26.636719 24.632812 26.582031 24.761719 26.582031 24.914062 C 26.582031 25.1875 26.59375 25.457031 26.617188 25.722656 L 22.816406 25.722656 C 22.625 25.722656 22.441406 25.699219 22.257812 25.664062 C 22.199219 25.445312 22.167969 25.226562 22.160156 25.003906 C 22.152344 24.777344 22.171875 24.558594 22.214844 24.335938 C 22.257812 24.117188 22.328125 23.90625 22.417969 23.703125 C 22.511719 23.5 22.628906 23.308594 22.761719 23.128906 C 22.898438 22.953125 23.054688 22.792969 23.226562 22.652344 C 23.402344 22.507812 23.589844 22.390625 23.789062 22.289062 C 23.992188 22.191406 24.199219 22.117188 24.417969 22.066406 C 24.636719 22.015625 24.855469 21.988281 25.082031 21.988281 L 39.78125 21.988281 C 39.933594 21.988281 40.0625 21.9375 40.171875 21.828125 C 40.277344 21.71875 40.332031 21.589844 40.332031 21.4375 C 40.332031 21.285156 40.277344 21.152344 40.171875 21.046875 C 40.0625 20.9375 39.933594 20.882812 39.78125 20.882812 L 25.082031 20.882812 C 24.816406 20.882812 24.554688 20.910156 24.296875 20.960938 C 24.035156 21.011719 23.785156 21.089844 23.539062 21.191406 C 23.292969 21.292969 23.0625 21.414062 22.84375 21.5625 C 22.621094 21.710938 22.417969 21.875 22.230469 22.0625 C 22.042969 22.25 21.875 22.453125 21.730469 22.675781 C 21.582031 22.894531 21.457031 23.125 21.359375 23.371094 C 21.257812 23.617188 21.179688 23.867188 21.128906 24.128906 C 21.078125 24.386719 21.050781 24.648438 21.050781 24.914062 C 21.050781 24.988281 21.058594 25.0625 21.0625 25.136719 C 20.695312 24.859375 20.410156 24.515625 20.203125 24.105469 C 19.996094 23.695312 19.894531 23.257812 19.890625 22.800781 C 19.890625 22.410156 19.964844 22.039062 20.113281 21.679688 C 20.261719 21.320312 20.472656 21.003906 20.746094 20.730469 C 21.019531 20.457031 21.335938 20.246094 21.695312 20.097656 C 22.054688 19.949219 22.425781 19.875 22.816406 19.875 L 37.511719 19.875 C 37.664062 19.875 37.796875 19.820312 37.90625 19.714844 C 38.011719 19.605469 38.066406 19.476562 38.066406 19.320312 C 38.066406 19.167969 38.011719 19.039062 37.90625 18.929688 C 37.796875 18.824219 37.664062 18.769531 37.511719 18.769531 L 22.816406 18.769531 C 22.550781 18.769531 22.289062 18.792969 22.027344 18.847656 C 21.769531 18.898438 21.515625 18.972656 21.273438 19.074219 C 21.027344 19.175781 20.796875 19.300781 20.574219 19.449219 C 20.355469 19.59375 20.152344 19.761719 19.964844 19.949219 C 19.777344 20.136719 19.609375 20.339844 19.464844 20.558594 C 19.316406 20.78125 19.191406 21.011719 19.089844 21.257812 C 18.988281 21.5 18.914062 21.753906 18.863281 22.011719 C 18.808594 22.273438 18.785156 22.535156 18.785156 22.800781 C 18.785156 23.210938 18.851562 23.609375 18.972656 24.003906 C 19.097656 24.394531 19.277344 24.757812 19.511719 25.097656 C 19.746094 25.433594 20.023438 25.726562 20.347656 25.980469 C 20.671875 26.234375 21.027344 26.429688 21.410156 26.574219 C 21.570312 26.929688 21.777344 27.25 22.03125 27.542969 C 22.285156 27.835938 22.574219 28.085938 22.898438 28.296875 C 23.226562 28.507812 23.574219 28.667969 23.945312 28.777344 C 24.316406 28.886719 24.695312 28.941406 25.082031 28.945312 L 27.402344 28.945312 C 27.933594 30.183594 28.679688 31.277344 29.636719 32.226562 C 27.929688 33.882812 28 36.695312 28.003906 36.824219 C 28.007812 36.972656 28.0625 37.097656 28.171875 37.203125 C 28.277344 37.304688 28.40625 37.359375 28.554688 37.359375 L 28.574219 37.359375 C 28.726562 37.351562 28.855469 37.292969 28.960938 37.183594 C 29.0625 37.070312 29.113281 36.941406 29.109375 36.785156 C 29.109375 36.761719 29.042969 34.269531 30.46875 32.960938 C 31.121094 33.480469 31.824219 33.914062 32.578125 34.265625 C 31.542969 35.972656 31.703125 38.121094 31.710938 38.222656 C 31.722656 38.363281 31.78125 38.484375 31.886719 38.582031 C 31.996094 38.679688 32.117188 38.726562 32.261719 38.726562 C 32.277344 38.726562 32.292969 38.726562 32.308594 38.726562 C 32.460938 38.710938 32.585938 38.648438 32.683594 38.53125 C 32.78125 38.414062 32.824219 38.28125 32.8125 38.128906 C 32.8125 38.109375 32.664062 36.085938 33.621094 34.675781 C 34.480469 34.964844 35.359375 35.132812 36.265625 35.1875 C 35.925781 36.402344 35.894531 37.628906 36.167969 38.859375 C 36.203125 39.007812 36.285156 39.121094 36.417969 39.203125 C 36.546875 39.28125 36.6875 39.300781 36.835938 39.265625 C 36.984375 39.230469 37.097656 39.144531 37.175781 39.015625 C 37.257812 38.882812 37.277344 38.746094 37.242188 38.597656 C 37.238281 38.578125 36.800781 36.722656 37.433594 35.207031 L 39.777344 35.207031 C 40.148438 35.207031 40.511719 35.242188 40.875 35.316406 C 41.234375 35.386719 41.585938 35.496094 41.925781 35.636719 C 42.265625 35.777344 42.589844 35.949219 42.894531 36.15625 C 43.203125 36.359375 43.484375 36.59375 43.746094 36.855469 C 44.007812 37.113281 44.238281 37.398438 44.445312 37.703125 C 44.648438 38.011719 44.820312 38.335938 44.960938 38.675781 C 45.101562 39.015625 45.210938 39.367188 45.28125 39.726562 C 45.351562 40.089844 45.390625 40.453125 45.390625 40.824219 C 45.390625 41.285156 45.34375 41.742188 45.253906 42.191406 C 45.164062 42.644531 45.03125 43.085938 44.855469 43.511719 C 44.675781 43.9375 44.460938 44.34375 44.203125 44.726562 C 43.949219 45.109375 43.65625 45.464844 43.332031 45.792969 C 43.003906 46.117188 42.648438 46.410156 42.265625 46.664062 C 41.882812 46.921875 41.476562 47.136719 41.050781 47.3125 C 40.625 47.492188 40.183594 47.625 39.730469 47.714844 C 39.28125 47.804688 38.824219 47.847656 38.359375 47.847656 L 38.304688 47.847656 C 38.296875 47.847656 38.292969 47.847656 38.285156 47.851562 C 36.066406 47.542969 33.960938 46.875 31.96875 45.855469 C 31.8125 45.777344 31.65625 45.769531 31.496094 45.839844 C 31.335938 45.910156 31.230469 46.03125 31.183594 46.199219 C 30.460938 48.800781 31.40625 50.207031 32.484375 50.960938 C 31.777344 53.414062 32.664062 55.308594 33.914062 56.132812 C 34.042969 56.21875 34.183594 56.246094 34.335938 56.214844 C 34.488281 56.179688 34.605469 56.097656 34.6875 55.96875 C 35.472656 54.734375 36.511719 53.472656 39.203125 51.0625 L 40.804688 51.0625 C 41.816406 51.0625 42.820312 50.964844 43.816406 50.765625 C 44.808594 50.570312 45.773438 50.277344 46.710938 49.886719 C 47.648438 49.5 48.539062 49.023438 49.378906 48.460938 C 50.222656 47.898438 51.003906 47.257812 51.71875 46.539062 C 52.4375 45.824219 53.078125 45.042969 53.640625 44.203125 C 54.203125 43.359375 54.679688 42.46875 55.066406 41.53125 C 55.453125 40.597656 55.746094 39.628906 55.945312 38.636719 C 56.144531 37.640625 56.242188 36.636719 56.242188 35.625 C 56.242188 34.886719 56.167969 34.152344 56.023438 33.429688 C 55.878906 32.703125 55.664062 32 55.378906 31.316406 C 55.097656 30.632812 54.75 29.984375 54.339844 29.371094 C 53.929688 28.753906 53.460938 28.1875 52.9375 27.664062 C 52.417969 27.140625 51.847656 26.675781 51.234375 26.261719 C 50.617188 25.851562 49.96875 25.503906 49.285156 25.222656 C 48.605469 24.9375 47.898438 24.726562 47.175781 24.578125 C 46.449219 24.433594 45.71875 24.363281 44.980469 24.359375 Z M 51.40625 45.269531 C 49.164062 45.222656 47.285156 44.4375 46.175781 43.089844 C 46.390625 42.347656 46.496094 41.589844 46.496094 40.816406 C 46.496094 39.78125 46.265625 38.800781 45.804688 37.871094 C 47.523438 37.410156 51.804688 35.867188 54.277344 31.546875 C 54.851562 32.84375 55.136719 34.203125 55.136719 35.625 C 55.140625 37.40625 54.820312 39.132812 54.175781 40.796875 C 53.53125 42.460938 52.609375 43.953125 51.40625 45.269531 Z M 25.082031 27.835938 C 24.195312 27.832031 23.464844 27.496094 22.882812 26.828125 L 26.761719 26.828125 C 26.828125 27.167969 26.910156 27.503906 27.007812 27.835938 Z M 27.703125 25.46875 L 40.707031 25.46875 C 41.316406 26.164062 41.617188 27.589844 41.488281 29.273438 C 41.328125 31.382812 40.539062 33.367188 39.59375 34.097656 L 36.871094 34.097656 C 36.292969 34.097656 35.71875 34.042969 35.148438 33.933594 C 34.582031 33.824219 34.027344 33.664062 33.488281 33.449219 C 32.949219 33.234375 32.4375 32.972656 31.945312 32.660156 C 31.457031 32.347656 31.003906 31.996094 30.582031 31.597656 C 30.160156 31.199219 29.777344 30.765625 29.4375 30.296875 C 29.097656 29.828125 28.804688 29.332031 28.558594 28.808594 C 28.3125 28.28125 28.117188 27.738281 27.972656 27.175781 C 27.828125 26.617188 27.742188 26.046875 27.703125 25.46875 Z M 40.996094 34.214844 C 41.929688 32.96875 42.464844 31.027344 42.59375 29.355469 C 42.710938 27.78125 42.503906 26.433594 42.019531 25.46875 L 44.980469 25.46875 C 45.851562 25.46875 46.707031 25.578125 47.550781 25.800781 C 48.394531 26.023438 49.199219 26.347656 49.957031 26.773438 C 50.71875 27.203125 51.410156 27.71875 52.039062 28.324219 C 52.664062 28.933594 53.203125 29.609375 53.65625 30.355469 C 51.328125 35.082031 46.507812 36.558594 45.207031 36.878906 C 44.703125 36.183594 44.085938 35.601562 43.359375 35.144531 C 42.632812 34.683594 41.84375 34.375 40.996094 34.214844 Z M 34.109375 54.839844 C 33.519531 54.164062 32.976562 52.835938 33.664062 50.90625 C 33.707031 50.777344 33.707031 50.648438 33.660156 50.523438 C 33.609375 50.398438 33.527344 50.300781 33.410156 50.234375 C 32.289062 49.613281 31.855469 48.601562 32.101562 47.152344 C 33.628906 47.867188 35.21875 48.394531 36.875 48.738281 C 36.757812 48.960938 36.699219 49.203125 36.695312 49.457031 C 36.695312 49.78125 36.785156 50.078125 36.96875 50.351562 C 37.148438 50.621094 37.390625 50.816406 37.691406 50.941406 C 35.796875 52.6875 34.820312 53.8125 34.109375 54.839844 Z M 48.441406 47.753906 C 46.105469 49.222656 43.5625 49.957031 40.804688 49.957031 L 38.304688 49.957031 C 38.167969 49.953125 38.050781 49.902344 37.957031 49.804688 C 37.863281 49.707031 37.816406 49.59375 37.816406 49.457031 C 37.816406 49.320312 37.863281 49.203125 37.957031 49.105469 C 38.050781 49.007812 38.167969 48.960938 38.304688 48.957031 L 38.359375 48.957031 C 39.136719 48.957031 39.894531 48.847656 40.640625 48.628906 C 41.386719 48.410156 42.085938 48.09375 42.738281 47.675781 C 43.390625 47.261719 43.972656 46.761719 44.484375 46.175781 C 44.996094 45.59375 45.414062 44.949219 45.742188 44.246094 C 47.042969 45.460938 48.582031 46.148438 50.355469 46.304688 C 49.757812 46.839844 49.117188 47.324219 48.441406 47.753906 Z M 48.441406 47.753906 " fill-opacity="1" fill-rule="nonzero"/></g><path fill="#163694" d="M 47.363281 27.714844 C 48.011719 27.910156 48.625 28.183594 49.203125 28.527344 C 49.335938 28.601562 49.472656 28.621094 49.617188 28.582031 C 49.761719 28.542969 49.871094 28.460938 49.949219 28.332031 C 50.027344 28.203125 50.046875 28.066406 50.015625 27.921875 C 49.980469 27.773438 49.898438 27.660156 49.773438 27.582031 C 49.113281 27.1875 48.417969 26.878906 47.683594 26.65625 C 47.539062 26.609375 47.398438 26.625 47.261719 26.699219 C 47.128906 26.769531 47.039062 26.878906 46.992188 27.023438 C 46.949219 27.171875 46.964844 27.3125 47.035156 27.445312 C 47.109375 27.582031 47.21875 27.671875 47.363281 27.714844 Z M 47.363281 27.714844 " fill-opacity="1" fill-rule="nonzero"/><path fill="#163694" d="M 34.195312 29.351562 C 34.394531 29.351562 34.585938 29.3125 34.769531 29.238281 C 34.953125 29.160156 35.113281 29.050781 35.257812 28.910156 C 35.398438 28.769531 35.503906 28.609375 35.582031 28.425781 C 35.65625 28.242188 35.695312 28.050781 35.695312 27.851562 C 35.695312 27.652344 35.65625 27.460938 35.582031 27.277344 C 35.503906 27.089844 35.398438 26.929688 35.257812 26.789062 C 35.113281 26.648438 34.953125 26.539062 34.769531 26.460938 C 34.585938 26.386719 34.394531 26.347656 34.195312 26.347656 C 33.996094 26.347656 33.804688 26.386719 33.621094 26.460938 C 33.4375 26.539062 33.273438 26.648438 33.132812 26.789062 C 32.992188 26.929688 32.882812 27.089844 32.808594 27.277344 C 32.730469 27.460938 32.691406 27.652344 32.691406 27.851562 C 32.691406 28.050781 32.730469 28.242188 32.808594 28.425781 C 32.882812 28.609375 32.992188 28.769531 33.132812 28.910156 C 33.273438 29.050781 33.4375 29.160156 33.621094 29.238281 C 33.804688 29.3125 33.996094 29.351562 34.195312 29.351562 Z M 34.195312 27.453125 C 34.304688 27.453125 34.394531 27.492188 34.472656 27.570312 C 34.550781 27.648438 34.589844 27.742188 34.589844 27.851562 C 34.589844 27.960938 34.550781 28.050781 34.472656 28.128906 C 34.394531 28.207031 34.304688 28.246094 34.195312 28.246094 C 34.085938 28.246094 33.992188 28.207031 33.914062 28.128906 C 33.835938 28.050781 33.800781 27.960938 33.800781 27.851562 C 33.800781 27.742188 33.839844 27.648438 33.914062 27.570312 C 33.992188 27.492188 34.085938 27.453125 34.195312 27.453125 Z M 34.195312 27.453125 " fill-opacity="1" fill-rule="nonzero"/></svg>