<svg xmlns="http://www.w3.org/2000/svg" xmlns:xlink="http://www.w3.org/1999/xlink" width="1080" zoomAndPan="magnify" viewBox="0 0 810 809.999993" height="1080" preserveAspectRatio="xMidYMid meet" version="1.0"><defs><clipPath id="ff3de84efb"><path d="M 299.996094 244 L 509.996094 244 L 509.996094 566 L 299.996094 566 Z M 299.996094 244 " clip-rule="nonzero"/></clipPath><clipPath id="05d535bce9"><path d="M 375.285156 426 L 434.535156 426 L 434.535156 493.945312 L 375.285156 493.945312 Z M 375.285156 426 " clip-rule="nonzero"/></clipPath></defs><g clip-path="url(#ff3de84efb)"><path fill="#163694" d="M 510.066406 312.855469 L 510.066406 274.878906 C 510.066406 273.878906 510.015625 272.878906 509.914062 271.878906 C 509.816406 270.882812 509.667969 269.894531 509.472656 268.910156 C 509.273438 267.929688 509.03125 266.957031 508.738281 266 C 508.449219 265.042969 508.109375 264.101562 507.726562 263.175781 C 507.34375 262.25 506.914062 261.34375 506.441406 260.460938 C 505.96875 259.578125 505.453125 258.71875 504.894531 257.886719 C 504.339844 257.054688 503.742188 256.25 503.105469 255.476562 C 502.472656 254.703125 501.796875 253.960938 501.089844 253.253906 C 500.382812 252.542969 499.640625 251.871094 498.867188 251.238281 C 498.089844 250.601562 497.289062 250.003906 496.453125 249.449219 C 495.621094 248.890625 494.761719 248.378906 493.878906 247.90625 C 492.996094 247.433594 492.089844 247.003906 491.164062 246.621094 C 490.242188 246.238281 489.296875 245.898438 488.339844 245.609375 C 487.382812 245.316406 486.410156 245.074219 485.429688 244.875 C 484.445312 244.679688 483.457031 244.53125 482.457031 244.433594 C 481.460938 244.335938 480.460938 244.285156 479.460938 244.285156 L 330.53125 244.285156 C 329.53125 244.285156 328.53125 244.335938 327.535156 244.433594 C 326.535156 244.535156 325.546875 244.679688 324.566406 244.878906 C 323.582031 245.074219 322.613281 245.316406 321.652344 245.609375 C 320.695312 245.898438 319.753906 246.238281 318.828125 246.621094 C 317.902344 247.003906 317 247.433594 316.113281 247.90625 C 315.230469 248.378906 314.375 248.894531 313.539062 249.449219 C 312.707031 250.007812 311.902344 250.601562 311.128906 251.238281 C 310.355469 251.875 309.613281 252.546875 308.90625 253.253906 C 308.199219 253.960938 307.523438 254.703125 306.890625 255.476562 C 306.253906 256.253906 305.65625 257.054688 305.101562 257.890625 C 304.542969 258.722656 304.027344 259.578125 303.554688 260.460938 C 303.082031 261.347656 302.65625 262.25 302.269531 263.175781 C 301.886719 264.101562 301.550781 265.042969 301.257812 266 C 300.964844 266.960938 300.722656 267.929688 300.527344 268.914062 C 300.328125 269.894531 300.183594 270.882812 300.082031 271.882812 C 299.984375 272.878906 299.933594 273.878906 299.933594 274.878906 L 299.933594 312.855469 C 299.933594 313.890625 300.035156 314.917969 300.238281 315.933594 C 300.441406 316.949219 300.742188 317.933594 301.140625 318.890625 C 301.535156 319.847656 302.023438 320.757812 302.597656 321.617188 C 303.175781 322.480469 303.828125 323.277344 304.5625 324.007812 C 305.292969 324.742188 306.089844 325.394531 306.949219 325.972656 C 307.8125 326.546875 308.722656 327.035156 309.679688 327.429688 C 310.632812 327.828125 311.621094 328.128906 312.636719 328.332031 C 313.652344 328.535156 314.679688 328.636719 315.714844 328.636719 L 331.476562 328.636719 L 307.855469 355.101562 C 305.832031 357.34375 304.28125 359.871094 303.199219 362.6875 C 302.117188 365.507812 301.582031 368.421875 301.585938 371.441406 L 301.585938 541.070312 C 301.585938 541.875 301.625 542.679688 301.707031 543.480469 C 301.785156 544.28125 301.902344 545.078125 302.058594 545.867188 C 302.214844 546.65625 302.410156 547.4375 302.644531 548.207031 C 302.875 548.976562 303.148438 549.734375 303.453125 550.480469 C 303.761719 551.222656 304.105469 551.949219 304.484375 552.660156 C 304.863281 553.371094 305.273438 554.0625 305.722656 554.734375 C 306.167969 555.402344 306.644531 556.050781 307.15625 556.671875 C 307.664062 557.296875 308.203125 557.894531 308.773438 558.464844 C 309.339844 559.035156 309.9375 559.574219 310.558594 560.085938 C 311.179688 560.597656 311.824219 561.078125 312.492188 561.527344 C 313.160156 561.976562 313.847656 562.390625 314.558594 562.773438 C 315.265625 563.15625 315.992188 563.5 316.738281 563.8125 C 317.480469 564.121094 318.234375 564.394531 319.003906 564.628906 C 319.777344 564.867188 320.554688 565.0625 321.34375 565.222656 C 322.132812 565.382812 322.929688 565.503906 323.730469 565.585938 C 324.53125 565.667969 325.332031 565.710938 326.140625 565.714844 L 483.851562 565.714844 C 484.660156 565.714844 485.464844 565.671875 486.269531 565.59375 C 487.070312 565.515625 487.871094 565.398438 488.660156 565.238281 C 489.453125 565.082031 490.234375 564.886719 491.007812 564.652344 C 491.777344 564.417969 492.539062 564.144531 493.285156 563.835938 C 494.03125 563.527344 494.757812 563.183594 495.46875 562.804688 C 496.183594 562.421875 496.875 562.007812 497.542969 561.558594 C 498.214844 561.113281 498.863281 560.632812 499.488281 560.121094 C 500.109375 559.605469 500.707031 559.066406 501.277344 558.496094 C 501.847656 557.925781 502.390625 557.328125 502.902344 556.703125 C 503.414062 556.078125 503.894531 555.433594 504.34375 554.761719 C 504.792969 554.089844 505.207031 553.398438 505.585938 552.6875 C 505.96875 551.976562 506.3125 551.246094 506.621094 550.5 C 506.929688 549.753906 507.199219 548.996094 507.433594 548.222656 C 507.667969 547.453125 507.863281 546.667969 508.023438 545.878906 C 508.179688 545.085938 508.296875 544.289062 508.378906 543.484375 C 508.457031 542.683594 508.496094 541.878906 508.496094 541.070312 L 508.496094 371.445312 C 508.503906 368.433594 507.96875 365.519531 506.890625 362.707031 C 505.8125 359.894531 504.265625 357.367188 502.25 355.128906 L 478.550781 328.644531 L 494.289062 328.644531 C 495.324219 328.640625 496.351562 328.539062 497.367188 328.335938 C 498.382812 328.132812 499.367188 327.832031 500.324219 327.433594 C 501.28125 327.035156 502.191406 326.550781 503.050781 325.972656 C 503.910156 325.398438 504.707031 324.742188 505.441406 324.011719 C 506.171875 323.277344 506.828125 322.480469 507.402344 321.621094 C 507.976562 320.757812 508.464844 319.847656 508.859375 318.890625 C 509.257812 317.9375 509.558594 316.949219 509.761719 315.933594 C 509.960938 314.917969 510.066406 313.890625 510.066406 312.855469 Z M 310.640625 312.855469 L 310.640625 274.878906 C 310.640625 274.226562 310.675781 273.578125 310.738281 272.929688 C 310.804688 272.28125 310.898438 271.640625 311.027344 271 C 311.15625 270.363281 311.3125 269.730469 311.503906 269.109375 C 311.691406 268.484375 311.914062 267.875 312.164062 267.273438 C 312.410156 266.671875 312.691406 266.082031 312.996094 265.511719 C 313.304688 264.9375 313.640625 264.378906 314 263.835938 C 314.363281 263.296875 314.75 262.773438 315.164062 262.269531 C 315.578125 261.765625 316.015625 261.285156 316.476562 260.824219 C 316.9375 260.367188 317.417969 259.929688 317.921875 259.515625 C 318.425781 259.101562 318.945312 258.714844 319.488281 258.355469 C 320.03125 257.992188 320.585938 257.65625 321.160156 257.351562 C 321.734375 257.042969 322.324219 256.765625 322.925781 256.515625 C 323.527344 256.265625 324.136719 256.046875 324.761719 255.859375 C 325.382812 255.667969 326.015625 255.511719 326.652344 255.382812 C 327.292969 255.257812 327.933594 255.160156 328.582031 255.097656 C 329.230469 255.03125 329.878906 255 330.53125 255 L 479.460938 255 C 480.113281 255 480.761719 255.03125 481.410156 255.097656 C 482.054688 255.160156 482.699219 255.257812 483.335938 255.382812 C 483.976562 255.511719 484.605469 255.671875 485.230469 255.859375 C 485.851562 256.046875 486.464844 256.269531 487.066406 256.519531 C 487.667969 256.765625 488.253906 257.046875 488.828125 257.351562 C 489.402344 257.660156 489.960938 257.992188 490.5 258.355469 C 491.042969 258.71875 491.566406 259.105469 492.066406 259.519531 C 492.570312 259.929688 493.054688 260.367188 493.511719 260.828125 C 493.972656 261.289062 494.410156 261.769531 494.824219 262.273438 C 495.238281 262.777344 495.625 263.296875 495.988281 263.839844 C 496.347656 264.378906 496.683594 264.9375 496.988281 265.511719 C 497.296875 266.085938 497.574219 266.671875 497.824219 267.273438 C 498.074219 267.875 498.292969 268.488281 498.484375 269.109375 C 498.671875 269.734375 498.832031 270.363281 498.960938 271 C 499.085938 271.640625 499.183594 272.28125 499.246094 272.929688 C 499.3125 273.578125 499.34375 274.226562 499.347656 274.878906 L 499.347656 312.855469 C 499.351562 313.191406 499.320312 313.519531 499.257812 313.847656 C 499.195312 314.175781 499.101562 314.496094 498.976562 314.804688 C 498.847656 315.113281 498.695312 315.40625 498.507812 315.683594 C 498.324219 315.960938 498.113281 316.21875 497.878906 316.457031 C 497.640625 316.691406 497.386719 316.902344 497.105469 317.085938 C 496.828125 317.269531 496.535156 317.425781 496.226562 317.550781 C 495.917969 317.679688 495.597656 317.773438 495.269531 317.835938 C 494.941406 317.898438 494.613281 317.925781 494.277344 317.921875 L 315.707031 317.921875 C 315.375 317.921875 315.046875 317.890625 314.71875 317.824219 C 314.394531 317.761719 314.078125 317.664062 313.769531 317.535156 C 313.460938 317.410156 313.171875 317.253906 312.894531 317.066406 C 312.617188 316.882812 312.363281 316.671875 312.125 316.4375 C 311.890625 316.203125 311.679688 315.945312 311.496094 315.671875 C 311.3125 315.394531 311.15625 315.101562 311.027344 314.792969 C 310.902344 314.488281 310.804688 314.171875 310.738281 313.84375 C 310.675781 313.519531 310.640625 313.1875 310.640625 312.855469 Z M 494.277344 362.292969 C 495.410156 363.546875 496.277344 364.960938 496.878906 366.539062 C 497.484375 368.117188 497.78125 369.753906 497.777344 371.441406 L 497.777344 541.070312 C 497.777344 541.984375 497.6875 542.890625 497.507812 543.789062 C 497.332031 544.683594 497.066406 545.554688 496.714844 546.398438 C 496.367188 547.246094 495.9375 548.046875 495.429688 548.808594 C 494.921875 549.570312 494.34375 550.273438 493.695312 550.917969 C 493.050781 551.566406 492.347656 552.144531 491.585938 552.652344 C 490.824219 553.160156 490.023438 553.589844 489.179688 553.9375 C 488.332031 554.289062 487.460938 554.550781 486.566406 554.730469 C 485.667969 554.910156 484.761719 555 483.847656 555 L 326.140625 555 C 325.226562 554.992188 324.328125 554.898438 323.433594 554.71875 C 322.542969 554.535156 321.675781 554.269531 320.835938 553.917969 C 319.996094 553.5625 319.199219 553.132812 318.445312 552.625 C 317.691406 552.113281 316.992188 551.535156 316.351562 550.890625 C 315.707031 550.246094 315.136719 549.542969 314.632812 548.78125 C 314.128906 548.023438 313.703125 547.222656 313.359375 546.378906 C 313.011719 545.539062 312.753906 544.671875 312.578125 543.777344 C 312.402344 542.882812 312.316406 541.980469 312.316406 541.070312 L 312.316406 371.445312 C 312.3125 369.75 312.617188 368.113281 313.222656 366.53125 C 313.832031 364.945312 314.703125 363.527344 315.84375 362.269531 L 345.84375 328.644531 L 464.160156 328.644531 Z M 494.277344 362.292969 " fill-opacity="1" fill-rule="nonzero"/></g><path fill="#163694" d="M 338.980469 409.605469 L 338.980469 506.898438 C 338.980469 507.796875 339.070312 508.6875 339.246094 509.570312 C 339.421875 510.453125 339.683594 511.3125 340.027344 512.140625 C 340.371094 512.972656 340.792969 513.761719 341.292969 514.511719 C 341.792969 515.261719 342.363281 515.953125 343 516.589844 C 343.632812 517.226562 344.328125 517.792969 345.074219 518.292969 C 345.824219 518.796875 346.613281 519.21875 347.445312 519.5625 C 348.277344 519.90625 349.132812 520.167969 350.015625 520.34375 C 350.898438 520.519531 351.789062 520.609375 352.6875 520.609375 L 457.304688 520.609375 C 458.203125 520.609375 459.09375 520.519531 459.976562 520.34375 C 460.859375 520.167969 461.71875 519.90625 462.546875 519.5625 C 463.378906 519.21875 464.167969 518.796875 464.917969 518.292969 C 465.664062 517.792969 466.359375 517.226562 466.996094 516.589844 C 467.628906 515.953125 468.199219 515.261719 468.699219 514.511719 C 469.199219 513.761719 469.621094 512.972656 469.964844 512.140625 C 470.3125 511.3125 470.570312 510.453125 470.746094 509.570312 C 470.921875 508.6875 471.011719 507.796875 471.011719 506.898438 L 471.011719 409.605469 C 471.011719 408.707031 470.921875 407.8125 470.746094 406.933594 C 470.570312 406.050781 470.3125 405.191406 469.964844 404.359375 C 469.621094 403.527344 469.199219 402.738281 468.699219 401.992188 C 468.199219 401.242188 467.628906 400.550781 466.996094 399.914062 C 466.359375 399.277344 465.664062 398.707031 464.917969 398.207031 C 464.167969 397.707031 463.378906 397.285156 462.546875 396.941406 C 461.71875 396.59375 460.859375 396.335938 459.976562 396.15625 C 459.09375 395.980469 458.203125 395.890625 457.304688 395.890625 L 352.6875 395.890625 C 351.789062 395.890625 350.898438 395.980469 350.015625 396.15625 C 349.132812 396.335938 348.277344 396.59375 347.445312 396.941406 C 346.613281 397.285156 345.824219 397.707031 345.074219 398.207031 C 344.328125 398.707031 343.632812 399.277344 343 399.914062 C 342.363281 400.550781 341.792969 401.242188 341.292969 401.992188 C 340.792969 402.738281 340.371094 403.527344 340.027344 404.359375 C 339.683594 405.191406 339.421875 406.050781 339.246094 406.933594 C 339.070312 407.8125 338.980469 408.707031 338.980469 409.605469 Z M 349.695312 409.605469 C 349.695312 409.207031 349.773438 408.828125 349.921875 408.460938 C 350.074219 408.09375 350.292969 407.769531 350.574219 407.488281 C 350.855469 407.210938 351.175781 406.992188 351.542969 406.839844 C 351.910156 406.6875 352.292969 406.613281 352.6875 406.609375 L 457.304688 406.609375 C 457.699219 406.613281 458.082031 406.6875 458.449219 406.839844 C 458.816406 406.992188 459.136719 407.210938 459.417969 407.488281 C 459.699219 407.769531 459.917969 408.09375 460.070312 408.460938 C 460.222656 408.828125 460.296875 409.207031 460.296875 409.605469 L 460.296875 506.898438 C 460.296875 507.292969 460.222656 507.675781 460.070312 508.042969 C 459.917969 508.410156 459.703125 508.734375 459.421875 509.015625 C 459.140625 509.296875 458.816406 509.515625 458.449219 509.667969 C 458.082031 509.820312 457.699219 509.894531 457.304688 509.898438 L 352.6875 509.898438 C 352.292969 509.894531 351.910156 509.820312 351.542969 509.667969 C 351.175781 509.515625 350.851562 509.296875 350.570312 509.015625 C 350.289062 508.734375 350.074219 508.410156 349.921875 508.042969 C 349.769531 507.675781 349.695312 507.292969 349.695312 506.898438 Z M 349.695312 409.605469 " fill-opacity="1" fill-rule="nonzero"/><g clip-path="url(#05d535bce9)"><path fill="#163694" d="M 377.757812 455.886719 C 376.796875 458.40625 376.703125 461.253906 377.710938 463.921875 C 381.136719 473 390.375 485.539062 414.960938 493.722656 C 415.3125 493.839844 415.675781 493.894531 416.039062 493.894531 C 416.753906 493.894531 417.464844 493.671875 418.058594 493.246094 C 418.964844 492.589844 419.484375 491.578125 419.484375 490.460938 C 419.484375 490.074219 419.398438 489.707031 419.273438 489.351562 C 422.660156 490.960938 426.320312 492.425781 430.230469 493.722656 C 430.59375 493.84375 430.957031 493.90625 431.3125 493.90625 C 433.207031 493.90625 434.75 492.363281 434.75 490.46875 C 434.75 489.242188 434.082031 488.097656 433.003906 487.472656 C 429.75 485.617188 418.933594 478.105469 416.222656 459.214844 C 415.886719 456.863281 415.316406 454.859375 414.46875 453.09375 C 412.828125 449.695312 410.589844 447.648438 407.953125 447.085938 C 407.960938 446.964844 407.988281 446.84375 407.988281 446.71875 C 407.988281 445.78125 407.71875 444.871094 407.207031 444.101562 C 406.757812 443.410156 406.160156 442.863281 405.429688 442.484375 C 404.671875 442.082031 404.105469 441.410156 403.886719 440.640625 C 403.742188 440.152344 403.671875 439.398438 404.144531 438.578125 C 405.253906 436.617188 406.902344 434.683594 409.011719 432.855469 C 409.875 432.148438 410.363281 431.089844 410.363281 429.945312 C 410.363281 428.898438 409.960938 427.917969 409.21875 427.175781 C 408 425.957031 406.097656 425.679688 404.582031 426.5 C 395.59375 431.453125 394.257812 441.414062 394.101562 445.464844 C 394.074219 446.140625 393.800781 446.761719 393.34375 447.25 C 393.128906 447.179688 392.910156 447.113281 392.6875 447.066406 C 392.699219 446.953125 392.722656 446.835938 392.722656 446.722656 C 392.722656 445.769531 392.460938 444.886719 391.945312 444.109375 C 391.503906 443.425781 390.890625 442.859375 390.167969 442.480469 C 389.394531 442.074219 388.820312 441.402344 388.59375 440.640625 C 388.457031 440.175781 388.382812 439.457031 388.816406 438.679688 C 390.226562 436.15625 392.289062 434.113281 393.753906 432.859375 C 394.613281 432.148438 395.101562 431.089844 395.101562 429.949219 C 395.101562 428.90625 394.695312 427.921875 393.957031 427.183594 C 392.738281 425.964844 390.828125 425.683594 389.3125 426.507812 C 380.339844 431.445312 378.996094 441.40625 378.835938 445.457031 C 378.800781 446.367188 378.320312 447.207031 377.542969 447.714844 C 376.175781 448.621094 375.363281 450.140625 375.363281 451.773438 C 375.363281 452.6875 375.628906 453.585938 376.140625 454.378906 C 376.5625 455.015625 377.121094 455.519531 377.757812 455.890625 Z M 416.734375 491.410156 C 416.421875 491.632812 416.035156 491.691406 415.671875 491.574219 C 391.933594 483.675781 383.078125 471.742188 379.828125 463.125 C 378.152344 458.679688 380.25 453.601562 384.609375 451.566406 L 387.308594 450.304688 C 387.328125 450.296875 387.347656 450.285156 387.367188 450.277344 C 388.730469 449.539062 389.996094 449.167969 391.15625 449.167969 C 391.722656 449.167969 392.261719 449.257812 392.777344 449.433594 C 395.113281 450.246094 396.617188 452.761719 397.46875 454.734375 C 398.039062 456.058594 398.441406 457.597656 398.707031 459.445312 C 400.410156 471.453125 405.296875 479.148438 409.671875 483.8125 C 409.699219 483.84375 409.714844 483.886719 409.746094 483.917969 C 409.78125 483.949219 409.820312 483.980469 409.863281 484.011719 C 412.679688 486.964844 415.261719 488.664062 416.617188 489.4375 C 416.992188 489.652344 417.222656 490.046875 417.222656 490.464844 C 417.222656 490.84375 417.046875 491.1875 416.734375 491.410156 Z M 412.429688 454.070312 C 413.171875 455.625 413.679688 457.410156 413.980469 459.53125 C 416.835938 479.4375 428.40625 487.453125 431.875 489.429688 C 432.257812 489.652344 432.484375 490.039062 432.484375 490.464844 C 432.484375 491.167969 431.878906 491.640625 431.308594 491.640625 C 431.203125 491.640625 431.070312 491.617188 430.941406 491.574219 C 423.359375 489.050781 416.753906 485.917969 411.308594 482.257812 C 407.191406 477.875 402.570312 470.585938 400.945312 459.125 C 400.652344 457.074219 400.195312 455.34375 399.542969 453.835938 C 399.320312 453.316406 399.046875 452.761719 398.738281 452.207031 C 399.101562 451.964844 399.476562 451.746094 399.867188 451.5625 L 402.636719 450.273438 C 404.042969 449.507812 405.34375 449.136719 406.566406 449.179688 C 408.921875 449.242188 410.894531 450.886719 412.429688 454.070312 Z M 405.667969 428.480469 C 406.300781 428.140625 407.101562 428.257812 407.617188 428.773438 C 407.929688 429.085938 408.101562 429.5 408.101562 429.941406 C 408.101562 430.214844 408.03125 430.726562 407.554688 431.121094 C 405.222656 433.140625 403.414062 435.269531 402.179688 437.453125 C 401.507812 438.625 401.339844 439.976562 401.710938 441.261719 C 402.105469 442.617188 403.070312 443.789062 404.378906 444.484375 C 404.761719 444.683594 405.074219 444.964844 405.316406 445.335938 C 405.585938 445.75 405.726562 446.214844 405.726562 446.714844 C 405.726562 446.796875 405.710938 446.878906 405.703125 446.960938 C 404.378906 447.078125 402.992188 447.5 401.621094 448.253906 L 398.914062 449.511719 C 398.421875 449.738281 397.953125 450.015625 397.496094 450.316406 C 396.902344 449.558594 396.210938 448.863281 395.410156 448.292969 C 395.988281 447.5 396.324219 446.550781 396.359375 445.546875 C 396.503906 441.878906 397.695312 432.871094 405.667969 428.480469 Z M 378.785156 449.597656 C 380.167969 448.699219 381.03125 447.183594 381.09375 445.542969 C 381.242188 441.875 382.4375 432.867188 390.398438 428.488281 C 391.035156 428.140625 391.839844 428.261719 392.359375 428.777344 C 392.671875 429.09375 392.839844 429.496094 392.839844 429.945312 C 392.839844 430.410156 392.648438 430.835938 392.296875 431.125 C 390.675781 432.511719 388.414062 434.757812 386.84375 437.570312 C 386.203125 438.714844 386.054688 440.03125 386.425781 441.277344 C 386.824219 442.625 387.804688 443.789062 389.113281 444.476562 C 389.492188 444.675781 389.8125 444.972656 390.050781 445.335938 C 390.320312 445.75 390.457031 446.214844 390.457031 446.71875 C 390.457031 446.792969 390.445312 446.871094 390.4375 446.945312 C 389.125 447.0625 387.75 447.496094 386.320312 448.269531 L 383.652344 449.515625 C 381.566406 450.488281 379.90625 452.027344 378.757812 453.859375 C 378.480469 453.671875 378.230469 453.429688 378.039062 453.136719 C 377.769531 452.71875 377.625 452.246094 377.625 451.769531 C 377.625 450.894531 378.0625 450.078125 378.785156 449.597656 Z M 378.785156 449.597656 " fill-opacity="1" fill-rule="nonzero"/></g><path fill="#163694" d="M 386.988281 466.722656 C 382.425781 463.703125 383.757812 459.425781 383.824219 459.234375 C 384.019531 458.644531 383.707031 458.003906 383.117188 457.804688 C 382.523438 457.597656 381.882812 457.914062 381.679688 458.507812 C 380.964844 460.597656 380.890625 465.398438 385.738281 468.609375 C 385.929688 468.734375 386.148438 468.796875 386.363281 468.796875 C 386.726562 468.796875 387.089844 468.621094 387.304688 468.289062 C 387.652344 467.769531 387.507812 467.066406 386.988281 466.722656 Z M 386.988281 466.722656 " fill-opacity="1" fill-rule="nonzero"/></svg>