<svg xmlns="http://www.w3.org/2000/svg" xmlns:xlink="http://www.w3.org/1999/xlink" width="100" zoomAndPan="magnify" viewBox="0 0 75 74.999997" height="100" preserveAspectRatio="xMidYMid meet" version="1.0"><defs><clipPath id="9dd4d3c97c"><path d="M 21.015625 18.796875 L 54 18.796875 L 54 56.296875 L 21.015625 56.296875 Z M 21.015625 18.796875 " clip-rule="nonzero"/></clipPath></defs><g clip-path="url(#9dd4d3c97c)"><path fill="#163694" d="M 44.410156 46.820312 C 45.339844 47.929688 46.550781 48.597656 48.199219 48.832031 C 46.332031 50.597656 43.945312 51.839844 41.25 52.296875 C 40.425781 51.375 40.535156 50.183594 41.078125 49.421875 C 42.472656 48.792969 43.574219 47.871094 44.410156 46.820312 Z M 34.703125 46.617188 C 36.878906 46.625 38.992188 47.527344 40.023438 49.035156 C 39.265625 50.433594 39.261719 51.847656 40.34375 52.953125 C 39.710938 53.792969 38.683594 54.382812 37.449219 54.6875 C 36.304688 54.96875 35.007812 54.839844 33.769531 54.625 C 34.507812 53.238281 35.492188 51.59375 37.035156 51.113281 C 37.554688 50.949219 37.554688 50.210938 37.035156 50.042969 C 35.507812 49.566406 34.375 47.953125 33.714844 46.675781 C 34.042969 46.632812 34.375 46.617188 34.703125 46.617188 Z M 52.390625 39.488281 C 52.300781 42.621094 51.117188 45.53125 49.179688 47.796875 C 47.121094 47.722656 46.007812 47.152344 45.082031 45.875 C 45.214844 45.660156 45.332031 45.445312 45.445312 45.226562 C 45.972656 44.1875 46.289062 43.113281 46.417969 42.09375 C 47.492188 42.15625 48.679688 41.871094 49.8125 41.335938 C 50.761719 40.890625 51.664062 40.265625 52.390625 39.488281 Z M 48.644531 29.878906 C 50.699219 31.929688 52.015625 34.644531 52.324219 37.726562 C 51.703125 38.816406 50.5625 39.75 49.335938 40.328125 C 48.34375 40.792969 47.304688 41.015625 46.484375 40.976562 C 46.480469 40.6875 46.464844 40.402344 46.429688 40.132812 C 46.25 38.847656 45.664062 37.742188 44.832031 36.859375 C 47.183594 35.710938 48.757812 33.238281 48.644531 29.878906 Z M 39.519531 25.921875 C 42.59375 26.125 45.296875 27.164062 47.425781 28.808594 C 48.003906 32.667969 46.394531 35.109375 43.90625 36.054688 C 42.542969 35.058594 41.132812 34.714844 39.566406 34.386719 C 41.171875 31.558594 41.039062 28.367188 39.519531 25.921875 Z M 38.128906 25.882812 C 39.980469 28.21875 40.222656 31.523438 38.195312 34.441406 C 34.285156 34.40625 31.363281 33.914062 29.191406 32.847656 C 26.949219 31.75 25.523438 30.101562 24.371094 27.507812 C 23.785156 26.183594 25.042969 25.902344 26.148438 25.898438 Z M 43.5625 18.800781 C 43.316406 18.816406 43.109375 18.984375 43.050781 19.222656 C 42.796875 20.171875 42.332031 20.625 41.617188 20.929688 C 40.902344 21.238281 39.902344 21.335938 38.761719 21.335938 L 23.910156 21.335938 C 22.105469 21.335938 21.023438 22.675781 21.023438 24.007812 C 21.023438 25.144531 21.820312 26.292969 23.1875 26.597656 C 23.097656 27.046875 23.164062 27.519531 23.316406 27.898438 C 24.441406 30.679688 26.207031 32.632812 28.699219 33.851562 C 29.382812 34.1875 30.125 34.460938 30.925781 34.691406 L 29.421875 36.53125 C 29.339844 36.632812 29.292969 36.757812 29.292969 36.886719 L 29.292969 39.015625 C 29.257812 39.796875 30.445312 39.796875 30.410156 39.015625 L 30.410156 37.085938 L 32.121094 34.992188 C 32.8125 35.136719 33.539062 35.261719 34.316406 35.347656 L 33.484375 36.574219 C 33.421875 36.667969 33.386719 36.773438 33.390625 36.886719 L 33.390625 39.015625 C 33.375 39.777344 34.519531 39.777344 34.507812 39.015625 L 34.507812 37.054688 L 35.585938 35.460938 C 36.429688 35.523438 37.324219 35.550781 38.265625 35.558594 L 37.578125 36.574219 C 37.515625 36.667969 37.480469 36.773438 37.480469 36.886719 L 37.480469 39.015625 C 37.46875 39.773438 38.609375 39.773438 38.601562 39.015625 L 38.601562 37.054688 L 39.574219 35.617188 C 40.898438 35.753906 42.195312 36.113281 43.410156 37.0625 C 44.625 38.007812 45.152344 39.070312 45.320312 40.289062 C 45.488281 41.492188 45.234375 43.171875 44.445312 44.71875 C 43.695312 46.191406 42.632812 47.476562 40.859375 48.296875 C 39.171875 45.96875 35.6875 44.707031 32.554688 45.546875 C 32.210938 45.640625 32.042969 46.019531 32.199219 46.335938 C 32.84375 47.617188 34.050781 49.707031 35.578125 50.589844 C 34.082031 51.453125 32.945312 53.648438 32.316406 54.902344 C 32.15625 55.21875 32.328125 55.597656 32.667969 55.691406 C 34.316406 56.132812 36.117188 56.167969 37.71875 55.769531 C 39.222656 55.398438 40.574219 54.613281 41.382812 53.390625 C 48.132812 52.472656 54.015625 46.1875 53.476562 38.015625 C 52.976562 30.433594 46.660156 24.765625 38.402344 24.765625 L 26.148438 24.785156 C 25.097656 24.785156 24.25 25 23.671875 25.542969 C 22.5625 25.449219 22.140625 24.738281 22.140625 24.003906 C 22.140625 23.222656 22.613281 22.453125 23.910156 22.453125 L 38.761719 22.453125 C 39.960938 22.453125 41.089844 22.371094 42.058594 21.957031 C 43.023438 21.542969 43.800781 20.734375 44.128906 19.507812 C 44.234375 19.144531 43.945312 18.78125 43.5625 18.800781 Z M 43.5625 18.800781 " fill-opacity="1" fill-rule="nonzero"/></g><path fill="#163694" d="M 29.03125 27.980469 C 29.03125 28.523438 28.605469 28.964844 28.078125 28.964844 C 27.550781 28.964844 27.125 28.523438 27.125 27.980469 C 27.125 27.441406 27.550781 27 28.078125 27 C 28.605469 27 29.03125 27.441406 29.03125 27.980469 Z M 29.03125 27.980469 " fill-opacity="1" fill-rule="evenodd"/></svg>