<svg xmlns="http://www.w3.org/2000/svg" xmlns:xlink="http://www.w3.org/1999/xlink" width="100" zoomAndPan="magnify" viewBox="0 0 75 74.999997" height="100" preserveAspectRatio="xMidYMid meet" version="1.0"><defs><clipPath id="8344bc31c5"><path d="M 23.28125 18.820312 L 50 18.820312 L 50 56.320312 L 23.28125 56.320312 Z M 23.28125 18.820312 " clip-rule="nonzero"/></clipPath></defs><g clip-path="url(#8344bc31c5)"><path fill="#163694" d="M 32.6875 18.832031 C 30.429688 18.839844 28.214844 19.160156 26.050781 19.796875 C 25.214844 20.042969 24.550781 20.695312 24.132812 21.679688 C 23.28125 23.671875 23.527344 26.878906 24.695312 29.144531 C 26.617188 32.859375 29.132812 33.414062 30.457031 33.414062 C 30.777344 33.414062 31.097656 33.378906 31.410156 33.3125 C 31.890625 33.210938 32.378906 33.164062 32.871094 33.164062 C 35.375 33.164062 37.890625 34.382812 39.128906 36.191406 C 41.488281 39.636719 40.957031 42.902344 39.675781 44.8125 C 39.648438 44.855469 39.621094 44.898438 39.59375 44.941406 C 39.339844 45.367188 39.207031 45.824219 39.1875 46.316406 L 30.824219 51.105469 C 30.714844 51.171875 30.628906 51.257812 30.5625 51.367188 C 30.5 51.476562 30.464844 51.59375 30.464844 51.722656 C 30.460938 51.847656 30.492188 51.96875 30.554688 52.078125 C 30.617188 52.191406 30.699219 52.277344 30.808594 52.34375 C 30.863281 52.378906 32.152344 53.148438 34.195312 53.148438 C 34.53125 53.148438 34.867188 53.128906 35.199219 53.089844 L 33.476562 54.882812 C 33.273438 55.089844 33.21875 55.332031 33.3125 55.609375 C 33.40625 55.886719 33.597656 56.046875 33.882812 56.089844 C 34.234375 56.136719 34.589844 56.160156 34.941406 56.15625 C 36.183594 56.15625 38.027344 55.929688 39.746094 54.847656 C 42.863281 52.886719 43.671875 49.476562 43.789062 48.902344 C 43.824219 48.8125 43.871094 48.710938 43.902344 48.65625 C 50.285156 43.152344 51.710938 33.816406 47.292969 26.429688 C 44.363281 21.53125 39.175781 18.832031 32.6875 18.832031 Z M 33.222656 31.855469 C 32.519531 31.824219 31.824219 31.878906 31.132812 32.023438 C 30.402344 32.183594 27.863281 32.390625 25.867188 28.535156 C 24.875 26.621094 24.644531 23.835938 25.34375 22.199219 C 25.609375 21.578125 25.972656 21.195312 26.425781 21.0625 C 28.917969 20.324219 31.667969 20.011719 34.355469 20.238281 Z M 38.699219 33.847656 C 37.496094 32.894531 35.988281 32.238281 34.414062 31.972656 L 35.546875 20.382812 C 39.636719 20.988281 43.464844 22.9375 45.902344 26.71875 Z M 39.046875 53.730469 C 37.753906 54.542969 36.347656 54.777344 35.359375 54.824219 C 35.359375 54.824219 38.003906 52.164062 38.902344 50.644531 C 38.9375 50.585938 38.929688 50.535156 38.878906 50.484375 C 38.832031 50.4375 38.777344 50.433594 38.722656 50.472656 C 37.691406 51.171875 36.398438 51.570312 35.535156 51.699219 C 34.289062 51.886719 33.257812 51.8125 32.570312 51.632812 L 39.617188 47.636719 C 39.691406 47.773438 39.773438 47.902344 39.871094 48.023438 L 40.066406 48.265625 C 40.527344 48.835938 41.121094 49.152344 41.851562 49.21875 C 41.933594 49.226562 42.015625 49.230469 42.09375 49.230469 C 42.179688 49.230469 42.261719 49.214844 42.347656 49.207031 C 42.027344 50.253906 41.140625 52.414062 39.046875 53.730469 Z M 43 47.695312 C 42.699219 47.953125 42.355469 48.0625 41.960938 48.023438 C 41.566406 47.988281 41.246094 47.816406 40.996094 47.507812 L 40.804688 47.269531 C 40.433594 46.8125 40.402344 46.167969 40.722656 45.625 L 40.773438 45.546875 C 41.554688 44.382812 42.101562 42.800781 42.085938 41 L 47.496094 41.246094 C 46.550781 43.785156 45.054688 45.933594 43 47.695312 Z M 47.886719 40.066406 L 41.992188 39.796875 C 41.789062 38.417969 41.242188 36.941406 40.21875 35.449219 C 40.023438 35.171875 39.8125 34.90625 39.582031 34.660156 L 46.53125 27.785156 C 48.628906 31.6875 49.03125 36.089844 47.886719 40.066406 Z M 47.886719 40.066406 " fill-opacity="1" fill-rule="nonzero"/></g></svg>