<svg xmlns="http://www.w3.org/2000/svg" xmlns:xlink="http://www.w3.org/1999/xlink" width="100" zoomAndPan="magnify" viewBox="0 0 75 74.999997" height="100" preserveAspectRatio="xMidYMid meet" version="1.0"><defs><clipPath id="fc37f7e521"><path d="M 23 19 L 52 19 L 52 56.214844 L 23 56.214844 Z M 23 19 " clip-rule="nonzero"/></clipPath></defs><g clip-path="url(#fc37f7e521)"><path fill="#163694" d="M 47.507812 46.710938 C 45.386719 47.636719 44.191406 47.050781 43.90625 44.085938 C 46.910156 40.113281 45.738281 34.726562 45.179688 32.363281 C 47.578125 31.148438 48.355469 28.46875 46.582031 26.492188 L 41.664062 21.003906 C 39.625 18.730469 35.386719 18.722656 33.339844 21.003906 L 28.421875 26.492188 C 26.652344 28.46875 27.429688 31.148438 29.824219 32.363281 C 29.472656 33.855469 27.894531 39.84375 31.101562 44.085938 C 30.816406 47.042969 29.625 47.640625 27.5 46.710938 C 25.457031 45.820312 22.996094 46.816406 23.511719 49.199219 C 23.585938 49.539062 23.957031 49.71875 24.269531 49.574219 C 25.257812 49.109375 26.234375 49.621094 27.367188 50.214844 C 28.722656 50.929688 30.332031 51.773438 32.042969 50.589844 C 31.886719 50.773438 31.707031 50.921875 31.5 51.03125 C 29.617188 52.039062 28.734375 54.28125 31.039062 56.023438 C 31.367188 56.273438 31.839844 56.078125 31.898438 55.671875 C 32.144531 53.96875 32.972656 53.78125 34.226562 53.503906 C 35.371094 53.246094 36.726562 52.945312 37.503906 51.261719 C 38.277344 52.945312 39.636719 53.246094 40.777344 53.503906 C 42.035156 53.78125 42.863281 53.96875 43.105469 55.671875 C 43.164062 56.078125 43.640625 56.273438 43.96875 56.023438 C 46.257812 54.292969 45.410156 52.050781 43.507812 51.03125 C 43.300781 50.921875 43.117188 50.773438 42.960938 50.589844 C 44.625 51.738281 46.164062 50.992188 47.640625 50.214844 C 48.773438 49.621094 49.75 49.109375 50.734375 49.574219 C 51.050781 49.71875 51.417969 49.539062 51.492188 49.199219 C 52.003906 46.835938 49.566406 45.8125 47.507812 46.710938 Z M 30.976562 32.183594 C 31.042969 31.921875 30.902344 31.65625 30.65625 31.554688 C 28.683594 30.765625 27.828125 28.777344 29.226562 27.214844 L 34.144531 21.722656 C 35.753906 19.929688 39.253906 19.929688 40.859375 21.722656 L 45.777344 27.214844 C 47.183594 28.78125 46.316406 30.769531 44.351562 31.554688 C 44.101562 31.65625 43.964844 31.921875 44.027344 32.183594 C 45.21875 37.097656 45.238281 39.078125 43.074219 43.363281 C 39.328125 45.292969 35.679688 45.292969 31.933594 43.363281 C 29.769531 39.078125 29.789062 37.097656 30.976562 32.183594 Z M 47.136719 49.261719 C 45.359375 50.195312 43.953125 50.929688 42.132812 48.078125 C 41.828125 47.597656 41.085938 47.859375 41.140625 48.421875 C 41.261719 49.585938 41.582031 51.226562 43 51.984375 C 43.949219 52.492188 44.726562 53.511719 43.941406 54.554688 C 43.367188 52.972656 42.078125 52.6875 41.011719 52.449219 C 39.601562 52.132812 38.382812 51.863281 38.039062 49.082031 C 37.960938 48.453125 37.046875 48.457031 36.96875 49.082031 C 36.625 51.863281 35.40625 52.132812 33.992188 52.449219 C 32.925781 52.6875 31.640625 52.972656 31.0625 54.554688 C 30.28125 53.511719 31.054688 52.492188 32.007812 51.984375 C 33.425781 51.226562 33.746094 49.585938 33.863281 48.421875 C 33.921875 47.859375 33.175781 47.597656 32.871094 48.078125 C 31.050781 50.929688 29.648438 50.195312 27.867188 49.261719 C 26.859375 48.730469 25.742188 48.144531 24.542969 48.359375 C 24.71875 47.402344 26.121094 47.285156 27.066406 47.699219 C 29.804688 48.894531 31.664062 47.917969 32.121094 44.652344 C 33.90625 45.464844 35.707031 45.875 37.503906 45.875 C 39.300781 45.875 41.097656 45.464844 42.886719 44.652344 C 43.339844 47.917969 45.203125 48.894531 47.9375 47.699219 C 48.875 47.289062 50.285156 47.394531 50.460938 48.359375 C 49.265625 48.144531 48.144531 48.730469 47.136719 49.261719 Z M 33.25 34.875 C 36.617188 34.566406 39.777344 35.359375 42.652344 37.226562 C 43.25 37.617188 42.660156 38.523438 42.0625 38.132812 C 39.398438 36.398438 36.464844 35.664062 33.347656 35.949219 C 32.636719 36.011719 32.539062 34.9375 33.25 34.875 Z M 34.433594 30.453125 C 37.007812 30.40625 39.464844 31.023438 41.738281 32.289062 C 42.359375 32.636719 41.835938 33.582031 41.214844 33.234375 C 39.109375 32.0625 36.832031 31.488281 34.453125 31.53125 C 33.742188 31.542969 33.722656 30.464844 34.433594 30.453125 Z M 35.597656 26.117188 C 37.535156 26.226562 39.410156 26.726562 41.167969 27.605469 C 41.800781 27.921875 41.332031 28.894531 40.6875 28.574219 C 39.058594 27.757812 37.324219 27.296875 35.535156 27.191406 C 34.824219 27.152344 34.886719 26.074219 35.597656 26.117188 Z M 40.324219 41.652344 C 38.6875 40.824219 36.945312 40.351562 35.148438 40.246094 C 34.4375 40.203125 34.503906 39.125 35.214844 39.167969 C 37.160156 39.285156 39.042969 39.796875 40.808594 40.6875 C 41.441406 41.007812 40.964844 41.976562 40.324219 41.652344 Z M 40.324219 41.652344 " fill-opacity="1" fill-rule="nonzero"/></g></svg>