<svg xmlns="http://www.w3.org/2000/svg" xmlns:xlink="http://www.w3.org/1999/xlink" width="100" zoomAndPan="magnify" viewBox="0 0 75 74.999997" height="100" preserveAspectRatio="xMidYMid meet" version="1.0"><defs><clipPath id="ebb3c124e6"><path d="M 11 19 L 64.375 19 L 64.375 55.691406 L 11 55.691406 Z M 11 19 " clip-rule="nonzero"/></clipPath></defs><g clip-path="url(#ebb3c124e6)"><path fill="#163694" d="M 12.257812 40.570312 C 10.417969 43.835938 11.273438 47.195312 11.726562 48.488281 C 11.976562 49.152344 12.601562 49.152344 13.253906 49.140625 C 15.015625 49.140625 16.71875 48.691406 18.175781 47.839844 C 19.617188 47.007812 20.800781 45.820312 21.691406 44.308594 C 22.089844 43.589844 23.132812 43.335938 23.746094 43.910156 C 26.484375 46.351562 29.308594 48.195312 32.195312 49.464844 C 30.25 52.835938 32.679688 55.929688 36.472656 55.824219 C 39.695312 55.742188 42.378906 54.15625 45.101562 51.316406 C 53.359375 50.269531 59.40625 45.394531 62.539062 42.222656 C 64.675781 40.066406 64.675781 36.554688 62.542969 34.398438 C 59.410156 30.890625 51.660156 25.875 45.273438 25.320312 C 42.320312 22.273438 39.210938 20.488281 36.023438 20.03125 C 29.421875 19.167969 26.382812 24.128906 30.144531 29.074219 C 30.492188 29.542969 30.960938 29.8125 31.53125 29.558594 C 35.527344 27.417969 40.222656 26.585938 44.710938 27.152344 C 46.082031 27.320312 47.460938 27.613281 48.8125 28.015625 C 48.203125 29.125 47.691406 30.285156 47.289062 31.484375 C 45.800781 35.871094 45.773438 40.726562 47.292969 45.128906 C 47.707031 46.296875 49.472656 45.703125 49.082031 44.519531 C 47.277344 39.308594 47.890625 33.40625 50.632812 28.65625 C 55.351562 30.484375 58.945312 33.449219 61.195312 35.730469 C 62.601562 37.152344 62.601562 39.46875 61.191406 40.894531 C 57.671875 44.457031 50.265625 50.324219 40.105469 49.570312 C 34.914062 49.1875 29.835938 46.808594 25.007812 42.5 C 24.304688 41.867188 23.359375 41.589844 22.414062 41.738281 C 21.429688 41.890625 20.570312 42.480469 20.058594 43.347656 C 19.335938 44.574219 18.382812 45.535156 17.226562 46.203125 C 16.074219 46.875 14.726562 47.234375 13.328125 47.246094 C 13.007812 46.03125 12.671875 43.695312 13.90625 41.503906 C 14.585938 40.300781 15.503906 39.53125 16.15625 39.097656 C 16.714844 38.75 16.710938 37.871094 16.15625 37.523438 C 13.457031 35.902344 12.457031 32.203125 13.324219 29.371094 C 14.707031 29.382812 16.019531 29.730469 17.230469 30.421875 C 18.382812 31.089844 19.335938 32.046875 20.058594 33.269531 C 21.015625 35.007812 23.550781 35.488281 25.003906 34.125 C 25.933594 33.304688 26.785156 32.613281 27.605469 32.011719 C 28.027344 31.703125 28.121094 31.113281 27.8125 30.691406 C 27.503906 30.265625 26.910156 30.175781 26.488281 30.484375 C 25.621094 31.121094 24.726562 31.847656 23.746094 32.710938 C 23.460938 32.964844 23.089844 33.074219 22.707031 33.011719 C 22.285156 32.945312 21.914062 32.691406 21.691406 32.308594 C 20.800781 30.800781 19.617188 29.613281 18.097656 28.738281 C 16.421875 27.792969 14.542969 27.371094 12.554688 27.5 C 12.179688 27.527344 11.859375 27.773438 11.730469 28.125 C 11.550781 28.621094 11.132812 29.957031 11.132812 31.636719 C 11.121094 34.21875 12.171875 36.628906 14.085938 38.3125 C 13.464844 38.867188 12.800781 39.609375 12.257812 40.570312 Z M 39.972656 25.164062 C 37.035156 25.371094 34.035156 26.222656 31.390625 27.515625 C 30.410156 25.917969 30.140625 24.667969 30.59375 23.71875 C 31.375 22.066406 33.75 21.617188 35.757812 21.90625 C 37.953125 22.21875 40.136719 23.296875 42.273438 25.097656 C 41.503906 25.085938 40.734375 25.105469 39.972656 25.164062 Z M 41.898438 51.53125 C 41.980469 51.53125 42.058594 51.523438 42.140625 51.523438 C 40.808594 52.625 39.164062 53.605469 37.308594 53.871094 C 35.078125 54.25 32.15625 53.105469 33.972656 50.179688 C 36.5625 51.097656 39.207031 51.539062 41.898438 51.53125 Z M 41.898438 51.53125 " fill-opacity="1" fill-rule="nonzero"/></g><path fill="#163694" d="M 39.539062 35.53125 L 41.480469 36.5 C 41.945312 36.730469 42.515625 36.539062 42.75 36.070312 C 42.980469 35.605469 42.792969 35.035156 42.324219 34.800781 L 40.378906 33.835938 C 36.070312 32.285156 35.429688 39.195312 37.097656 41.746094 C 37.71875 42.921875 39.21875 43.367188 40.382812 42.785156 C 40.382812 42.785156 42.324219 41.820312 42.324219 41.820312 C 42.792969 41.585938 42.980469 41.015625 42.75 40.550781 C 42.515625 40.082031 41.945312 39.890625 41.480469 40.125 L 39.542969 41.085938 C 39.261719 41.226562 38.914062 41.125 38.761719 40.847656 C 37.902344 39.28125 37.902344 37.339844 38.769531 35.765625 C 38.910156 35.496094 39.257812 35.394531 39.539062 35.53125 Z M 39.539062 35.53125 " fill-opacity="1" fill-rule="nonzero"/><path fill="#163694" d="M 54.683594 37.230469 L 54.683594 35.339844 C 54.660156 34.09375 52.808594 34.09375 52.789062 35.339844 C 52.789062 35.339844 52.789062 37.230469 52.789062 37.230469 C 52.808594 38.476562 54.660156 38.476562 54.683594 37.230469 Z M 54.683594 37.230469 " fill-opacity="1" fill-rule="nonzero"/></svg>