<svg xmlns="http://www.w3.org/2000/svg" xmlns:xlink="http://www.w3.org/1999/xlink" width="100" zoomAndPan="magnify" viewBox="0 0 75 74.999997" height="100" preserveAspectRatio="xMidYMid meet" version="1.0"><defs><clipPath id="0b6ce035b8"><path d="M 18.796875 18.84375 L 56.296875 18.84375 L 56.296875 56.34375 L 18.796875 56.34375 Z M 18.796875 18.84375 " clip-rule="nonzero"/></clipPath></defs><g clip-path="url(#0b6ce035b8)"><path fill="#163694" d="M 54.746094 46.433594 L 55 46.859375 C 55.117188 47.046875 55.3125 47.152344 55.511719 47.152344 C 55.621094 47.152344 55.722656 47.121094 55.824219 47.070312 C 56.109375 46.898438 56.203125 46.527344 56.03125 46.246094 L 55.777344 45.820312 C 54.816406 44.222656 53.132812 43.183594 51.292969 42.996094 C 51.285156 42.925781 51.277344 42.855469 51.269531 42.785156 C 51.269531 42.785156 51.277344 42.777344 51.277344 42.777344 C 55.257812 38.800781 52.921875 33.277344 52.332031 32.058594 C 52.363281 31.933594 52.378906 31.800781 52.371094 31.671875 L 52.363281 31.164062 C 53.347656 29.289062 53.519531 27.433594 52.867188 25.65625 C 51.285156 21.351562 45.414062 19.070312 45.164062 18.980469 C 44.894531 18.878906 44.589844 18.980469 44.433594 19.226562 C 44.289062 19.476562 44.328125 19.792969 44.542969 19.988281 C 46.546875 21.800781 46.769531 25.152344 46.785156 26.332031 C 45.558594 26.480469 44.039062 24.984375 43.511719 24.332031 C 43.347656 24.121094 43.0625 24.050781 42.820312 24.152344 C 42.574219 24.253906 42.425781 24.503906 42.449219 24.765625 C 42.457031 24.835938 43.164062 31.917969 49.238281 32.964844 C 49.609375 33.925781 50.789062 37.433594 48.71875 38.792969 C 47.320312 37.78125 45.382812 36.984375 42.898438 36.410156 L 42.898438 33.964844 C 42.898438 33.632812 42.628906 33.367188 42.300781 33.367188 C 41.976562 33.367188 41.703125 33.640625 41.703125 33.964844 L 41.703125 36.160156 C 41.695312 36.160156 41.6875 36.152344 41.671875 36.152344 C 38.902344 35.632812 36.097656 35.632812 33.328125 36.152344 C 33.320312 36.152344 33.3125 36.160156 33.296875 36.160156 L 33.296875 33.964844 C 33.296875 33.632812 33.023438 33.367188 32.699219 33.367188 C 32.371094 33.367188 32.101562 33.640625 32.101562 33.964844 L 32.101562 36.410156 C 29.617188 36.976562 27.679688 37.78125 26.28125 38.792969 C 24.210938 37.433594 25.390625 33.925781 25.761719 32.964844 C 31.835938 31.894531 32.542969 24.8125 32.550781 24.742188 C 32.574219 24.480469 32.417969 24.230469 32.179688 24.128906 C 31.929688 24.027344 31.652344 24.105469 31.488281 24.308594 C 31.472656 24.332031 29.664062 26.496094 28.214844 26.316406 C 28.230469 25.136719 28.445312 21.789062 30.457031 19.972656 C 30.671875 19.777344 30.710938 19.460938 30.566406 19.210938 C 30.410156 18.964844 30.105469 18.863281 29.835938 18.964844 C 29.585938 19.054688 23.714844 21.335938 22.132812 25.644531 C 21.480469 27.417969 21.644531 29.273438 22.636719 31.152344 L 22.628906 31.65625 C 22.628906 31.785156 22.644531 31.917969 22.667969 32.042969 C 22.078125 33.261719 19.742188 38.785156 23.722656 42.761719 C 23.722656 42.761719 23.730469 42.769531 23.730469 42.769531 C 23.722656 42.839844 23.714844 42.910156 23.707031 42.980469 C 21.867188 43.167969 20.183594 44.207031 19.222656 45.804688 L 18.96875 46.230469 C 18.796875 46.519531 18.890625 46.882812 19.175781 47.054688 C 19.269531 47.105469 19.378906 47.136719 19.488281 47.136719 C 19.6875 47.136719 19.890625 47.039062 20 46.84375 L 20.253906 46.417969 C 21.007812 45.167969 22.3125 44.339844 23.746094 44.167969 C 23.800781 44.664062 23.878906 45.128906 23.988281 45.5625 C 22.265625 47.246094 21.09375 49.464844 20.699219 51.839844 C 20.644531 52.164062 20.859375 52.476562 21.195312 52.53125 C 21.226562 52.539062 21.265625 52.539062 21.292969 52.539062 C 21.582031 52.539062 21.835938 52.328125 21.882812 52.035156 C 22.210938 50.101562 23.09375 48.285156 24.414062 46.835938 C 24.652344 47.410156 24.949219 47.90625 25.265625 48.339844 L 24.667969 49.417969 C 24.039062 50.558594 23.613281 51.785156 23.398438 53.066406 L 23.101562 54.839844 C 23.046875 55.167969 23.265625 55.476562 23.597656 55.53125 C 23.628906 55.539062 23.667969 55.539062 23.699219 55.539062 C 23.988281 55.539062 24.242188 55.332031 24.289062 55.035156 L 24.582031 53.257812 C 24.777344 52.109375 25.15625 51.015625 25.714844 50 L 26.113281 49.289062 C 26.902344 50.015625 27.78125 50.488281 28.578125 50.792969 C 27.351562 52.078125 26.6875 53.761719 26.703125 55.539062 C 26.703125 55.875 26.972656 56.136719 27.300781 56.136719 C 27.632812 56.136719 27.894531 55.867188 27.894531 55.53125 C 27.886719 54.066406 28.4375 52.675781 29.449219 51.613281 L 29.875 51.164062 C 30.625 51.320312 31.148438 51.328125 31.164062 51.328125 L 43.828125 51.328125 C 43.84375 51.328125 44.367188 51.320312 45.117188 51.164062 L 45.542969 51.613281 C 46.554688 52.675781 47.105469 54.066406 47.097656 55.53125 C 47.097656 55.867188 47.359375 56.136719 47.691406 56.136719 C 48.027344 56.136719 48.289062 55.875 48.289062 55.539062 C 48.296875 53.761719 47.632812 52.078125 46.414062 50.792969 C 47.210938 50.488281 48.089844 50.015625 48.878906 49.289062 L 49.277344 50 C 49.84375 51.015625 50.222656 52.109375 50.410156 53.257812 L 50.703125 55.035156 C 50.75 55.332031 51.003906 55.539062 51.292969 55.539062 C 51.324219 55.539062 51.363281 55.539062 51.394531 55.53125 C 51.71875 55.476562 51.945312 55.167969 51.890625 54.839844 L 51.59375 53.066406 C 51.378906 51.785156 50.953125 50.558594 50.324219 49.417969 L 49.726562 48.339844 C 50.050781 47.90625 50.339844 47.410156 50.578125 46.835938 C 51.898438 48.277344 52.78125 50.101562 53.109375 52.035156 C 53.15625 52.328125 53.410156 52.539062 53.699219 52.539062 C 53.726562 52.539062 53.765625 52.539062 53.796875 52.53125 C 54.125 52.476562 54.347656 52.164062 54.292969 51.839844 C 53.898438 49.457031 52.726562 47.246094 51.003906 45.5625 C 51.113281 45.128906 51.191406 44.671875 51.246094 44.167969 C 52.6875 44.355469 53.992188 45.183594 54.746094 46.433594 Z M 44.03125 26.464844 C 45.007812 27.21875 46.351562 27.875 47.625 27.324219 C 47.832031 27.234375 47.972656 27.03125 47.980469 26.804688 C 47.988281 26.644531 48.128906 23.671875 46.863281 21.136719 C 48.601562 22.128906 50.90625 23.804688 51.734375 26.0625 C 52.277344 27.542969 52.105469 29.109375 51.230469 30.722656 C 51.175781 30.816406 51.152344 30.917969 51.152344 31.019531 L 51.160156 31.679688 C 51.160156 31.824219 51.097656 31.957031 50.976562 32.050781 C 50.859375 32.136719 50.703125 32.160156 50.5625 32.113281 L 49.640625 31.800781 C 49.609375 31.792969 49.570312 31.785156 49.539062 31.777344 C 46.070312 31.234375 44.628906 28.398438 44.03125 26.464844 Z M 50.65625 33.332031 C 50.679688 33.332031 50.703125 33.339844 50.726562 33.339844 C 50.996094 33.339844 51.269531 33.269531 51.519531 33.136719 C 52.183594 34.703125 53.332031 38.410156 50.921875 41.382812 C 50.648438 40.730469 50.238281 40.125 49.6875 39.574219 C 51.726562 37.976562 51.167969 34.976562 50.65625 33.332031 Z M 23.257812 26.0625 C 24.078125 23.804688 26.382812 22.128906 28.121094 21.136719 C 26.863281 23.679688 26.996094 26.644531 27.003906 26.804688 C 27.019531 27.03125 27.160156 27.234375 27.359375 27.324219 C 28.632812 27.875 29.960938 27.226562 30.9375 26.480469 C 30.332031 28.410156 28.867188 31.242188 25.429688 31.777344 C 25.398438 31.785156 25.359375 31.792969 25.328125 31.800781 L 24.414062 32.113281 C 24.273438 32.160156 24.125 32.136719 24.003906 32.050781 C 23.886719 31.964844 23.816406 31.824219 23.816406 31.679688 L 23.824219 31.019531 C 23.824219 30.917969 23.800781 30.808594 23.746094 30.722656 C 22.878906 29.109375 22.707031 27.542969 23.257812 26.0625 Z M 23.480469 33.136719 C 23.722656 33.269531 23.996094 33.339844 24.273438 33.339844 C 24.296875 33.339844 24.320312 33.332031 24.34375 33.332031 C 23.832031 34.96875 23.273438 37.96875 25.3125 39.566406 C 24.761719 40.117188 24.351562 40.722656 24.078125 41.375 C 21.667969 38.410156 22.824219 34.695312 23.480469 33.136719 Z M 45.195312 49.960938 C 45.164062 49.96875 45.132812 49.96875 45.109375 49.984375 C 44.410156 50.148438 43.90625 50.15625 43.835938 50.15625 L 31.171875 50.15625 C 31.101562 50.15625 30.597656 50.148438 29.898438 49.984375 C 29.867188 49.976562 29.84375 49.96875 29.8125 49.960938 C 28.828125 49.722656 27.5 49.179688 26.46875 47.953125 C 26.460938 47.9375 26.445312 47.929688 26.4375 47.914062 C 25.933594 47.308594 25.507812 46.535156 25.226562 45.554688 C 25.226562 45.554688 25.226562 45.546875 25.226562 45.546875 C 25.074219 45.003906 24.964844 44.398438 24.910156 43.726562 C 24.644531 40.273438 28.394531 38.511719 32.101562 37.621094 L 32.101562 39.949219 C 32.101562 40.28125 32.371094 40.542969 32.699219 40.542969 C 33.023438 40.542969 33.296875 40.273438 33.296875 39.949219 L 33.296875 37.363281 C 33.378906 37.347656 33.464844 37.332031 33.542969 37.316406 C 34.855469 37.070312 36.171875 36.953125 37.5 36.953125 C 38.828125 36.953125 40.144531 37.078125 41.457031 37.316406 C 41.542969 37.332031 41.621094 37.347656 41.703125 37.363281 L 41.703125 39.949219 C 41.703125 40.28125 41.976562 40.542969 42.300781 40.542969 C 42.628906 40.542969 42.898438 40.273438 42.898438 39.949219 L 42.898438 37.621094 C 46.605469 38.511719 50.355469 40.265625 50.089844 43.726562 C 50.035156 44.398438 49.925781 45.003906 49.773438 45.546875 C 49.773438 45.546875 49.773438 45.554688 49.773438 45.554688 C 49.492188 46.535156 49.066406 47.308594 48.5625 47.914062 C 48.554688 47.929688 48.539062 47.9375 48.53125 47.953125 C 47.5 49.179688 46.171875 49.722656 45.195312 49.960938 Z M 45.195312 49.960938 " fill-opacity="1" fill-rule="nonzero"/></g></svg>