<svg xmlns="http://www.w3.org/2000/svg" xmlns:xlink="http://www.w3.org/1999/xlink" width="100" zoomAndPan="magnify" viewBox="0 0 75 74.999997" height="100" preserveAspectRatio="xMidYMid meet" version="1.0"><defs><clipPath id="98074b99d9"><path d="M 18.832031 20.777344 L 56.332031 20.777344 L 56.332031 54.527344 L 18.832031 54.527344 Z M 18.832031 20.777344 " clip-rule="nonzero"/></clipPath></defs><g clip-path="url(#98074b99d9)"><path fill="#163694" d="M 53.089844 39.699219 C 54.574219 39.230469 55.835938 38.195312 55.917969 38.125 C 56.082031 37.984375 56.167969 37.773438 56.144531 37.558594 C 56.128906 37.425781 55.757812 34.28125 54.011719 31.828125 C 53.664062 31.339844 53.226562 31.003906 52.730469 30.8125 C 52.160156 28.976562 51.300781 27.382812 50.195312 26.242188 C 49.929688 25.972656 49.59375 25.789062 49.230469 25.691406 L 49.230469 24.574219 C 50.417969 24.085938 51.585938 23.523438 52.722656 22.882812 C 53.03125 22.707031 53.140625 22.316406 52.964844 22.007812 C 52.792969 21.699219 52.398438 21.589844 52.089844 21.765625 C 50.882812 22.445312 49.644531 23.035156 48.378906 23.535156 C 48.359375 23.542969 48.339844 23.546875 48.320312 23.554688 C 44.699219 24.976562 40.875 25.652344 37.066406 25.59375 C 37.03125 25.589844 37 25.574219 36.964844 25.574219 C 36.925781 25.574219 36.894531 25.589844 36.859375 25.59375 C 31.550781 25.476562 26.277344 23.933594 21.621094 20.96875 C 21.320312 20.78125 20.925781 20.867188 20.734375 21.167969 C 20.542969 21.46875 20.632812 21.863281 20.929688 22.054688 C 21.964844 22.710938 23.03125 23.300781 24.117188 23.824219 L 24.117188 25.742188 C 23.785156 25.859375 23.480469 26.050781 23.242188 26.316406 C 22.21875 27.464844 21.410156 29.042969 20.902344 30.890625 C 20.726562 31.53125 20.597656 32.195312 20.5 32.871094 C 20.433594 32.894531 20.367188 32.917969 20.304688 32.953125 C 19.902344 33.183594 19.371094 33.695312 19.125 34.851562 C 18.832031 36.238281 18.890625 37.859375 18.890625 37.929688 C 18.898438 38.136719 19.007812 38.328125 19.179688 38.441406 C 19.289062 38.511719 19.410156 38.546875 19.535156 38.546875 C 19.613281 38.546875 19.691406 38.53125 19.769531 38.503906 C 19.898438 38.453125 20.171875 38.339844 20.507812 38.171875 C 20.824219 40.28125 21.5 42.207031 22.492188 43.746094 C 22.539062 43.820312 22.550781 43.921875 22.546875 44.023438 C 21.828125 44.800781 21.121094 45.816406 20.71875 46.84375 C 20.542969 47.296875 20.6875 47.789062 21.082031 48.074219 C 21.265625 48.207031 21.476562 48.269531 21.683594 48.269531 C 21.921875 48.269531 22.15625 48.1875 22.351562 48.023438 C 23.082031 47.40625 24.011719 47.089844 25.195312 47.0625 C 26.378906 47.039062 27.339844 47.3125 28.085938 47.886719 C 28.464844 48.179688 28.976562 48.175781 29.351562 47.882812 C 29.734375 47.582031 29.859375 47.085938 29.664062 46.640625 C 29.226562 45.640625 28.523438 44.691406 27.808594 43.964844 C 27.792969 43.804688 27.804688 43.644531 27.875 43.519531 C 28.515625 42.402344 28.992188 41.101562 29.300781 39.699219 C 30.785156 39.230469 32.046875 38.195312 32.128906 38.125 C 32.296875 37.984375 32.378906 37.773438 32.355469 37.558594 C 32.339844 37.425781 31.972656 34.28125 30.222656 31.828125 C 29.878906 31.339844 29.4375 31.003906 28.941406 30.8125 C 28.375 28.976562 27.511719 27.382812 26.40625 26.242188 C 26.132812 25.960938 25.78125 25.773438 25.402344 25.679688 L 25.402344 24.40625 C 28.894531 25.898438 32.59375 26.722656 36.324219 26.867188 L 36.324219 31.601562 C 35.863281 31.691406 35.449219 31.917969 35.136719 32.265625 C 34.113281 33.410156 33.304688 34.992188 32.796875 36.835938 C 32.621094 37.480469 32.492188 38.140625 32.394531 38.816406 C 32.328125 38.84375 32.261719 38.867188 32.199219 38.902344 C 31.796875 39.128906 31.265625 39.644531 31.019531 40.800781 C 30.726562 42.183594 30.785156 43.808594 30.785156 43.875 C 30.792969 44.085938 30.902344 44.273438 31.074219 44.390625 C 31.183594 44.460938 31.304688 44.496094 31.429688 44.496094 C 31.507812 44.496094 31.585938 44.480469 31.660156 44.449219 C 31.792969 44.398438 32.066406 44.285156 32.402344 44.121094 C 32.71875 46.226562 33.394531 48.15625 34.386719 49.691406 C 34.433594 49.765625 34.445312 49.867188 34.441406 49.972656 C 33.722656 50.746094 33.015625 51.765625 32.613281 52.792969 C 32.4375 53.246094 32.582031 53.738281 32.976562 54.019531 C 33.160156 54.152344 33.371094 54.21875 33.578125 54.21875 C 33.816406 54.21875 34.050781 54.136719 34.246094 53.96875 C 34.976562 53.351562 35.90625 53.039062 37.089844 53.007812 C 38.269531 52.988281 39.234375 53.257812 39.980469 53.832031 C 40.359375 54.125 40.871094 54.125 41.246094 53.828125 C 41.628906 53.53125 41.753906 53.03125 41.558594 52.585938 C 41.121094 51.585938 40.417969 50.636719 39.703125 49.910156 C 39.6875 49.75 39.699219 49.589844 39.769531 49.464844 C 40.410156 48.347656 40.886719 47.050781 41.195312 45.644531 C 42.679688 45.179688 43.941406 44.140625 44.023438 44.070312 C 44.1875 43.933594 44.273438 43.722656 44.25 43.507812 C 44.234375 43.375 43.867188 40.230469 42.117188 37.773438 C 41.769531 37.289062 41.332031 36.949219 40.835938 36.757812 C 40.265625 34.921875 39.40625 33.328125 38.300781 32.191406 C 38.105469 31.988281 37.867188 31.835938 37.609375 31.726562 L 37.609375 26.890625 C 41.105469 26.878906 44.597656 26.261719 47.945312 25.054688 L 47.945312 25.726562 C 47.597656 25.84375 47.28125 26.039062 47.03125 26.316406 C 46.007812 27.464844 45.199219 29.042969 44.691406 30.890625 C 44.511719 31.53125 44.386719 32.195312 44.289062 32.871094 C 44.222656 32.898438 44.15625 32.917969 44.09375 32.953125 C 43.691406 33.183594 43.160156 33.695312 42.914062 34.851562 C 42.621094 36.238281 42.675781 37.859375 42.679688 37.929688 C 42.6875 38.136719 42.796875 38.328125 42.96875 38.441406 C 43.074219 38.511719 43.199219 38.546875 43.320312 38.546875 C 43.402344 38.546875 43.480469 38.535156 43.554688 38.503906 C 43.6875 38.453125 43.960938 38.339844 44.296875 38.175781 C 44.613281 40.28125 45.289062 42.207031 46.277344 43.746094 C 46.324219 43.820312 46.339844 43.921875 46.332031 44.023438 C 45.617188 44.800781 44.910156 45.816406 44.507812 46.84375 C 44.328125 47.296875 44.476562 47.789062 44.871094 48.074219 C 45.054688 48.207031 45.265625 48.269531 45.472656 48.269531 C 45.710938 48.269531 45.945312 48.1875 46.140625 48.023438 C 46.871094 47.40625 47.800781 47.089844 48.984375 47.0625 C 50.167969 47.039062 51.128906 47.3125 51.875 47.886719 C 52.253906 48.179688 52.761719 48.175781 53.140625 47.882812 C 53.523438 47.582031 53.648438 47.085938 53.453125 46.640625 C 53.015625 45.640625 52.3125 44.691406 51.597656 43.964844 C 51.582031 43.804688 51.59375 43.644531 51.664062 43.519531 C 52.304688 42.402344 52.78125 41.101562 53.089844 39.699219 Z M 54.816406 37.355469 C 54.445312 37.632812 53.910156 37.972656 53.339844 38.234375 C 53.449219 37.375 53.503906 36.492188 53.488281 35.585938 C 53.46875 34.707031 53.386719 33.851562 53.25 33.019531 C 54.269531 34.667969 54.683594 36.585938 54.816406 37.355469 Z M 31.027344 37.355469 C 30.65625 37.632812 30.125 37.972656 29.550781 38.234375 C 29.660156 37.375 29.714844 36.492188 29.699219 35.585938 C 29.683594 34.707031 29.597656 33.851562 29.460938 33.019531 C 30.480469 34.667969 30.894531 36.585938 31.027344 37.355469 Z M 20.183594 36.894531 C 20.203125 36.367188 20.257812 35.710938 20.382812 35.117188 C 20.496094 34.589844 20.699219 34.207031 20.9375 34.070312 C 20.984375 34.046875 21.046875 34.019531 21.132812 34.019531 C 21.179688 34.019531 21.234375 34.027344 21.296875 34.050781 C 21.726562 34.195312 22.0625 34.398438 21.847656 35.410156 C 21.746094 35.894531 20.972656 36.46875 20.183594 36.894531 Z M 25.484375 27.140625 C 27.253906 28.957031 28.347656 32.125 28.414062 35.613281 C 28.464844 38.351562 27.878906 40.929688 26.761719 42.878906 C 26.734375 42.925781 26.722656 42.976562 26.699219 43.023438 C 26.585938 42.949219 26.476562 42.878906 26.371094 42.824219 C 26.054688 42.660156 25.667969 42.78125 25.503906 43.097656 C 25.339844 43.410156 25.460938 43.800781 25.777344 43.964844 C 26.425781 44.300781 27.402344 45.285156 28.070312 46.367188 C 27.238281 45.949219 26.269531 45.746094 25.164062 45.777344 C 24.074219 45.804688 23.121094 46.046875 22.308594 46.496094 C 22.9375 45.394531 23.886719 44.363281 24.53125 43.988281 C 24.839844 43.8125 24.945312 43.417969 24.765625 43.113281 C 24.589844 42.804688 24.195312 42.699219 23.886719 42.878906 C 23.792969 42.933594 23.691406 43.007812 23.585938 43.082031 C 22.597656 41.539062 21.960938 39.59375 21.710938 37.460938 C 22.363281 36.992188 22.953125 36.386719 23.105469 35.675781 C 23.480469 33.914062 22.625 33.179688 21.800781 32.867188 C 21.886719 32.3125 21.996094 31.761719 22.140625 31.230469 C 22.597656 29.574219 23.308594 28.171875 24.199219 27.175781 C 24.351562 27.003906 24.566406 26.902344 24.804688 26.886719 C 25.0625 26.867188 25.316406 26.964844 25.484375 27.140625 Z M 42.921875 43.304688 C 42.550781 43.578125 42.019531 43.921875 41.445312 44.183594 C 41.554688 43.324219 41.609375 42.4375 41.59375 41.535156 C 41.574219 40.65625 41.492188 39.796875 41.355469 38.964844 C 42.375 40.617188 42.789062 42.53125 42.921875 43.304688 Z M 32.078125 42.839844 C 32.097656 42.316406 32.152344 41.65625 32.277344 41.066406 C 32.390625 40.535156 32.589844 40.15625 32.832031 40.019531 C 32.878906 39.992188 32.9375 39.964844 33.023438 39.964844 C 33.074219 39.964844 33.128906 39.976562 33.191406 39.996094 C 33.621094 40.144531 33.957031 40.347656 33.742188 41.355469 C 33.640625 41.84375 32.867188 42.414062 32.078125 42.839844 Z M 40.308594 41.558594 C 40.359375 44.296875 39.773438 46.878906 38.65625 48.828125 C 38.628906 48.871094 38.617188 48.925781 38.59375 48.972656 C 38.480469 48.898438 38.367188 48.824219 38.265625 48.769531 C 37.949219 48.605469 37.5625 48.730469 37.398438 49.042969 C 37.234375 49.359375 37.355469 49.746094 37.667969 49.910156 C 38.320312 50.25 39.296875 51.234375 39.964844 52.3125 C 39.132812 51.894531 38.152344 51.695312 37.058594 51.726562 C 35.96875 51.75 35.015625 51.992188 34.203125 52.445312 C 34.832031 51.339844 35.78125 50.3125 36.425781 49.9375 C 36.734375 49.757812 36.839844 49.367188 36.660156 49.058594 C 36.480469 48.75 36.089844 48.644531 35.78125 48.824219 C 35.6875 48.878906 35.585938 48.953125 35.480469 49.027344 C 34.492188 47.488281 33.855469 45.539062 33.605469 43.40625 C 34.257812 42.9375 34.847656 42.335938 35 41.621094 C 35.375 39.863281 34.515625 39.125 33.695312 38.816406 C 33.78125 38.257812 33.886719 37.710938 34.035156 37.175781 C 34.492188 35.523438 35.203125 34.121094 36.09375 33.121094 C 36.246094 32.953125 36.460938 32.851562 36.699219 32.835938 C 36.960938 32.816406 37.210938 32.910156 37.378906 33.085938 C 39.148438 34.90625 40.242188 38.070312 40.308594 41.558594 Z M 43.972656 36.894531 C 43.992188 36.367188 44.046875 35.710938 44.171875 35.117188 C 44.28125 34.589844 44.484375 34.207031 44.726562 34.070312 C 44.769531 34.046875 44.832031 34.019531 44.917969 34.019531 C 44.96875 34.019531 45.023438 34.027344 45.085938 34.050781 C 45.515625 34.195312 45.851562 34.398438 45.636719 35.410156 C 45.535156 35.894531 44.757812 36.46875 43.972656 36.894531 Z M 49.5625 43.964844 C 50.214844 44.300781 51.191406 45.285156 51.859375 46.367188 C 51.023438 45.949219 50.054688 45.746094 48.949219 45.777344 C 47.863281 45.804688 46.90625 46.046875 46.097656 46.496094 C 46.726562 45.394531 47.675781 44.363281 48.320312 43.988281 C 48.628906 43.8125 48.734375 43.417969 48.554688 43.113281 C 48.375 42.804688 47.984375 42.699219 47.675781 42.878906 C 47.582031 42.933594 47.476562 43.007812 47.375 43.082031 C 46.386719 41.539062 45.75 39.59375 45.5 37.460938 C 46.148438 36.992188 46.742188 36.386719 46.894531 35.675781 C 47.265625 33.914062 46.410156 33.179688 45.585938 32.867188 C 45.675781 32.3125 45.78125 31.761719 45.929688 31.230469 C 46.382812 29.574219 47.097656 28.171875 47.988281 27.175781 C 48.140625 27.003906 48.355469 26.902344 48.59375 26.886719 C 48.859375 26.871094 49.101562 26.964844 49.273438 27.140625 C 51.042969 28.957031 52.136719 32.125 52.203125 35.613281 C 52.253906 38.351562 51.667969 40.929688 50.550781 42.878906 C 50.523438 42.925781 50.511719 42.976562 50.488281 43.023438 C 50.375 42.949219 50.261719 42.878906 50.15625 42.824219 C 49.84375 42.660156 49.457031 42.78125 49.289062 43.097656 C 49.125 43.410156 49.25 43.800781 49.5625 43.964844 Z M 49.5625 43.964844 " fill-opacity="1" fill-rule="nonzero"/></g><path fill="#163694" d="M 24.128906 31.363281 C 24.128906 31.71875 24.414062 32.007812 24.769531 32.007812 C 25.125 32.007812 25.414062 31.71875 25.414062 31.363281 C 25.414062 31.230469 25.492188 31.132812 25.5625 31.132812 C 25.632812 31.132812 25.710938 31.230469 25.710938 31.363281 C 25.710938 31.71875 26 32.007812 26.355469 32.007812 C 26.707031 32.007812 26.996094 31.71875 26.996094 31.363281 C 26.996094 30.527344 26.351562 29.847656 25.5625 29.847656 C 24.769531 29.847656 24.128906 30.527344 24.128906 31.363281 Z M 24.128906 31.363281 " fill-opacity="1" fill-rule="nonzero"/><path fill="#163694" d="M 36.019531 37.3125 C 36.019531 37.664062 36.308594 37.953125 36.664062 37.953125 C 37.019531 37.953125 37.304688 37.664062 37.304688 37.3125 C 37.304688 37.179688 37.386719 37.078125 37.457031 37.078125 C 37.527344 37.078125 37.605469 37.179688 37.605469 37.3125 C 37.605469 37.664062 37.894531 37.953125 38.246094 37.953125 C 38.601562 37.953125 38.890625 37.664062 38.890625 37.3125 C 38.890625 36.472656 38.246094 35.792969 37.457031 35.792969 C 36.664062 35.792969 36.019531 36.472656 36.019531 37.3125 Z M 36.019531 37.3125 " fill-opacity="1" fill-rule="nonzero"/><path fill="#163694" d="M 49.351562 31.132812 C 49.421875 31.132812 49.5 31.230469 49.5 31.363281 C 49.5 31.71875 49.785156 32.007812 50.140625 32.007812 C 50.496094 32.007812 50.785156 31.71875 50.785156 31.363281 C 50.785156 30.527344 50.140625 29.847656 49.351562 29.847656 C 48.558594 29.847656 47.914062 30.527344 47.914062 31.363281 C 47.914062 31.71875 48.203125 32.007812 48.558594 32.007812 C 48.914062 32.007812 49.199219 31.71875 49.199219 31.363281 C 49.199219 31.230469 49.277344 31.132812 49.351562 31.132812 Z M 49.351562 31.132812 " fill-opacity="1" fill-rule="nonzero"/></svg>