<svg xmlns="http://www.w3.org/2000/svg" xmlns:xlink="http://www.w3.org/1999/xlink" width="100" zoomAndPan="magnify" viewBox="0 0 75 74.999997" height="100" preserveAspectRatio="xMidYMid meet" version="1.0"><defs><clipPath id="d9984e4cc0"><path d="M 18.328125 18.6875 L 42 18.6875 L 42 40 L 18.328125 40 Z M 18.328125 18.6875 " clip-rule="nonzero"/></clipPath><clipPath id="e0ef78a053"><path d="M 33 35 L 56.578125 35 L 56.578125 56.1875 L 33 56.1875 Z M 33 35 " clip-rule="nonzero"/></clipPath></defs><g clip-path="url(#d9984e4cc0)"><path fill="#163694" d="M 39.800781 28.925781 C 39.480469 31.410156 37.371094 33.640625 33.535156 35.550781 L 33.472656 35.585938 L 33.414062 35.632812 C 33.28125 35.746094 33.152344 35.851562 33.027344 35.953125 C 32.980469 35.820312 32.929688 35.691406 32.871094 35.566406 C 32.886719 35.554688 32.902344 35.542969 32.917969 35.53125 C 35.972656 32.707031 37.402344 29.425781 38.058594 27.171875 C 38.363281 26.140625 38.535156 25.230469 38.632812 24.515625 C 39.367188 25.671875 40.023438 27.226562 39.800781 28.925781 Z M 28.066406 37.761719 L 28.035156 37.707031 L 25.53125 35.628906 L 25.484375 35.59375 C 25.425781 35.550781 19.632812 31.597656 19.566406 27.339844 C 19.542969 25.714844 20.382812 24.210938 22.070312 22.871094 C 23.0625 24.027344 25.910156 27.75 27.324219 33.6875 C 27.257812 33.714844 27.214844 33.734375 27.207031 33.738281 C 26.902344 33.875 26.769531 34.234375 26.90625 34.535156 C 27.042969 34.835938 27.402344 34.972656 27.703125 34.832031 C 27.71875 34.828125 29.269531 34.15625 30.507812 34.699219 C 31.164062 34.988281 31.644531 35.585938 31.9375 36.476562 C 31.964844 36.558594 32.003906 36.628906 32.058594 36.691406 C 30.503906 37.785156 29.5 38.046875 28.898438 38.046875 C 28.34375 38.046875 28.109375 37.816406 28.066406 37.761719 Z M 28.484375 33.363281 C 27.03125 27.296875 24.1875 23.492188 23.054688 22.164062 C 24.097656 21.46875 25.152344 20.933594 26.210938 20.554688 C 26.90625 21.914062 28.96875 26.496094 29.097656 33.292969 C 28.882812 33.304688 28.675781 33.332031 28.484375 33.363281 Z M 31.929688 20.089844 C 31.984375 20.785156 32.15625 23.125 32.105469 25.738281 C 32.03125 29.402344 31.5625 32.066406 30.746094 33.5 C 30.597656 33.449219 30.449219 33.40625 30.300781 33.375 C 30.230469 29.011719 29.382812 25.550781 28.664062 23.382812 C 28.183594 21.917969 27.699219 20.84375 27.382812 20.207031 C 28.230469 20 29.078125 19.894531 29.929688 19.894531 C 30.636719 19.894531 31.304688 19.96875 31.929688 20.089844 Z M 36.980469 22.507812 C 36.988281 22.515625 37.222656 22.726562 37.558594 23.101562 C 37.507812 24.273438 37.019531 30.011719 32.230469 34.523438 C 32.09375 34.363281 31.949219 34.222656 31.789062 34.089844 C 33.75 30.613281 33.332031 22.726562 33.160156 20.40625 C 35.507812 21.160156 36.945312 22.476562 36.964844 22.496094 Z M 37.78125 21.609375 C 37.570312 21.417969 34.554688 18.691406 29.929688 18.691406 C 27.179688 18.691406 24.445312 19.660156 21.796875 21.570312 C 19.484375 23.234375 18.328125 25.183594 18.363281 27.363281 C 18.441406 32.140625 24.28125 36.226562 24.785156 36.570312 L 27.125 38.515625 C 27.308594 38.738281 27.839844 39.25 28.898438 39.25 C 30.289062 39.25 32.050781 38.355469 34.136719 36.597656 C 38.3125 34.5 40.617188 31.972656 40.996094 29.082031 C 41.523438 25.015625 38.015625 21.820312 37.78125 21.609375 " fill-opacity="1" fill-rule="nonzero"/></g><g clip-path="url(#e0ef78a053)"><path fill="#163694" d="M 54.953125 45.976562 C 54.628906 48.457031 52.519531 50.6875 48.683594 52.601562 L 48.621094 52.632812 L 48.566406 52.679688 C 48.433594 52.792969 48.304688 52.898438 48.175781 53 C 48.128906 52.867188 48.078125 52.738281 48.023438 52.613281 C 48.035156 52.601562 48.050781 52.589844 48.066406 52.578125 C 51.125 49.757812 52.550781 46.476562 53.210938 44.21875 C 53.511719 43.1875 53.683594 42.277344 53.78125 41.5625 C 54.515625 42.71875 55.171875 44.277344 54.953125 45.976562 Z M 43.214844 54.8125 L 43.1875 54.757812 L 40.679688 52.675781 L 40.632812 52.640625 C 40.574219 52.601562 34.785156 48.648438 34.714844 44.390625 C 34.691406 42.761719 35.535156 41.257812 37.21875 39.917969 C 38.210938 41.078125 41.0625 44.800781 42.476562 50.734375 C 42.40625 50.761719 42.367188 50.78125 42.355469 50.785156 C 42.050781 50.925781 41.917969 51.28125 42.054688 51.582031 C 42.191406 51.886719 42.550781 52.019531 42.851562 51.882812 C 42.867188 51.875 44.417969 51.203125 45.65625 51.746094 C 46.3125 52.035156 46.792969 52.632812 47.085938 53.527344 C 47.113281 53.605469 47.15625 53.679688 47.207031 53.738281 C 45.65625 54.832031 44.652344 55.09375 44.046875 55.09375 C 43.492188 55.09375 43.257812 54.863281 43.214844 54.8125 Z M 43.632812 50.414062 C 42.183594 44.347656 39.335938 40.542969 38.203125 39.210938 C 39.246094 38.515625 40.300781 37.980469 41.359375 37.605469 C 42.054688 38.960938 44.117188 43.542969 44.246094 50.339844 C 44.03125 50.355469 43.824219 50.378906 43.632812 50.414062 Z M 47.078125 37.140625 C 47.132812 37.832031 47.304688 40.175781 47.253906 42.789062 C 47.183594 46.453125 46.714844 49.117188 45.894531 50.550781 C 45.746094 50.496094 45.597656 50.457031 45.453125 50.425781 C 45.378906 46.0625 44.53125 42.597656 43.816406 40.429688 C 43.332031 38.964844 42.847656 37.894531 42.53125 37.253906 C 43.378906 37.046875 44.226562 36.945312 45.078125 36.945312 C 45.785156 36.945312 46.453125 37.015625 47.078125 37.140625 Z M 52.128906 39.554688 C 52.136719 39.5625 52.375 39.773438 52.707031 40.148438 C 52.660156 41.320312 52.167969 47.058594 47.378906 51.574219 C 47.242188 51.414062 47.097656 51.269531 46.941406 51.140625 C 48.898438 47.664062 48.480469 39.777344 48.308594 37.457031 C 50.660156 38.207031 52.09375 39.523438 52.113281 39.542969 Z M 52.929688 38.660156 C 52.71875 38.464844 49.703125 35.742188 45.078125 35.742188 C 42.328125 35.742188 39.59375 36.707031 36.945312 38.617188 C 34.632812 40.285156 33.480469 42.234375 33.515625 44.410156 C 33.589844 49.1875 39.429688 53.277344 39.933594 53.621094 L 42.273438 55.5625 C 42.457031 55.789062 42.992188 56.296875 44.046875 56.296875 C 45.4375 56.296875 47.203125 55.402344 49.289062 53.644531 C 53.460938 51.546875 55.769531 49.019531 56.144531 46.128906 C 56.671875 42.0625 53.164062 38.867188 52.929688 38.660156 " fill-opacity="1" fill-rule="nonzero"/></g></svg>