<svg xmlns="http://www.w3.org/2000/svg" xmlns:xlink="http://www.w3.org/1999/xlink" width="100" zoomAndPan="magnify" viewBox="0 0 75 74.999997" height="100" preserveAspectRatio="xMidYMid meet" version="1.0"><defs><clipPath id="7b80061e87"><path d="M 18.410156 18.746094 L 56.660156 18.746094 L 56.660156 56.246094 L 18.410156 56.246094 Z M 18.410156 18.746094 " clip-rule="nonzero"/></clipPath></defs><g clip-path="url(#7b80061e87)"><path fill="#163694" d="M 39.195312 26.082031 C 39.195312 25.796875 39.425781 25.5625 39.714844 25.5625 L 40.160156 25.5625 C 40.445312 25.5625 40.679688 25.796875 40.679688 26.082031 C 40.679688 26.367188 40.445312 26.601562 40.160156 26.601562 L 39.714844 26.601562 C 39.425781 26.601562 39.195312 26.367188 39.195312 26.082031 Z M 55.246094 35.945312 L 53.390625 37.238281 L 53.390625 39.304688 C 53.390625 40.199219 52.613281 40.925781 51.660156 40.925781 C 51.109375 40.925781 50.753906 40.65625 50.4375 40.417969 C 50.054688 40.125 49.695312 39.851562 48.835938 39.851562 C 47.976562 39.851562 47.613281 40.125 47.230469 40.417969 C 46.914062 40.65625 46.558594 40.925781 46.007812 40.925781 C 45.054688 40.925781 44.277344 40.199219 44.277344 39.304688 L 44.277344 37.238281 L 42.421875 35.945312 C 41.4375 35.265625 41.09375 33.980469 41.601562 32.894531 C 42.90625 30.097656 45.746094 28.285156 48.835938 28.285156 C 51.925781 28.285156 54.761719 30.097656 56.070312 32.894531 C 56.574219 33.980469 56.230469 35.265625 55.246094 35.945312 Z M 52.351562 37.488281 L 50.808594 37.488281 C 50.808594 37.488281 50.808594 37.488281 50.804688 37.488281 L 46.863281 37.488281 C 46.859375 37.488281 46.859375 37.488281 46.859375 37.488281 L 45.316406 37.488281 L 45.316406 39.304688 C 45.316406 39.625 45.625 39.890625 46.007812 39.890625 C 46.199219 39.890625 46.335938 39.792969 46.605469 39.589844 C 47.035156 39.261719 47.628906 38.8125 48.835938 38.8125 C 50.042969 38.8125 50.632812 39.261719 51.066406 39.589844 C 51.332031 39.792969 51.46875 39.890625 51.660156 39.890625 C 52.042969 39.890625 52.351562 39.625 52.351562 39.304688 Z M 55.128906 33.332031 C 53.992188 30.898438 51.523438 29.324219 48.835938 29.324219 C 46.148438 29.324219 43.675781 30.898438 42.539062 33.335938 C 42.242188 33.972656 42.4375 34.695312 43.015625 35.09375 L 44.960938 36.449219 L 46.035156 36.449219 L 44.898438 34.085938 C 44.773438 33.828125 44.882812 33.519531 45.140625 33.394531 C 45.398438 33.269531 45.707031 33.378906 45.832031 33.636719 L 47.1875 36.449219 L 48.316406 36.449219 L 48.316406 33.207031 C 48.316406 32.917969 48.550781 32.6875 48.835938 32.6875 C 49.121094 32.6875 49.351562 32.917969 49.351562 33.207031 L 49.351562 36.449219 L 50.480469 36.449219 L 51.835938 33.636719 C 51.960938 33.378906 52.273438 33.269531 52.53125 33.394531 C 52.789062 33.519531 52.894531 33.828125 52.769531 34.085938 L 51.632812 36.449219 L 52.707031 36.449219 L 54.65625 35.09375 C 55.222656 34.703125 55.421875 33.960938 55.128906 33.332031 Z M 55.226562 49.539062 C 55.226562 49.695312 55.226562 50.117188 54.007812 51.230469 C 53.210938 51.957031 52.164062 52.71875 51.054688 53.382812 C 48.863281 54.6875 45.398438 56.246094 41.320312 56.246094 C 36.40625 56.246094 31.886719 55.023438 29.402344 53.039062 L 24.644531 54.644531 C 24.453125 54.710938 24.261719 54.742188 24.066406 54.742188 C 23.675781 54.742188 23.28125 54.613281 22.925781 54.355469 C 22.050781 53.726562 21.4375 52.382812 21.4375 51.085938 L 21.4375 47.992188 C 21.4375 46.695312 22.046875 45.351562 22.925781 44.722656 C 23.457031 44.339844 24.066406 44.238281 24.644531 44.429688 L 29.402344 46.039062 C 30.316406 45.308594 31.507812 44.683594 32.894531 44.179688 C 33.074219 43.140625 33.425781 42.308594 33.933594 41.707031 C 33.792969 41.589844 33.660156 41.46875 33.535156 41.335938 L 27.242188 41.335938 C 22.375 41.335938 18.414062 37.375 18.414062 32.507812 C 18.414062 27.640625 22.375 23.683594 27.242188 23.683594 C 27.527344 23.683594 27.757812 23.914062 27.757812 24.199219 C 27.757812 24.488281 27.527344 24.71875 27.242188 24.71875 C 25.796875 24.71875 24.445312 25.113281 23.285156 25.800781 L 28.25 30.765625 C 28.699219 30.476562 29.261719 30.300781 29.929688 30.300781 L 31.558594 30.300781 L 31.558594 24.71875 L 28.949219 24.71875 C 28.664062 24.71875 28.429688 24.488281 28.429688 24.199219 C 28.429688 23.914062 28.664062 23.683594 28.949219 23.683594 L 43.679688 23.683594 C 43.96875 23.683594 44.199219 23.914062 44.199219 24.199219 L 44.199219 24.523438 C 44.773438 24.152344 44.996094 23.480469 44.941406 22.898438 C 44.871094 22.175781 44.378906 21.402344 43.199219 21.402344 L 34.746094 21.402344 C 34.460938 21.402344 34.226562 21.171875 34.226562 20.882812 C 34.226562 20.597656 34.460938 20.367188 34.746094 20.367188 L 43.199219 20.367188 C 44.953125 20.367188 45.855469 21.589844 45.972656 22.800781 C 46.078125 23.941406 45.492188 25.230469 44.175781 25.675781 C 44.144531 26.046875 44.078125 26.410156 43.980469 26.757812 C 45.101562 26.574219 45.84375 26.003906 46.292969 25.511719 C 46.980469 24.75 47.378906 23.738281 47.378906 22.738281 C 47.378906 21.308594 46.527344 19.777344 44.144531 19.777344 L 32.5 19.777344 C 32.214844 19.777344 31.984375 19.546875 31.984375 19.261719 C 31.984375 18.976562 32.214844 18.742188 32.5 18.742188 L 44.144531 18.742188 C 45.484375 18.742188 46.597656 19.164062 47.363281 19.960938 C 48.039062 20.667969 48.414062 21.65625 48.414062 22.738281 C 48.414062 23.996094 47.921875 25.257812 47.0625 26.207031 C 46.167969 27.1875 44.941406 27.761719 43.574219 27.84375 C 42.566406 29.910156 40.445312 31.339844 37.992188 31.339844 L 37.84375 31.339844 L 37.84375 32.691406 C 37.84375 32.976562 37.613281 33.210938 37.324219 33.210938 C 37.039062 33.210938 36.808594 32.976562 36.808594 32.691406 L 36.808594 31.339844 L 35.976562 31.339844 L 35.976562 32.691406 C 35.976562 32.976562 35.742188 33.210938 35.457031 33.210938 C 35.171875 33.210938 34.9375 32.976562 34.9375 32.691406 L 34.9375 31.339844 L 34.105469 31.339844 L 34.105469 32.691406 C 34.105469 32.976562 33.875 33.210938 33.589844 33.210938 C 33.300781 33.210938 33.070312 32.976562 33.070312 32.691406 L 33.070312 31.339844 L 29.929688 31.339844 C 29.347656 31.339844 28.902344 31.523438 28.585938 31.808594 C 28.578125 31.8125 28.578125 31.816406 28.570312 31.824219 C 28.558594 31.835938 28.546875 31.847656 28.53125 31.859375 C 28.144531 32.242188 27.960938 32.785156 27.957031 33.324219 C 27.957031 33.328125 27.957031 33.328125 27.957031 33.332031 C 27.957031 33.332031 27.957031 33.335938 27.957031 33.335938 C 27.960938 33.878906 28.144531 34.417969 28.53125 34.800781 C 28.542969 34.8125 28.558594 34.824219 28.570312 34.839844 C 28.578125 34.84375 28.582031 34.847656 28.585938 34.851562 C 28.902344 35.140625 29.347656 35.320312 29.929688 35.320312 L 30.027344 35.320312 C 30.027344 35.320312 30.03125 35.320312 30.03125 35.320312 C 30.03125 35.320312 30.03125 35.320312 30.035156 35.320312 L 33.53125 35.320312 C 34.332031 34.476562 35.460938 33.945312 36.714844 33.945312 L 40.148438 33.945312 C 40.335938 33.945312 40.503906 34.042969 40.597656 34.203125 C 40.691406 34.367188 40.691406 34.5625 40.597656 34.722656 L 38.515625 38.328125 L 39.457031 39.960938 C 41.023438 39.902344 42.488281 40.105469 43.203125 40.65625 C 43.816406 41.128906 44.335938 41.984375 44.746094 43.191406 C 47.328125 43.730469 49.507812 44.773438 51.054688 45.695312 C 52.164062 46.359375 53.210938 47.121094 54.007812 47.847656 C 55.226562 48.960938 55.226562 49.378906 55.226562 49.539062 Z M 32.59375 30.300781 L 37.992188 30.300781 C 40.121094 30.300781 41.953125 29.007812 42.746094 27.167969 C 42.75 27.148438 42.757812 27.132812 42.765625 27.117188 C 42.933594 26.714844 43.054688 26.285156 43.117188 25.835938 C 43.148438 25.605469 43.164062 25.371094 43.164062 25.132812 L 43.164062 24.71875 L 32.59375 24.71875 Z M 19.457031 32.8125 L 26.964844 32.8125 C 27.039062 32.335938 27.21875 31.875 27.5 31.484375 L 22.417969 26.398438 C 20.609375 27.824219 19.449219 30.035156 19.449219 32.507812 C 19.449219 32.609375 19.453125 32.710938 19.457031 32.8125 Z M 23.398438 39.28125 L 27.5 35.175781 C 27.21875 34.785156 27.039062 34.324219 26.964844 33.847656 L 19.566406 33.847656 C 19.972656 36.175781 21.414062 38.152344 23.398438 39.28125 Z M 29.511719 36.332031 C 29.023438 36.277344 28.601562 36.121094 28.25 35.894531 L 24.386719 39.757812 C 25.269531 40.105469 26.234375 40.300781 27.242188 40.300781 L 29.511719 40.300781 Z M 28.972656 46.988281 L 24.3125 45.414062 C 24.230469 45.386719 24.148438 45.371094 24.0625 45.371094 C 23.886719 45.371094 23.710938 45.433594 23.527344 45.566406 C 22.925781 45.996094 22.472656 47.042969 22.472656 47.992188 L 22.472656 51.085938 C 22.472656 52.039062 22.925781 53.082031 23.527344 53.511719 C 23.792969 53.703125 24.050781 53.753906 24.3125 53.664062 L 28.972656 52.089844 L 28.972656 51.550781 L 26.8125 52.292969 C 26.757812 52.3125 26.699219 52.320312 26.644531 52.320312 C 26.429688 52.320312 26.230469 52.183594 26.15625 51.96875 C 26.0625 51.699219 26.207031 51.40625 26.476562 51.3125 L 28.972656 50.457031 L 28.972656 50.058594 L 26.042969 50.058594 C 25.757812 50.058594 25.523438 49.824219 25.523438 49.539062 C 25.523438 49.253906 25.757812 49.019531 26.042969 49.019531 L 28.972656 49.019531 L 28.972656 48.621094 L 26.476562 47.765625 C 26.207031 47.671875 26.0625 47.378906 26.15625 47.105469 C 26.25 46.835938 26.542969 46.691406 26.8125 46.785156 L 28.972656 47.527344 Z M 35.28125 41.914062 C 35.199219 41.957031 35.121094 42.007812 35.050781 42.066406 C 35.050781 42.066406 35.050781 42.066406 35.046875 42.066406 C 34.515625 42.472656 34.210938 43.144531 34.035156 43.808594 C 36.183594 43.183594 38.695312 42.832031 41.320312 42.832031 C 42.09375 42.832031 42.839844 42.886719 43.5625 42.988281 C 43.265625 42.273438 42.921875 41.75 42.566406 41.476562 C 41.589844 40.71875 37.214844 40.847656 35.28125 41.914062 Z M 32.808594 40.300781 C 32.503906 39.695312 32.332031 39.019531 32.332031 38.328125 C 32.332031 37.621094 32.503906 36.949219 32.804688 36.359375 L 30.550781 36.359375 L 30.550781 40.300781 Z M 33.410156 37.808594 L 37.617188 37.808594 L 39.25 34.980469 L 36.714844 34.980469 C 35.703125 34.980469 34.792969 35.4375 34.179688 36.148438 C 34.164062 36.171875 34.148438 36.191406 34.128906 36.207031 C 33.757812 36.65625 33.503906 37.207031 33.410156 37.808594 Z M 34.746094 41.027344 C 34.757812 41.019531 34.769531 41.011719 34.78125 41.003906 C 35.621094 40.542969 36.941406 40.203125 38.3125 40.046875 L 37.617188 38.84375 L 33.414062 38.84375 C 33.550781 39.710938 34.03125 40.5 34.746094 41.027344 Z M 54.164062 49.539062 C 53.902344 49.101562 52.578125 47.773438 50.277344 46.441406 C 48.804688 45.589844 46.71875 44.621094 44.257812 44.152344 C 44.253906 44.152344 44.246094 44.152344 44.242188 44.148438 C 43.316406 43.972656 42.339844 43.867188 41.320312 43.867188 C 38.472656 43.867188 35.78125 44.289062 33.585938 45.027344 C 33.550781 45.046875 33.507812 45.0625 33.464844 45.070312 C 32.074219 45.550781 30.890625 46.164062 30.007812 46.882812 L 30.007812 52.195312 C 32.300781 54.058594 36.601562 55.210938 41.320312 55.210938 C 43.398438 55.210938 45.3125 54.773438 46.949219 54.1875 C 46.445312 52.695312 46.191406 51.136719 46.191406 49.539062 C 46.191406 48.425781 46.316406 47.316406 46.566406 46.242188 C 46.632812 45.964844 46.910156 45.792969 47.1875 45.855469 C 47.46875 45.921875 47.640625 46.199219 47.574219 46.476562 C 47.34375 47.476562 47.226562 48.503906 47.226562 49.539062 C 47.226562 51.007812 47.457031 52.441406 47.917969 53.808594 C 48.816406 53.433594 49.609375 53.023438 50.277344 52.636719 C 52.578125 51.304688 53.902344 49.972656 54.164062 49.539062 Z M 50.035156 47.9375 L 49.917969 47.9375 C 49.632812 47.9375 49.398438 48.167969 49.398438 48.453125 C 49.398438 48.742188 49.632812 48.972656 49.917969 48.972656 L 50.035156 48.972656 C 50.324219 48.972656 50.554688 48.742188 50.554688 48.453125 C 50.554688 48.167969 50.324219 47.9375 50.035156 47.9375 Z M 42.378906 46.621094 C 42.164062 46.433594 41.839844 46.449219 41.648438 46.664062 C 40.960938 47.433594 40.613281 48.261719 40.613281 49.125 C 40.613281 49.984375 40.960938 50.8125 41.648438 51.582031 C 41.75 51.695312 41.890625 51.753906 42.035156 51.753906 C 42.15625 51.753906 42.28125 51.710938 42.378906 51.625 C 42.59375 51.433594 42.613281 51.105469 42.421875 50.894531 C 41.910156 50.320312 41.652344 49.722656 41.652344 49.125 C 41.652344 48.523438 41.910156 47.925781 42.421875 47.355469 C 42.613281 47.140625 42.59375 46.8125 42.378906 46.621094 Z M 40.125 46.621094 C 39.914062 46.433594 39.585938 46.449219 39.394531 46.664062 C 38.707031 47.433594 38.359375 48.261719 38.359375 49.125 C 38.359375 49.984375 38.707031 50.8125 39.394531 51.582031 C 39.496094 51.695312 39.640625 51.753906 39.78125 51.753906 C 39.90625 51.753906 40.027344 51.710938 40.125 51.625 C 40.339844 51.433594 40.359375 51.105469 40.167969 50.894531 C 39.65625 50.316406 39.394531 49.722656 39.394531 49.125 C 39.394531 48.523438 39.65625 47.929688 40.167969 47.355469 C 40.359375 47.140625 40.339844 46.8125 40.125 46.621094 Z M 37.875 46.621094 C 37.660156 46.433594 37.332031 46.449219 37.144531 46.664062 C 36.457031 47.433594 36.105469 48.261719 36.105469 49.125 C 36.105469 49.984375 36.457031 50.8125 37.144531 51.582031 C 37.246094 51.695312 37.386719 51.753906 37.53125 51.753906 C 37.652344 51.753906 37.773438 51.710938 37.875 51.625 C 38.085938 51.433594 38.105469 51.105469 37.917969 50.894531 C 37.402344 50.316406 37.144531 49.722656 37.144531 49.125 C 37.144531 48.523438 37.402344 47.929688 37.917969 47.355469 C 38.105469 47.140625 38.085938 46.8125 37.875 46.621094 Z M 37.875 46.621094 " fill-opacity="1" fill-rule="nonzero"/></g></svg>