<svg xmlns="http://www.w3.org/2000/svg" xmlns:xlink="http://www.w3.org/1999/xlink" width="100" zoomAndPan="magnify" viewBox="0 0 75 74.999997" height="100" preserveAspectRatio="xMidYMid meet" version="1.0"><defs><clipPath id="29534806d3"><path d="M 15.042969 14.917969 L 60 14.917969 L 60 59.917969 L 15.042969 59.917969 Z M 15.042969 14.917969 " clip-rule="nonzero"/></clipPath></defs><g clip-path="url(#29534806d3)"><path fill="#16e10b" d="M 53.40625 21.476562 C 49.183594 17.25 43.570312 14.921875 37.589844 14.921875 C 25.265625 14.921875 15.234375 24.949219 15.230469 37.277344 C 15.226562 41.21875 16.257812 45.066406 18.214844 48.457031 L 15.042969 60.042969 L 26.894531 56.933594 C 30.160156 58.714844 33.835938 59.65625 37.578125 59.65625 L 37.589844 59.65625 C 49.910156 59.65625 59.945312 49.625 59.949219 37.296875 C 59.949219 31.320312 57.625 25.707031 53.40625 21.480469 Z M 37.589844 55.878906 L 37.582031 55.878906 C 34.246094 55.878906 30.976562 54.980469 28.121094 53.289062 L 27.445312 52.886719 L 20.410156 54.730469 L 22.285156 47.871094 L 21.84375 47.167969 C 19.984375 44.210938 19 40.789062 19.003906 37.28125 C 19.007812 27.035156 27.34375 18.695312 37.597656 18.695312 C 42.558594 18.699219 47.226562 20.632812 50.734375 24.148438 C 54.242188 27.660156 56.175781 32.328125 56.171875 37.292969 C 56.167969 47.542969 47.832031 55.878906 37.589844 55.878906 Z M 47.78125 41.960938 C 47.222656 41.683594 44.476562 40.332031 43.964844 40.144531 C 43.453125 39.957031 43.082031 39.863281 42.707031 40.425781 C 42.335938 40.984375 41.265625 42.242188 40.9375 42.613281 C 40.613281 42.988281 40.289062 43.035156 39.730469 42.753906 C 39.171875 42.472656 37.371094 41.882812 35.234375 39.980469 C 33.574219 38.5 32.453125 36.671875 32.128906 36.109375 C 31.800781 35.550781 32.09375 35.25 32.371094 34.972656 C 32.621094 34.71875 32.929688 34.320312 33.210938 33.992188 C 33.492188 33.667969 33.582031 33.433594 33.769531 33.0625 C 33.957031 32.6875 33.863281 32.363281 33.722656 32.082031 C 33.582031 31.800781 32.464844 29.050781 32 27.933594 C 31.546875 26.84375 31.085938 26.992188 30.742188 26.972656 C 30.417969 26.957031 30.046875 26.957031 29.671875 26.957031 C 29.300781 26.957031 28.695312 27.09375 28.183594 27.652344 C 27.667969 28.214844 26.226562 29.566406 26.226562 32.316406 C 26.226562 35.0625 28.226562 37.722656 28.507812 38.09375 C 28.789062 38.46875 32.449219 44.109375 38.050781 46.53125 C 39.382812 47.105469 40.425781 47.449219 41.238281 47.707031 C 42.574219 48.132812 43.792969 48.074219 44.757812 47.929688 C 45.828125 47.769531 48.0625 46.578125 48.527344 45.273438 C 48.992188 43.96875 48.992188 42.847656 48.851562 42.617188 C 48.714844 42.382812 48.339844 42.242188 47.78125 41.964844 Z M 47.78125 41.960938 " fill-opacity="1" fill-rule="evenodd"/></g></svg>